  0
SECTION
  2
HEADER
  9
$ACADVER
  1
AC1027
  9
$ACADMAINTVER
 70
105
  9
$DWGCODEPAGE
  3
ANSI_1252
  9
$LASTSAVEDBY
  1
ezdxf
  9
$REQUIREDVERSIONS
160
0
  9
$INSBASE
 10
0.0
 20
0.0
 30
0.0
  9
$EXTMIN
 10
1e+20
 20
1e+20
 30
1e+20
  9
$EXTMAX
 10
-1e+20
 20
-1e+20
 30
-1e+20
  9
$LIMMIN
 10
0.0
 20
0.0
  9
$LIMMAX
 10
420.0
 20
297.0
  9
$ORTHOMODE
 70
0
  9
$REGENMODE
 70
1
  9
$FILLMODE
 70
1
  9
$QTEXTMODE
 70
0
  9
$MIRRTEXT
 70
1
  9
$LTSCALE
 40
1.0
  9
$ATTMODE
 70
1
  9
$TEXTSIZE
 40
2.5
  9
$TRACEWID
 40
1.0
  9
$TEXTSTYLE
  7
Standard
  9
$CLAYER
  8
0
  9
$CELTYPE
  6
ByLayer
  9
$CECOLOR
 62
256
  9
$CELTSCALE
 40
1.0
  9
$DISPSILH
 70
0
  9
$DIMSCALE
 40
1.0
  9
$DIMASZ
 40
2.5
  9
$DIMEXO
 40
0.625
  9
$DIMDLI
 40
3.75
  9
$DIMRND
 40
0.0
  9
$DIMDLE
 40
0.0
  9
$DIMEXE
 40
1.25
  9
$DIMTP
 40
0.0
  9
$DIMTM
 40
0.0
  9
$DIMTXT
 40
2.5
  9
$DIMCEN
 40
2.5
  9
$DIMTSZ
 40
0.0
  9
$DIMTOL
 70
0
  9
$DIMLIM
 70
0
  9
$DIMTIH
 70
0
  9
$DIMTOH
 70
0
  9
$DIMSE1
 70
0
  9
$DIMSE2
 70
0
  9
$DIMTAD
 70
1
  9
$DIMZIN
 70
8
  9
$DIMBLK
  1

  9
$DIMASO
 70
1
  9
$DIMSHO
 70
1
  9
$DIMPOST
  1

  9
$DIMAPOST
  1

  9
$DIMALT
 70
0
  9
$DIMALTD
 70
3
  9
$DIMALTF
 40
0.03937007874
  9
$DIMLFAC
 40
1.0
  9
$DIMTOFL
 70
1
  9
$DIMTVP
 40
0.0
  9
$DIMTIX
 70
0
  9
$DIMSOXD
 70
0
  9
$DIMSAH
 70
0
  9
$DIMBLK1
  1

  9
$DIMBLK2
  1

  9
$DIMSTYLE
  2
ISO-25
  9
$DIMCLRD
 70
0
  9
$DIMCLRE
 70
0
  9
$DIMCLRT
 70
0
  9
$DIMTFAC
 40
1.0
  9
$DIMGAP
 40
0.625
  9
$DIMJUST
 70
0
  9
$DIMSD1
 70
0
  9
$DIMSD2
 70
0
  9
$DIMTOLJ
 70
0
  9
$DIMTZIN
 70
8
  9
$DIMALTZ
 70
0
  9
$DIMALTTZ
 70
0
  9
$DIMUPT
 70
0
  9
$DIMDEC
 70
2
  9
$DIMTDEC
 70
2
  9
$DIMALTU
 70
2
  9
$DIMALTTD
 70
3
  9
$DIMTXSTY
  7
Standard
  9
$DIMAUNIT
 70
0
  9
$DIMADEC
 70
0
  9
$DIMALTRND
 40
0.0
  9
$DIMAZIN
 70
0
  9
$DIMDSEP
 70
44
  9
$DIMATFIT
 70
3
  9
$DIMFRAC
 70
0
  9
$DIMLDRBLK
  1

  9
$DIMLUNIT
 70
2
  9
$DIMLWD
 70
-2
  9
$DIMLWE
 70
-2
  9
$DIMTMOVE
 70
0
  9
$DIMFXL
 40
1.0
  9
$DIMFXLON
 70
0
  9
$DIMJOGANG
 40
0.785398163397
  9
$DIMTFILL
 70
0
  9
$DIMTFILLCLR
 70
0
  9
$DIMARCSYM
 70
0
  9
$DIMLTYPE
  6

  9
$DIMLTEX1
  6

  9
$DIMLTEX2
  6

  9
$DIMTXTDIRECTION
 70
0
  9
$LUNITS
 70
2
  9
$LUPREC
 70
4
  9
$SKETCHINC
 40
1.0
  9
$FILLETRAD
 40
10.0
  9
$AUNITS
 70
0
  9
$AUPREC
 70
2
  9
$MENU
  1
.
  9
$ELEVATION
 40
0.0
  9
$PELEVATION
 40
0.0
  9
$THICKNESS
 40
0.0
  9
$LIMCHECK
 70
0
  9
$CHAMFERA
 40
0.0
  9
$CHAMFERB
 40
0.0
  9
$CHAMFERC
 40
0.0
  9
$CHAMFERD
 40
0.0
  9
$SKPOLY
 70
0
  9
$TDCREATE
 40
2460335.538472222
  9
$TDUCREATE
 40
2458532.153996898
  9
$TDUPDATE
 40
2460335.538472222
  9
$TDUUPDATE
 40
2458532.1544311
  9
$TDINDWG
 40
0.0
  9
$TDUSRTIMER
 40
0.0
  9
$USRTIMER
 70
1
  9
$ANGBASE
 50
0.0
  9
$ANGDIR
 70
0
  9
$PDMODE
 70
0
  9
$PDSIZE
 40
0.0
  9
$PLINEWID
 40
0.0
  9
$SPLFRAME
 70
0
  9
$SPLINETYPE
 70
6
  9
$SPLINESEGS
 70
8
  9
$HANDSEED
  5
4F
  9
$SURFTAB1
 70
6
  9
$SURFTAB2
 70
6
  9
$SURFTYPE
 70
6
  9
$SURFU
 70
6
  9
$SURFV
 70
6
  9
$UCSBASE
  2

  9
$UCSNAME
  2

  9
$UCSORG
 10
0.0
 20
0.0
 30
0.0
  9
$UCSXDIR
 10
1.0
 20
0.0
 30
0.0
  9
$UCSYDIR
 10
0.0
 20
1.0
 30
0.0
  9
$UCSORTHOREF
  2

  9
$UCSORTHOVIEW
 70
0
  9
$UCSORGTOP
 10
0.0
 20
0.0
 30
0.0
  9
$UCSORGBOTTOM
 10
0.0
 20
0.0
 30
0.0
  9
$UCSORGLEFT
 10
0.0
 20
0.0
 30
0.0
  9
$UCSORGRIGHT
 10
0.0
 20
0.0
 30
0.0
  9
$UCSORGFRONT
 10
0.0
 20
0.0
 30
0.0
  9
$UCSORGBACK
 10
0.0
 20
0.0
 30
0.0
  9
$PUCSBASE
  2

  9
$PUCSNAME
  2

  9
$PUCSORG
 10
0.0
 20
0.0
 30
0.0
  9
$PUCSXDIR
 10
1.0
 20
0.0
 30
0.0
  9
$PUCSYDIR
 10
0.0
 20
1.0
 30
0.0
  9
$PUCSORTHOREF
  2

  9
$PUCSORTHOVIEW
 70
0
  9
$PUCSORGTOP
 10
0.0
 20
0.0
 30
0.0
  9
$PUCSORGBOTTOM
 10
0.0
 20
0.0
 30
0.0
  9
$PUCSORGLEFT
 10
0.0
 20
0.0
 30
0.0
  9
$PUCSORGRIGHT
 10
0.0
 20
0.0
 30
0.0
  9
$PUCSORGFRONT
 10
0.0
 20
0.0
 30
0.0
  9
$PUCSORGBACK
 10
0.0
 20
0.0
 30
0.0
  9
$USERI1
 70
0
  9
$USERI2
 70
0
  9
$USERI3
 70
0
  9
$USERI4
 70
0
  9
$USERI5
 70
0
  9
$USERR1
 40
0.0
  9
$USERR2
 40
0.0
  9
$USERR3
 40
0.0
  9
$USERR4
 40
0.0
  9
$USERR5
 40
0.0
  9
$WORLDVIEW
 70
1
  9
$SHADEDGE
 70
3
  9
$SHADEDIF
 70
70
  9
$TILEMODE
 70
1
  9
$MAXACTVP
 70
64
  9
$PINSBASE
 10
0.0
 20
0.0
 30
0.0
  9
$PLIMCHECK
 70
0
  9
$PEXTMIN
 10
1e+20
 20
1e+20
 30
1e+20
  9
$PEXTMAX
 10
-1e+20
 20
-1e+20
 30
-1e+20
  9
$PLIMMIN
 10
0.0
 20
0.0
  9
$PLIMMAX
 10
420.0
 20
297.0
  9
$UNITMODE
 70
0
  9
$VISRETAIN
 70
1
  9
$PLINEGEN
 70
0
  9
$PSLTSCALE
 70
1
  9
$TREEDEPTH
 70
3020
  9
$CMLSTYLE
  2
Standard
  9
$CMLJUST
 70
0
  9
$CMLSCALE
 40
20.0
  9
$PROXYGRAPHICS
 70
1
  9
$MEASUREMENT
 70
1
  9
$CELWEIGHT
370
-1
  9
$ENDCAPS
280
0
  9
$JOINSTYLE
280
0
  9
$LWDISPLAY
290
0
  9
$INSUNITS
 70
6
  9
$HYPERLINKBASE
  1

  9
$STYLESHEET
  1

  9
$XEDIT
290
1
  9
$CEPSNTYPE
380
0
  9
$PSTYLEMODE
290
1
  9
$FINGERPRINTGUID
  2
{7866E110-7679-40EA-A141-54CA4E4BC93F}
  9
$VERSIONGUID
  2
{1FFAF6AC-FD20-475E-948E-19675A8F67D1}
  9
$EXTNAMES
290
1
  9
$PSVPSCALE
 40
0.0
  9
$OLESTARTUP
290
0
  9
$SORTENTS
280
127
  9
$INDEXCTL
280
0
  9
$HIDETEXT
280
1
  9
$XCLIPFRAME
280
0
  9
$HALOGAP
280
0
  9
$OBSCOLOR
 70
257
  9
$OBSLTYPE
280
0
  9
$INTERSECTIONDISPLAY
280
0
  9
$INTERSECTIONCOLOR
 70
257
  9
$DIMASSOC
280
2
  9
$PROJECTNAME
  1

  9
$CAMERADISPLAY
290
0
  9
$LENSLENGTH
 40
50.0
  9
$CAMERAHEIGHT
 40
0.0
  9
$STEPSPERSEC
 40
24.0
  9
$STEPSIZE
 40
100.0
  9
$3DDWFPREC
 40
2.0
  9
$PSOLWIDTH
 40
0.005
  9
$PSOLHEIGHT
 40
0.08
  9
$LOFTANG1
 40
1.570796326795
  9
$LOFTANG2
 40
1.570796326795
  9
$LOFTMAG1
 40
0.0
  9
$LOFTMAG2
 40
0.0
  9
$LOFTPARAM
 70
7
  9
$LOFTNORMALS
280
1
  9
$LATITUDE
 40
37.795
  9
$LONGITUDE
 40
-122.394
  9
$NORTHDIRECTION
 40
0.0
  9
$TIMEZONE
 70
-8000
  9
$LIGHTGLYPHDISPLAY
280
1
  9
$TILEMODELIGHTSYNCH
280
1
  9
$CMATERIAL
347
20
  9
$SOLIDHIST
280
0
  9
$SHOWHIST
280
1
  9
$DWFFRAME
280
2
  9
$DGNFRAME
280
2
  9
$REALWORLDSCALE
290
1
  9
$INTERFERECOLOR
 62
256
  9
$CSHADOW
280
0
  9
$SHADOWPLANELOCATION
 40
0.0
  0
ENDSEC
  0
SECTION
  2
CLASSES
  0
CLASS
  1
ACDBDICTIONARYWDFLT
  2
AcDbDictionaryWithDefault
  3
ObjectDBX Classes
 90
0
 91
0
280
0
281
0
  0
CLASS
  1
SUN
  2
AcDbSun
  3
SCENEOE
 90
1153
 91
0
280
0
281
0
  0
CLASS
  1
VISUALSTYLE
  2
AcDbVisualStyle
  3
ObjectDBX Classes
 90
4095
 91
0
280
0
281
0
  0
CLASS
  1
MATERIAL
  2
AcDbMaterial
  3
ObjectDBX Classes
 90
1153
 91
0
280
0
281
0
  0
CLASS
  1
SCALE
  2
AcDbScale
  3
ObjectDBX Classes
 90
1153
 91
0
280
0
281
0
  0
CLASS
  1
TABLESTYLE
  2
AcDbTableStyle
  3
ObjectDBX Classes
 90
4095
 91
0
280
0
281
0
  0
CLASS
  1
MLEADERSTYLE
  2
AcDbMLeaderStyle
  3
ACDB_MLEADERSTYLE_CLASS
 90
4095
 91
0
280
0
281
0
  0
CLASS
  1
DICTIONARYVAR
  2
AcDbDictionaryVar
  3
ObjectDBX Classes
 90
0
 91
0
280
0
281
0
  0
CLASS
  1
CELLSTYLEMAP
  2
AcDbCellStyleMap
  3
ObjectDBX Classes
 90
1152
 91
0
280
0
281
0
  0
CLASS
  1
MENTALRAYRENDERSETTINGS
  2
AcDbMentalRayRenderSettings
  3
SCENEOE
 90
1024
 91
0
280
0
281
0
  0
CLASS
  1
ACDBDETAILVIEWSTYLE
  2
AcDbDetailViewStyle
  3
ObjectDBX Classes
 90
1025
 91
0
280
0
281
0
  0
CLASS
  1
ACDBSECTIONVIEWSTYLE
  2
AcDbSectionViewStyle
  3
ObjectDBX Classes
 90
1025
 91
0
280
0
281
0
  0
CLASS
  1
RASTERVARIABLES
  2
AcDbRasterVariables
  3
ISM
 90
0
 91
0
280
0
281
0
  0
CLASS
  1
ACDBPLACEHOLDER
  2
AcDbPlaceHolder
  3
ObjectDBX Classes
 90
0
 91
0
280
0
281
0
  0
CLASS
  1
LAYOUT
  2
AcDbLayout
  3
ObjectDBX Classes
 90
0
 91
0
280
0
281
0
  0
ENDSEC
  0
SECTION
  2
TABLES
  0
TABLE
  2
VPORT
  5
8
330
0
100
AcDbSymbolTable
 70
1
  0
VPORT
  5
4B
330
8
100
AcDbSymbolTableRecord
100
AcDbViewportTableRecord
  2
*Active
 70
0
 10
0.0
 20
0.0
 11
1.0
 21
1.0
 12
46.59208731241475
 22
2.9788540245566164
 13
0.0
 23
0.0
 14
0.5
 24
0.5
 15
0.5
 25
0.5
 16
0.0
 26
0.0
 36
1.0
 17
0.0
 27
0.0
 37
0.0
 40
44.34106412005458
 41
1.34
 42
50.0
 43
0.0
 44
0.0
 50
0.0
 51
0.0
 71
0
 72
1000
 73
1
 74
3
 75
0
 76
0
 77
0
 78
0
281
0
 65
1
110
0.0
120
0.0
130
0.0
111
1.0
121
0.0
131
0.0
112
0.0
122
1.0
132
0.0
 79
0
146
0.0
  0
ENDTAB
  0
TABLE
  2
LTYPE
  5
2
330
0
100
AcDbSymbolTable
 70
3
  0
LTYPE
  5
24
330
2
100
AcDbSymbolTableRecord
100
AcDbLinetypeTableRecord
  2
ByBlock
 70
0
  3

 72
65
 73
0
 40
0.0
  0
LTYPE
  5
25
330
2
100
AcDbSymbolTableRecord
100
AcDbLinetypeTableRecord
  2
ByLayer
 70
0
  3

 72
65
 73
0
 40
0.0
  0
LTYPE
  5
26
330
2
100
AcDbSymbolTableRecord
100
AcDbLinetypeTableRecord
  2
Continuous
 70
0
  3

 72
65
 73
0
 40
0.0
  0
ENDTAB
  0
TABLE
  2
LAYER
  5
1
330
0
100
AcDbSymbolTable
 70
2
  0
LAYER
  5
27
330
1
100
AcDbSymbolTableRecord
100
AcDbLayerTableRecord
  2
0
 70
0
 62
7
  6
Continuous
370
-3
390
13
347
21
  0
LAYER
  5
28
330
1
100
AcDbSymbolTableRecord
100
AcDbLayerTableRecord
  2
Defpoints
 70
0
 62
7
  6
Continuous
290
0
370
-3
390
13
347
21
  0
ENDTAB
  0
TABLE
  2
STYLE
  5
5
330
0
100
AcDbSymbolTable
 70
1
  0
STYLE
  5
29
330
5
100
AcDbSymbolTableRecord
100
AcDbTextStyleTableRecord
  2
Standard
 70
0
 40
0.0
 41
1.0
 50
0.0
 71
0
 42
2.5
  3
txt
  4

  0
ENDTAB
  0
TABLE
  2
VIEW
  5
7
330
0
100
AcDbSymbolTable
 70
0
  0
ENDTAB
  0
TABLE
  2
UCS
  5
6
330
0
100
AcDbSymbolTable
 70
0
  0
ENDTAB
  0
TABLE
  2
APPID
  5
3
330
0
100
AcDbSymbolTable
 70
3
  0
APPID
  5
2A
330
3
100
AcDbSymbolTableRecord
100
AcDbRegAppTableRecord
  2
ACAD
 70
0
  0
APPID
  5
4C
330
3
100
AcDbSymbolTableRecord
100
AcDbRegAppTableRecord
  2
HATCHBACKGROUNDCOLOR
 70
0
  0
APPID
  5
4D
330
3
100
AcDbSymbolTableRecord
100
AcDbRegAppTableRecord
  2
EZDXF
 70
0
  0
ENDTAB
  0
TABLE
  2
DIMSTYLE
  5
4
330
0
100
AcDbSymbolTable
 70
1
100
AcDbDimStyleTable
  0
DIMSTYLE
105
2B
330
4
100
AcDbSymbolTableRecord
100
AcDbDimStyleTableRecord
  2
Standard
 70
0
 40
1.0
 41
2.5
 42
0.625
 43
3.75
 44
1.25
 45
0.0
 46
0.0
 47
0.0
 48
0.0
 49
2.5
140
2.5
141
2.5
142
0.0
143
0.03937007874
144
1.0
145
0.0
146
1.0
147
0.625
148
0.0
 69
0
 70
0
 71
0
 72
0
 73
0
 74
0
 75
0
 76
0
 77
1
 78
8
 79
3
170
0
171
3
172
1
173
0
174
0
175
0
176
0
177
0
178
0
179
2
271
2
272
2
273
2
274
3
275
0
276
0
277
2
278
44
279
0
280
0
281
0
282
0
283
0
284
8
285
0
286
0
288
0
289
3
290
0
371
-2
372
-2
  0
ENDTAB
  0
TABLE
  2
BLOCK_RECORD
  5
9
330
0
100
AcDbSymbolTable
 70
2
  0
BLOCK_RECORD
  5
17
330
9
100
AcDbSymbolTableRecord
100
AcDbBlockTableRecord
  2
*Model_Space
340
1A
 70
0
280
1
281
0
  0
BLOCK_RECORD
  5
1B
330
9
100
AcDbSymbolTableRecord
100
AcDbBlockTableRecord
  2
*Paper_Space
340
1E
 70
0
280
1
281
0
  0
ENDTAB
  0
ENDSEC
  0
SECTION
  2
BLOCKS
  0
BLOCK
  5
18
330
17
100
AcDbEntity
  8
0
100
AcDbBlockBegin
  2
*Model_Space
 70
0
 10
0.0
 20
0.0
 30
0.0
  3
*Model_Space
  1

  0
ENDBLK
  5
19
330
17
100
AcDbEntity
  8
0
100
AcDbBlockEnd
  0
BLOCK
  5
1C
330
1B
100
AcDbEntity
  8
0
100
AcDbBlockBegin
  2
*Paper_Space
 70
0
 10
0.0
 20
0.0
 30
0.0
  3
*Paper_Space
  1

  0
ENDBLK
  5
1D
330
1B
100
AcDbEntity
  8
0
100
AcDbBlockEnd
  0
ENDSEC
  0
SECTION
  2
ENTITIES
  0
HATCH
  5
2F
330
17
100
AcDbEntity
  8
0
 62
1
100
AcDbHatch
 10
0.0
 20
0.0
 30
0.0
210
0.0
220
0.0
230
1.0
  2
ANSI31
 70
0
 71
0
 91
2
 92
3
 72
0
 73
1
 93
9
 10
79.65620736698502
 20
1.5
 10
81.1923601637108
 20
5.5
 10
81.76261937244203
 20
5.5
 10
83.39972714870397
 20
1.5
 10
82.79672578444749
 20
1.5
 10
82.33015006821284
 20
2.7114597544338332
 10
80.65757162346523
 20
2.7114597544338332
 10
80.21828103683494
 20
1.5
 10
79.65620736698502
 20
1.5
 97
0
 92
0
 93
5
 72
1
 10
80.81036834924967
 20
3.14256480218281
 11
82.16643929058665
 21
3.14256480218281
 72
1
 10
82.16643929058665
 20
3.14256480218281
 11
81.74897680763985
 21
4.250341064120055
 72
4
 94
3
 73
0
 74
0
 95
8
 96
4
 40
0.0
 40
0.0
 40
0.0
 40
0.0
 40
1.0
 40
1.0
 40
1.0
 40
1.0
 10
81.74897680763985
 20
4.250341064120055
 10
81.62164620281948
 20
4.586857662573897
 10
81.52705775352435
 20
4.863346975898136
 10
81.46521145975446
 20
5.07980900409277
 97
0
 72
4
 94
3
 73
0
 74
0
 95
8
 96
4
 40
0.0
 40
0.0
 40
0.0
 40
0.0
 40
1.0
 40
1.0
 40
1.0
 40
1.0
 10
81.46521145975446
 20
5.07980900409277
 10
81.4142792178263
 20
4.823328785811732
 10
81.3424283765348
 20
4.568667576170987
 10
81.24965893587996
 20
4.315825375170532
 97
0
 72
1
 10
81.24965893587996
 20
4.315825375170532
 11
80.81036834924967
 21
3.14256480218281
 97
0
 75
0
 76
1
 52
-45.0
 41
0.02
 77
0
 78
1
 53
0.0
 43
0.0
 44
-0.0
 45
0.0
 46
0.0635
 79
0
 98
0
  0
HATCH
  5
30
330
17
100
AcDbEntity
  8
0
 62
1
100
AcDbHatch
 10
0.0
 20
0.0
 30
0.0
210
0.0
220
0.0
230
1.0
  2
ANSI31
 70
0
 71
0
 91
1
 92
1
 93
4
 72
1
 10
90.40381991814463
 20
2.902455661664393
 11
90.93315143246933
 21
2.7687585266030013
 72
4
 94
3
 73
0
 74
0
 95
35
 96
31
 40
0.0
 40
0.0
 40
0.0
 40
0.0
 40
1.0
 40
1.0
 40
1.0
 40
2.0
 40
2.0
 40
2.0
 40
3.0
 40
3.0
 40
3.0
 40
4.0
 40
4.0
 40
4.0
 40
5.0
 40
5.0
 40
5.0
 40
6.0
 40
6.0
 40
6.0
 40
7.0
 40
7.0
 40
7.0
 40
8.0
 40
8.0
 40
8.0
 40
9.0
 40
9.0
 40
9.0
 40
10.0
 40
10.0
 40
10.0
 40
10.0
 10
90.93315143246933
 20
2.7687585266030013
 10
90.82219190541157
 20
2.3340154615734425
 10
90.62255570713963
 20
2.0025011368804
 10
90.3342428376535
 20
1.7742155525238745
 10
90.04592996816737
 20
1.5459299681673488
 10
89.69349704411098
 20
1.431787175989086
 10
89.27694406548433
 20
1.431787175989086
 10
88.84583901773536
 20
1.431787175989086
 10
88.49522510231925
 20
1.5195543428831286
 10
88.22510231923604
 20
1.695088676671214
 10
87.95497953615282
 20
1.8706230104592998
 10
87.74943155979993
 20
2.1248294679399726
 10
87.60845839017738
 20
2.4577080491132333
 10
87.46748522055482
 20
2.790586630286494
 10
87.39699863574354
 20
3.1480218281036834
 10
87.39699863574354
 20
3.530013642564802
 10
87.39699863574354
 20
3.9465666211914505
 10
87.47658026375628
 20
4.3099135970895865
 10
87.63574351978174
 20
4.620054570259208
 10
87.7949067758072
 20
4.930195543428831
 10
88.02137335152344
 20
5.165757162346521
 10
88.31514324693045
 20
5.326739427012278
 10
88.60891314233746
 20
5.487721691678035
 10
88.93224192814918
 20
5.568212824010914
 10
89.28512960436564
 20
5.568212824010914
 10
89.68531150522968
 20
5.568212824010914
 10
90.02182810368352
 20
5.466348340154616
 10
90.29467939972717
 20
5.262619372442019
 10
90.56753069577083
 20
5.058890404729422
 10
90.75761709868124
 20
4.772396543883584
 10
90.86493860845842
 20
4.403137789904502
 97
0
 72
1
 10
90.86493860845842
 20
4.403137789904502
 11
90.34379263301503
 21
4.280354706684857
 72
4
 94
3
 73
0
 74
0
 95
35
 96
31
 40
0.0
 40
0.0
 40
0.0
 40
0.0
 40
1.0
 40
1.0
 40
1.0
 40
2.0
 40
2.0
 40
2.0
 40
3.0
 40
3.0
 40
3.0
 40
4.0
 40
4.0
 40
4.0
 40
5.0
 40
5.0
 40
5.0
 40
6.0
 40
6.0
 40
6.0
 40
7.0
 40
7.0
 40
7.0
 40
8.0
 40
8.0
 40
8.0
 40
9.0
 40
9.0
 40
9.0
 40
10.0
 40
10.0
 40
10.0
 40
10.0
 10
90.34379263301503
 20
4.280354706684857
 10
90.2510231923602
 20
4.571396089131423
 10
90.11641655297865
 20
4.78331059572533
 10
89.93997271487042
 20
4.916098226466575
 10
89.7635288767622
 20
5.0488858572078215
 10
89.54160982264668
 20
5.115279672578445
 10
89.2742155525239
 20
5.115279672578445
 10
88.9668030923147
 20
5.115279672578445
 10
88.7098681218736
 20
5.041609822646658
 10
88.50341064120057
 20
4.894270122783084
 10
88.29695316052754
 20
4.746930422919509
 10
88.15188722146432
 20
4.5491132332878585
 10
88.06821282401094
 20
4.300818553888131
 10
87.98453842655755
 20
4.052523874488404
 10
87.94270122783085
 20
3.7964984083674396
 10
87.94270122783085
 20
3.5327421555252387
 10
87.94270122783085
 20
3.1925875397908143
 10
87.99226921327879
 20
2.8956343792633015
 10
88.09140518417465
 20
2.6418826739427015
 10
88.1905411550705
 20
2.388130968622101
 10
88.34470213733518
 20
2.19849931787176
 10
88.55388813096864
 20
2.072987721691678
 10
88.76307412460211
 20
1.9474761255115962
 10
88.98954070031834
 20
1.8847203274215554
 10
89.23328785811735
 20
1.8847203274215554
 10
89.52978626648479
 20
1.8847203274215554
 10
89.78080945884496
 20
1.970213733515234
 10
89.98635743519785
 20
2.141200545702592
 10
90.19190541155074
 20
2.31218735788995
 10
90.331059572533
 20
2.5659390632105503
 10
90.40381991814463
 20
2.902455661664393
 97
0
 97
0
 75
0
 76
1
 52
-45.0
 41
0.02
 77
0
 78
1
 53
0.0
 43
0.0
 44
-0.0
 45
0.0
 46
0.0635
 79
0
 98
0
  0
HATCH
  5
31
330
17
100
AcDbEntity
  8
0
 62
1
100
AcDbHatch
 10
0.0
 20
0.0
 30
0.0
210
0.0
220
0.0
230
1.0
  2
ANSI31
 70
0
 71
0
 91
1
 92
1
 93
4
 72
1
 10
2.251023192360164
 20
2.785129604365621
 11
2.7503410641200547
 21
2.8287858117326055
 72
4
 94
3
 73
0
 74
0
 95
59
 96
55
 40
0.0
 40
0.0
 40
0.0
 40
0.0
 40
1.0
 40
1.0
 40
1.0
 40
2.0
 40
2.0
 40
2.0
 40
3.0
 40
3.0
 40
3.0
 40
4.0
 40
4.0
 40
4.0
 40
5.0
 40
5.0
 40
5.0
 40
6.0
 40
6.0
 40
6.0
 40
7.0
 40
7.0
 40
7.0
 40
8.0
 40
8.0
 40
8.0
 40
9.0
 40
9.0
 40
9.0
 40
10.0
 40
10.0
 40
10.0
 40
11.0
 40
11.0
 40
11.0
 40
12.0
 40
12.0
 40
12.0
 40
13.0
 40
13.0
 40
13.0
 40
14.0
 40
14.0
 40
14.0
 40
15.0
 40
15.0
 40
15.0
 40
16.0
 40
16.0
 40
16.0
 40
17.0
 40
17.0
 40
17.0
 40
18.0
 40
18.0
 40
18.0
 40
18.0
 10
2.7503410641200547
 20
2.8287858117326055
 10
2.7739881764438383
 20
2.628694861300591
 10
2.829013187812642
 20
2.4645293315143246
 10
2.9154160982264665
 20
2.3362892223738063
 10
3.0018190086402914
 20
2.208049113233288
 10
3.1359708958617554
 20
2.1043656207366985
 10
3.31787175989086
 20
2.0252387448840383
 10
3.499772623919964
 20
1.946111869031378
 10
3.7044110959527057
 20
1.9065484311050478
 10
3.931787175989086
 20
1.9065484311050478
 10
4.133697135061391
 20
1.9065484311050478
 10
4.311959981809913
 20
1.93656207366985
 10
4.466575716234653
 20
1.9965893587994543
 10
4.62119145065939
 20
2.0566166439290585
 10
4.736243747157799
 20
2.138926784902228
 10
4.811732605729877
 20
2.2435197817189634
 10
4.887221464301955
 20
2.348112778535698
 10
4.924965893587995
 20
2.462255570713961
 10
4.924965893587995
 20
2.5859481582537516
 10
4.924965893587995
 20
2.7114597544338337
 10
4.888585720782174
 20
2.821055025011369
 10
4.815825375170532
 20
2.9147339699863575
 10
4.74306502955889
 20
3.008412914961346
 10
4.623010459299682
 20
3.0870850386539335
 10
4.455661664392906
 20
3.15075034106412
 10
4.348340154615734
 20
3.1925875397908143
 10
4.110959527057753
 20
3.2576170986812185
 10
3.7435197817189634
 20
3.3458390177353343
 10
3.3760800363801726
 20
3.43406093678945
 10
3.1186903137789903
 20
3.517280582082765
 10
2.971350613915416
 20
3.5954979536152796
 10
2.780354706684857
 20
3.6955434288312867
 10
2.6380172805820825
 20
3.8196907685311503
 10
2.544338335607094
 20
3.9679399727148703
 10
2.4506593906321057
 20
4.11618917689859
 10
2.4038199181446114
 20
4.282173715325148
 10
2.4038199181446114
 20
4.465893587994543
 10
2.4038199181446114
 20
4.667803547066848
 10
2.461118690313779
 20
4.856525693497044
 10
2.5757162346521145
 20
5.03206002728513
 10
2.69031377899045
 20
5.207594361073215
 10
2.857662573897226
 20
5.340836743974534
 10
3.077762619372442
 20
5.431787175989086
 10
3.297862664847658
 20
5.522737608003638
 10
3.5425193269668034
 20
5.568212824010914
 10
3.811732605729877
 20
5.568212824010914
 10
4.108231014097317
 20
5.568212824010914
 10
4.3697135061391545
 20
5.520463847203274
 10
4.596180081855389
 20
5.424965893587995
 10
4.822646657571623
 20
5.329467939972715
 10
4.9968167348794905
 20
5.188949522510232
 10
5.11869031377899
 20
5.003410641200546
 10
5.24056389267849
 20
4.81787175989086
 10
5.306048203728968
 20
4.607776261937245
 10
5.315143246930423
 20
4.3731241473397
 97
0
 72
1
 10
5.315143246930423
 20
4.3731241473397
 11
4.807639836289223
 21
4.334924965893588
 72
4
 94
3
 73
0
 74
0
 95
50
 96
46
 40
0.0
 40
0.0
 40
0.0
 40
0.0
 40
1.0
 40
1.0
 40
1.0
 40
2.0
 40
2.0
 40
2.0
 40
3.0
 40
3.0
 40
3.0
 40
4.0
 40
4.0
 40
4.0
 40
5.0
 40
5.0
 40
5.0
 40
6.0
 40
6.0
 40
6.0
 40
7.0
 40
7.0
 40
7.0
 40
8.0
 40
8.0
 40
8.0
 40
9.0
 40
9.0
 40
9.0
 40
10.0
 40
10.0
 40
10.0
 40
11.0
 40
11.0
 40
11.0
 40
12.0
 40
12.0
 40
12.0
 40
13.0
 40
13.0
 40
13.0
 40
14.0
 40
14.0
 40
14.0
 40
15.0
 40
15.0
 40
15.0
 40
15.0
 10
4.807639836289223
 20
4.334924965893588
 10
4.780354706684857
 20
4.587767166894043
 10
4.688040018190087
 20
4.778763074124602
 10
4.530695770804911
 20
4.9079126875852666
 10
4.3733515234197355
 20
5.03706230104593
 10
4.140973169622556
 20
5.101637107776262
 10
3.8335607094133697
 20
5.101637107776262
 10
3.5134151887221465
 20
5.101637107776262
 10
3.28012733060482
 20
5.042974079126876
 10
3.1336971350613916
 20
4.925648021828104
 10
2.987266939517963
 20
4.808321964529331
 10
2.9140518417462484
 20
4.666894042746703
 10
2.9140518417462484
 20
4.501364256480218
 10
2.9140518417462484
 20
4.357662573897226
 10
2.965893587994543
 20
4.239427012278308
 10
3.0695770804911326
 20
4.146657571623465
 10
3.1714415643474307
 20
4.053888130968621
 10
3.4374715779899954
 20
3.958844929513415
 10
3.867667121418827
 20
3.8615279672578446
 10
4.297862664847658
 20
3.7642110050022737
 10
4.59299681673488
 20
3.679172351068668
 10
4.753069577080491
 20
3.606412005457026
 10
4.985902683037745
 20
3.4990904956798543
 10
5.157798999545248
 20
3.3631195998180994
 10
5.268758526603001
 20
3.19849931787176
 10
5.3797180536607545
 20
3.0338790359254206
 10
5.435197817189632
 20
2.8442473851750796
 10
5.435197817189632
 20
2.629604365620737
 10
5.435197817189632
 20
2.4167803547066846
 10
5.374261027739882
 20
2.2162346521145975
 10
5.252387448840382
 20
2.027967257844475
 10
5.1305138699408825
 20
1.839699863574352
 10
4.955434288312869
 20
1.6932696680309232
 10
4.727148703956344
 20
1.5886766712141882
 10
4.498863119599818
 20
1.4840836743974535
 10
4.241928149158708
 20
1.431787175989086
 10
3.9563437926330147
 20
1.431787175989086
 10
3.5943610732150977
 20
1.431787175989086
 10
3.2910413824465667
 20
1.484538426557526
 10
3.0463847203274215
 20
1.5900409276944065
 10
2.8017280582082766
 20
1.695543428831287
 10
2.6098226466575714
 20
1.8542519326966804
 10
2.470668485675307
 20
2.0661664392905865
 10
2.3315143246930425
 20
2.278080945884493
 10
2.258299226921328
 20
2.517735334242838
 10
2.251023192360164
 20
2.785129604365621
 97
0
 97
0
 75
0
 76
1
 52
-45.0
 41
0.02
 77
0
 78
1
 53
0.0
 43
0.0
 44
-0.0
 45
0.0
 46
0.0635
 79
0
 98
0
  0
HATCH
  5
32
330
17
100
AcDbEntity
  8
0
 62
1
100
AcDbHatch
 10
0.0
 20
0.0
 30
0.0
210
0.0
220
0.0
230
1.0
  2
ANSI31
 70
0
 71
0
 91
1
 92
3
 72
0
 73
1
 93
9
 10
23.948158253751707
 20
1.5
 10
23.948158253751707
 20
5.027967257844475
 10
22.630286493860847
 20
5.027967257844475
 10
22.630286493860847
 20
5.5
 10
25.80081855388813
 20
5.5
 10
25.80081855388813
 20
5.027967257844475
 10
24.4774897680764
 20
5.027967257844475
 10
24.4774897680764
 20
1.5
 10
23.948158253751707
 20
1.5
 97
0
 75
0
 76
1
 52
-45.0
 41
0.02
 77
0
 78
1
 53
0.0
 43
0.0
 44
-0.0
 45
0.0
 46
0.0635
 79
0
 98
0
  0
HATCH
  5
33
330
17
100
AcDbEntity
  8
0
 62
1
100
AcDbHatch
 10
0.0
 20
0.0
 30
0.0
210
0.0
220
0.0
230
1.0
  2
ANSI31
 70
0
 71
0
 91
3
 92
1
 93
5
 72
1
 10
83.80081855388815
 20
1.5
 11
83.80081855388815
 21
5.5
 72
1
 10
83.80081855388815
 20
5.5
 11
85.30150068212826
 21
5.5
 72
4
 94
3
 73
0
 74
0
 95
20
 96
16
 40
0.0
 40
0.0
 40
0.0
 40
0.0
 40
1.0
 40
1.0
 40
1.0
 40
2.0
 40
2.0
 40
2.0
 40
3.0
 40
3.0
 40
3.0
 40
4.0
 40
4.0
 40
4.0
 40
5.0
 40
5.0
 40
5.0
 40
5.0
 10
85.30150068212826
 20
5.5
 10
85.60709413369716
 20
5.5
 10
85.85220554797637
 20
5.459527057753524
 10
86.03683492496592
 20
5.378581173260573
 10
86.22146430195546
 20
5.297635288767622
 10
86.3660754888586
 20
5.173033196907685
 10
86.47066848567533
 20
5.004774897680765
 10
86.57526148249207
 20
4.8365165984538425
 10
86.62755798090043
 20
4.660527512505684
 10
86.62755798090043
 20
4.47680763983629
 10
86.62755798090043
 20
4.305820827648931
 10
86.58117326057301
 20
4.144838562983174
 10
86.48840381991816
 20
3.9938608458390177
 10
86.39563437926333
 20
3.8428831286948615
 10
86.2555707139609
 20
3.7210095497953617
 10
86.06821282401093
 20
3.6282401091405183
 97
0
 72
4
 94
3
 73
0
 74
0
 95
23
 96
19
 40
0.0
 40
0.0
 40
0.0
 40
0.0
 40
1.0
 40
1.0
 40
1.0
 40
2.0
 40
2.0
 40
2.0
 40
3.0
 40
3.0
 40
3.0
 40
4.0
 40
4.0
 40
4.0
 40
5.0
 40
5.0
 40
5.0
 40
6.0
 40
6.0
 40
6.0
 40
6.0
 10
86.06821282401093
 20
3.6282401091405183
 10
86.31014097316964
 20
3.557298772169168
 10
86.4961346066394
 20
3.436334697589814
 10
86.6261937244202
 20
3.2653478854024556
 10
86.75625284220102
 20
3.0943610732150977
 10
86.82128240109142
 20
2.8924511141427924
 10
86.82128240109142
 20
2.659618008185539
 10
86.82128240109142
 20
2.4722601182355617
 10
86.78171896316509
 20
2.2980900409276943
 10
86.70259208731244
 20
2.1371077762619373
 10
86.62346521145977
 20
1.9761255115961802
 10
86.52569349704413
 20
1.8519781718963166
 10
86.40927694406551
 20
1.7646657571623465
 10
86.29286039108688
 20
1.6773533424283766
 10
86.14688494770353
 20
1.6114142792178263
 10
85.97135061391543
 20
1.5668485675306958
 10
85.79581628012735
 20
1.5222828558435653
 10
85.58071850841294
 20
1.5
 10
85.32605729877218
 20
1.5
 97
0
 72
1
 10
85.32605729877218
 20
1.5
 11
83.80081855388815
 21
1.5
 97
0
 92
0
 93
4
 72
1
 10
84.33015006821284
 20
1.9720327421555253
 11
85.32605729877218
 21
1.9720327421555253
 72
4
 94
3
 73
0
 74
0
 95
26
 96
22
 40
0.0
 40
0.0
 40
0.0
 40
0.0
 40
1.0
 40
1.0
 40
1.0
 40
2.0
 40
2.0
 40
2.0
 40
3.0
 40
3.0
 40
3.0
 40
4.0
 40
4.0
 40
4.0
 40
5.0
 40
5.0
 40
5.0
 40
6.0
 40
6.0
 40
6.0
 40
7.0
 40
7.0
 40
7.0
 40
7.0
 10
85.32605729877218
 20
1.9720327421555253
 10
85.49704411095955
 20
1.9720327421555253
 10
85.61709868121875
 20
1.978399272396544
 10
85.68622100954981
 20
1.991132332878581
 10
85.80809458844931
 20
2.0129604365620737
 10
85.90995907230561
 20
2.0493406093678947
 10
85.99181446111871
 20
2.100272851296044
 10
86.0736698499318
 20
2.151205093224193
 10
86.14097316962257
 20
2.2253296953160526
 10
86.19372442019102
 20
2.3226466575716236
 10
86.24647567075947
 20
2.419963619827194
 10
86.27285129604368
 20
2.5322874033651663
 10
86.27285129604368
 20
2.659618008185539
 10
86.27285129604368
 20
2.8087767166894047
 10
86.23465211459757
 20
2.938381082310141
 10
86.15825375170535
 20
3.048431105047749
 10
86.08185538881312
 20
3.158481127785357
 10
85.97589813551616
 20
3.2357889949977263
 10
85.84038199181448
 20
3.280354706684857
 10
85.7048658481128
 20
3.3249204183719874
 10
85.50977717144158
 20
3.347203274215553
 10
85.25511596180084
 20
3.347203274215553
 97
0
 72
1
 10
85.25511596180084
 20
3.347203274215553
 11
84.33015006821284
 21
3.347203274215553
 72
1
 10
84.33015006821284
 20
3.347203274215553
 11
84.33015006821284
 21
1.9720327421555253
 97
0
 92
0
 93
4
 72
1
 10
84.33015006821284
 20
3.819236016371078
 11
85.19508867667123
 21
3.819236016371078
 72
4
 94
3
 73
0
 74
0
 95
23
 96
19
 40
0.0
 40
0.0
 40
0.0
 40
0.0
 40
1.0
 40
1.0
 40
1.0
 40
2.0
 40
2.0
 40
2.0
 40
3.0
 40
3.0
 40
3.0
 40
4.0
 40
4.0
 40
4.0
 40
5.0
 40
5.0
 40
5.0
 40
6.0
 40
6.0
 40
6.0
 40
6.0
 10
85.19508867667123
 20
3.819236016371078
 10
85.42974079126878
 20
3.819236016371078
 10
85.5979990904957
 20
3.8346975898135516
 10
85.699863574352
 20
3.8656207366984994
 10
85.83447021373354
 20
3.9056389267849023
 10
85.93587994542976
 20
3.972032742155525
 10
86.00409276944067
 20
4.064802182810368
 10
86.07230559345159
 20
4.157571623465211
 10
86.10641200545705
 20
4.273988176443838
 10
86.10641200545705
 20
4.414051841746248
 10
86.10641200545705
 20
4.546839472487495
 10
86.07457935425195
 20
4.663710777626194
 10
86.01091405184177
 20
4.764665757162346
 10
85.94724874943158
 20
4.865620736698499
 10
85.85629831741703
 20
4.934743065029559
 10
85.73806275579811
 20
4.972032742155525
 10
85.6198271941792
 20
5.009322419281492
 10
85.41700773078675
 20
5.027967257844475
 10
85.12960436562076
 20
5.027967257844475
 97
0
 72
1
 10
85.12960436562076
 20
5.027967257844475
 11
84.33015006821284
 21
5.027967257844475
 72
1
 10
84.33015006821284
 20
5.027967257844475
 11
84.33015006821284
 21
3.819236016371078
 97
0
 75
0
 76
1
 52
-45.0
 41
0.02
 77
0
 78
1
 53
0.0
 43
0.0
 44
-0.0
 45
0.0
 46
0.0635
 79
0
 98
0
  0
HATCH
  5
34
330
17
100
AcDbEntity
  8
0
 62
1
100
AcDbHatch
 10
0.0
 20
0.0
 30
0.0
210
0.0
220
0.0
230
1.0
  2
ANSI31
 70
0
 71
0
 91
1
 92
1
 93
15
 72
1
 10
9.203274215552524
 20
1.5
 11
9.203274215552524
 21
4.3976807639836295
 72
1
 10
9.203274215552524
 20
4.3976807639836295
 11
9.642564802182811
 21
4.3976807639836295
 72
1
 10
9.642564802182811
 20
4.3976807639836295
 11
9.642564802182811
 21
3.991132332878581
 72
4
 94
3
 73
0
 74
0
 95
17
 96
13
 40
0.0
 40
0.0
 40
0.0
 40
0.0
 40
1.0
 40
1.0
 40
1.0
 40
2.0
 40
2.0
 40
2.0
 40
3.0
 40
3.0
 40
3.0
 40
4.0
 40
4.0
 40
4.0
 40
4.0
 10
9.642564802182811
 20
3.991132332878581
 10
9.733515234197363
 20
4.133015006821282
 10
9.854479308776718
 20
4.247157798999545
 10
10.005457025920872
 20
4.333560709413369
 10
10.156434743065029
 20
4.419963619827194
 10
10.328331059572534
 20
4.463165075034107
 10
10.521145975443384
 20
4.463165075034107
 10
10.735788994997726
 20
4.463165075034107
 10
10.911778080945885
 20
4.418599363346976
 10
11.049113233287859
 20
4.329467939972715
 10
11.186448385629832
 20
4.240336516598454
 10
11.28331059572533
 20
4.115734424738518
 10
11.339699863574353
 20
3.9556616643929057
 97
0
 72
4
 94
3
 73
0
 74
0
 95
14
 96
10
 40
0.0
 40
0.0
 40
0.0
 40
0.0
 40
1.0
 40
1.0
 40
1.0
 40
2.0
 40
2.0
 40
2.0
 40
3.0
 40
3.0
 40
3.0
 40
3.0
 10
11.339699863574353
 20
3.9556616643929057
 10
11.568894952251023
 20
4.29399727148704
 10
11.867212369258754
 20
4.463165075034107
 10
12.234652114597544
 20
4.463165075034107
 10
12.522055479763528
 20
4.463165075034107
 10
12.74306502955889
 20
4.3835834470213735
 10
12.89768076398363
 20
4.224420190995907
 10
13.052296498408367
 20
4.065256934970441
 10
13.129604365620736
 20
3.8201455206912236
 10
13.129604365620736
 20
3.4890859481582535
 97
0
 72
1
 10
13.129604365620736
 20
3.4890859481582535
 11
13.129604365620736
 21
1.5
 72
1
 10
13.129604365620736
 20
1.5
 11
12.641200545702592
 21
1.5
 72
1
 10
12.641200545702592
 20
1.5
 11
12.641200545702592
 21
3.3253751705320598
 72
4
 94
3
 73
0
 74
0
 95
20
 96
16
 40
0.0
 40
0.0
 40
0.0
 40
0.0
 40
1.0
 40
1.0
 40
1.0
 40
2.0
 40
2.0
 40
2.0
 40
3.0
 40
3.0
 40
3.0
 40
4.0
 40
4.0
 40
4.0
 40
5.0
 40
5.0
 40
5.0
 40
5.0
 10
12.641200545702592
 20
3.3253751705320598
 10
12.641200545702592
 20
3.5218281036834926
 10
12.625284220100045
 20
3.663256025466121
 10
12.593451568894952
 20
3.7496589358799453
 10
12.56161891768986
 20
3.8360618462937697
 10
12.503865393360618
 20
3.9056389267849023
 10
12.42019099590723
 20
3.9583901773533423
 10
12.336516598453843
 20
4.011141427921783
 10
12.238290131878127
 20
4.0375170532060025
 10
12.125511596180083
 20
4.0375170532060025
 10
11.921782628467485
 20
4.0375170532060025
 10
11.752614824920418
 20
3.9697589813551617
 10
11.618008185538882
 20
3.8342428376534787
 10
11.483401546157346
 20
3.698726693951796
 10
11.416098226466577
 20
3.4818099135970897
 10
11.416098226466577
 20
3.1834924965893587
 97
0
 72
1
 10
11.416098226466577
 20
3.1834924965893587
 11
11.416098226466577
 21
1.5
 72
1
 10
11.416098226466577
 20
1.5
 11
10.924965893587995
 21
1.5
 72
1
 10
10.924965893587995
 20
1.5
 11
10.924965893587995
 21
3.382673942701228
 72
4
 94
3
 73
0
 74
0
 95
20
 96
16
 40
0.0
 40
0.0
 40
0.0
 40
0.0
 40
1.0
 40
1.0
 40
1.0
 40
2.0
 40
2.0
 40
2.0
 40
3.0
 40
3.0
 40
3.0
 40
4.0
 40
4.0
 40
4.0
 40
5.0
 40
5.0
 40
5.0
 40
5.0
 10
10.924965893587995
 20
3.382673942701228
 10
10.924965893587995
 20
3.600954979536153
 10
10.884947703501592
 20
3.7646657571623465
 10
10.804911323328787
 20
3.873806275579809
 10
10.724874943155982
 20
3.9829467939972716
 10
10.593906321055027
 20
4.0375170532060025
 10
10.412005457025922
 20
4.0375170532060025
 10
10.273760800363803
 20
4.0375170532060025
 10
10.145975443383357
 20
4.001136880400182
 10
10.028649386084584
 20
3.92837653478854
 10
9.911323328785812
 20
3.8556161891768985
 10
9.826284674852207
 20
3.749204183719873
 10
9.773533424283766
 20
3.6091405184174623
 10
9.720782173715325
 20
3.469076853115052
 10
9.694406548431106
 20
3.2671668940427465
 10
9.694406548431106
 20
3.0034106412005457
 97
0
 72
1
 10
9.694406548431106
 20
3.0034106412005457
 11
9.694406548431106
 21
1.5
 72
1
 10
9.694406548431106
 20
1.5
 11
9.203274215552524
 21
1.5
 97
0
 75
0
 76
1
 52
-45.0
 41
0.02
 77
0
 78
1
 53
0.0
 43
0.0
 44
-0.0
 45
0.0
 46
0.0635
 79
0
 98
0
  0
HATCH
  5
35
330
17
100
AcDbEntity
  8
0
 62
1
100
AcDbHatch
 10
0.0
 20
0.0
 30
0.0
210
0.0
220
0.0
230
1.0
  2
ANSI31
 70
0
 71
0
 91
2
 92
3
 72
0
 73
1
 93
12
 10
47.60163710777626
 20
1.5
 10
47.60163710777626
 20
2.4577080491132333
 10
45.86630286493861
 20
2.4577080491132333
 10
45.86630286493861
 20
2.907912687585266
 10
47.69167803547067
 20
5.5
 10
48.09276944065484
 20
5.5
 10
48.09276944065484
 20
2.907912687585266
 10
48.63301500682128
 20
2.907912687585266
 10
48.63301500682128
 20
2.4577080491132333
 10
48.09276944065484
 20
2.4577080491132333
 10
48.09276944065484
 20
1.5
 10
47.60163710777626
 20
1.5
 97
0
 92
2
 72
0
 73
1
 93
4
 10
47.60163710777626
 20
2.907912687585266
 10
47.60163710777626
 20
4.711459754433834
 10
46.34924965893588
 20
2.907912687585266
 10
47.60163710777626
 20
2.907912687585266
 97
0
 75
0
 76
1
 52
-45.0
 41
0.02
 77
0
 78
1
 53
0.0
 43
0.0
 44
-0.0
 45
0.0
 46
0.0635
 79
0
 98
0
  0
HATCH
  5
36
330
17
100
AcDbEntity
  8
0
 62
1
100
AcDbHatch
 10
0.0
 20
0.0
 30
0.0
210
0.0
220
0.0
230
1.0
  2
ANSI31
 70
0
 71
0
 91
2
 92
1
 93
4
 72
1
 10
54.791268758526606
 20
4.520463847203274
 11
54.302864938608465
 21
4.482264665757162
 72
4
 94
3
 73
0
 74
0
 95
8
 96
4
 40
0.0
 40
0.0
 40
0.0
 40
0.0
 40
1.0
 40
1.0
 40
1.0
 40
1.0
 10
54.302864938608465
 20
4.482264665757162
 10
54.25920873124148
 20
4.675079581628013
 10
54.19736243747158
 20
4.815143246930423
 10
54.117326057298776
 20
4.902455661664392
 97
0
 72
4
 94
3
 73
0
 74
0
 95
17
 96
13
 40
0.0
 40
0.0
 40
0.0
 40
0.0
 40
1.0
 40
1.0
 40
1.0
 40
2.0
 40
2.0
 40
2.0
 40
3.0
 40
3.0
 40
3.0
 40
4.0
 40
4.0
 40
4.0
 40
4.0
 10
54.117326057298776
 20
4.902455661664392
 10
53.984538426557535
 20
5.0425193269668025
 10
53.82082764893134
 20
5.1125511596180075
 10
53.6261937244202
 20
5.1125511596180075
 10
53.46975898135517
 20
5.1125511596180075
 10
53.332423829013194
 20
5.068894952251023
 10
53.21418826739428
 20
4.981582537517053
 10
53.05957253296954
 20
4.868804001819009
 10
52.93769895407004
 20
4.7041837198726695
 10
52.848567530695775
 20
4.487721691678035
 10
52.75943610732151
 20
4.271259663483402
 10
52.713051386994096
 20
3.96293769895407
 10
52.70941336971351
 20
3.562755798090041
 97
0
 72
4
 94
3
 73
0
 74
0
 95
44
 96
40
 40
0.0
 40
0.0
 40
0.0
 40
0.0
 40
1.0
 40
1.0
 40
1.0
 40
2.0
 40
2.0
 40
2.0
 40
3.0
 40
3.0
 40
3.0
 40
4.0
 40
4.0
 40
4.0
 40
5.0
 40
5.0
 40
5.0
 40
6.0
 40
6.0
 40
6.0
 40
7.0
 40
7.0
 40
7.0
 40
8.0
 40
8.0
 40
8.0
 40
9.0
 40
9.0
 40
9.0
 40
10.0
 40
10.0
 40
10.0
 40
11.0
 40
11.0
 40
11.0
 40
12.0
 40
12.0
 40
12.0
 40
13.0
 40
13.0
 40
13.0
 40
13.0
 10
52.70941336971351
 20
3.562755798090041
 10
52.82764893133243
 20
3.742837653478854
 10
52.97226011823557
 20
3.8765347885402455
 10
53.143246930422926
 20
3.9638472032742156
 10
53.314233742610284
 20
4.051159618008185
 10
53.49340609367895
 20
4.0948158253751705
 10
53.68076398362893
 20
4.0948158253751705
 10
54.008185538881314
 20
4.0948158253751705
 10
54.28694861300592
 20
3.974306502955889
 10
54.517053206002736
 20
3.733287858117326
 10
54.74715779899955
 20
3.492269213278763
 10
54.86221009549796
 20
3.180763983628922
 10
54.86221009549796
 20
2.798772169167804
 10
54.86221009549796
 20
2.54774897680764
 10
54.8080945884493
 20
2.3144611186903137
 10
54.69986357435199
 20
2.0989085948158253
 10
54.591632560254666
 20
1.883356070941337
 10
54.44292860391087
 20
1.718281036834925
 10
54.2537517053206
 20
1.6036834924965895
 10
54.064574806730334
 20
1.4890859481582537
 10
53.849931787176
 20
1.431787175989086
 10
53.60982264665758
 20
1.431787175989086
 10
53.200545702592095
 20
1.431787175989086
 10
52.86675761709869
 20
1.5823101409731697
 10
52.60845839017736
 20
1.8833560709413368
 10
52.35015916325603
 20
2.1844020009095044
 10
52.22100954979537
 20
2.680536607548886
 10
52.22100954979537
 20
3.3717598908594817
 10
52.22100954979537
 20
4.144838562983175
 10
52.36380172805821
 20
4.706912232833107
 10
52.64938608458391
 20
5.057980900409277
 10
52.898590268303785
 20
5.363574351978173
 10
53.23419736243748
 20
5.51637107776262
 10
53.656207366985
 20
5.51637107776262
 10
53.970895861755345
 20
5.51637107776262
 10
54.2287403365166
 20
5.428149158708504
 10
54.42974079126876
 20
5.251705320600273
 10
54.630741246020925
 20
5.075261482492042
 10
54.751250568440206
 20
4.8315143246930425
 10
54.791268758526606
 20
4.520463847203274
 97
0
 97
0
 92
0
 93
1
 72
4
 94
3
 73
0
 74
0
 95
32
 96
28
 40
0.0
 40
0.0
 40
0.0
 40
0.0
 40
1.0
 40
1.0
 40
1.0
 40
2.0
 40
2.0
 40
2.0
 40
3.0
 40
3.0
 40
3.0
 40
4.0
 40
4.0
 40
4.0
 40
5.0
 40
5.0
 40
5.0
 40
6.0
 40
6.0
 40
6.0
 40
7.0
 40
7.0
 40
7.0
 40
8.0
 40
8.0
 40
8.0
 40
9.0
 40
9.0
 40
9.0
 40
9.0
 10
52.78581173260574
 20
2.7960436562073667
 10
52.78581173260574
 20
2.6268758526603
 10
52.82173715325148
 20
2.4649840836743975
 10
52.89358799454298
 20
2.310368349249659
 10
52.965438835834476
 20
2.1557526148249204
 10
53.06593906321056
 20
2.0379718053660754
 10
53.19508867667122
 20
1.9570259208731242
 10
53.32423829013188
 20
1.8760800363801728
 10
53.45975443383357
 20
1.8356070941336973
 10
53.60163710777627
 20
1.8356070941336973
 10
53.80900409276945
 20
1.8356070941336973
 10
53.987266939517966
 20
1.919281491587085
 10
54.136425648021834
 20
2.086630286493861
 10
54.2855843565257
 20
2.2539790814006366
 10
54.360163710777634
 20
2.481355161437017
 10
54.360163710777634
 20
2.7687585266030013
 10
54.360163710777634
 20
3.0452478399272396
 10
54.286493860845844
 20
3.263074124602092
 10
54.13915416098227
 20
3.422237380627558
 10
53.9918144611187
 20
3.581400636653024
 10
53.80627557980901
 20
3.660982264665757
 10
53.58253751705321
 20
3.660982264665757
 10
53.3606184629377
 20
3.660982264665757
 10
53.17235106866758
 20
3.581400636653024
 10
53.01773533424284
 20
3.422237380627558
 10
52.863119599818106
 20
3.263074124602092
 10
52.78581173260574
 20
3.0543428831286947
 10
52.78581173260574
 20
2.7960436562073667
 97
0
 97
0
 75
0
 76
1
 52
-45.0
 41
0.02
 77
0
 78
1
 53
0.0
 43
0.0
 44
-0.0
 45
0.0
 46
0.0635
 79
0
 98
0
  0
HATCH
  5
37
330
17
100
AcDbEntity
  8
0
 62
1
100
AcDbHatch
 10
0.0
 20
0.0
 30
0.0
210
0.0
220
0.0
230
1.0
  2
ANSI31
 70
0
 71
0
 91
3
 92
1
 93
2
 72
4
 94
3
 73
0
 74
0
 95
29
 96
25
 40
0.0
 40
0.0
 40
0.0
 40
0.0
 40
1.0
 40
1.0
 40
1.0
 40
2.0
 40
2.0
 40
2.0
 40
3.0
 40
3.0
 40
3.0
 40
4.0
 40
4.0
 40
4.0
 40
5.0
 40
5.0
 40
5.0
 40
6.0
 40
6.0
 40
6.0
 40
7.0
 40
7.0
 40
7.0
 40
8.0
 40
8.0
 40
8.0
 40
8.0
 10
59.21418826739428
 20
3.669167803547067
 10
59.010459299681685
 20
3.7437471577989996
 10
58.859481582537526
 20
3.8501591632560253
 10
58.76125511596181
 20
3.9884038199181444
 10
58.66302864938609
 20
4.126648476580264
 10
58.61391541609824
 20
4.292178262846749
 10
58.61391541609824
 20
4.484993178717598
 10
58.61391541609824
 20
4.776034561164165
 10
58.71850841291497
 20
5.020691223283311
 10
58.92769440654844
 20
5.218963165075034
 10
59.13688040018191
 20
5.417235106866758
 10
59.41518872214644
 20
5.51637107776262
 10
59.76261937244203
 20
5.51637107776262
 10
60.111869031377914
 20
5.51637107776262
 10
60.392905866302875
 20
5.414961346066394
 10
60.60572987721693
 20
5.212141882673943
 10
60.81855388813098
 20
5.009322419281492
 10
60.924965893588
 20
4.762391996361982
 10
60.924965893588
 20
4.4713506139154156
 10
60.924965893588
 20
4.28581173260573
 10
60.876307412460214
 20
4.1243747157799
 10
60.778990450204645
 20
3.9870395634379263
 10
60.68167348794908
 20
3.849704411095953
 10
60.53387903592543
 20
3.7437471577989996
 10
60.33560709413371
 20
3.669167803547067
 97
0
 72
4
 94
3
 73
0
 74
0
 95
29
 96
25
 40
0.0
 40
0.0
 40
0.0
 40
0.0
 40
1.0
 40
1.0
 40
1.0
 40
2.0
 40
2.0
 40
2.0
 40
3.0
 40
3.0
 40
3.0
 40
4.0
 40
4.0
 40
4.0
 40
5.0
 40
5.0
 40
5.0
 40
6.0
 40
6.0
 40
6.0
 40
7.0
 40
7.0
 40
7.0
 40
8.0
 40
8.0
 40
8.0
 40
8.0
 10
60.33560709413371
 20
3.669167803547067
 10
60.581173260572996
 20
3.589131423374261
 10
60.7680763983629
 20
3.459981809913597
 10
60.89631650750342
 20
3.281718963165075
 10
61.02455661664394
 20
3.1034561164165533
 10
61.0886766712142
 20
2.890632105502501
 10
61.0886766712142
 20
2.6432469304229196
 10
61.0886766712142
 20
2.301273306048204
 10
60.96771259663485
 20
2.013869940882219
 10
60.72578444747614
 20
1.781036834924966
 10
60.48385629831743
 20
1.5482037289677126
 10
60.1655297862665
 20
1.431787175989086
 10
59.77080491132334
 20
1.431787175989086
 10
59.37608003638018
 20
1.431787175989086
 10
59.05775352432925
 20
1.5486584811277853
 10
58.81582537517054
 20
1.7824010914051842
 10
58.57389722601184
 20
2.0161437016825827
 10
58.45293315143248
 20
2.3076398362892228
 10
58.45293315143248
 20
2.6568894952251023
 10
58.45293315143248
 20
2.9170077307867213
 10
58.51887221464303
 20
3.1348340154615735
 10
58.65075034106413
 20
3.310368349249659
 10
58.78262846748523
 20
3.485902683037745
 10
58.97044110959528
 20
3.6055025011368804
 10
59.21418826739428
 20
3.669167803547067
 97
0
 97
0
 92
0
 93
1
 72
4
 94
3
 73
0
 74
0
 95
32
 96
28
 40
0.0
 40
0.0
 40
0.0
 40
0.0
 40
1.0
 40
1.0
 40
1.0
 40
2.0
 40
2.0
 40
2.0
 40
3.0
 40
3.0
 40
3.0
 40
4.0
 40
4.0
 40
4.0
 40
5.0
 40
5.0
 40
5.0
 40
6.0
 40
6.0
 40
6.0
 40
7.0
 40
7.0
 40
7.0
 40
8.0
 40
8.0
 40
8.0
 40
9.0
 40
9.0
 40
9.0
 40
9.0
 10
58.95770804911324
 20
2.6541609822646657
 10
58.95770804911324
 20
2.5140973169622556
 10
58.99090495679855
 20
2.378581173260573
 10
59.057298772169176
 20
2.247612551159618
 10
59.1236925875398
 20
2.116643929058663
 10
59.22237380627559
 20
2.0152341973624375
 10
59.35334242837654
 20
1.9433833560709413
 10
59.4843110504775
 20
1.8715325147794453
 10
59.625284220100056
 20
1.8356070941336973
 10
59.776261937244215
 20
1.8356070941336973
 10
60.01091405184176
 20
1.8356070941336973
 10
60.20463847203275
 20
1.9110959527057754
 10
60.357435197817196
 20
2.062073669849932
 10
60.510231923601644
 20
2.2130513869940884
 10
60.58663028649387
 20
2.4049567985447933
 10
60.58663028649387
 20
2.6377899045020463
 10
60.58663028649387
 20
2.8742610277398817
 10
60.50795816280128
 20
3.069804456571169
 10
60.350613915416105
 20
3.2244201909959074
 10
60.19326966803093
 20
3.379035925420646
 10
59.99636198271943
 20
3.4563437926330147
 10
59.759890859481594
 20
3.4563437926330147
 10
59.52887676216463
 20
3.4563437926330147
 10
59.337426102773996
 20
3.379945429740791
 10
59.1855388813097
 20
3.2271487039563436
 10
59.0336516598454
 20
3.0743519781718964
 10
58.95770804911324
 20
2.8833560709413373
 10
58.95770804911324
 20
2.6541609822646657
 97
0
 97
0
 92
0
 93
1
 72
4
 94
3
 73
0
 74
0
 95
29
 96
25
 40
0.0
 40
0.0
 40
0.0
 40
0.0
 40
1.0
 40
1.0
 40
1.0
 40
2.0
 40
2.0
 40
2.0
 40
3.0
 40
3.0
 40
3.0
 40
4.0
 40
4.0
 40
4.0
 40
5.0
 40
5.0
 40
5.0
 40
6.0
 40
6.0
 40
6.0
 40
7.0
 40
7.0
 40
7.0
 40
8.0
 40
8.0
 40
8.0
 40
8.0
 10
59.11596180081857
 20
4.501364256480218
 10
59.11596180081857
 20
4.31218735788995
 10
59.176898590268316
 20
4.157571623465212
 10
59.29877216916781
 20
4.0375170532060025
 10
59.420645748067315
 20
3.917462482946794
 10
59.57889949977263
 20
3.8574351978171895
 10
59.77353342428378
 20
3.8574351978171895
 10
59.962710322874045
 20
3.8574351978171895
 10
60.11778080945886
 20
3.9170077307867213
 10
60.23874488403821
 20
4.036152796725784
 10
60.35970895861757
 20
4.155297862664847
 10
60.42019099590724
 20
4.301273306048204
 10
60.42019099590724
 20
4.474079126875853
 10
60.42019099590724
 20
4.654160982264665
 10
60.35788994997727
 20
4.805593451568895
 10
60.233287858117336
 20
4.928376534788541
 10
60.1086857662574
 20
5.051159618008185
 10
59.95361527967259
 20
5.1125511596180075
 10
59.7680763983629
 20
5.1125511596180075
 10
59.58071850841293
 20
5.1125511596180075
 10
59.42519326966804
 20
5.052523874488404
 10
59.30150068212825
 20
4.932469304229195
 10
59.177808094588464
 20
4.812414733969986
 10
59.11596180081857
 20
4.6687130513869946
 10
59.11596180081857
 20
4.501364256480218
 97
0
 97
0
 75
0
 76
1
 52
-45.0
 41
0.02
 77
0
 78
1
 53
0.0
 43
0.0
 44
-0.0
 45
0.0
 46
0.0635
 79
0
 98
0
  0
HATCH
  5
38
330
17
100
AcDbEntity
  8
0
 62
1
100
AcDbHatch
 10
0.0
 20
0.0
 30
0.0
210
0.0
220
0.0
230
1.0
  2
ANSI31
 70
0
 71
0
 91
2
 92
1
 93
3
 72
1
 10
61.63983628922239
 20
2.4249658935879945
 11
62.111869031377914
 21
2.4686221009549794
 72
4
 94
3
 73
0
 74
0
 95
26
 96
22
 40
0.0
 40
0.0
 40
0.0
 40
0.0
 40
1.0
 40
1.0
 40
1.0
 40
2.0
 40
2.0
 40
2.0
 40
3.0
 40
3.0
 40
3.0
 40
4.0
 40
4.0
 40
4.0
 40
5.0
 40
5.0
 40
5.0
 40
6.0
 40
6.0
 40
6.0
 40
7.0
 40
7.0
 40
7.0
 40
7.0
 10
62.111869031377914
 20
2.4686221009549794
 10
62.151887221464314
 20
2.2467030468394724
 10
62.228285584356534
 20
2.0857207821737154
 10
62.34106412005458
 20
1.985675306957708
 10
62.45384265575263
 20
1.8856298317417008
 10
62.598453842655765
 20
1.8356070941336973
 10
62.774897680764
 20
1.8356070941336973
 10
62.92587539790815
 20
1.8356070941336973
 10
63.058208276489324
 20
1.870168258299227
 10
63.171896316507514
 20
1.9392905866302865
 10
63.2855843565257
 20
2.008412914961346
 10
63.37880854934062
 20
2.100727603456116
 10
63.45156889495226
 20
2.2162346521145975
 10
63.52432924056391
 20
2.3317417007730787
 10
63.585266030013656
 20
2.4877216916780354
 10
63.63437926330151
 20
2.684174624829468
 10
63.68349249658937
 20
2.8806275579809
 10
63.7080491132333
 20
3.080718508412915
 10
63.7080491132333
 20
3.2844474761255116
 10
63.7080491132333
 20
3.3062755798090038
 10
63.70713960891315
 20
3.3390177353342425
 10
63.70532060027286
 20
3.382673942701228
 97
0
 72
4
 94
3
 73
0
 74
0
 95
47
 96
43
 40
0.0
 40
0.0
 40
0.0
 40
0.0
 40
1.0
 40
1.0
 40
1.0
 40
2.0
 40
2.0
 40
2.0
 40
3.0
 40
3.0
 40
3.0
 40
4.0
 40
4.0
 40
4.0
 40
5.0
 40
5.0
 40
5.0
 40
6.0
 40
6.0
 40
6.0
 40
7.0
 40
7.0
 40
7.0
 40
8.0
 40
8.0
 40
8.0
 40
9.0
 40
9.0
 40
9.0
 40
10.0
 40
10.0
 40
10.0
 40
11.0
 40
11.0
 40
11.0
 40
12.0
 40
12.0
 40
12.0
 40
13.0
 40
13.0
 40
13.0
 40
14.0
 40
14.0
 40
14.0
 40
14.0
 10
63.70532060027286
 20
3.382673942701228
 10
63.607094133697146
 20
3.2262391996361983
 10
63.47294224647568
 20
3.099363346975898
 10
63.30286493860847
 20
3.0020463847203276
 10
63.13278763074126
 20
2.9047294224647566
 10
62.94861300591179
 20
2.8560709413369714
 10
62.750341064120065
 20
2.8560709413369714
 10
62.41928149158709
 20
2.8560709413369714
 10
62.13915416098227
 20
2.97612551159618
 10
61.909959072305604
 20
3.2162346521145975
 10
61.680763983628935
 20
3.4563437926330147
 10
61.5661664392906
 20
3.772851296043656
 10
61.5661664392906
 20
4.165757162346521
 10
61.5661664392906
 20
4.571396089131424
 10
61.68576625738974
 20
4.897908140063665
 10
61.92496589358801
 20
5.145293315143247
 10
62.16416552978628
 20
5.3926784902228295
 10
62.46384720327423
 20
5.51637107776262
 10
62.824010914051854
 20
5.51637107776262
 10
63.084129149613474
 20
5.51637107776262
 10
63.32196452933153
 20
5.446339245111415
 10
63.53751705320602
 20
5.306275579809004
 10
63.7530695770805
 20
5.166211914506594
 10
63.916780354706695
 20
4.966575716234652
 10
64.0286493860846
 20
4.707366984993179
 10
64.14051841746249
 20
4.448158253751705
 10
64.19645293315145
 20
4.072987721691678
 10
64.19645293315145
 20
3.581855388813097
 10
64.19645293315145
 20
3.0707139608913145
 10
64.14097316962257
 20
2.6637107776261937
 10
64.03001364256482
 20
2.3608458390177356
 10
63.919054115507066
 20
2.057980900409277
 10
63.75397908140065
 20
1.8274215552523874
 10
63.53478854024558
 20
1.669167803547067
 10
63.31559799909051
 20
1.5109140518417463
 10
63.0586630286494
 20
1.431787175989086
 10
62.76398362892225
 20
1.431787175989086
 10
62.451114142792186
 20
1.431787175989086
 10
62.1955434288313
 20
1.5186448385629832
 10
61.997271487039576
 20
1.6923601637107777
 10
61.79899954524785
 20
1.8660754888585722
 10
61.67985447930879
 20
2.1102773988176446
 10
61.63983628922239
 20
2.4249658935879945
 97
0
 97
0
 92
0
 93
1
 72
4
 94
3
 73
0
 74
0
 95
29
 96
25
 40
0.0
 40
0.0
 40
0.0
 40
0.0
 40
1.0
 40
1.0
 40
1.0
 40
2.0
 40
2.0
 40
2.0
 40
3.0
 40
3.0
 40
3.0
 40
4.0
 40
4.0
 40
4.0
 40
5.0
 40
5.0
 40
5.0
 40
6.0
 40
6.0
 40
6.0
 40
7.0
 40
7.0
 40
7.0
 40
8.0
 40
8.0
 40
8.0
 40
8.0
 10
63.65075034106413
 20
4.1903137789904505
 10
63.65075034106413
 20
4.472260118235562
 10
63.57571623465213
 20
4.69599818099136
 10
63.42564802182812
 20
4.861527967257844
 10
63.27557980900411
 20
5.027057753524329
 10
63.09504320145522
 20
5.109822646657571
 10
62.88403819918146
 20
5.109822646657571
 10
62.66575716234653
 20
5.109822646657571
 10
62.47567075943612
 20
5.020691223283311
 10
62.31377899045022
 20
4.842428376534789
 10
62.151887221464314
 20
4.664165529786267
 10
62.070941336971366
 20
4.433151432469304
 10
62.070941336971366
 20
4.149386084583902
 10
62.070941336971366
 20
3.8947248749431562
 10
62.14779445202366
 20
3.68781264211005
 10
62.30150068212825
 20
3.528649386084584
 10
62.455206912232846
 20
3.3694861300591175
 10
62.64483856298319
 20
3.289904502046385
 10
62.87039563437928
 20
3.289904502046385
 10
63.09777171441566
 20
3.289904502046385
 10
63.28467485220556
 20
3.3694861300591175
 10
63.431105047748986
 20
3.528649386084584
 10
63.57753524329242
 20
3.68781264211005
 10
63.65075034106413
 20
3.908367439745339
 10
63.65075034106413
 20
4.1903137789904505
 97
0
 97
0
 75
0
 76
1
 52
-45.0
 41
0.02
 77
0
 78
1
 53
0.0
 43
0.0
 44
-0.0
 45
0.0
 46
0.0635
 79
0
 98
0
  0
HATCH
  5
39
330
17
100
AcDbEntity
  8
0
 62
1
100
AcDbHatch
 10
0.0
 20
0.0
 30
0.0
210
0.0
220
0.0
230
1.0
  2
ANSI31
 70
0
 71
0
 91
1
 92
1
 93
7
 72
1
 10
42.92223738062756
 20
2.5559345156889495
 11
43.413369713506135
 21
2.621418826739427
 72
4
 94
3
 73
0
 74
0
 95
26
 96
22
 40
0.0
 40
0.0
 40
0.0
 40
0.0
 40
1.0
 40
1.0
 40
1.0
 40
2.0
 40
2.0
 40
2.0
 40
3.0
 40
3.0
 40
3.0
 40
4.0
 40
4.0
 40
4.0
 40
5.0
 40
5.0
 40
5.0
 40
6.0
 40
6.0
 40
6.0
 40
7.0
 40
7.0
 40
7.0
 40
7.0
 10
43.413369713506135
 20
2.621418826739427
 10
43.469758981355156
 20
2.3431105047748977
 10
43.56571168713051
 20
2.1425648021828105
 10
43.701227830832195
 20
2.019781718963165
 10
43.83674397453388
 20
1.8969986357435198
 10
44.00181900864029
 20
1.8356070941336973
 10
44.196452933151434
 20
1.8356070941336973
 10
44.4274670304684
 20
1.8356070941336973
 10
44.62255570713961
 20
1.915643474306503
 10
44.781718963165076
 20
2.0757162346521145
 10
44.94088221919054
 20
2.2357889949977263
 10
45.020463847203274
 20
2.4340609367894497
 10
45.020463847203274
 20
2.670532060027285
 10
45.020463847203274
 20
2.8960891314233743
 10
44.946793997271484
 20
3.0820827648931335
 10
44.79945429740791
 20
3.228512960436562
 10
44.65211459754434
 20
3.3749431559799907
 10
44.46475670759436
 20
3.4481582537517053
 10
44.23738062755798
 20
3.4481582537517053
 10
44.14461118690314
 20
3.4481582537517053
 10
44.029104138244655
 20
3.429968167348795
 10
43.89085948158254
 20
3.3935879945429743
 97
0
 72
1
 10
43.89085948158254
 20
3.3935879945429743
 11
43.94542974079127
 21
3.8246930422919507
 72
4
 94
3
 73
0
 74
0
 95
26
 96
22
 40
0.0
 40
0.0
 40
0.0
 40
0.0
 40
1.0
 40
1.0
 40
1.0
 40
2.0
 40
2.0
 40
2.0
 40
3.0
 40
3.0
 40
3.0
 40
4.0
 40
4.0
 40
4.0
 40
5.0
 40
5.0
 40
5.0
 40
6.0
 40
6.0
 40
6.0
 40
7.0
 40
7.0
 40
7.0
 40
7.0
 10
43.94542974079127
 20
3.8246930422919507
 10
43.9781718963165
 20
3.821055025011369
 10
44.00454752160073
 20
3.819236016371078
 10
44.02455661664393
 20
3.819236016371078
 10
44.233742610277396
 20
3.819236016371078
 10
44.422010004547516
 20
3.8738062755798093
 10
44.589358799454295
 20
3.9829467939972716
 10
44.756707594361075
 20
4.0920873124147334
 10
44.84038199181446
 20
4.260345611641656
 10
44.84038199181446
 20
4.487721691678035
 10
44.84038199181446
 20
4.667803547066848
 10
44.77944520236471
 20
4.816962255570714
 10
44.65757162346521
 20
4.935197817189632
 10
44.535698044565706
 20
5.053433378808549
 10
44.37835379718053
 20
5.1125511596180075
 10
44.18553888130968
 20
5.1125511596180075
 10
43.994542974079124
 20
5.1125511596180075
 10
43.83537971805366
 20
5.052523874488404
 10
43.70804911323329
 20
4.932469304229195
 10
43.580718508412915
 20
4.812414733969986
 10
43.49886311959982
 20
4.632332878581173
 10
43.462482946794
 20
4.392223738062755
 97
0
 72
1
 10
43.462482946794
 20
4.392223738062755
 11
42.97135061391541
 21
4.479536152796726
 72
4
 94
3
 73
0
 74
0
 95
26
 96
22
 40
0.0
 40
0.0
 40
0.0
 40
0.0
 40
1.0
 40
1.0
 40
1.0
 40
2.0
 40
2.0
 40
2.0
 40
3.0
 40
3.0
 40
3.0
 40
4.0
 40
4.0
 40
4.0
 40
5.0
 40
5.0
 40
5.0
 40
6.0
 40
6.0
 40
6.0
 40
7.0
 40
7.0
 40
7.0
 40
7.0
 10
42.97135061391541
 20
4.479536152796726
 10
43.03137789904502
 20
4.808776716689405
 10
43.167803547066846
 20
5.063892678490223
 10
43.3806275579809
 20
5.2448840381991815
 10
43.593451568894956
 20
5.42587539790814
 10
43.8581173260573
 20
5.51637107776262
 10
44.17462482946794
 20
5.51637107776262
 10
44.39290586630286
 20
5.51637107776262
 10
44.59390632105502
 20
5.469531605275126
 10
44.777626193724416
 20
5.375852660300136
 10
44.961346066393816
 20
5.282173715325148
 10
45.101864483856296
 20
5.154388358344702
 10
45.199181446111865
 20
4.992496589358799
 10
45.296498408367434
 20
4.830604820372897
 10
45.34515688949522
 20
4.658708503865393
 10
45.34515688949522
 20
4.47680763983629
 10
45.34515688949522
 20
4.30400181900864
 10
45.2987721691678
 20
4.146657571623465
 10
45.206002728512956
 20
4.004774897680764
 10
45.113233287858115
 20
3.8628922237380627
 10
44.97589813551615
 20
3.750113688040018
 10
44.79399727148704
 20
3.6664392905866303
 97
0
 72
4
 94
3
 73
0
 74
0
 95
23
 96
19
 40
0.0
 40
0.0
 40
0.0
 40
0.0
 40
1.0
 40
1.0
 40
1.0
 40
2.0
 40
2.0
 40
2.0
 40
3.0
 40
3.0
 40
3.0
 40
4.0
 40
4.0
 40
4.0
 40
5.0
 40
5.0
 40
5.0
 40
6.0
 40
6.0
 40
6.0
 40
6.0
 10
44.79399727148704
 20
3.6664392905866303
 10
45.03046839472488
 20
3.611869031377899
 10
45.21418826739427
 20
3.498635743519782
 10
45.34515688949522
 20
3.3267394270122783
 10
45.47612551159618
 20
3.1548431105047747
 10
45.541609822646656
 20
2.939745338790359
 10
45.541609822646656
 20
2.6814461118690316
 10
45.541609822646656
 20
2.3321964529331516
 10
45.414279217826284
 20
2.0361527967257844
 10
45.15961800818554
 20
1.7933151432469305
 10
44.90495679854479
 20
1.5504774897680764
 10
44.58299226921328
 20
1.4290586630286493
 10
44.193724420190996
 20
1.4290586630286493
 10
43.842655752614824
 20
1.4290586630286495
 10
43.551159618008185
 20
1.5336516598453842
 10
43.31923601637108
 20
1.7428376534788539
 10
43.087312414733965
 20
1.9520236471123238
 10
42.95497953615279
 20
2.223055934515689
 10
42.92223738062756
 20
2.5559345156889495
 97
0
 97
0
 75
0
 76
1
 52
-45.0
 41
0.02
 77
0
 78
1
 53
0.0
 43
0.0
 44
-0.0
 45
0.0
 46
0.0635
 79
0
 98
0
  0
HATCH
  5
3A
330
17
100
AcDbEntity
  8
0
 62
1
100
AcDbHatch
 10
0.0
 20
0.0
 30
0.0
210
0.0
220
0.0
230
1.0
  2
ANSI31
 70
0
 71
0
 91
2
 92
1
 93
1
 72
4
 94
3
 73
0
 74
0
 95
41
 96
37
 40
0.0
 40
0.0
 40
0.0
 40
0.0
 40
1.0
 40
1.0
 40
1.0
 40
2.0
 40
2.0
 40
2.0
 40
3.0
 40
3.0
 40
3.0
 40
4.0
 40
4.0
 40
4.0
 40
5.0
 40
5.0
 40
5.0
 40
6.0
 40
6.0
 40
6.0
 40
7.0
 40
7.0
 40
7.0
 40
8.0
 40
8.0
 40
8.0
 40
9.0
 40
9.0
 40
9.0
 40
10.0
 40
10.0
 40
10.0
 40
11.0
 40
11.0
 40
11.0
 40
12.0
 40
12.0
 40
12.0
 40
12.0
 10
64.67394270122784
 20
3.4727148703956345
 10
64.67394270122784
 20
3.9456571168713053
 10
64.72260118235563
 20
4.3262846748522055
 10
64.8199181446112
 20
4.614597544338336
 10
64.91723510686677
 20
4.902910413824466
 10
65.06184629376992
 20
5.1252842201000455
 10
65.25375170532061
 20
5.2817189631650745
 10
65.44565711687132
 20
5.438153706230105
 10
65.68713051386996
 20
5.51637107776262
 10
65.97817189631652
 20
5.51637107776262
 10
66.19281491587087
 20
5.51637107776262
 10
66.38108231014098
 20
5.473169622555707
 10
66.54297407912689
 20
5.386766712141883
 10
66.7048658481128
 20
5.300363801728058
 10
66.83856298317419
 20
5.175761709868122
 10
66.94406548431107
 20
5.012960436562073
 10
67.04956798544795
 20
4.850159163256025
 10
67.13233287858118
 20
4.6518872214643014
 10
67.19236016371079
 20
4.418144611186904
 10
67.2523874488404
 20
4.184402000909504
 10
67.2824010914052
 20
3.8692587539790813
 10
67.2824010914052
 20
3.4727148703956345
 10
67.2824010914052
 20
3.0034106412005457
 10
67.23419736243748
 20
2.6246020918599364
 10
67.13778990450206
 20
2.3362892223738063
 10
67.04138244656663
 20
2.047976352887676
 10
66.89722601182358
 20
1.8251477944520236
 10
66.70532060027287
 20
1.6678035470668486
 10
66.51341518872216
 20
1.5104592996816735
 10
66.27103228740337
 20
1.431787175989086
 10
65.97817189631652
 20
1.431787175989086
 10
65.59254206457481
 20
1.431787175989086
 10
65.28967712596636
 20
1.570031832651205
 10
65.06957708049114
 20
1.8465211459754434
 10
64.80582082764894
 20
2.179399727148704
 10
64.67394270122784
 20
2.721464301955434
 10
64.67394270122784
 20
3.4727148703956345
 97
0
 97
0
 92
0
 93
1
 72
4
 94
3
 73
0
 74
0
 95
29
 96
25
 40
0.0
 40
0.0
 40
0.0
 40
0.0
 40
1.0
 40
1.0
 40
1.0
 40
2.0
 40
2.0
 40
2.0
 40
3.0
 40
3.0
 40
3.0
 40
4.0
 40
4.0
 40
4.0
 40
5.0
 40
5.0
 40
5.0
 40
6.0
 40
6.0
 40
6.0
 40
7.0
 40
7.0
 40
7.0
 40
8.0
 40
8.0
 40
8.0
 40
8.0
 10
65.1787175989086
 20
3.4727148703956345
 10
65.1787175989086
 20
2.8160527512505684
 10
65.2555707139609
 20
2.379035925420646
 10
65.4092769440655
 20
2.161664392905866
 10
65.56298317417009
 20
1.944292860391087
 10
65.75261482492044
 20
1.8356070941336973
 10
65.97817189631652
 20
1.8356070941336973
 10
66.20372896771262
 20
1.8356070941336973
 10
66.39336061846295
 20
1.9447476125511596
 10
66.54706684856754
 20
2.1630286493860846
 10
66.70077307867213
 20
2.3813096862210097
 10
66.77762619372443
 20
2.8178717598908594
 10
66.77762619372443
 20
3.4727148703956345
 10
66.77762619372443
 20
4.131195998180991
 10
66.70077307867213
 20
4.568667576170987
 10
66.54706684856754
 20
4.78512960436562
 10
66.39336061846295
 20
5.001591632560254
 10
66.20190995907232
 20
5.109822646657571
 10
65.97271487039565
 20
5.109822646657571
 10
65.74715779899955
 20
5.109822646657571
 10
65.56707594361075
 20
5.014324693042292
 10
65.43246930422922
 20
4.823328785811732
 10
65.26330150068215
 20
4.579581628012733
 10
65.1787175989086
 20
4.129376989540701
 10
65.1787175989086
 20
3.4727148703956345
 97
0
 97
0
 75
0
 76
1
 52
-45.0
 41
0.02
 77
0
 78
1
 53
0.0
 43
0.0
 44
-0.0
 45
0.0
 46
0.0635
 79
0
 98
0
  0
HATCH
  5
3B
330
17
100
AcDbEntity
  8
0
 62
1
100
AcDbHatch
 10
0.0
 20
0.0
 30
0.0
210
0.0
220
0.0
230
1.0
  2
ANSI31
 70
0
 71
0
 91
1
 92
1
 93
9
 72
1
 10
49.13506139154161
 20
2.5477489768076396
 11
49.650750341064125
 21
2.591405184174625
 72
4
 94
3
 73
0
 74
0
 95
29
 96
25
 40
0.0
 40
0.0
 40
0.0
 40
0.0
 40
1.0
 40
1.0
 40
1.0
 40
2.0
 40
2.0
 40
2.0
 40
3.0
 40
3.0
 40
3.0
 40
4.0
 40
4.0
 40
4.0
 40
5.0
 40
5.0
 40
5.0
 40
6.0
 40
6.0
 40
6.0
 40
7.0
 40
7.0
 40
7.0
 40
8.0
 40
8.0
 40
8.0
 40
8.0
 10
49.650750341064125
 20
2.591405184174625
 10
49.688949522510235
 20
2.340381991814461
 10
49.77762619372442
 20
2.1516598453842657
 10
49.91678035470669
 20
2.0252387448840383
 10
50.05593451568895
 20
1.898817644383811
 10
50.2237380627558
 20
1.8356070941336973
 10
50.420190995907234
 20
1.8356070941336973
 10
50.65666211914507
 20
1.8356070941336973
 10
50.85675306957708
 20
1.9247385175079583
 10
51.020463847203274
 20
2.10300136425648
 10
51.184174624829474
 20
2.281264211005002
 10
51.26603001364257
 20
2.517735334242838
 10
51.26603001364257
 20
2.8124147339699865
 10
51.26603001364257
 20
3.0925420645748067
 10
51.18735788994998
 20
3.3135516143701684
 10
51.0300136425648
 20
3.4754433833560707
 10
50.87266939517963
 20
3.637335152341974
 10
50.66666666666667
 20
3.718281036834925
 10
50.41200545702593
 20
3.718281036834925
 10
50.2537517053206
 20
3.718281036834925
 10
50.11095952705776
 20
3.682355616189177
 10
49.983628922237386
 20
3.610504774897681
 10
49.856298317417014
 20
3.538653933606185
 10
49.75625284220101
 20
3.445429740791269
 10
49.68349249658936
 20
3.330832196452933
 97
0
 72
1
 10
49.68349249658936
 20
3.330832196452933
 11
49.222373806275584
 21
3.3908594815825372
 72
1
 10
49.222373806275584
 20
3.3908594815825372
 11
49.60982264665758
 21
5.445429740791269
 72
1
 10
49.60982264665758
 20
5.445429740791269
 11
51.59890859481583
 21
5.445429740791269
 72
1
 10
51.59890859481583
 20
5.445429740791269
 11
51.59890859481583
 21
4.97612551159618
 72
1
 10
51.59890859481583
 20
4.97612551159618
 11
50.00272851296044
 21
4.97612551159618
 72
1
 10
50.00272851296044
 20
4.97612551159618
 11
49.78717598908595
 21
3.9010914051841747
 72
4
 94
3
 73
0
 74
0
 95
26
 96
22
 40
0.0
 40
0.0
 40
0.0
 40
0.0
 40
1.0
 40
1.0
 40
1.0
 40
2.0
 40
2.0
 40
2.0
 40
3.0
 40
3.0
 40
3.0
 40
4.0
 40
4.0
 40
4.0
 40
5.0
 40
5.0
 40
5.0
 40
6.0
 40
6.0
 40
6.0
 40
7.0
 40
7.0
 40
7.0
 40
7.0
 10
49.78717598908595
 20
3.9010914051841747
 10
50.02728512960437
 20
4.068440200090951
 10
50.27921782628468
 20
4.1521145975443385
 10
50.54297407912688
 20
4.1521145975443385
 10
50.89222373806276
 20
4.1521145975443385
 10
51.186903137789905
 20
4.031150522964984
 10
51.427012278308325
 20
3.789222373806276
 10
51.667121418826746
 20
3.547294224647567
 10
51.78717598908595
 20
3.2362437471577987
 10
51.78717598908595
 20
2.8560709413369714
 10
51.78717598908595
 20
2.4940882219190543
 10
51.68167348794907
 20
2.181218735788995
 10
51.47066848567531
 20
1.9174624829467941
 10
51.21418826739428
 20
1.5936789449749886
 10
50.86402910413825
 20
1.431787175989086
 10
50.420190995907234
 20
1.431787175989086
 10
50.05638926784903
 20
1.431787175989086
 10
49.75943610732151
 20
1.5336516598453842
 10
49.529331514324696
 20
1.7373806275579808
 10
49.29922692132788
 20
1.9411095952705777
 10
49.16780354706685
 20
2.211232378353797
 10
49.13506139154161
 20
2.5477489768076396
 97
0
 97
0
 75
0
 76
1
 52
-45.0
 41
0.02
 77
0
 78
1
 53
0.0
 43
0.0
 44
-0.0
 45
0.0
 46
0.0635
 79
0
 98
0
  0
HATCH
  5
3C
330
17
100
AcDbEntity
  8
0
 62
1
100
AcDbHatch
 10
0.0
 20
0.0
 30
0.0
210
0.0
220
0.0
230
1.0
  2
ANSI31
 70
0
 71
0
 91
1
 92
1
 93
6
 72
1
 10
42.39290586630286
 20
1.9720327421555253
 11
42.39290586630286
 21
1.5
 72
1
 10
42.39290586630286
 20
1.5
 11
39.748976807639835
 21
1.5
 72
4
 94
3
 73
0
 74
0
 95
32
 96
28
 40
0.0
 40
0.0
 40
0.0
 40
0.0
 40
1.0
 40
1.0
 40
1.0
 40
2.0
 40
2.0
 40
2.0
 40
3.0
 40
3.0
 40
3.0
 40
4.0
 40
4.0
 40
4.0
 40
5.0
 40
5.0
 40
5.0
 40
6.0
 40
6.0
 40
6.0
 40
7.0
 40
7.0
 40
7.0
 40
8.0
 40
8.0
 40
8.0
 40
9.0
 40
9.0
 40
9.0
 40
9.0
 10
39.748976807639835
 20
1.5
 10
39.74533879035925
 20
1.6182355616189177
 10
39.76443838108231
 20
1.7319236016371078
 10
39.806275579809004
 20
1.8410641200545703
 10
39.87357889949977
 20
2.0211459754433836
 10
39.981355161437016
 20
2.19849931787176
 10
40.129604365620736
 20
2.3731241473397002
 10
40.277853569804456
 20
2.54774897680764
 10
40.49204183719873
 20
2.7496589358799453
 10
40.77216916780355
 20
2.9788540245566164
 10
41.206912232833105
 20
3.3353797180536606
 10
41.50068212824011
 20
3.617780809458845
 10
41.653478854024556
 20
3.8260572987721693
 10
41.806275579809004
 20
4.034333788085494
 10
41.882673942701224
 20
4.231241473396999
 10
41.882673942701224
 20
4.416780354706685
 10
41.882673942701224
 20
4.6114142792178265
 10
41.813096862210095
 20
4.775579809004093
 10
41.67394270122783
 20
4.909276944065484
 10
41.534788540245565
 20
5.042974079126876
 10
41.35334242837653
 20
5.109822646657571
 10
41.129604365620736
 20
5.109822646657571
 10
40.893133242382895
 20
5.109822646657571
 10
40.703956343792626
 20
5.0388813096862215
 10
40.56207366984993
 20
4.89699863574352
 10
40.42019099590723
 20
4.7551159618008185
 10
40.34834015461573
 20
4.558663028649386
 10
40.34652114597544
 20
4.307639836289223
 97
0
 72
1
 10
40.34652114597544
 20
4.307639836289223
 11
39.841746248294676
 21
4.3594815825375175
 72
4
 94
3
 73
0
 74
0
 95
32
 96
28
 40
0.0
 40
0.0
 40
0.0
 40
0.0
 40
1.0
 40
1.0
 40
1.0
 40
2.0
 40
2.0
 40
2.0
 40
3.0
 40
3.0
 40
3.0
 40
4.0
 40
4.0
 40
4.0
 40
5.0
 40
5.0
 40
5.0
 40
6.0
 40
6.0
 40
6.0
 40
7.0
 40
7.0
 40
7.0
 40
8.0
 40
8.0
 40
8.0
 40
9.0
 40
9.0
 40
9.0
 40
9.0
 10
39.841746248294676
 20
4.3594815825375175
 10
39.87630741246021
 20
4.7360163710777625
 10
40.00636653024102
 20
5.022964984083675
 10
40.23192360163711
 20
5.220327421555252
 10
40.457480673033196
 20
5.417689859026831
 10
40.760345611641654
 20
5.51637107776262
 10
41.14051841746248
 20
5.51637107776262
 10
41.52432924056389
 20
5.51637107776262
 10
41.82810368349249
 20
5.409959072305593
 10
42.05184174624829
 20
5.197135061391542
 10
42.275579809004086
 20
4.98431105047749
 10
42.387448840381985
 20
4.720554797635289
 10
42.387448840381985
 20
4.405866302864938
 10
42.387448840381985
 20
4.245793542519327
 10
42.35470668485675
 20
4.0884492951341525
 10
42.289222373806275
 20
3.9338335607094135
 10
42.2237380627558
 20
3.779217826284675
 10
42.115052296498405
 20
3.6164165529786265
 10
41.963165075034105
 20
3.445429740791269
 10
41.811277853569806
 20
3.2744429286039107
 10
41.55889040472942
 20
3.0397908140063663
 10
41.206002728512956
 20
2.741473396998636
 10
40.911323328785805
 20
2.4940882219190543
 10
40.72214643019554
 20
2.3262846748522055
 10
40.63847203274215
 20
2.23806275579809
 10
40.554797635288764
 20
2.1498408367439747
 10
40.4856753069577
 20
2.061164165529786
 10
40.43110504774897
 20
1.9720327421555253
 97
0
 72
1
 10
40.43110504774897
 20
1.9720327421555253
 11
42.39290586630286
 21
1.9720327421555253
 97
0
 75
0
 76
1
 52
-45.0
 41
0.02
 77
0
 78
1
 53
0.0
 43
0.0
 44
-0.0
 45
0.0
 46
0.0635
 79
0
 98
0
  0
HATCH
  5
3D
330
17
100
AcDbEntity
  8
0
 62
1
100
AcDbHatch
 10
0.0
 20
0.0
 30
0.0
210
0.0
220
0.0
230
1.0
  2
ANSI31
 70
0
 71
0
 91
2
 92
1
 93
6
 72
1
 10
13.858117326057299
 20
0.38949522510231915
 11
13.858117326057299
 21
4.3976807639836295
 72
1
 10
13.858117326057299
 20
4.3976807639836295
 11
14.305593451568894
 21
4.3976807639836295
 72
1
 10
14.305593451568894
 20
4.3976807639836295
 11
14.305593451568894
 21
4.021145975443384
 72
4
 94
3
 73
0
 74
0
 95
35
 96
31
 40
0.0
 40
0.0
 40
0.0
 40
0.0
 40
1.0
 40
1.0
 40
1.0
 40
2.0
 40
2.0
 40
2.0
 40
3.0
 40
3.0
 40
3.0
 40
4.0
 40
4.0
 40
4.0
 40
5.0
 40
5.0
 40
5.0
 40
6.0
 40
6.0
 40
6.0
 40
7.0
 40
7.0
 40
7.0
 40
8.0
 40
8.0
 40
8.0
 40
9.0
 40
9.0
 40
9.0
 40
10.0
 40
10.0
 40
10.0
 40
10.0
 10
14.305593451568894
 20
4.021145975443384
 10
14.411095952705775
 20
4.1684856753069575
 10
14.530241018644839
 20
4.278990450204638
 10
14.663028649386085
 20
4.352660300136426
 10
14.795816280127331
 20
4.426330150068213
 10
14.956798544793088
 20
4.463165075034107
 10
15.145975443383357
 20
4.463165075034107
 10
15.393360618462937
 20
4.463165075034107
 10
15.611641655297863
 20
4.39949977262392
 10
15.800818553888131
 20
4.272169167803547
 10
15.9899954524784
 20
4.144838562983175
 10
16.132787630741248
 20
3.9652114597544337
 10
16.229195088676672
 20
3.733287858117326
 10
16.325602546612096
 20
3.501364256480218
 10
16.37380627557981
 20
3.2471577989995453
 10
16.37380627557981
 20
2.970668485675307
 10
16.37380627557981
 20
2.6741700773078674
 10
16.320600272851294
 20
2.407230559345157
 10
16.21418826739427
 20
2.169849931787176
 10
16.107776261937246
 20
1.9324693042291952
 10
15.953160527512505
 20
1.750568440200091
 10
15.750341064120054
 20
1.6241473396998636
 10
15.547521600727604
 20
1.4977262391996362
 10
15.334242837653479
 20
1.4345156889495225
 10
15.11050477489768
 20
1.4345156889495225
 10
14.946793997271486
 20
1.4345156889495225
 10
14.799909049567985
 20
1.4690768531150522
 10
14.669849931787176
 20
1.5381991814461118
 10
14.539790814006366
 20
1.6073215097771714
 10
14.432924056389268
 20
1.6946339245111415
 10
14.34924965893588
 20
1.800136425648022
 97
0
 72
1
 10
14.34924965893588
 20
1.800136425648022
 11
14.34924965893588
 21
0.38949522510231915
 72
1
 10
14.34924965893588
 20
0.38949522510231915
 11
13.858117326057299
 21
0.38949522510231915
 97
0
 92
0
 93
1
 72
4
 94
3
 73
0
 74
0
 95
29
 96
25
 40
0.0
 40
0.0
 40
0.0
 40
0.0
 40
1.0
 40
1.0
 40
1.0
 40
2.0
 40
2.0
 40
2.0
 40
3.0
 40
3.0
 40
3.0
 40
4.0
 40
4.0
 40
4.0
 40
5.0
 40
5.0
 40
5.0
 40
6.0
 40
6.0
 40
6.0
 40
7.0
 40
7.0
 40
7.0
 40
8.0
 40
8.0
 40
8.0
 40
8.0
 10
14.302864938608458
 20
2.932469304229195
 10
14.302864938608458
 20
2.559572532969532
 10
14.378353797180536
 20
2.2839927239654387
 10
14.529331514324692
 20
2.1057298772169166
 10
14.680309231468849
 20
1.9274670304683947
 10
14.8631195998181
 20
1.8383356070941337
 10
15.077762619372443
 20
1.8383356070941337
 10
15.296043656207367
 20
1.8383356070941337
 10
15.482946793997272
 20
1.930650295588904
 10
15.638472032742156
 20
2.1152796725784446
 10
15.79399727148704
 20
2.2999090495679857
 10
15.871759890859481
 20
2.5859481582537516
 10
15.871759890859481
 20
2.9733969986357436
 10
15.871759890859481
 20
3.342655752614825
 10
15.79581628012733
 20
3.619145065939063
 10
15.643929058663028
 20
3.8028649386084585
 10
15.492041837198727
 20
3.9865848112778535
 10
15.310595725329694
 20
4.078444747612551
 10
15.099590723055934
 20
4.078444747612551
 10
14.890404729422464
 20
4.078444747612551
 10
14.70532060027285
 20
3.980673033196908
 10
14.544338335607094
 20
3.7851296043656206
 10
14.383356070941337
 20
3.589586175534334
 10
14.302864938608458
 20
3.3053660754888585
 10
14.302864938608458
 20
2.932469304229195
 97
0
 97
0
 75
0
 76
1
 52
-45.0
 41
0.02
 77
0
 78
1
 53
0.0
 43
0.0
 44
-0.0
 45
0.0
 46
0.0635
 79
0
 98
0
  0
HATCH
  5
3E
330
17
100
AcDbEntity
  8
0
 62
1
100
AcDbHatch
 10
0.0
 20
0.0
 30
0.0
210
0.0
220
0.0
230
1.0
  2
ANSI31
 70
0
 71
0
 91
1
 92
1
 93
7
 72
1
 10
55.383356070941346
 20
4.97612551159618
 11
55.383356070941346
 21
5.448158253751705
 72
1
 10
55.383356070941346
 20
5.448158253751705
 11
57.97271487039564
 21
5.448158253751705
 72
1
 10
57.97271487039564
 20
5.448158253751705
 11
57.97271487039564
 21
5.066166439290587
 72
4
 94
3
 73
0
 74
0
 95
14
 96
10
 40
0.0
 40
0.0
 40
0.0
 40
0.0
 40
1.0
 40
1.0
 40
1.0
 40
2.0
 40
2.0
 40
2.0
 40
3.0
 40
3.0
 40
3.0
 40
3.0
 10
57.97271487039564
 20
5.066166439290587
 10
57.7180536607549
 20
4.795134151887222
 10
57.46566621191452
 20
4.434970441109595
 10
57.21555252387449
 20
3.985675306957708
 10
56.965438835834476
 20
3.536380172805821
 10
56.772169167803554
 20
3.0743519781718964
 10
56.63574351978173
 20
2.5995907230559343
 10
56.53751705320601
 20
2.264893133242383
 10
56.47476125511597
 20
1.898362892223738
 10
56.447476125511606
 20
1.5
 97
0
 72
1
 10
56.447476125511606
 20
1.5
 11
55.94270122783084
 21
1.5
 72
4
 94
3
 73
0
 74
0
 95
14
 96
10
 40
0.0
 40
0.0
 40
0.0
 40
0.0
 40
1.0
 40
1.0
 40
1.0
 40
2.0
 40
2.0
 40
2.0
 40
3.0
 40
3.0
 40
3.0
 40
3.0
 10
55.94270122783084
 20
1.5
 10
55.948158253751714
 20
1.81468849477035
 10
56.01000454752161
 20
2.194861300591178
 10
56.12824010914053
 20
2.640518417462483
 10
56.246475670759445
 20
3.0861755343337878
 10
56.41609822646658
 20
3.5159163256025465
 10
56.63710777626194
 20
3.9297407912687587
 10
56.858117326057304
 20
4.343565256934971
 10
57.09322419281492
 20
4.692360163710777
 10
57.3424283765348
 20
4.97612551159618
 97
0
 72
1
 10
57.3424283765348
 20
4.97612551159618
 11
55.383356070941346
 21
4.97612551159618
 97
0
 75
0
 76
1
 52
-45.0
 41
0.02
 77
0
 78
1
 53
0.0
 43
0.0
 44
-0.0
 45
0.0
 46
0.0635
 79
0
 98
0
  0
HATCH
  5
3F
330
17
100
AcDbEntity
  8
0
 62
1
100
AcDbHatch
 10
0.0
 20
0.0
 30
0.0
210
0.0
220
0.0
230
1.0
  2
ANSI31
 70
0
 71
0
 91
2
 92
1
 93
6
 72
1
 10
73.03137789904504
 20
1.5
 11
72.57571623465213
 21
1.5
 72
1
 10
72.57571623465213
 20
1.5
 11
72.57571623465213
 21
5.5
 72
1
 10
72.57571623465213
 20
5.5
 11
73.06684856753071
 21
5.5
 72
1
 10
73.06684856753071
 20
5.5
 11
73.06684856753071
 21
4.072987721691678
 72
4
 94
3
 73
0
 74
0
 95
29
 96
25
 40
0.0
 40
0.0
 40
0.0
 40
0.0
 40
1.0
 40
1.0
 40
1.0
 40
2.0
 40
2.0
 40
2.0
 40
3.0
 40
3.0
 40
3.0
 40
4.0
 40
4.0
 40
4.0
 40
5.0
 40
5.0
 40
5.0
 40
6.0
 40
6.0
 40
6.0
 40
7.0
 40
7.0
 40
7.0
 40
8.0
 40
8.0
 40
8.0
 40
8.0
 10
73.06684856753071
 20
4.072987721691678
 10
73.2742155525239
 20
4.333105957253297
 10
73.53888130968625
 20
4.463165075034107
 10
73.86084583901776
 20
4.463165075034107
 10
74.03910868576628
 20
4.463165075034107
 10
74.20782173715327
 20
4.427239654388359
 10
74.36698499317873
 20
4.355388813096862
 10
74.5261482492042
 20
4.283537971805366
 10
74.65711687130515
 20
4.1825829922692135
 10
74.7598908594816
 20
4.052523874488404
 10
74.86266484765804
 20
3.922464756707594
 10
74.94315597999092
 20
3.7655752614824918
 10
75.00136425648023
 20
3.581855388813097
 10
75.05957253296954
 20
3.398135516143702
 10
75.0886766712142
 20
3.201682582992269
 10
75.0886766712142
 20
2.992496589358799
 10
75.0886766712142
 20
2.4959072305593453
 10
74.96589358799456
 20
2.112096407457935
 10
74.72032742155527
 20
1.8410641200545703
 10
74.47476125511598
 20
1.570031832651205
 10
74.18008185538883
 20
1.4345156889495225
 10
73.83628922237382
 20
1.4345156889495225
 10
73.4943155979991
 20
1.4345156889495225
 10
73.22601182355618
 20
1.5773078672123693
 10
73.03137789904504
 20
1.8628922237380627
 97
0
 72
1
 10
73.03137789904504
 20
1.8628922237380627
 11
73.03137789904504
 21
1.5
 97
0
 92
0
 93
1
 72
4
 94
3
 73
0
 74
0
 95
29
 96
25
 40
0.0
 40
0.0
 40
0.0
 40
0.0
 40
1.0
 40
1.0
 40
1.0
 40
2.0
 40
2.0
 40
2.0
 40
3.0
 40
3.0
 40
3.0
 40
4.0
 40
4.0
 40
4.0
 40
5.0
 40
5.0
 40
5.0
 40
6.0
 40
6.0
 40
6.0
 40
7.0
 40
7.0
 40
7.0
 40
8.0
 40
8.0
 40
8.0
 40
8.0
 10
73.02592087312416
 20
2.970668485675307
 10
73.02592087312416
 20
2.623237835379718
 10
73.07321509777174
 20
2.3722146430195545
 10
73.16780354706687
 20
2.217598908594816
 10
73.3224192814916
 20
1.964756707594361
 10
73.53160527512507
 20
1.8383356070941337
 10
73.79536152796727
 20
1.8383356070941337
 10
74.01000454752162
 20
1.8383356070941337
 10
74.1955434288313
 20
1.9315597999090497
 10
74.35197817189633
 20
2.1180081855388813
 10
74.50841291496135
 20
2.3044565711687133
 10
74.58663028649387
 20
2.5823101409731697
 10
74.58663028649387
 20
2.951568894952251
 10
74.58663028649387
 20
3.3299226921327874
 10
74.51159618008187
 20
3.6091405184174628
 10
74.36152796725786
 20
3.789222373806276
 10
74.21145975443385
 20
3.969304229195089
 10
74.03001364256481
 20
4.059345156889496
 10
73.81718963165076
 20
4.059345156889496
 10
73.60254661209642
 20
4.059345156889496
 10
73.41700773078674
 20
3.9661209640745794
 10
73.2605729877217
 20
3.779672578444748
 10
73.10413824465668
 20
3.593224192814916
 10
73.02592087312416
 20
3.323556161891769
 10
73.02592087312416
 20
2.970668485675307
 97
0
 97
0
 75
0
 76
1
 52
-45.0
 41
0.02
 77
0
 78
1
 53
0.0
 43
0.0
 44
-0.0
 45
0.0
 46
0.0635
 79
0
 98
0
  0
HATCH
  5
40
330
17
100
AcDbEntity
  8
0
 62
1
100
AcDbHatch
 10
0.0
 20
0.0
 30
0.0
210
0.0
220
0.0
230
1.0
  2
ANSI31
 70
0
 71
0
 91
2
 92
1
 93
4
 72
1
 10
28.264665757162348
 20
2.4331514324693044
 11
28.772169167803547
 21
2.370395634379263
 72
4
 94
3
 73
0
 74
0
 95
32
 96
28
 40
0.0
 40
0.0
 40
0.0
 40
0.0
 40
1.0
 40
1.0
 40
1.0
 40
2.0
 40
2.0
 40
2.0
 40
3.0
 40
3.0
 40
3.0
 40
4.0
 40
4.0
 40
4.0
 40
5.0
 40
5.0
 40
5.0
 40
6.0
 40
6.0
 40
6.0
 40
7.0
 40
7.0
 40
7.0
 40
8.0
 40
8.0
 40
8.0
 40
9.0
 40
9.0
 40
9.0
 40
9.0
 10
28.772169167803547
 20
2.370395634379263
 10
28.692132787630744
 20
2.0738972260118236
 10
28.543883583447023
 20
1.8437926330150067
 10
28.32742155525239
 20
1.680081855388813
 10
28.110959527057755
 20
1.5163710777626194
 10
27.834470213733518
 20
1.4345156889495225
 10
27.497953615279673
 20
1.4345156889495225
 10
27.07412460209186
 20
1.4345156889495225
 10
26.73806275579809
 20
1.5650295588904046
 10
26.489768076398363
 20
1.8260572987721693
 10
26.241473396998636
 20
2.0870850386539335
 10
26.117326057298772
 20
2.4531605275125057
 10
26.117326057298772
 20
2.9242837653478855
 10
26.117326057298772
 20
3.4117780809458846
 10
26.242837653478855
 20
3.790131878126421
 10
26.49386084583902
 20
4.059345156889496
 10
26.74488403819918
 20
4.328558435652569
 10
27.070486584811277
 20
4.463165075034107
 10
27.470668485675308
 20
4.463165075034107
 10
27.8581173260573
 20
4.463165075034107
 10
28.17462482946794
 20
4.3312869486130054
 10
28.42019099590723
 20
4.067530695770805
 10
28.665757162346523
 20
3.8037744429286042
 10
28.788540245566168
 20
3.4326966803092316
 10
28.788540245566168
 20
2.9542974079126876
 10
28.788540245566168
 20
2.925193269668031
 10
28.787630741246023
 20
2.881537062301046
 10
28.78581173260573
 20
2.8233287858117326
 97
0
 72
1
 10
28.78581173260573
 20
2.8233287858117326
 11
26.624829467939975
 21
2.8233287858117326
 72
4
 94
3
 73
0
 74
0
 95
17
 96
13
 40
0.0
 40
0.0
 40
0.0
 40
0.0
 40
1.0
 40
1.0
 40
1.0
 40
2.0
 40
2.0
 40
2.0
 40
3.0
 40
3.0
 40
3.0
 40
4.0
 40
4.0
 40
4.0
 40
4.0
 10
26.624829467939975
 20
2.8233287858117326
 10
26.643019554342885
 20
2.5050022737608004
 10
26.733060482037292
 20
2.261255115961801
 10
26.894952251023195
 20
2.092087312414734
 10
27.056844020009095
 20
1.9229195088676672
 10
27.2587539790814
 20
1.8383356070941337
 10
27.50068212824011
 20
1.8383356070941337
 10
27.680763983628925
 20
1.8383356070941337
 10
27.834470213733518
 20
1.8856298317417008
 10
27.96180081855389
 20
1.980218281036835
 10
28.089131423374262
 20
2.074806730331969
 10
28.190086402910413
 20
2.2257844474761255
 10
28.264665757162348
 20
2.4331514324693044
 97
0
 97
0
 92
0
 93
2
 72
1
 10
26.65211459754434
 20
3.2271487039563436
 11
28.27012278308322
 21
3.2271487039563436
 72
4
 94
3
 73
0
 74
0
 95
17
 96
13
 40
0.0
 40
0.0
 40
0.0
 40
0.0
 40
1.0
 40
1.0
 40
1.0
 40
2.0
 40
2.0
 40
2.0
 40
3.0
 40
3.0
 40
3.0
 40
4.0
 40
4.0
 40
4.0
 40
4.0
 10
28.27012278308322
 20
3.2271487039563436
 10
28.248294679399727
 20
3.470895861755343
 10
28.186448385629834
 20
3.653706230104593
 10
28.084583901773534
 20
3.7755798090040926
 10
27.928149158708504
 20
3.964756707594361
 10
27.725329695316052
 20
4.059345156889496
 10
27.47612551159618
 20
4.059345156889496
 10
27.25056844020009
 20
4.059345156889496
 10
27.06093678944975
 20
3.983856298317417
 10
26.90723055934516
 20
3.8328785811732606
 10
26.753524329240566
 20
3.6819008640291044
 10
26.668485675306957
 20
3.4799909049567987
 10
26.65211459754434
 20
3.2271487039563436
 97
0
 97
0
 75
0
 76
1
 52
-45.0
 41
0.02
 77
0
 78
1
 53
0.0
 43
0.0
 44
-0.0
 45
0.0
 46
0.0635
 79
0
 98
0
  0
HATCH
  5
41
330
17
100
AcDbEntity
  8
0
 62
1
100
AcDbHatch
 10
0.0
 20
0.0
 30
0.0
210
0.0
220
0.0
230
1.0
  2
ANSI31
 70
0
 71
0
 91
2
 92
1
 93
4
 72
1
 10
20.19099590723056
 20
2.4331514324693044
 11
20.69849931787176
 21
2.370395634379263
 72
4
 94
3
 73
0
 74
0
 95
32
 96
28
 40
0.0
 40
0.0
 40
0.0
 40
0.0
 40
1.0
 40
1.0
 40
1.0
 40
2.0
 40
2.0
 40
2.0
 40
3.0
 40
3.0
 40
3.0
 40
4.0
 40
4.0
 40
4.0
 40
5.0
 40
5.0
 40
5.0
 40
6.0
 40
6.0
 40
6.0
 40
7.0
 40
7.0
 40
7.0
 40
8.0
 40
8.0
 40
8.0
 40
9.0
 40
9.0
 40
9.0
 40
9.0
 10
20.69849931787176
 20
2.370395634379263
 10
20.618462937698954
 20
2.0738972260118236
 10
20.470213733515234
 20
1.8437926330150067
 10
20.2537517053206
 20
1.680081855388813
 10
20.037289677125965
 20
1.5163710777626194
 10
19.760800363801728
 20
1.4345156889495225
 10
19.424283765347887
 20
1.4345156889495225
 10
19.000454752160074
 20
1.4345156889495225
 10
18.664392905866304
 20
1.5650295588904046
 10
18.416098226466577
 20
1.8260572987721693
 10
18.16780354706685
 20
2.0870850386539335
 10
18.043656207366986
 20
2.4531605275125057
 10
18.043656207366986
 20
2.9242837653478855
 10
18.043656207366986
 20
3.4117780809458846
 10
18.16916780354707
 20
3.790131878126421
 10
18.42019099590723
 20
4.059345156889496
 10
18.671214188267395
 20
4.328558435652569
 10
18.99681673487949
 20
4.463165075034107
 10
19.396998635743522
 20
4.463165075034107
 10
19.78444747612551
 20
4.463165075034107
 10
20.10095497953615
 20
4.3312869486130054
 10
20.346521145975444
 20
4.067530695770805
 10
20.592087312414733
 20
3.8037744429286042
 10
20.714870395634378
 20
3.4326966803092316
 10
20.714870395634378
 20
2.9542974079126876
 10
20.714870395634378
 20
2.925193269668031
 10
20.713960891314233
 20
2.881537062301046
 10
20.712141882673944
 20
2.8233287858117326
 97
0
 72
1
 10
20.712141882673944
 20
2.8233287858117326
 11
18.551159618008185
 21
2.8233287858117326
 72
4
 94
3
 73
0
 74
0
 95
17
 96
13
 40
0.0
 40
0.0
 40
0.0
 40
0.0
 40
1.0
 40
1.0
 40
1.0
 40
2.0
 40
2.0
 40
2.0
 40
3.0
 40
3.0
 40
3.0
 40
4.0
 40
4.0
 40
4.0
 40
4.0
 10
18.551159618008185
 20
2.8233287858117326
 10
18.569349704411096
 20
2.5050022737608004
 10
18.659390632105502
 20
2.261255115961801
 10
18.821282401091405
 20
2.092087312414734
 10
18.98317417007731
 20
1.9229195088676672
 10
19.185084129149615
 20
1.8383356070941337
 10
19.42701227830832
 20
1.8383356070941337
 10
19.607094133697135
 20
1.8383356070941337
 10
19.760800363801728
 20
1.8856298317417008
 10
19.8881309686221
 20
1.980218281036835
 10
20.015461573442476
 20
2.074806730331969
 10
20.116416552978627
 20
2.2257844474761255
 10
20.19099590723056
 20
2.4331514324693044
 97
0
 97
0
 92
0
 93
2
 72
1
 10
18.57844474761255
 20
3.2271487039563436
 11
20.196452933151434
 21
3.2271487039563436
 72
4
 94
3
 73
0
 74
0
 95
17
 96
13
 40
0.0
 40
0.0
 40
0.0
 40
0.0
 40
1.0
 40
1.0
 40
1.0
 40
2.0
 40
2.0
 40
2.0
 40
3.0
 40
3.0
 40
3.0
 40
4.0
 40
4.0
 40
4.0
 40
4.0
 10
20.196452933151434
 20
3.2271487039563436
 10
20.17462482946794
 20
3.470895861755343
 10
20.112778535698045
 20
3.653706230104593
 10
20.01091405184175
 20
3.7755798090040926
 10
19.854479308776718
 20
3.964756707594361
 10
19.651659845384266
 20
4.059345156889496
 10
19.402455661664394
 20
4.059345156889496
 10
19.176898590268305
 20
4.059345156889496
 10
18.987266939517962
 20
3.983856298317417
 10
18.83356070941337
 20
3.8328785811732606
 10
18.679854479308776
 20
3.6819008640291044
 10
18.59481582537517
 20
3.4799909049567987
 10
18.57844474761255
 20
3.2271487039563436
 97
0
 97
0
 75
0
 76
1
 52
-45.0
 41
0.02
 77
0
 78
1
 53
0.0
 43
0.0
 44
-0.0
 45
0.0
 46
0.0635
 79
0
 98
0
  0
HATCH
  5
42
330
17
100
AcDbEntity
  8
0
 62
1
100
AcDbHatch
 10
0.0
 20
0.0
 30
0.0
210
0.0
220
0.0
230
1.0
  2
ANSI31
 70
0
 71
0
 91
2
 92
1
 93
9
 72
4
 94
3
 73
0
 74
0
 95
32
 96
28
 40
0.0
 40
0.0
 40
0.0
 40
0.0
 40
1.0
 40
1.0
 40
1.0
 40
2.0
 40
2.0
 40
2.0
 40
3.0
 40
3.0
 40
3.0
 40
4.0
 40
4.0
 40
4.0
 40
5.0
 40
5.0
 40
5.0
 40
6.0
 40
6.0
 40
6.0
 40
7.0
 40
7.0
 40
7.0
 40
8.0
 40
8.0
 40
8.0
 40
9.0
 40
9.0
 40
9.0
 40
9.0
 10
7.986357435197817
 20
1.8574351978171897
 10
7.804456571168713
 20
1.7028194633924512
 10
7.629376989540701
 20
1.5936789449749886
 10
7.461118690313779
 20
1.530013642564802
 10
7.292860391086858
 20
1.4663483401546158
 10
7.112323783537972
 20
1.4345156889495225
 10
6.919508867667122
 20
1.4345156889495225
 10
6.6011823556161895
 20
1.4345156889495225
 10
6.356525693497044
 20
1.5122783083219646
 10
6.185538881309687
 20
1.6678035470668486
 10
6.014552069122328
 20
1.8233287858117326
 10
5.92905866302865
 20
2.022055479763529
 10
5.92905866302865
 20
2.2639836289222375
 10
5.92905866302865
 20
2.4058663028649385
 10
5.961346066393816
 20
2.5354706684856754
 10
6.025920873124147
 20
2.6527967257844476
 10
6.090495679854479
 20
2.7701227830832194
 10
6.175079581628013
 20
2.8642564802182813
 10
6.279672578444748
 20
2.9351978171896316
 10
6.384265575261483
 20
3.0061391541609823
 10
6.502046384720328
 20
3.059799909049568
 10
6.6330150068212825
 20
3.0961800818553886
 10
6.729422464756707
 20
3.1216462028194636
 10
6.874943155979991
 20
3.1462028194633924
 10
7.069577080491133
 20
3.169849931787176
 10
7.466120964074579
 20
3.2171441564347427
 10
7.758071850841292
 20
3.273533424283765
 10
7.945429740791269
 20
3.339017735334243
 97
0
 72
4
 94
3
 73
0
 74
0
 95
20
 96
16
 40
0.0
 40
0.0
 40
0.0
 40
0.0
 40
1.0
 40
1.0
 40
1.0
 40
2.0
 40
2.0
 40
2.0
 40
3.0
 40
3.0
 40
3.0
 40
4.0
 40
4.0
 40
4.0
 40
5.0
 40
5.0
 40
5.0
 40
5.0
 10
7.945429740791269
 20
3.339017735334243
 10
7.94724874943156
 20
3.4063210550250114
 10
7.948158253751705
 20
3.449067758071851
 10
7.948158253751705
 20
3.4672578444747613
 10
7.948158253751705
 20
3.667348794906776
 10
7.901773533424284
 20
3.8083219645293314
 10
7.809004092769441
 20
3.890177353342428
 10
7.683492496589359
 20
4.001136880400182
 10
7.497044110959528
 20
4.0566166439290585
 10
7.249658935879946
 20
4.0566166439290585
 10
7.018644838562984
 20
4.0566166439290585
 10
6.848112778535698
 20
4.016143701682583
 10
6.73806275579809
 20
3.9351978171896316
 10
6.6280127330604826
 20
3.8542519326966804
 10
6.546612096407459
 20
3.711005002273761
 10
6.493860845839018
 20
3.5054570259208733
 97
0
 72
1
 10
6.493860845839018
 20
3.5054570259208733
 11
6.013642564802183
 21
3.5709413369713507
 72
4
 94
3
 73
0
 74
0
 95
23
 96
19
 40
0.0
 40
0.0
 40
0.0
 40
0.0
 40
1.0
 40
1.0
 40
1.0
 40
2.0
 40
2.0
 40
2.0
 40
3.0
 40
3.0
 40
3.0
 40
4.0
 40
4.0
 40
4.0
 40
5.0
 40
5.0
 40
5.0
 40
6.0
 40
6.0
 40
6.0
 40
6.0
 10
6.013642564802183
 20
3.5709413369713507
 10
6.057298772169168
 20
3.7764893133242383
 10
6.129149613460664
 20
3.942473851750796
 10
6.229195088676671
 20
4.068894952251023
 10
6.329240563892679
 20
4.1953160527512505
 10
6.473851750795816
 20
4.292633015006821
 10
6.663028649386085
 20
4.360845839017735
 10
6.852205547976353
 20
4.429058663028649
 10
7.071396089131423
 20
4.463165075034107
 10
7.320600272851296
 20
4.463165075034107
 10
7.5679854479308775
 20
4.463165075034107
 10
7.7689859026830375
 20
4.43406093678945
 10
7.923601637107776
 20
4.375852660300136
 10
8.078217371532514
 20
4.317644383810823
 10
8.191905411550705
 20
4.244429286039109
 10
8.264665757162348
 20
4.156207366984994
 10
8.337426102773989
 20
4.0679854479308775
 10
8.388358344702137
 20
3.9565711687130514
 10
8.417462482946794
 20
3.8219645293315145
 97
0
 72
4
 94
3
 73
0
 74
0
 95
8
 96
4
 40
0.0
 40
0.0
 40
0.0
 40
0.0
 40
1.0
 40
1.0
 40
1.0
 40
1.0
 10
8.417462482946794
 20
3.8219645293315145
 10
8.433833560709413
 20
3.7382901318781263
 10
8.442019099590723
 20
3.58731241473397
 10
8.442019099590723
 20
3.369031377899045
 97
0
 72
1
 10
8.442019099590723
 20
3.369031377899045
 11
8.442019099590723
 21
2.7141882673942703
 72
4
 94
3
 73
0
 74
0
 95
11
 96
7
 40
0.0
 40
0.0
 40
0.0
 40
0.0
 40
1.0
 40
1.0
 40
1.0
 40
2.0
 40
2.0
 40
2.0
 40
2.0
 10
8.442019099590723
 20
2.7141882673942703
 10
8.442019099590723
 20
2.2576170986812185
 10
8.452478399272398
 20
1.968849477035016
 10
8.473396998635744
 20
1.8478854024556617
 10
8.49431559799909
 20
1.7269213278763074
 10
8.535698044565713
 20
1.6109595270577535
 10
8.597544338335608
 20
1.5
 97
0
 72
1
 10
8.597544338335608
 20
1.5
 11
8.084583901773534
 21
1.5
 72
4
 94
3
 73
0
 74
0
 95
8
 96
4
 40
0.0
 40
0.0
 40
0.0
 40
0.0
 40
1.0
 40
1.0
 40
1.0
 40
1.0
 10
8.084583901773534
 20
1.5
 10
8.033651659845384
 20
1.6018644838562983
 10
8.000909504320145
 20
1.7210095497953615
 10
7.986357435197817
 20
1.8574351978171897
 97
0
 97
0
 92
0
 93
2
 72
4
 94
3
 73
0
 74
0
 95
32
 96
28
 40
0.0
 40
0.0
 40
0.0
 40
0.0
 40
1.0
 40
1.0
 40
1.0
 40
2.0
 40
2.0
 40
2.0
 40
3.0
 40
3.0
 40
3.0
 40
4.0
 40
4.0
 40
4.0
 40
5.0
 40
5.0
 40
5.0
 40
6.0
 40
6.0
 40
6.0
 40
7.0
 40
7.0
 40
7.0
 40
8.0
 40
8.0
 40
8.0
 40
9.0
 40
9.0
 40
9.0
 40
9.0
 10
7.945429740791269
 20
2.9542974079126876
 10
7.767166894042747
 20
2.881537062301046
 10
7.499772623919964
 20
2.8196907685311503
 10
7.14324693042292
 20
2.7687585266030013
 10
6.941336971350614
 20
2.739654388358345
 10
6.798544793087768
 20
2.7069122328331057
 10
6.71487039563438
 20
2.670532060027285
 10
6.631195998180991
 20
2.6341518872214644
 10
6.566621191450659
 20
2.5809458844929516
 10
6.521145975443384
 20
2.5109140518417465
 10
6.475670759436108
 20
2.440882219190541
 10
6.45293315143247
 20
2.3631195998180994
 10
6.45293315143247
 20
2.27762619372442
 10
6.45293315143247
 20
2.1466575716234653
 10
6.502501136880401
 20
2.0375170532060025
 10
6.601637107776262
 20
1.9502046384720328
 10
6.700773078672124
 20
1.8628922237380627
 10
6.845839017735335
 20
1.819236016371078
 10
7.036834924965894
 20
1.819236016371078
 10
7.226011823556162
 20
1.819236016371078
 10
7.394270122783083
 20
1.860618462937699
 10
7.541609822646658
 20
1.9433833560709413
 10
7.6889495225102324
 20
2.0261482492041836
 10
7.7971805366075495
 20
2.139381537062301
 10
7.866302864938609
 20
2.2830832196452935
 10
7.919054115507049
 20
2.3940427467030467
 10
7.945429740791269
 20
2.5577535243292404
 10
7.945429740791269
 20
2.7742155525238745
 97
0
 72
1
 10
7.945429740791269
 20
2.7742155525238745
 11
7.945429740791269
 21
2.9542974079126876
 97
0
 75
0
 76
1
 52
-45.0
 41
0.02
 77
0
 78
1
 53
0.0
 43
0.0
 44
-0.0
 45
0.0
 46
0.0635
 79
0
 98
0
  0
HATCH
  5
43
330
17
100
AcDbEntity
  8
0
 62
1
100
AcDbHatch
 10
0.0
 20
0.0
 30
0.0
210
0.0
220
0.0
230
1.0
  2
ANSI31
 70
0
 71
0
 91
2
 92
1
 93
9
 72
4
 94
3
 73
0
 74
0
 95
32
 96
28
 40
0.0
 40
0.0
 40
0.0
 40
0.0
 40
1.0
 40
1.0
 40
1.0
 40
2.0
 40
2.0
 40
2.0
 40
3.0
 40
3.0
 40
3.0
 40
4.0
 40
4.0
 40
4.0
 40
5.0
 40
5.0
 40
5.0
 40
6.0
 40
6.0
 40
6.0
 40
7.0
 40
7.0
 40
7.0
 40
8.0
 40
8.0
 40
8.0
 40
9.0
 40
9.0
 40
9.0
 40
9.0
 10
71.36152796725786
 20
1.8574351978171897
 10
71.17962710322875
 20
1.7028194633924512
 10
71.00454752160074
 20
1.5936789449749886
 10
70.83628922237382
 20
1.530013642564802
 10
70.6680309231469
 20
1.4663483401546158
 10
70.48749431559801
 20
1.4345156889495225
 10
70.29467939972716
 20
1.4345156889495225
 10
69.97635288767623
 20
1.4345156889495225
 10
69.73169622555709
 20
1.5122783083219646
 10
69.56070941336972
 20
1.6678035470668486
 10
69.38972260118237
 20
1.8233287858117326
 10
69.3042291950887
 20
2.022055479763529
 10
69.3042291950887
 20
2.2639836289222375
 10
69.3042291950887
 20
2.4058663028649385
 10
69.33651659845385
 20
2.5354706684856754
 10
69.40109140518419
 20
2.6527967257844476
 10
69.46566621191452
 20
2.7701227830832194
 10
69.55025011368805
 20
2.8642564802182813
 10
69.65484311050479
 20
2.9351978171896316
 10
69.75943610732152
 20
3.0061391541609823
 10
69.87721691678037
 20
3.059799909049568
 10
70.00818553888132
 20
3.0961800818553886
 10
70.10459299681675
 20
3.1216462028194636
 10
70.25011368804003
 20
3.1462028194633924
 10
70.44474761255117
 20
3.169849931787176
 10
70.84129149613462
 20
3.2171441564347427
 10
71.13324238290133
 20
3.273533424283765
 10
71.32060027285131
 20
3.339017735334243
 97
0
 72
4
 94
3
 73
0
 74
0
 95
20
 96
16
 40
0.0
 40
0.0
 40
0.0
 40
0.0
 40
1.0
 40
1.0
 40
1.0
 40
2.0
 40
2.0
 40
2.0
 40
3.0
 40
3.0
 40
3.0
 40
4.0
 40
4.0
 40
4.0
 40
5.0
 40
5.0
 40
5.0
 40
5.0
 10
71.32060027285131
 20
3.339017735334243
 10
71.3224192814916
 20
3.4063210550250114
 10
71.32332878581175
 20
3.449067758071851
 10
71.32332878581175
 20
3.4672578444747613
 10
71.32332878581175
 20
3.667348794906776
 10
71.27694406548433
 20
3.8083219645293314
 10
71.18417462482948
 20
3.890177353342428
 10
71.05866302864939
 20
4.001136880400182
 10
70.87221464301956
 20
4.0566166439290585
 10
70.62482946793999
 20
4.0566166439290585
 10
70.39381537062303
 20
4.0566166439290585
 10
70.22328331059575
 20
4.016143701682583
 10
70.11323328785814
 20
3.9351978171896316
 10
70.00318326512053
 20
3.8542519326966804
 10
69.9217826284675
 20
3.711005002273761
 10
69.86903137789906
 20
3.5054570259208733
 97
0
 72
1
 10
69.86903137789906
 20
3.5054570259208733
 11
69.38881309686222
 21
3.5709413369713507
 72
4
 94
3
 73
0
 74
0
 95
23
 96
19
 40
0.0
 40
0.0
 40
0.0
 40
0.0
 40
1.0
 40
1.0
 40
1.0
 40
2.0
 40
2.0
 40
2.0
 40
3.0
 40
3.0
 40
3.0
 40
4.0
 40
4.0
 40
4.0
 40
5.0
 40
5.0
 40
5.0
 40
6.0
 40
6.0
 40
6.0
 40
6.0
 10
69.38881309686222
 20
3.5709413369713507
 10
69.43246930422922
 20
3.7764893133242383
 10
69.50432014552071
 20
3.942473851750796
 10
69.60436562073671
 20
4.068894952251023
 10
69.70441109595272
 20
4.1953160527512505
 10
69.84902228285586
 20
4.292633015006821
 10
70.03819918144613
 20
4.360845839017735
 10
70.2273760800364
 20
4.429058663028649
 10
70.44656662119147
 20
4.463165075034107
 10
70.69577080491133
 20
4.463165075034107
 10
70.94315597999092
 20
4.463165075034107
 10
71.14415643474308
 20
4.43406093678945
 10
71.29877216916782
 20
4.375852660300136
 10
71.45338790359256
 20
4.317644383810823
 10
71.56707594361075
 20
4.244429286039109
 10
71.63983628922239
 20
4.156207366984994
 10
71.71259663483403
 20
4.0679854479308775
 10
71.76352887676218
 20
3.9565711687130514
 10
71.79263301500683
 20
3.8219645293315145
 97
0
 72
4
 94
3
 73
0
 74
0
 95
8
 96
4
 40
0.0
 40
0.0
 40
0.0
 40
0.0
 40
1.0
 40
1.0
 40
1.0
 40
1.0
 10
71.79263301500683
 20
3.8219645293315145
 10
71.80900409276946
 20
3.7382901318781263
 10
71.81718963165076
 20
3.58731241473397
 10
71.81718963165076
 20
3.369031377899045
 97
0
 72
1
 10
71.81718963165076
 20
3.369031377899045
 11
71.81718963165076
 21
2.7141882673942703
 72
4
 94
3
 73
0
 74
0
 95
11
 96
7
 40
0.0
 40
0.0
 40
0.0
 40
0.0
 40
1.0
 40
1.0
 40
1.0
 40
2.0
 40
2.0
 40
2.0
 40
2.0
 10
71.81718963165076
 20
2.7141882673942703
 10
71.81718963165076
 20
2.2576170986812185
 10
71.82764893133243
 20
1.968849477035016
 10
71.84856753069579
 20
1.8478854024556617
 10
71.86948613005913
 20
1.7269213278763074
 10
71.91086857662575
 20
1.6109595270577535
 10
71.97271487039565
 20
1.5
 97
0
 72
1
 10
71.97271487039565
 20
1.5
 11
71.45975443383358
 21
1.5
 72
4
 94
3
 73
0
 74
0
 95
8
 96
4
 40
0.0
 40
0.0
 40
0.0
 40
0.0
 40
1.0
 40
1.0
 40
1.0
 40
1.0
 10
71.45975443383358
 20
1.5
 10
71.40882219190543
 20
1.6018644838562983
 10
71.37608003638019
 20
1.7210095497953615
 10
71.36152796725786
 20
1.8574351978171897
 97
0
 97
0
 92
0
 93
2
 72
4
 94
3
 73
0
 74
0
 95
32
 96
28
 40
0.0
 40
0.0
 40
0.0
 40
0.0
 40
1.0
 40
1.0
 40
1.0
 40
2.0
 40
2.0
 40
2.0
 40
3.0
 40
3.0
 40
3.0
 40
4.0
 40
4.0
 40
4.0
 40
5.0
 40
5.0
 40
5.0
 40
6.0
 40
6.0
 40
6.0
 40
7.0
 40
7.0
 40
7.0
 40
8.0
 40
8.0
 40
8.0
 40
9.0
 40
9.0
 40
9.0
 40
9.0
 10
71.32060027285131
 20
2.9542974079126876
 10
71.14233742610278
 20
2.881537062301046
 10
70.87494315598
 20
2.8196907685311503
 10
70.51841746248296
 20
2.7687585266030013
 10
70.31650750341066
 20
2.739654388358345
 10
70.17371532514781
 20
2.7069122328331057
 10
70.09004092769442
 20
2.670532060027285
 10
70.00636653024104
 20
2.6341518872214644
 10
69.9417917235107
 20
2.5809458844929516
 10
69.89631650750343
 20
2.5109140518417465
 10
69.85084129149615
 20
2.440882219190541
 10
69.82810368349251
 20
2.3631195998180994
 10
69.82810368349251
 20
2.27762619372442
 10
69.82810368349251
 20
2.1466575716234653
 10
69.87767166894045
 20
2.0375170532060025
 10
69.97680763983631
 20
1.9502046384720328
 10
70.07594361073217
 20
1.8628922237380627
 10
70.22100954979537
 20
1.819236016371078
 10
70.41200545702594
 20
1.819236016371078
 10
70.6011823556162
 20
1.819236016371078
 10
70.76944065484312
 20
1.860618462937699
 10
70.9167803547067
 20
1.9433833560709413
 10
71.06412005457027
 20
2.0261482492041836
 10
71.17235106866758
 20
2.139381537062301
 10
71.24147339699864
 20
2.2830832196452935
 10
71.29422464756709
 20
2.3940427467030467
 10
71.32060027285131
 20
2.5577535243292404
 10
71.32060027285131
 20
2.7742155525238745
 97
0
 72
1
 10
71.32060027285131
 20
2.7742155525238745
 11
71.32060027285131
 21
2.9542974079126876
 97
0
 75
0
 76
1
 52
-45.0
 41
0.02
 77
0
 78
1
 53
0.0
 43
0.0
 44
-0.0
 45
0.0
 46
0.0635
 79
0
 98
0
  0
HATCH
  5
44
330
17
100
AcDbEntity
  8
0
 62
1
100
AcDbHatch
 10
0.0
 20
0.0
 30
0.0
210
0.0
220
0.0
230
1.0
  2
ANSI31
 70
0
 71
0
 91
1
 92
1
 93
15
 72
1
 10
29.061391541609822
 20
1.5
 11
30.12005457025921
 21
3.0061391541609823
 72
1
 10
30.12005457025921
 20
3.0061391541609823
 11
29.140518417462484
 21
4.3976807639836295
 72
1
 10
29.140518417462484
 20
4.3976807639836295
 11
29.75443383356071
 21
4.3976807639836295
 72
1
 10
29.75443383356071
 20
4.3976807639836295
 11
30.19918144611187
 21
3.718281036834925
 72
4
 94
3
 73
0
 74
0
 95
8
 96
4
 40
0.0
 40
0.0
 40
0.0
 40
0.0
 40
1.0
 40
1.0
 40
1.0
 40
1.0
 10
30.19918144611187
 20
3.718281036834925
 10
30.282855843565258
 20
3.589131423374261
 10
30.350159163256027
 20
3.480900409276944
 10
30.401091405184175
 20
3.3935879945429743
 97
0
 72
4
 94
3
 73
0
 74
0
 95
8
 96
4
 40
0.0
 40
0.0
 40
0.0
 40
0.0
 40
1.0
 40
1.0
 40
1.0
 40
1.0
 10
30.401091405184175
 20
3.3935879945429743
 10
30.48112778535698
 20
3.5136425648021827
 10
30.554797635288768
 20
3.620054570259209
 10
30.622100954979537
 20
3.712824010914052
 97
0
 72
1
 10
30.622100954979537
 20
3.712824010914052
 11
31.11050477489768
 21
4.3976807639836295
 72
1
 10
31.11050477489768
 20
4.3976807639836295
 11
31.697135061391542
 21
4.3976807639836295
 72
1
 10
31.697135061391542
 20
4.3976807639836295
 11
30.695770804911323
 21
3.033424283765348
 72
1
 10
30.695770804911323
 20
3.033424283765348
 11
31.773533424283766
 21
1.5
 72
1
 10
31.773533424283766
 20
1.5
 11
31.170532060027284
 21
1.5
 72
1
 10
31.170532060027284
 20
1.5
 11
30.575716234652113
 21
2.4004092769440657
 72
1
 10
30.575716234652113
 20
2.4004092769440657
 11
30.417462482946792
 21
2.6432469304229196
 72
1
 10
30.417462482946792
 20
2.6432469304229196
 11
29.656207366984994
 21
1.5
 72
1
 10
29.656207366984994
 20
1.5
 11
29.061391541609822
 21
1.5
 97
0
 75
0
 76
1
 52
-45.0
 41
0.02
 77
0
 78
1
 53
0.0
 43
0.0
 44
-0.0
 45
0.0
 46
0.0635
 79
0
 98
0
  0
HATCH
  5
45
330
17
100
AcDbEntity
  8
0
 62
1
100
AcDbHatch
 10
0.0
 20
0.0
 30
0.0
210
0.0
220
0.0
230
1.0
  2
ANSI31
 70
0
 71
0
 91
1
 92
1
 93
4
 72
1
 10
77.57708049113235
 20
2.5613915416098227
 11
78.06002728512962
 21
2.498635743519782
 72
4
 94
3
 73
0
 74
0
 95
32
 96
28
 40
0.0
 40
0.0
 40
0.0
 40
0.0
 40
1.0
 40
1.0
 40
1.0
 40
2.0
 40
2.0
 40
2.0
 40
3.0
 40
3.0
 40
3.0
 40
4.0
 40
4.0
 40
4.0
 40
5.0
 40
5.0
 40
5.0
 40
6.0
 40
6.0
 40
6.0
 40
7.0
 40
7.0
 40
7.0
 40
8.0
 40
8.0
 40
8.0
 40
9.0
 40
9.0
 40
9.0
 40
9.0
 10
78.06002728512962
 20
2.498635743519782
 10
78.00727603456117
 20
2.1657571623465213
 10
77.87221464301957
 20
1.9051841746248295
 10
77.6548431105048
 20
1.7169167803547067
 10
77.43747157799002
 20
1.528649386084584
 10
77.17053206002731
 20
1.4345156889495225
 10
76.85402455661666
 20
1.4345156889495225
 10
76.45748067303322
 20
1.4345156889495225
 10
76.1386994088222
 20
1.5641200545702592
 10
75.89768076398364
 20
1.8233287858117326
 10
75.65666211914508
 20
2.082537517053206
 10
75.5361527967258
 20
2.4540700318326514
 10
75.5361527967258
 20
2.937926330150068
 10
75.5361527967258
 20
3.250795816280127
 10
75.5879945429741
 20
3.524556616643929
 10
75.69167803547069
 20
3.7592087312414733
 10
75.79536152796727
 20
3.9938608458390177
 10
75.95316052751252
 20
4.1698499317871764
 10
76.16507503410644
 20
4.287175989085949
 10
76.37698954070034
 20
4.404502046384721
 10
76.60754888585723
 20
4.463165075034107
 10
76.8567530695771
 20
4.463165075034107
 10
77.17144156434745
 20
4.463165075034107
 10
77.42883128694864
 20
4.3835834470213735
 10
77.62892223738065
 20
4.224420190995907
 10
77.82901318781266
 20
4.065256934970441
 10
77.95725329695318
 20
3.839245111414279
 10
78.0136425648022
 20
3.5463847203274215
 97
0
 72
1
 10
78.0136425648022
 20
3.5463847203274215
 11
77.5361527967258
 21
3.4727148703956345
 72
4
 94
3
 73
0
 74
0
 95
29
 96
25
 40
0.0
 40
0.0
 40
0.0
 40
0.0
 40
1.0
 40
1.0
 40
1.0
 40
2.0
 40
2.0
 40
2.0
 40
3.0
 40
3.0
 40
3.0
 40
4.0
 40
4.0
 40
4.0
 40
5.0
 40
5.0
 40
5.0
 40
6.0
 40
6.0
 40
6.0
 40
7.0
 40
7.0
 40
7.0
 40
8.0
 40
8.0
 40
8.0
 40
8.0
 10
77.5361527967258
 20
3.4727148703956345
 10
77.49067758071853
 20
3.6673487949067756
 10
77.41018644838564
 20
3.8137789904502046
 10
77.29467939972717
 20
3.912005457025921
 10
77.17917235106869
 20
4.010231923601637
 10
77.03956343792635
 20
4.059345156889496
 10
76.87585266030015
 20
4.059345156889496
 10
76.62846748522057
 20
4.059345156889496
 10
76.4274670304684
 20
3.970668485675307
 10
76.27285129604367
 20
3.7933151432469305
 10
76.11823556161893
 20
3.6159618008185537
 10
76.04092769440656
 20
3.3353797180536606
 10
76.04092769440656
 20
2.951568894952251
 10
76.04092769440656
 20
2.562301045929968
 10
76.1155070486585
 20
2.279445202364711
 10
76.26466575716236
 20
2.10300136425648
 10
76.41382446566622
 20
1.9265575261482493
 10
76.60845839017738
 20
1.8383356070941337
 10
76.84856753069579
 20
1.8383356070941337
 10
77.04138244656664
 20
1.8383356070941337
 10
77.2023647112324
 20
1.8974533879035924
 10
77.33151432469306
 20
2.0156889495225103
 10
77.46066393815371
 20
2.133924511141428
 10
77.54251932696681
 20
2.315825375170532
 10
77.57708049113235
 20
2.5613915416098227
 97
0
 97
0
 75
0
 76
1
 52
-45.0
 41
0.02
 77
0
 78
1
 53
0.0
 43
0.0
 44
-0.0
 45
0.0
 46
0.0635
 79
0
 98
0
  0
HATCH
  5
46
330
17
100
AcDbEntity
  8
0
 62
1
100
AcDbHatch
 10
0.0
 20
0.0
 30
0.0
210
0.0
220
0.0
230
1.0
  2
ANSI31
 70
0
 71
0
 91
1
 92
1
 93
7
 72
1
 10
38.553888130968616
 20
1.5
 11
38.06275579809004
 21
1.5
 72
1
 10
38.06275579809004
 20
1.5
 11
38.06275579809004
 21
4.629604365620737
 72
4
 94
3
 73
0
 74
0
 95
11
 96
7
 40
0.0
 40
0.0
 40
0.0
 40
0.0
 40
1.0
 40
1.0
 40
1.0
 40
2.0
 40
2.0
 40
2.0
 40
2.0
 10
38.06275579809004
 20
4.629604365620737
 10
37.94452023647112
 20
4.516825829922692
 10
37.78944974988631
 20
4.404047294224648
 10
37.5975443383356
 20
4.291268758526603
 10
37.405638926784896
 20
4.178490222828558
 10
37.23328785811732
 20
4.093906321055025
 10
37.080491132332874
 20
4.0375170532060025
 97
0
 72
1
 10
37.080491132332874
 20
4.0375170532060025
 11
37.080491132332874
 21
4.512278308321965
 72
4
 94
3
 73
0
 74
0
 95
11
 96
7
 40
0.0
 40
0.0
 40
0.0
 40
0.0
 40
1.0
 40
1.0
 40
1.0
 40
2.0
 40
2.0
 40
2.0
 40
2.0
 10
37.080491132332874
 20
4.512278308321965
 10
37.35516143701682
 20
4.641427921782629
 10
37.59527057753524
 20
4.797862664847658
 10
37.80081855388813
 20
4.981582537517053
 10
38.00636653024101
 20
5.165302410186449
 10
38.15188722146429
 20
5.343565256934971
 10
38.237380627557975
 20
5.51637107776262
 97
0
 72
1
 10
38.237380627557975
 20
5.51637107776262
 11
38.553888130968616
 21
5.51637107776262
 72
1
 10
38.553888130968616
 20
5.51637107776262
 11
38.553888130968616
 21
1.5
 97
0
 75
0
 76
1
 52
-45.0
 41
0.02
 77
0
 78
1
 53
0.0
 43
0.0
 44
-0.0
 45
0.0
 46
0.0635
 79
0
 98
0
  0
HATCH
  5
47
330
17
100
AcDbEntity
  8
0
 62
1
100
AcDbHatch
 10
0.0
 20
0.0
 30
0.0
210
0.0
220
0.0
230
1.0
  2
ANSI31
 70
0
 71
0
 91
1
 92
1
 93
14
 72
1
 10
33.25511596180082
 20
1.9392905866302865
 11
33.32605729877217
 21
1.505457025920873
 72
4
 94
3
 73
0
 74
0
 95
17
 96
13
 40
0.0
 40
0.0
 40
0.0
 40
0.0
 40
1.0
 40
1.0
 40
1.0
 40
2.0
 40
2.0
 40
2.0
 40
3.0
 40
3.0
 40
3.0
 40
4.0
 40
4.0
 40
4.0
 40
4.0
 10
33.32605729877217
 20
1.505457025920873
 10
33.187812642110046
 20
1.4763528876762164
 10
33.06412005457026
 20
1.4618008185538882
 10
32.9549795361528
 20
1.4618008185538882
 10
32.776716689404275
 20
1.4618008185538882
 10
32.63847203274216
 20
1.4899954524783994
 10
32.54024556616644
 20
1.5463847203274215
 10
32.44201909959072
 20
1.6027739881764438
 10
32.37289677125966
 20
1.6768985902683038
 10
32.33287858117326
 20
1.7687585266030013
 10
32.29286039108686
 20
1.860618462937699
 10
32.272851296043655
 20
2.0538881309686223
 10
32.272851296043655
 20
2.348567530695771
 97
0
 72
1
 10
32.272851296043655
 20
2.348567530695771
 11
32.272851296043655
 21
4.01568894952251
 72
1
 10
32.272851296043655
 20
4.01568894952251
 11
31.91268758526603
 21
4.01568894952251
 72
1
 10
31.91268758526603
 20
4.01568894952251
 11
31.91268758526603
 21
4.3976807639836295
 72
1
 10
31.91268758526603
 20
4.3976807639836295
 11
32.272851296043655
 21
4.3976807639836295
 72
1
 10
32.272851296043655
 20
4.3976807639836295
 11
32.272851296043655
 21
5.115279672578445
 72
1
 10
32.272851296043655
 20
5.115279672578445
 11
32.7612551159618
 21
5.409959072305593
 72
1
 10
32.7612551159618
 20
5.409959072305593
 11
32.7612551159618
 21
4.3976807639836295
 72
1
 10
32.7612551159618
 20
4.3976807639836295
 11
33.25511596180082
 21
4.3976807639836295
 72
1
 10
33.25511596180082
 20
4.3976807639836295
 11
33.25511596180082
 21
4.01568894952251
 72
1
 10
33.25511596180082
 20
4.01568894952251
 11
32.7612551159618
 21
4.01568894952251
 72
1
 10
32.7612551159618
 20
4.01568894952251
 11
32.7612551159618
 21
2.321282401091405
 72
4
 94
3
 73
0
 74
0
 95
17
 96
13
 40
0.0
 40
0.0
 40
0.0
 40
0.0
 40
1.0
 40
1.0
 40
1.0
 40
2.0
 40
2.0
 40
2.0
 40
3.0
 40
3.0
 40
3.0
 40
4.0
 40
4.0
 40
4.0
 40
4.0
 10
32.7612551159618
 20
2.321282401091405
 10
32.7612551159618
 20
2.181218735788995
 10
32.76989540700318
 20
2.0911778080945886
 10
32.78717598908595
 20
2.0511596180081857
 10
32.804456571168714
 20
2.0111414279217827
 10
32.83265120509323
 20
1.9793087767166895
 10
32.87175989085948
 20
1.955661664392906
 10
32.91086857662574
 20
1.9320145520691223
 10
32.96680309231469
 20
1.9201909959072305
 10
33.03956343792633
 20
1.9201909959072305
 10
33.094133697135064
 20
1.9201909959072305
 10
33.16598453842656
 20
1.9265575261482493
 10
33.25511596180082
 20
1.9392905866302865
 97
0
 97
0
 75
0
 76
1
 52
-45.0
 41
0.02
 77
0
 78
1
 53
0.0
 43
0.0
 44
-0.0
 45
0.0
 46
0.0635
 79
0
 98
0
  0
HATCH
  5
48
330
17
100
AcDbEntity
  8
0
 62
1
100
AcDbHatch
 10
0.0
 20
0.0
 30
0.0
210
0.0
220
0.0
230
1.0
  2
ANSI31
 70
0
 71
0
 91
1
 92
3
 72
0
 73
1
 93
5
 10
16.9549795361528
 20
1.5
 10
16.9549795361528
 20
5.5
 10
17.446111869031377
 20
5.5
 10
17.446111869031377
 20
1.5
 10
16.9549795361528
 20
1.5
 97
0
 75
0
 76
1
 52
-45.0
 41
0.02
 77
0
 78
1
 53
0.0
 43
0.0
 44
-0.0
 45
0.0
 46
0.0635
 79
0
 98
0
  0
HATCH
  5
49
330
17
100
AcDbEntity
  8
0
 62
1
100
AcDbHatch
 10
0.0
 20
0.0
 30
0.0
210
0.0
220
0.0
230
1.0
  2
ANSI31
 70
0
 71
0
 91
1
 92
3
 72
0
 73
1
 93
5
 10
33.87175989085948
 20
1.5
 10
33.87175989085948
 20
2.059345156889495
 10
34.43110504774898
 20
2.059345156889495
 10
34.43110504774898
 20
1.5
 10
33.87175989085948
 20
1.5
 97
0
 75
0
 76
1
 52
-45.0
 41
0.02
 77
0
 78
1
 53
0.0
 43
0.0
 44
-0.0
 45
0.0
 46
0.0635
 79
0
 98
0
  0
HATCH
  5
4A
330
17
100
AcDbEntity
  8
0
 62
1
100
AcDbHatch
 10
0.0
 20
0.0
 30
0.0
210
0.0
220
0.0
230
1.0
  2
ANSI31
 70
0
 71
0
 91
1
 92
3
 72
0
 73
1
 93
5
 10
33.87175989085948
 20
3.838335607094134
 10
33.87175989085948
 20
4.3976807639836295
 10
34.43110504774898
 20
4.3976807639836295
 10
34.43110504774898
 20
3.838335607094134
 10
33.87175989085948
 20
3.838335607094134
 97
0
 75
0
 76
1
 52
-45.0
 41
0.02
 77
0
 78
1
 53
0.0
 43
0.0
 44
-0.0
 45
0.0
 46
0.0635
 79
0
 98
0
  0
ENDSEC
  0
SECTION
  2
OBJECTS
  0
DICTIONARY
  5
A
330
0
100
AcDbDictionary
280
0
281
1
  3
ACAD_COLOR
350
B
  3
ACAD_GROUP
350
C
  3
ACAD_LAYOUT
350
D
  3
ACAD_MATERIAL
350
E
  3
ACAD_MLEADERSTYLE
350
F
  3
ACAD_MLINESTYLE
350
10
  3
ACAD_PLOTSETTINGS
350
11
  3
ACAD_PLOTSTYLENAME
350
12
  3
ACAD_SCALELIST
350
14
  3
ACAD_TABLESTYLE
350
15
  3
ACAD_VISUALSTYLE
350
16
  3
EZDXF_META
350
2D
  0
DICTIONARY
  5
B
330
A
100
AcDbDictionary
280
0
281
1
  0
DICTIONARY
  5
C
330
A
100
AcDbDictionary
280
0
281
1
  0
DICTIONARY
  5
D
330
A
100
AcDbDictionary
280
0
281
1
  3
Model
350
1A
  3
Layout1
350
1E
  0
DICTIONARY
  5
E
330
A
100
AcDbDictionary
280
0
281
1
  3
ByBlock
350
1F
  3
ByLayer
350
20
  3
Global
350
21
  0
DICTIONARY
  5
F
330
A
100
AcDbDictionary
280
0
281
1
  3
Standard
350
2C
  0
DICTIONARY
  5
10
330
A
100
AcDbDictionary
280
0
281
1
  3
Standard
350
22
  0
DICTIONARY
  5
11
330
A
100
AcDbDictionary
280
0
281
1
  0
ACDBDICTIONARYWDFLT
  5
12
330
A
100
AcDbDictionary
280
0
281
1
  3
Normal
350
13
100
AcDbDictionaryWithDefault
340
13
  0
ACDBPLACEHOLDER
  5
13
330
12
  0
DICTIONARY
  5
14
330
A
100
AcDbDictionary
280
0
281
1
  0
DICTIONARY
  5
15
330
A
100
AcDbDictionary
280
0
281
1
  0
DICTIONARY
  5
16
330
A
100
AcDbDictionary
280
0
281
1
  0
LAYOUT
  5
1A
330
D
100
AcDbPlotSettings
  1

  2
Adobe PDF
  4
A3
  6

 40
7.5
 41
20.0
 42
7.5
 43
20.0
 44
420.0
 45
297.0
 46
0.0
 47
0.0
 48
0.0
 49
0.0
140
0.0
141
0.0
142
1.0
143
1.0
 70
1024
 72
1
 73
0
 74
5
  7

 75
16
 76
0
 77
2
 78
300
147
1.0
148
0.0
149
0.0
100
AcDbLayout
  1
Model
 70
1
 71
0
 10
0.0
 20
0.0
 11
420.0
 21
297.0
 12
0.0
 22
0.0
 32
0.0
 14
1e+20
 24
1e+20
 34
1e+20
 15
-1e+20
 25
-1e+20
 35
-1e+20
146
0.0
 13
0.0
 23
0.0
 33
0.0
 16
1.0
 26
0.0
 36
0.0
 17
0.0
 27
1.0
 37
0.0
 76
1
330
17
  0
LAYOUT
  5
1E
330
D
100
AcDbPlotSettings
  1

  2
Adobe PDF
  4
A3
  6

 40
7.5
 41
20.0
 42
7.5
 43
20.0
 44
420.0
 45
297.0
 46
0.0
 47
0.0
 48
0.0
 49
0.0
140
0.0
141
0.0
142
1.0
143
1.0
 70
0
 72
1
 73
0
 74
5
  7

 75
16
 76
0
 77
2
 78
300
147
1.0
148
0.0
149
0.0
100
AcDbLayout
  1
Layout1
 70
1
 71
1
 10
0.0
 20
0.0
 11
420.0
 21
297.0
 12
0.0
 22
0.0
 32
0.0
 14
1e+20
 24
1e+20
 34
1e+20
 15
-1e+20
 25
-1e+20
 35
-1e+20
146
0.0
 13
0.0
 23
0.0
 33
0.0
 16
1.0
 26
0.0
 36
0.0
 17
0.0
 27
1.0
 37
0.0
 76
1
330
1B
  0
MATERIAL
  5
1F
102
{ACAD_REACTORS
330
E
102
}
330
E
100
AcDbMaterial
  1
ByBlock
  2

 70
0
 40
1.0
 71
1
 41
1.0
 91
-1023410177
 42
1.0
 72
1
  3

 73
1
 74
1
 75
1
 44
0.5
 73
0
 45
1.0
 46
1.0
 77
1
  4

 78
1
 79
1
170
1
 48
1.0
171
1
  6

172
1
173
1
174
1
140
1.0
141
1.0
175
1
  7

176
1
177
1
178
1
143
1.0
179
1
  8

270
1
271
1
272
1
145
1.0
146
1.0
273
1
  9

274
1
275
1
276
1
 42
1.0
 72
1
  3

 73
1
 74
1
 75
1
 94
63
  0
MATERIAL
  5
20
102
{ACAD_REACTORS
330
E
102
}
330
E
100
AcDbMaterial
  1
ByLayer
  2

 70
0
 40
1.0
 71
1
 41
1.0
 91
-1023410177
 42
1.0
 72
1
  3

 73
1
 74
1
 75
1
 44
0.5
 73
0
 45
1.0
 46
1.0
 77
1
  4

 78
1
 79
1
170
1
 48
1.0
171
1
  6

172
1
173
1
174
1
140
1.0
141
1.0
175
1
  7

176
1
177
1
178
1
143
1.0
179
1
  8

270
1
271
1
272
1
145
1.0
146
1.0
273
1
  9

274
1
275
1
276
1
 42
1.0
 72
1
  3

 73
1
 74
1
 75
1
 94
63
  0
MATERIAL
  5
21
102
{ACAD_REACTORS
330
E
102
}
330
E
100
AcDbMaterial
  1
Global
  2

 70
0
 40
1.0
 71
1
 41
1.0
 91
-1023410177
 42
1.0
 72
1
  3

 73
1
 74
1
 75
1
 44
0.5
 73
0
 45
1.0
 46
1.0
 77
1
  4

 78
1
 79
1
170
1
 48
1.0
171
1
  6

172
1
173
1
174
1
140
1.0
141
1.0
175
1
  7

176
1
177
1
178
1
143
1.0
179
1
  8

270
1
271
1
272
1
145
1.0
146
1.0
273
1
  9

274
1
275
1
276
1
 42
1.0
 72
1
  3

 73
1
 74
1
 75
1
 94
63
  0
MLINESTYLE
  5
22
102
{ACAD_REACTORS
330
10
102
}
330
10
100
AcDbMlineStyle
  2
Standard
 70
0
  3

 62
256
 51
90.0
 52
90.0
 71
2
 49
0.5
 62
256
  6
BYLAYER
 49
-0.5
 62
256
  6
BYLAYER
  0
MLEADERSTYLE
  5
2C
102
{ACAD_REACTORS
330
F
102
}
330
F
100
AcDbMLeaderStyle
179
2
170
2
171
1
172
0
 90
2
 40
0.0
 41
0.0
173
1
 91
-1056964608
 92
-2
290
1
 42
2.0
291
1
 43
8.0
  3
Standard
 44
4.0
300

342
29
174
1
175
1
176
0
178
1
 93
-1056964608
 45
4.0
292
0
297
0
 46
4.0
 94
-1056964608
 47
1.0
 49
1.0
140
1.0
294
1
141
0.0
177
0
142
1.0
295
0
296
0
143
3.75
271
0
272
9
273
9
  0
DICTIONARY
  5
2D
330
A
100
AcDbDictionary
281
1
  3
CREATED_BY_EZDXF
350
2E
  3
WRITTEN_BY_EZDXF
350
4E
  0
DICTIONARYVAR
  5
2E
330
2D
100
DictionaryVariables
280
0
  1
1.1.4 @ 2024-01-25T11:55:24.427694+00:00
  0
DICTIONARYVAR
  5
4E
330
2D
100
DictionaryVariables
280
0
  1
1.1.4 @ 2024-01-25T11:55:24.438268+00:00
  0
ENDSEC
  0
EOF
