  0
SECTION
  2
HEADER
  9
$ACADVER
  1
AC1027
  9
$ACADMAINTVER
 70
105
  9
$DWGCODEPAGE
  3
ANSI_1252
  9
$LASTSAVEDBY
  1
ezdxf
  9
$REQUIREDVERSIONS
160
0
  9
$INSBASE
 10
0.0
 20
0.0
 30
0.0
  9
$EXTMIN
 10
1e+20
 20
1e+20
 30
1e+20
  9
$EXTMAX
 10
-1e+20
 20
-1e+20
 30
-1e+20
  9
$LIMMIN
 10
0.0
 20
0.0
  9
$LIMMAX
 10
420.0
 20
297.0
  9
$ORTHOMODE
 70
0
  9
$REGENMODE
 70
1
  9
$FILLMODE
 70
1
  9
$QTEXTMODE
 70
0
  9
$MIRRTEXT
 70
1
  9
$LTSCALE
 40
1.0
  9
$ATTMODE
 70
1
  9
$TEXTSIZE
 40
2.5
  9
$TRACEWID
 40
1.0
  9
$TEXTSTYLE
  7
Standard
  9
$CLAYER
  8
0
  9
$CELTYPE
  6
ByLayer
  9
$CECOLOR
 62
256
  9
$CELTSCALE
 40
1.0
  9
$DISPSILH
 70
0
  9
$DIMSCALE
 40
1.0
  9
$DIMASZ
 40
2.5
  9
$DIMEXO
 40
0.625
  9
$DIMDLI
 40
3.75
  9
$DIMRND
 40
0.0
  9
$DIMDLE
 40
0.0
  9
$DIMEXE
 40
1.25
  9
$DIMTP
 40
0.0
  9
$DIMTM
 40
0.0
  9
$DIMTXT
 40
2.5
  9
$DIMCEN
 40
2.5
  9
$DIMTSZ
 40
0.0
  9
$DIMTOL
 70
0
  9
$DIMLIM
 70
0
  9
$DIMTIH
 70
0
  9
$DIMTOH
 70
0
  9
$DIMSE1
 70
0
  9
$DIMSE2
 70
0
  9
$DIMTAD
 70
1
  9
$DIMZIN
 70
8
  9
$DIMBLK
  1

  9
$DIMASO
 70
1
  9
$DIMSHO
 70
1
  9
$DIMPOST
  1

  9
$DIMAPOST
  1

  9
$DIMALT
 70
0
  9
$DIMALTD
 70
3
  9
$DIMALTF
 40
0.03937007874
  9
$DIMLFAC
 40
1.0
  9
$DIMTOFL
 70
1
  9
$DIMTVP
 40
0.0
  9
$DIMTIX
 70
0
  9
$DIMSOXD
 70
0
  9
$DIMSAH
 70
0
  9
$DIMBLK1
  1

  9
$DIMBLK2
  1

  9
$DIMSTYLE
  2
ISO-25
  9
$DIMCLRD
 70
0
  9
$DIMCLRE
 70
0
  9
$DIMCLRT
 70
0
  9
$DIMTFAC
 40
1.0
  9
$DIMGAP
 40
0.625
  9
$DIMJUST
 70
0
  9
$DIMSD1
 70
0
  9
$DIMSD2
 70
0
  9
$DIMTOLJ
 70
0
  9
$DIMTZIN
 70
8
  9
$DIMALTZ
 70
0
  9
$DIMALTTZ
 70
0
  9
$DIMUPT
 70
0
  9
$DIMDEC
 70
2
  9
$DIMTDEC
 70
2
  9
$DIMALTU
 70
2
  9
$DIMALTTD
 70
3
  9
$DIMTXSTY
  7
Standard
  9
$DIMAUNIT
 70
0
  9
$DIMADEC
 70
0
  9
$DIMALTRND
 40
0.0
  9
$DIMAZIN
 70
0
  9
$DIMDSEP
 70
44
  9
$DIMATFIT
 70
3
  9
$DIMFRAC
 70
0
  9
$DIMLDRBLK
  1

  9
$DIMLUNIT
 70
2
  9
$DIMLWD
 70
-2
  9
$DIMLWE
 70
-2
  9
$DIMTMOVE
 70
0
  9
$DIMFXL
 40
1.0
  9
$DIMFXLON
 70
0
  9
$DIMJOGANG
 40
0.785398163397
  9
$DIMTFILL
 70
0
  9
$DIMTFILLCLR
 70
0
  9
$DIMARCSYM
 70
0
  9
$DIMLTYPE
  6

  9
$DIMLTEX1
  6

  9
$DIMLTEX2
  6

  9
$DIMTXTDIRECTION
 70
0
  9
$LUNITS
 70
2
  9
$LUPREC
 70
4
  9
$SKETCHINC
 40
1.0
  9
$FILLETRAD
 40
10.0
  9
$AUNITS
 70
0
  9
$AUPREC
 70
2
  9
$MENU
  1
.
  9
$ELEVATION
 40
0.0
  9
$PELEVATION
 40
0.0
  9
$THICKNESS
 40
0.0
  9
$LIMCHECK
 70
0
  9
$CHAMFERA
 40
0.0
  9
$CHAMFERB
 40
0.0
  9
$CHAMFERC
 40
0.0
  9
$CHAMFERD
 40
0.0
  9
$SKPOLY
 70
0
  9
$TDCREATE
 40
2460335.538472222
  9
$TDUCREATE
 40
2458532.153996898
  9
$TDUPDATE
 40
2460335.538472222
  9
$TDUUPDATE
 40
2458532.1544311
  9
$TDINDWG
 40
0.0
  9
$TDUSRTIMER
 40
0.0
  9
$USRTIMER
 70
1
  9
$ANGBASE
 50
0.0
  9
$ANGDIR
 70
0
  9
$PDMODE
 70
0
  9
$PDSIZE
 40
0.0
  9
$PLINEWID
 40
0.0
  9
$SPLFRAME
 70
0
  9
$SPLINETYPE
 70
6
  9
$SPLINESEGS
 70
8
  9
$HANDSEED
  5
5E
  9
$SURFTAB1
 70
6
  9
$SURFTAB2
 70
6
  9
$SURFTYPE
 70
6
  9
$SURFU
 70
6
  9
$SURFV
 70
6
  9
$UCSBASE
  2

  9
$UCSNAME
  2

  9
$UCSORG
 10
0.0
 20
0.0
 30
0.0
  9
$UCSXDIR
 10
1.0
 20
0.0
 30
0.0
  9
$UCSYDIR
 10
0.0
 20
1.0
 30
0.0
  9
$UCSORTHOREF
  2

  9
$UCSORTHOVIEW
 70
0
  9
$UCSORGTOP
 10
0.0
 20
0.0
 30
0.0
  9
$UCSORGBOTTOM
 10
0.0
 20
0.0
 30
0.0
  9
$UCSORGLEFT
 10
0.0
 20
0.0
 30
0.0
  9
$UCSORGRIGHT
 10
0.0
 20
0.0
 30
0.0
  9
$UCSORGFRONT
 10
0.0
 20
0.0
 30
0.0
  9
$UCSORGBACK
 10
0.0
 20
0.0
 30
0.0
  9
$PUCSBASE
  2

  9
$PUCSNAME
  2

  9
$PUCSORG
 10
0.0
 20
0.0
 30
0.0
  9
$PUCSXDIR
 10
1.0
 20
0.0
 30
0.0
  9
$PUCSYDIR
 10
0.0
 20
1.0
 30
0.0
  9
$PUCSORTHOREF
  2

  9
$PUCSORTHOVIEW
 70
0
  9
$PUCSORGTOP
 10
0.0
 20
0.0
 30
0.0
  9
$PUCSORGBOTTOM
 10
0.0
 20
0.0
 30
0.0
  9
$PUCSORGLEFT
 10
0.0
 20
0.0
 30
0.0
  9
$PUCSORGRIGHT
 10
0.0
 20
0.0
 30
0.0
  9
$PUCSORGFRONT
 10
0.0
 20
0.0
 30
0.0
  9
$PUCSORGBACK
 10
0.0
 20
0.0
 30
0.0
  9
$USERI1
 70
0
  9
$USERI2
 70
0
  9
$USERI3
 70
0
  9
$USERI4
 70
0
  9
$USERI5
 70
0
  9
$USERR1
 40
0.0
  9
$USERR2
 40
0.0
  9
$USERR3
 40
0.0
  9
$USERR4
 40
0.0
  9
$USERR5
 40
0.0
  9
$WORLDVIEW
 70
1
  9
$SHADEDGE
 70
3
  9
$SHADEDIF
 70
70
  9
$TILEMODE
 70
1
  9
$MAXACTVP
 70
64
  9
$PINSBASE
 10
0.0
 20
0.0
 30
0.0
  9
$PLIMCHECK
 70
0
  9
$PEXTMIN
 10
1e+20
 20
1e+20
 30
1e+20
  9
$PEXTMAX
 10
-1e+20
 20
-1e+20
 30
-1e+20
  9
$PLIMMIN
 10
0.0
 20
0.0
  9
$PLIMMAX
 10
420.0
 20
297.0
  9
$UNITMODE
 70
0
  9
$VISRETAIN
 70
1
  9
$PLINEGEN
 70
0
  9
$PSLTSCALE
 70
1
  9
$TREEDEPTH
 70
3020
  9
$CMLSTYLE
  2
Standard
  9
$CMLJUST
 70
0
  9
$CMLSCALE
 40
20.0
  9
$PROXYGRAPHICS
 70
1
  9
$MEASUREMENT
 70
1
  9
$CELWEIGHT
370
-1
  9
$ENDCAPS
280
0
  9
$JOINSTYLE
280
0
  9
$LWDISPLAY
290
0
  9
$INSUNITS
 70
6
  9
$HYPERLINKBASE
  1

  9
$STYLESHEET
  1

  9
$XEDIT
290
1
  9
$CEPSNTYPE
380
0
  9
$PSTYLEMODE
290
1
  9
$FINGERPRINTGUID
  2
{BFEDA3E3-92F6-49EC-9F1F-8BE344E36226}
  9
$VERSIONGUID
  2
{1C149C7E-D5FD-41C1-95B0-A236004FC39C}
  9
$EXTNAMES
290
1
  9
$PSVPSCALE
 40
0.0
  9
$OLESTARTUP
290
0
  9
$SORTENTS
280
127
  9
$INDEXCTL
280
0
  9
$HIDETEXT
280
1
  9
$XCLIPFRAME
280
0
  9
$HALOGAP
280
0
  9
$OBSCOLOR
 70
257
  9
$OBSLTYPE
280
0
  9
$INTERSECTIONDISPLAY
280
0
  9
$INTERSECTIONCOLOR
 70
257
  9
$DIMASSOC
280
2
  9
$PROJECTNAME
  1

  9
$CAMERADISPLAY
290
0
  9
$LENSLENGTH
 40
50.0
  9
$CAMERAHEIGHT
 40
0.0
  9
$STEPSPERSEC
 40
24.0
  9
$STEPSIZE
 40
100.0
  9
$3DDWFPREC
 40
2.0
  9
$PSOLWIDTH
 40
0.005
  9
$PSOLHEIGHT
 40
0.08
  9
$LOFTANG1
 40
1.570796326795
  9
$LOFTANG2
 40
1.570796326795
  9
$LOFTMAG1
 40
0.0
  9
$LOFTMAG2
 40
0.0
  9
$LOFTPARAM
 70
7
  9
$LOFTNORMALS
280
1
  9
$LATITUDE
 40
37.795
  9
$LONGITUDE
 40
-122.394
  9
$NORTHDIRECTION
 40
0.0
  9
$TIMEZONE
 70
-8000
  9
$LIGHTGLYPHDISPLAY
280
1
  9
$TILEMODELIGHTSYNCH
280
1
  9
$CMATERIAL
347
20
  9
$SOLIDHIST
280
0
  9
$SHOWHIST
280
1
  9
$DWFFRAME
280
2
  9
$DGNFRAME
280
2
  9
$REALWORLDSCALE
290
1
  9
$INTERFERECOLOR
 62
256
  9
$CSHADOW
280
0
  9
$SHADOWPLANELOCATION
 40
0.0
  0
ENDSEC
  0
SECTION
  2
CLASSES
  0
CLASS
  1
ACDBDICTIONARYWDFLT
  2
AcDbDictionaryWithDefault
  3
ObjectDBX Classes
 90
0
 91
0
280
0
281
0
  0
CLASS
  1
SUN
  2
AcDbSun
  3
SCENEOE
 90
1153
 91
0
280
0
281
0
  0
CLASS
  1
VISUALSTYLE
  2
AcDbVisualStyle
  3
ObjectDBX Classes
 90
4095
 91
0
280
0
281
0
  0
CLASS
  1
MATERIAL
  2
AcDbMaterial
  3
ObjectDBX Classes
 90
1153
 91
0
280
0
281
0
  0
CLASS
  1
SCALE
  2
AcDbScale
  3
ObjectDBX Classes
 90
1153
 91
0
280
0
281
0
  0
CLASS
  1
TABLESTYLE
  2
AcDbTableStyle
  3
ObjectDBX Classes
 90
4095
 91
0
280
0
281
0
  0
CLASS
  1
MLEADERSTYLE
  2
AcDbMLeaderStyle
  3
ACDB_MLEADERSTYLE_CLASS
 90
4095
 91
0
280
0
281
0
  0
CLASS
  1
DICTIONARYVAR
  2
AcDbDictionaryVar
  3
ObjectDBX Classes
 90
0
 91
0
280
0
281
0
  0
CLASS
  1
CELLSTYLEMAP
  2
AcDbCellStyleMap
  3
ObjectDBX Classes
 90
1152
 91
0
280
0
281
0
  0
CLASS
  1
MENTALRAYRENDERSETTINGS
  2
AcDbMentalRayRenderSettings
  3
SCENEOE
 90
1024
 91
0
280
0
281
0
  0
CLASS
  1
ACDBDETAILVIEWSTYLE
  2
AcDbDetailViewStyle
  3
ObjectDBX Classes
 90
1025
 91
0
280
0
281
0
  0
CLASS
  1
ACDBSECTIONVIEWSTYLE
  2
AcDbSectionViewStyle
  3
ObjectDBX Classes
 90
1025
 91
0
280
0
281
0
  0
CLASS
  1
RASTERVARIABLES
  2
AcDbRasterVariables
  3
ISM
 90
0
 91
0
280
0
281
0
  0
CLASS
  1
ACDBPLACEHOLDER
  2
AcDbPlaceHolder
  3
ObjectDBX Classes
 90
0
 91
0
280
0
281
0
  0
CLASS
  1
LAYOUT
  2
AcDbLayout
  3
ObjectDBX Classes
 90
0
 91
0
280
0
281
0
  0
ENDSEC
  0
SECTION
  2
TABLES
  0
TABLE
  2
VPORT
  5
8
330
0
100
AcDbSymbolTable
 70
1
  0
VPORT
  5
5A
330
8
100
AcDbSymbolTableRecord
100
AcDbViewportTableRecord
  2
*Active
 70
0
 10
0.0
 20
0.0
 11
1.0
 21
1.0
 12
46.59208731241475
 22
2.9788540245566164
 13
0.0
 23
0.0
 14
0.5
 24
0.5
 15
0.5
 25
0.5
 16
0.0
 26
0.0
 36
1.0
 17
0.0
 27
0.0
 37
0.0
 40
44.34106412005458
 41
1.34
 42
50.0
 43
0.0
 44
0.0
 50
0.0
 51
0.0
 71
0
 72
1000
 73
1
 74
3
 75
0
 76
0
 77
0
 78
0
281
0
 65
1
110
0.0
120
0.0
130
0.0
111
1.0
121
0.0
131
0.0
112
0.0
122
1.0
132
0.0
 79
0
146
0.0
  0
ENDTAB
  0
TABLE
  2
LTYPE
  5
2
330
0
100
AcDbSymbolTable
 70
3
  0
LTYPE
  5
24
330
2
100
AcDbSymbolTableRecord
100
AcDbLinetypeTableRecord
  2
ByBlock
 70
0
  3

 72
65
 73
0
 40
0.0
  0
LTYPE
  5
25
330
2
100
AcDbSymbolTableRecord
100
AcDbLinetypeTableRecord
  2
ByLayer
 70
0
  3

 72
65
 73
0
 40
0.0
  0
LTYPE
  5
26
330
2
100
AcDbSymbolTableRecord
100
AcDbLinetypeTableRecord
  2
Continuous
 70
0
  3

 72
65
 73
0
 40
0.0
  0
ENDTAB
  0
TABLE
  2
LAYER
  5
1
330
0
100
AcDbSymbolTable
 70
2
  0
LAYER
  5
27
330
1
100
AcDbSymbolTableRecord
100
AcDbLayerTableRecord
  2
0
 70
0
 62
7
  6
Continuous
370
-3
390
13
347
21
  0
LAYER
  5
28
330
1
100
AcDbSymbolTableRecord
100
AcDbLayerTableRecord
  2
Defpoints
 70
0
 62
7
  6
Continuous
290
0
370
-3
390
13
347
21
  0
ENDTAB
  0
TABLE
  2
STYLE
  5
5
330
0
100
AcDbSymbolTable
 70
1
  0
STYLE
  5
29
330
5
100
AcDbSymbolTableRecord
100
AcDbTextStyleTableRecord
  2
Standard
 70
0
 40
0.0
 41
1.0
 50
0.0
 71
0
 42
2.5
  3
txt
  4

  0
ENDTAB
  0
TABLE
  2
VIEW
  5
7
330
0
100
AcDbSymbolTable
 70
0
  0
ENDTAB
  0
TABLE
  2
UCS
  5
6
330
0
100
AcDbSymbolTable
 70
0
  0
ENDTAB
  0
TABLE
  2
APPID
  5
3
330
0
100
AcDbSymbolTable
 70
3
  0
APPID
  5
2A
330
3
100
AcDbSymbolTableRecord
100
AcDbRegAppTableRecord
  2
ACAD
 70
0
  0
APPID
  5
5B
330
3
100
AcDbSymbolTableRecord
100
AcDbRegAppTableRecord
  2
HATCHBACKGROUNDCOLOR
 70
0
  0
APPID
  5
5C
330
3
100
AcDbSymbolTableRecord
100
AcDbRegAppTableRecord
  2
EZDXF
 70
0
  0
ENDTAB
  0
TABLE
  2
DIMSTYLE
  5
4
330
0
100
AcDbSymbolTable
 70
1
100
AcDbDimStyleTable
  0
DIMSTYLE
105
2B
330
4
100
AcDbSymbolTableRecord
100
AcDbDimStyleTableRecord
  2
Standard
 70
0
 40
1.0
 41
2.5
 42
0.625
 43
3.75
 44
1.25
 45
0.0
 46
0.0
 47
0.0
 48
0.0
 49
2.5
140
2.5
141
2.5
142
0.0
143
0.03937007874
144
1.0
145
0.0
146
1.0
147
0.625
148
0.0
 69
0
 70
0
 71
0
 72
0
 73
0
 74
0
 75
0
 76
0
 77
1
 78
8
 79
3
170
0
171
3
172
1
173
0
174
0
175
0
176
0
177
0
178
0
179
2
271
2
272
2
273
2
274
3
275
0
276
0
277
2
278
44
279
0
280
0
281
0
282
0
283
0
284
8
285
0
286
0
288
0
289
3
290
0
371
-2
372
-2
  0
ENDTAB
  0
TABLE
  2
BLOCK_RECORD
  5
9
330
0
100
AcDbSymbolTable
 70
2
  0
BLOCK_RECORD
  5
17
330
9
100
AcDbSymbolTableRecord
100
AcDbBlockTableRecord
  2
*Model_Space
340
1A
 70
0
280
1
281
0
  0
BLOCK_RECORD
  5
1B
330
9
100
AcDbSymbolTableRecord
100
AcDbBlockTableRecord
  2
*Paper_Space
340
1E
 70
0
280
1
281
0
  0
ENDTAB
  0
ENDSEC
  0
SECTION
  2
BLOCKS
  0
BLOCK
  5
18
330
17
100
AcDbEntity
  8
0
100
AcDbBlockBegin
  2
*Model_Space
 70
0
 10
0.0
 20
0.0
 30
0.0
  3
*Model_Space
  1

  0
ENDBLK
  5
19
330
17
100
AcDbEntity
  8
0
100
AcDbBlockEnd
  0
BLOCK
  5
1C
330
1B
100
AcDbEntity
  8
0
100
AcDbBlockBegin
  2
*Paper_Space
 70
0
 10
0.0
 20
0.0
 30
0.0
  3
*Paper_Space
  1

  0
ENDBLK
  5
1D
330
1B
100
AcDbEntity
  8
0
100
AcDbBlockEnd
  0
ENDSEC
  0
SECTION
  2
ENTITIES
  0
LWPOLYLINE
  5
2F
330
17
100
AcDbEntity
  8
0
100
AcDbPolyline
 90
135
 70
0
 10
2.251023192360164
 20
2.785129604365621
 10
2.7503410641200547
 20
2.8287858117326055
 10
2.7739597544338337
 20
2.6854536152796724
 10
2.809345156889495
 20
2.555593451568895
 10
2.8564972714870396
 20
2.439205320600273
 10
2.9154160982264665
 20
2.3362892223738063
 10
2.9891712141882674
 20
2.244713506139154
 10
3.080832196452933
 20
2.1623465211459756
 10
3.190399045020464
 20
2.0891882673942703
 10
3.31787175989086
 20
2.0252387448840383
 10
3.45856070941337
 20
1.97331173260573
 10
3.607776261937244
 20
1.9362210095497954
 10
3.765518417462483
 20
1.9139665757162347
 10
3.931787175989086
 20
1.9065484311050478
 10
4.0787858117326055
 20
1.9121759890859482
 10
4.2169167803547065
 20
1.9290586630286495
 10
4.3461800818553895
 20
1.9571964529331514
 10
4.466575716234653
 20
1.9965893587994543
 10
4.575119372442019
 20
2.0457878581173263
 10
4.668826739427012
 20
2.1033424283765347
 10
4.747697817189632
 20
2.169253069577081
 10
4.811732605729877
 20
2.2435197817189634
 10
4.861272169167804
 20
2.323755115961801
 10
4.896657571623465
 20
2.407571623465212
 10
4.917888813096862
 20
2.494969304229195
 10
4.924965893587995
 20
2.5859481582537516
 10
4.918144611186904
 20
2.6770975443383356
 10
4.8976807639836295
 20
2.7622783083219646
 10
4.863574351978172
 20
2.8414904502046383
 10
4.815825375170532
 20
2.9147339699863575
 10
4.752387448840382
 20
2.9821793997271486
 10
4.6712141882673945
 20
3.0439972714870396
 10
4.572305593451569
 20
3.10018758526603
 10
4.455661664392906
 20
3.15075034106412
 10
4.3507844474761255
 20
3.186476807639836
 10
4.197135061391542
 20
3.230900409276944
 10
3.994713506139154
 20
3.2840211459754434
 10
3.7435197817189634
 20
3.3458390177353343
 10
3.488574351978172
 20
3.411067530695771
 10
3.2748976807639836
 20
3.4744201909959074
 10
3.1024897680763983
 20
3.5358969986357436
 10
2.971350613915416
 20
3.5954979536152796
 10
2.837227148703956
 20
3.675051159618008
 10
2.721350613915416
 20
3.7636425648021827
 10
2.6237210095497954
 20
3.8612721691678034
 10
2.544338335607094
 20
3.9679399727148703
 10
2.4828615279672577
 20
4.082452251023192
 10
2.438949522510232
 20
4.2036152796725785
 10
2.4126023192360164
 20
4.331429058663029
 10
2.4038199181446114
 20
4.465893587994543
 10
2.41456343792633
 20
4.614853342428376
 10
2.446793997271487
 20
4.758867667121419
 10
2.5005115961800817
 20
4.89793656207367
 10
2.5757162346521145
 20
5.03206002728513
 10
2.671555252387449
 20
5.1557810368349255
 10
2.787175989085948
 20
5.263642564802183
 10
2.9225784447476126
 20
5.355644611186904
 10
3.077762619372442
 20
5.431787175989086
 10
3.2474420190995907
 20
5.491473396998636
 10
3.426330150068213
 20
5.534106412005457
 10
3.614427012278308
 20
5.5596862210095495
 10
3.811732605729877
 20
5.568212824010914
 10
4.027540927694407
 20
5.559259890859481
 10
4.230218281036835
 20
5.532401091405184
 10
4.419764665757162
 20
5.487636425648022
 10
4.596180081855389
 20
5.424965893587995
 10
4.756224420190995
 20
5.344901091405184
 10
4.896657571623465
 20
5.247953615279672
 10
5.017479536152797
 20
5.134123465211459
 10
5.11869031377899
 20
5.003410641200546
 10
5.199522510231923
 20
4.859652114597544
 10
5.259208731241474
 20
4.7066848567530695
 10
5.29774897680764
 20
4.544508867667122
 10
5.315143246930423
 20
4.3731241473397
 10
4.807639836289223
 20
4.334924965893588
 10
4.7749829467939975
 20
4.512960436562074
 10
4.717939972714871
 20
4.667803547066849
 10
4.636510914051842
 20
4.799454297407913
 10
4.530695770804911
 20
4.9079126875852666
 10
4.3986186903137785
 20
4.992667121418827
 10
4.238403819918145
 20
5.053206002728513
 10
4.050051159618008
 20
5.089529331514325
 10
3.8335607094133697
 20
5.101637107776262
 10
3.609737380627558
 20
5.090637789904502
 10
3.4184856753069575
 20
5.057639836289223
 10
3.259805593451569
 20
5.002643246930423
 10
3.1336971350613916
 20
4.925648021828104
 10
3.0376023192360164
 20
4.833134379263301
 10
2.968963165075034
 20
4.731582537517053
 10
2.927779672578445
 20
4.620992496589358
 10
2.9140518417462484
 20
4.501364256480218
 10
2.923772169167804
 20
4.398362892223738
 10
2.9529331514324695
 20
4.304911323328786
 10
3.001534788540246
 20
4.221009549795362
 10
3.0695770804911326
 20
4.146657571623465
 10
3.1767564802182813
 20
4.076654160982264
 10
3.34549795361528
 20
4.005798090040928
 10
3.5758015006821284
 20
3.9340893587994543
 10
3.867667121418827
 20
3.8615279672578446
 10
4.164989768076398
 20
3.7908424283765347
 10
4.411664392905866
 20
3.724761255115962
 10
4.60769099590723
 20
3.6632844474761255
 10
4.753069577080491
 20
3.606412005457026
 10
4.916268758526603
 20
3.520549113233288
 10
5.0566166439290585
 20
3.423942701227831
 10
5.174113233287858
 20
3.316592769440655
 10
5.268758526603001
 20
3.19849931787176
 10
5.341575716234653
 20
3.070344474761255
 10
5.393587994542974
 20
2.9328103683492497
 10
5.424795361527968
 20
2.7858969986357436
 10
5.435197817189632
 20
2.629604365620737
 10
5.423772169167804
 20
2.4722885402455663
 10
5.389495225102319
 20
2.3195770804911326
 10
5.332366984993179
 20
2.1714699863574354
 10
5.252387448840382
 20
2.027967257844475
 10
5.151006139154161
 20
1.894611186903138
 10
5.029672578444748
 20
1.7769440654843112
 10
4.8883867667121415
 20
1.6749658935879945
 10
4.727148703956344
 20
1.5886766712141882
 10
4.55056275579809
 20
1.5200375170532059
 10
4.363233287858117
 20
1.4710095497953615
 10
4.165160300136425
 20
1.4415927694406547
 10
3.9563437926330147
 20
1.431787175989086
 10
3.695856070941337
 20
1.4416780354706684
 10
3.4573669849931785
 20
1.471350613915416
 10
3.24087653478854
 20
1.5208049113233288
 10
3.0463847203274215
 20
1.5900409276944065
 10
2.8727830832196455
 20
1.679143929058663
 10
2.718963165075034
 20
1.7881991814461118
 10
2.5849249658935882
 20
1.917206684856753
 10
2.470668485675307
 20
2.0661664392905865
 10
2.3786664392905865
 20
2.2303035470668484
 10
2.3113915416098227
 20
2.4048431105047747
 10
2.268843792633015
 20
2.5897851296043655
 10
2.251023192360164
 20
2.785129604365621
  0
LWPOLYLINE
  5
30
330
17
100
AcDbEntity
  8
0
100
AcDbPolyline
 90
100
 70
0
 10
7.986357435197817
 20
1.8574351978171897
 10
7.851210777626194
 20
1.75
 10
7.718622100954979
 20
1.659618008185539
 10
7.588591405184175
 20
1.5862892223738063
 10
7.461118690313779
 20
1.530013642564802
 10
7.33262278308322
 20
1.4882332878581173
 10
7.199522510231924
 20
1.4583901773533423
 10
7.061817871759891
 20
1.4404843110504775
 10
6.919508867667122
 20
1.4345156889495225
 10
6.694577080491133
 20
1.4490961800818554
 10
6.497271487039564
 20
1.492837653478854
 10
6.327592087312415
 20
1.5657401091405185
 10
6.185538881309687
 20
1.6678035470668486
 10
6.073328785811733
 20
1.7925477489768078
 10
5.9931787175989095
 20
1.933492496589359
 10
5.945088676671215
 20
2.090637789904502
 10
5.92905866302865
 20
2.2639836289222375
 10
5.9351125511596186
 20
2.368093451568895
 10
5.953274215552525
 20
2.467598908594816
 10
5.983543656207368
 20
2.5625
 10
6.025920873124147
 20
2.6527967257844476
 10
6.078103683492497
 20
2.7364427012278307
 10
6.137789904502046
 20
2.8113915416098223
 10
6.204979536152797
 20
2.8776432469304227
 10
6.279672578444748
 20
2.9351978171896316
 10
6.360590040927694
 20
2.985163710777626
 10
6.446452933151432
 20
3.028649386084584
 10
6.537261255115962
 20
3.065654843110505
 10
6.6330150068212825
 20
3.0961800818553886
 10
6.714529331514325
 20
3.1151091405184173
 10
6.814461118690314
 20
3.1336971350613916
 10
6.93281036834925
 20
3.151944065484311
 10
7.069577080491133
 20
3.169849931787176
 10
7.34737380627558
 20
3.207025920873124
 10
7.585948158253752
 20
3.2476125511596177
 10
7.785300136425648
 20
3.2916098226466577
 10
7.945429740791269
 20
3.339017735334243
 10
7.94662346521146
 20
3.3848908594815827
 10
7.947476125511596
 20
3.421555252387449
 10
7.947987721691678
 20
3.4490109140518417
 10
7.948158253751705
 20
3.4672578444747613
 10
7.939461118690314
 20
3.6062414733969987
 10
7.913369713506139
 20
3.723055934515689
 10
7.8698840381991815
 20
3.817701227830832
 10
7.809004092769441
 20
3.890177353342428
 10
7.703444747612552
 20
3.962994542974079
 10
7.575034106412006
 20
4.015006821282401
 10
7.423772169167804
 20
4.0462141882673945
 10
7.249658935879946
 20
4.0566166439290585
 10
7.087738744884039
 20
4.049027967257844
 10
6.94849931787176
 20
4.026261937244202
 10
6.831940654843111
 20
3.988318553888131
 10
6.73806275579809
 20
3.9351978171896316
 10
6.660896998635744
 20
3.8628069577080493
 10
6.594474761255116
 20
3.7670532060027284
 10
6.538796043656208
 20
3.64793656207367
 10
6.493860845839018
 20
3.5054570259208733
 10
6.013642564802183
 20
3.5709413369713507
 10
6.051671214188267
 20
3.7176841746248295
 10
6.100272851296044
 20
3.8495907230559343
 10
6.159447476125512
 20
3.9666609822646657
 10
6.229195088676671
 20
4.068894952251023
 10
6.3125852660300135
 20
4.15825375170532
 10
6.41268758526603
 20
4.236698499317871
 10
6.529502046384721
 20
4.304229195088676
 10
6.663028649386085
 20
4.360845839017735
 10
6.810538881309687
 20
4.405610504774898
 10
6.969304229195089
 20
4.437585266030014
 10
7.139324693042292
 20
4.456770122783084
 10
7.320600272851296
 20
4.463165075034107
 10
7.497442019099591
 20
4.457708049113234
 10
7.656889495225102
 20
4.441336971350614
 10
7.798942701227831
 20
4.414051841746248
 10
7.923601637107776
 20
4.375852660300136
 10
8.031889495225101
 20
4.3293826739427015
 10
8.124829467939973
 20
4.2772851296043655
 10
8.20242155525239
 20
4.21956002728513
 10
8.264665757162348
 20
4.156207366984994
 10
8.315143246930424
 20
4.085692360163711
 10
8.35743519781719
 20
4.006480218281037
 10
8.391541609822648
 20
3.9185709413369714
 10
8.417462482946794
 20
3.8219645293315145
 10
8.428206002728514
 20
3.7465893587994543
 10
8.435879945429742
 20
3.645975443383356
 10
8.440484311050477
 20
3.52012278308322
 10
8.442019099590723
 20
3.369031377899045
 10
8.442019099590723
 20
2.7141882673942703
 10
8.443980218281038
 20
2.403223055934516
 10
8.449863574351978
 20
2.1551841746248295
 10
8.459669167803547
 20
1.9700716234652114
 10
8.473396998635744
 20
1.8478854024556617
 10
8.492922919508867
 20
1.758100272851296
 10
8.52012278308322
 20
1.6701909959072305
 10
8.554996589358801
 20
1.5841575716234653
 10
8.597544338335608
 20
1.5
 10
8.084583901773534
 20
1.5
 10
8.049795361527968
 20
1.579638472032742
 10
8.021828103683493
 20
1.6657571623465213
 10
8.00068212824011
 20
1.758356070941337
 10
7.986357435197817
 20
1.8574351978171897
  0
LWPOLYLINE
  5
31
330
17
100
AcDbEntity
  8
0
100
AcDbPolyline
 90
38
 70
0
 10
7.945429740791269
 20
2.9542974079126876
 10
7.795020463847203
 20
2.901773533424284
 10
7.61118690313779
 20
2.8533424283765347
 10
7.393929058663029
 20
2.809004092769441
 10
7.14324693042292
 20
2.7687585266030013
 10
7.002899045020464
 20
2.7462482946793996
 10
6.884720327421555
 20
2.72237380627558
 10
6.788710777626195
 20
2.6971350613915415
 10
6.71487039563438
 20
2.670532060027285
 10
6.655695770804911
 20
2.6400920873124147
 10
6.6036834924965895
 20
2.6033424283765347
 10
6.558833560709413
 20
2.5602830832196455
 10
6.521145975443384
 20
2.5109140518417465
 10
6.491302864938609
 20
2.4569406548431107
 10
6.469986357435198
 20
2.400068212824011
 10
6.457196452933152
 20
2.3402967257844476
 10
6.45293315143247
 20
2.27762619372442
 10
6.462227148703957
 20
2.1834924965893587
 10
6.490109140518418
 20
2.097544338335607
 10
6.536579126875853
 20
2.019781718963165
 10
6.601637107776262
 20
1.9502046384720328
 10
6.684600954979536
 20
1.892905866302865
 10
6.784788540245566
 20
1.8519781718963166
 10
6.902199863574352
 20
1.8274215552523876
 10
7.036834924965894
 20
1.819236016371078
 10
7.174795361527967
 20
1.8269952251023194
 10
7.304911323328786
 20
1.8502728512960438
 10
7.4271828103683495
 20
1.889068894952251
 10
7.541609822646658
 20
1.9433833560709413
 10
7.6447817189631655
 20
2.0111698499317874
 10
7.733287858117326
 20
2.090381991814461
 10
7.807128240109141
 20
2.1810197817189634
 10
7.866302864938609
 20
2.2830832196452935
 10
7.900920873124147
 20
2.376193724420191
 10
7.9256480218281045
 20
2.4890859481582535
 10
7.9404843110504775
 20
2.6217598908594817
 10
7.945429740791269
 20
2.7742155525238745
 10
7.945429740791269
 20
2.9542974079126876
  0
LWPOLYLINE
  5
32
330
17
100
AcDbEntity
  8
0
100
AcDbPolyline
 90
80
 70
0
 10
9.203274215552524
 20
1.5
 10
9.203274215552524
 20
4.3976807639836295
 10
9.642564802182811
 20
4.3976807639836295
 10
9.642564802182811
 20
3.991132332878581
 10
9.716405184174626
 20
4.092343110504775
 10
9.801500682128239
 20
4.183151432469304
 10
9.897851296043656
 20
4.263557298772169
 10
10.005457025920872
 20
4.333560709413369
 10
10.122612551159618
 20
4.390262619372442
 10
10.247612551159618
 20
4.430763983628923
 10
10.380457025920874
 20
4.455064802182811
 10
10.521145975443384
 20
4.463165075034107
 10
10.67488062755798
 20
4.45480900409277
 10
10.81412005457026
 20
4.429740791268759
 10
10.938864256480219
 20
4.387960436562074
 10
11.049113233287859
 20
4.329467939972715
 10
11.144525920873125
 20
4.255968622100955
 10
11.224761255115961
 20
4.169167803547067
 10
11.289819236016372
 20
4.06906548431105
 10
11.339699863574353
 20
3.9556616643929057
 10
11.52455661664393
 20
4.177694406548431
 10
11.735334242837654
 20
4.336289222373806
 10
11.972032742155525
 20
4.431446111869032
 10
12.234652114597544
 20
4.463165075034107
 10
12.437755798090041
 20
4.44824351978172
 10
12.615961800818553
 20
4.4034788540245575
 10
12.769270122783084
 20
4.32887107776262
 10
12.89768076398363
 20
4.224420190995907
 10
12.999147339699864
 20
4.088932469304229
 10
13.07162346521146
 20
3.9212141882673945
 10
13.115109140518417
 20
3.721265347885402
 10
13.129604365620736
 20
3.4890859481582535
 10
13.129604365620736
 20
1.5
 10
12.641200545702592
 20
1.5
 10
12.641200545702592
 20
3.3253751705320598
 10
12.638216234652115
 20
3.4623976807639836
 10
12.629263301500682
 20
3.5787858117326055
 10
12.614341746248295
 20
3.6745395634379263
 10
12.593451568894952
 20
3.7496589358799453
 10
12.564716916780355
 20
3.811306275579809
 10
12.526261937244202
 20
3.8666439290586627
 10
12.478086630286494
 20
3.9156718963165074
 10
12.42019099590723
 20
3.9583901773533423
 10
12.354706684856753
 20
3.9930081855388813
 10
12.283765347885403
 20
4.017735334242838
 10
12.207366984993179
 20
4.032571623465211
 10
12.125511596180083
 20
4.0375170532060025
 10
11.979195088676672
 20
4.02481241473397
 10
11.845839017735335
 20
3.9866984993178716
 10
11.72544338335607
 20
3.9231753069577078
 10
11.618008185538882
 20
3.8342428376534787
 10
11.529672578444748
 20
3.7173431105047747
 10
11.466575716234653
 20
3.569918144611187
 10
11.428717598908596
 20
3.391967939972715
 10
11.416098226466577
 20
3.1834924965893587
 10
11.416098226466577
 20
1.5
 10
10.924965893587995
 20
1.5
 10
10.924965893587995
 20
3.382673942701228
 10
10.917462482946794
 20
3.5361527967257844
 10
10.894952251023193
 20
3.669167803547067
 10
10.85743519781719
 20
3.781718963165075
 10
10.804911323328787
 20
3.873806275579809
 10
10.735334242837654
 20
3.9454297407912686
 10
10.646657571623466
 20
3.9965893587994543
 10
10.538881309686221
 20
4.0272851296043655
 10
10.412005457025922
 20
4.0375170532060025
 10
10.310283083219646
 20
4.030695770804911
 10
10.212482946793997
 20
4.010231923601637
 10
10.118605047748977
 20
3.9761255115961798
 10
10.028649386084584
 20
3.92837653478854
 10
9.946708731241474
 20
3.8674965893587996
 10
9.876875852660302
 20
3.7939972714870396
 10
9.819150750341064
 20
3.7078785811732606
 10
9.773533424283766
 20
3.6091405184174623
 10
9.738915416098227
 20
3.492496589358799
 10
9.71418826739427
 20
3.3526603001364257
 10
9.699351978171897
 20
3.189631650750341
 10
9.694406548431106
 20
3.0034106412005457
 10
9.694406548431106
 20
1.5
 10
9.203274215552524
 20
1.5
  0
LWPOLYLINE
  5
33
330
17
100
AcDbEntity
  8
0
100
AcDbPolyline
 90
46
 70
0
 10
13.858117326057299
 20
0.38949522510231915
 10
13.858117326057299
 20
4.3976807639836295
 10
14.305593451568894
 20
4.3976807639836295
 10
14.305593451568894
 20
4.021145975443384
 10
14.387278308321964
 20
4.12474420190996
 10
14.474079126875854
 20
4.214529331514325
 10
14.56599590723056
 20
4.290501364256481
 10
14.663028649386085
 20
4.352660300136426
 10
14.767905866302865
 20
4.401006139154162
 10
14.883356070941337
 20
4.435538881309687
 10
15.0093792633015
 20
4.456258526603002
 10
15.145975443383357
 20
4.463165075034107
 10
15.32605729877217
 20
4.451227830832197
 10
15.495225102319235
 20
4.415416098226467
 10
15.653478854024558
 20
4.355729877216917
 10
15.800818553888131
 20
4.272169167803547
 10
15.934004092769442
 20
4.166865620736698
 10
16.04979536152797
 20
4.041950886766712
 10
16.148192360163712
 20
3.897424965893588
 10
16.229195088676672
 20
3.733287858117326
 10
16.292462482946796
 20
3.5551671214188265
 10
16.337653478854026
 20
3.3686903137789903
 10
16.364768076398363
 20
3.1738574351978173
 10
16.37380627557981
 20
2.970668485675307
 10
16.363830150068214
 20
2.753836971350614
 10
16.333901773533427
 20
2.5480900409276943
 10
16.284021145975444
 20
2.353427694406548
 10
16.21418826739427
 20
2.169849931787176
 10
16.125341064120054
 20
2.0022169167803545
 10
16.018417462482947
 20
1.8553888130968623
 10
15.893417462482946
 20
1.7293656207366985
 10
15.750341064120054
 20
1.6241473396998636
 10
15.596265347885403
 20
1.5411834924965895
 10
15.438267394270124
 20
1.4819236016371078
 10
15.276347203274216
 20
1.446367667121419
 10
15.11050477489768
 20
1.4345156889495225
 10
14.99087653478854
 20
1.4409959072305594
 10
14.87755798090041
 20
1.46043656207367
 10
14.770549113233288
 20
1.4928376534788539
 10
14.669849931787176
 20
1.5381991814461118
 10
14.576654160982265
 20
1.5934515688949522
 10
14.492155525238745
 20
1.655525238744884
 10
14.416354024556616
 20
1.7244201909959074
 10
14.34924965893588
 20
1.800136425648022
 10
14.34924965893588
 20
0.38949522510231915
 10
13.858117326057299
 20
0.38949522510231915
  0
LWPOLYLINE
  5
34
330
17
100
AcDbEntity
  8
0
100
AcDbPolyline
 90
33
 70
0
 10
14.302864938608458
 20
2.932469304229195
 10
14.317019099590723
 20
2.6710436562073667
 10
14.359481582537516
 20
2.4461118690313777
 10
14.43025238744884
 20
2.257673942701228
 10
14.529331514324692
 20
2.1057298772169166
 10
14.648533424283766
 20
1.9887448840381992
 10
14.779672578444748
 20
1.9051841746248295
 10
14.92274897680764
 20
1.8550477489768076
 10
15.077762619372443
 20
1.8383356070941337
 10
15.235590040927695
 20
1.8556446111869032
 10
15.381650750341064
 20
1.9075716234652114
 10
15.51594474761255
 20
1.9941166439290585
 10
15.638472032742156
 20
2.1152796725784446
 10
15.740535470668485
 20
2.2727660300136425
 10
15.813437926330149
 20
2.468281036834925
 10
15.857179399727148
 20
2.7018246930422922
 10
15.871759890859481
 20
2.9733969986357436
 10
15.857520463847203
 20
3.2329467939972716
 10
15.814802182810368
 20
3.4577080491132333
 10
15.743605047748977
 20
3.647680763983629
 10
15.643929058663028
 20
3.8028649386084585
 10
15.524471350613915
 20
3.923431105047749
 10
15.393929058663028
 20
4.009549795361528
 10
15.252302182810368
 20
4.061221009549795
 10
15.099590723055934
 20
4.078444747612551
 10
14.947220327421554
 20
4.060112551159618
 10
14.803888130968621
 20
4.0051159618008185
 10
14.669594133697135
 20
3.9134549795361524
 10
14.544338335607094
 20
3.7851296043656206
 10
14.43869372442019
 20
3.621845156889495
 10
14.363233287858117
 20
3.4253069577080493
 10
14.317957025920872
 20
3.1955150068212825
 10
14.302864938608458
 20
2.932469304229195
  0
LWPOLYLINE
  5
35
330
17
100
AcDbEntity
  8
0
100
AcDbPolyline
 90
5
 70
0
 10
16.9549795361528
 20
1.5
 10
16.9549795361528
 20
5.5
 10
17.446111869031377
 20
5.5
 10
17.446111869031377
 20
1.5
 10
16.9549795361528
 20
1.5
  0
LWPOLYLINE
  5
36
330
17
100
AcDbEntity
  8
0
100
AcDbPolyline
 90
55
 70
0
 10
20.19099590723056
 20
2.4331514324693044
 10
20.69849931787176
 20
2.370395634379263
 10
20.625682128240108
 20
2.1604706684856754
 10
20.527285129604365
 20
1.9754433833560707
 10
20.40330832196453
 20
1.81531377899045
 10
20.2537517053206
 20
1.680081855388813
 10
20.080150068212824
 20
1.5726466575716234
 10
19.884038199181447
 20
1.4959072305593453
 10
19.665416098226466
 20
1.449863574351978
 10
19.424283765347887
 20
1.4345156889495225
 10
19.12286834924966
 20
1.458987039563438
 10
18.8543656207367
 20
1.5324010914051842
 10
18.618775579809004
 20
1.6547578444747613
 10
18.416098226466577
 20
1.8260572987721693
 10
18.253154843110504
 20
2.0415245566166442
 10
18.136766712141885
 20
2.2963847203274215
 10
18.06693383356071
 20
2.5906377899045023
 10
18.043656207366986
 20
2.9242837653478855
 10
18.067189631650752
 20
3.2694406548431107
 10
18.137789904502046
 20
3.5736698499317874
 10
18.255457025920872
 20
3.836971350613916
 10
18.42019099590723
 20
4.059345156889496
 10
18.62244201909959
 20
4.236016371077763
 10
18.852660300136428
 20
4.362210095497954
 10
19.11084583901774
 20
4.437926330150069
 10
19.396998635743522
 20
4.463165075034107
 10
19.674283765347887
 20
4.438437926330151
 10
19.924965893587995
 20
4.364256480218281
 10
20.14904502046385
 20
4.240620736698499
 10
20.346521145975444
 20
4.067530695770805
 10
20.507673942701228
 20
3.8495907230559347
 10
20.622783083219645
 20
3.591405184174625
 10
20.691848567530695
 20
3.292974079126876
 10
20.714870395634378
 20
2.9542974079126876
 10
20.71469986357435
 20
2.9297407912687587
 10
20.71418826739427
 20
2.899727148703956
 10
20.713335607094134
 20
2.8642564802182813
 10
20.712141882673944
 20
2.8233287858117326
 10
18.551159618008185
 20
2.8233287858117326
 10
18.578274215552522
 20
2.598567530695771
 10
18.632332878581174
 20
2.401773533424284
 10
18.713335607094134
 20
2.2329467939972716
 10
18.821282401091405
 20
2.092087312414734
 10
18.950204638472034
 20
1.9810709413369714
 10
19.094133697135064
 20
1.9017735334242838
 10
19.253069577080492
 20
1.8541950886766712
 10
19.42701227830832
 20
1.8383356070941337
 10
19.55712824010914
 20
1.8472032742155524
 10
19.677353342428376
 20
1.873806275579809
 10
19.78768758526603
 20
1.9181446111869032
 10
19.8881309686221
 20
1.980218281036835
 10
19.97868349249659
 20
2.061732605729877
 10
20.059345156889496
 20
2.1643929058663027
 10
20.13011596180082
 20
2.288199181446112
 10
20.19099590723056
 20
2.4331514324693044
  0
LWPOLYLINE
  5
37
330
17
100
AcDbEntity
  8
0
100
AcDbPolyline
 90
18
 70
0
 10
18.57844474761255
 20
3.2271487039563436
 10
20.196452933151434
 20
3.2271487039563436
 10
20.172578444747614
 20
3.398533424283765
 10
20.133697135061393
 20
3.5470668485675305
 10
20.07980900409277
 20
3.6727489768076396
 10
20.01091405184175
 20
3.7755798090040926
 10
19.884890859481583
 20
3.899727148703956
 10
19.741473396998636
 20
3.988403819918145
 10
19.580661664392906
 20
4.041609822646658
 10
19.402455661664394
 20
4.059345156889496
 10
19.240023874488404
 20
4.045190995907231
 10
19.091064120054572
 20
4.002728512960437
 10
18.955576398362894
 20
3.9319577080491133
 10
18.83356070941337
 20
3.8328785811732606
 10
18.731156207366986
 20
3.710095497953615
 10
18.65450204638472
 20
3.568212824010914
 10
18.603598226466577
 20
3.407230559345157
 10
18.57844474761255
 20
3.2271487039563436
  0
LWPOLYLINE
  5
38
330
17
100
AcDbEntity
  8
0
100
AcDbPolyline
 90
9
 70
0
 10
23.948158253751707
 20
1.5
 10
23.948158253751707
 20
5.027967257844475
 10
22.630286493860847
 20
5.027967257844475
 10
22.630286493860847
 20
5.5
 10
25.80081855388813
 20
5.5
 10
25.80081855388813
 20
5.027967257844475
 10
24.4774897680764
 20
5.027967257844475
 10
24.4774897680764
 20
1.5
 10
23.948158253751707
 20
1.5
  0
LWPOLYLINE
  5
39
330
17
100
AcDbEntity
  8
0
100
AcDbPolyline
 90
55
 70
0
 10
28.264665757162348
 20
2.4331514324693044
 10
28.772169167803547
 20
2.370395634379263
 10
28.699351978171897
 20
2.1604706684856754
 10
28.600954979536155
 20
1.9754433833560707
 10
28.476978171896317
 20
1.81531377899045
 10
28.32742155525239
 20
1.680081855388813
 10
28.153819918144613
 20
1.5726466575716234
 10
27.957708049113236
 20
1.4959072305593453
 10
27.739085948158255
 20
1.449863574351978
 10
27.497953615279673
 20
1.4345156889495225
 10
27.196538199181447
 20
1.458987039563438
 10
26.928035470668487
 20
1.5324010914051842
 10
26.69244542974079
 20
1.6547578444747613
 10
26.489768076398363
 20
1.8260572987721693
 10
26.32682469304229
 20
2.0415245566166442
 10
26.21043656207367
 20
2.2963847203274215
 10
26.140603683492497
 20
2.5906377899045023
 10
26.117326057298772
 20
2.9242837653478855
 10
26.140859481582538
 20
3.2694406548431107
 10
26.211459754433832
 20
3.5736698499317874
 10
26.329126875852662
 20
3.836971350613916
 10
26.49386084583902
 20
4.059345156889496
 10
26.69611186903138
 20
4.236016371077763
 10
26.926330150068214
 20
4.362210095497954
 10
27.184515688949524
 20
4.437926330150069
 10
27.470668485675308
 20
4.463165075034107
 10
27.747953615279673
 20
4.438437926330151
 10
27.998635743519785
 20
4.364256480218281
 10
28.222714870395635
 20
4.240620736698499
 10
28.42019099590723
 20
4.067530695770805
 10
28.581343792633014
 20
3.8495907230559347
 10
28.696452933151434
 20
3.591405184174625
 10
28.765518417462484
 20
3.292974079126876
 10
28.788540245566168
 20
2.9542974079126876
 10
28.78836971350614
 20
2.9297407912687587
 10
28.78785811732606
 20
2.899727148703956
 10
28.78700545702592
 20
2.8642564802182813
 10
28.78581173260573
 20
2.8233287858117326
 10
26.624829467939975
 20
2.8233287858117326
 10
26.65194406548431
 20
2.598567530695771
 10
26.706002728512964
 20
2.401773533424284
 10
26.787005457025924
 20
2.2329467939972716
 10
26.894952251023195
 20
2.092087312414734
 10
27.02387448840382
 20
1.9810709413369714
 10
27.16780354706685
 20
1.9017735334242838
 10
27.326739427012278
 20
1.8541950886766712
 10
27.50068212824011
 20
1.8383356070941337
 10
27.63079809004093
 20
1.8472032742155524
 10
27.751023192360165
 20
1.873806275579809
 10
27.86135743519782
 20
1.9181446111869032
 10
27.96180081855389
 20
1.980218281036835
 10
28.05235334242838
 20
2.061732605729877
 10
28.13301500682128
 20
2.1643929058663027
 10
28.203785811732608
 20
2.288199181446112
 10
28.264665757162348
 20
2.4331514324693044
  0
LWPOLYLINE
  5
3A
330
17
100
AcDbEntity
  8
0
100
AcDbPolyline
 90
18
 70
0
 10
26.65211459754434
 20
3.2271487039563436
 10
28.27012278308322
 20
3.2271487039563436
 10
28.2462482946794
 20
3.398533424283765
 10
28.20736698499318
 20
3.5470668485675305
 10
28.15347885402456
 20
3.6727489768076396
 10
28.084583901773534
 20
3.7755798090040926
 10
27.95856070941337
 20
3.899727148703956
 10
27.815143246930425
 20
3.988403819918145
 10
27.654331514324692
 20
4.041609822646658
 10
27.47612551159618
 20
4.059345156889496
 10
27.31369372442019
 20
4.045190995907231
 10
27.164733969986358
 20
4.002728512960437
 10
27.02924624829468
 20
3.9319577080491133
 10
26.90723055934516
 20
3.8328785811732606
 10
26.804826057298772
 20
3.710095497953615
 10
26.72817189631651
 20
3.568212824010914
 10
26.677268076398363
 20
3.407230559345157
 10
26.65211459754434
 20
3.2271487039563436
  0
LWPOLYLINE
  5
3B
330
17
100
AcDbEntity
  8
0
100
AcDbPolyline
 90
22
 70
0
 10
29.061391541609822
 20
1.5
 10
30.12005457025921
 20
3.0061391541609823
 10
29.140518417462484
 20
4.3976807639836295
 10
29.75443383356071
 20
4.3976807639836295
 10
30.19918144611187
 20
3.718281036834925
 10
30.258867667121418
 20
3.6253410641200547
 10
30.312414733969987
 20
3.5402455661664396
 10
30.359822646657573
 20
3.462994542974079
 10
30.401091405184175
 20
3.3935879945429743
 10
30.459924965893588
 20
3.4810709413369714
 10
30.51637107776262
 20
3.5634379263301503
 10
30.57042974079127
 20
3.6406889495225103
 10
30.622100954979537
 20
3.712824010914052
 10
31.11050477489768
 20
4.3976807639836295
 10
31.697135061391542
 20
4.3976807639836295
 10
30.695770804911323
 20
3.033424283765348
 10
31.773533424283766
 20
1.5
 10
31.170532060027284
 20
1.5
 10
30.575716234652113
 20
2.4004092769440657
 10
30.417462482946792
 20
2.6432469304229196
 10
29.656207366984994
 20
1.5
 10
29.061391541609822
 20
1.5
  0
LWPOLYLINE
  5
3C
330
17
100
AcDbEntity
  8
0
100
AcDbPolyline
 90
45
 70
0
 10
33.25511596180082
 20
1.9392905866302865
 10
33.32605729877217
 20
1.505457025920873
 10
33.225102319236015
 20
1.4863574351978173
 10
33.129604365620736
 20
1.4727148703956345
 10
33.03956343792633
 20
1.4645293315143249
 10
32.9549795361528
 20
1.4618008185538882
 10
32.82878581173261
 20
1.4670873124147341
 10
32.717598908594816
 20
1.4829467939972716
 10
32.62141882673943
 20
1.5093792633015006
 10
32.54024556616644
 20
1.5463847203274215
 10
32.47203274215553
 20
1.5920020463847202
 10
32.41473396998636
 20
1.6442701227830832
 10
32.36834924965894
 20
1.70318894952251
 10
32.33287858117326
 20
1.7687585266030013
 10
32.30661664392906
 20
1.8566678035470667
 10
32.28785811732605
 20
1.9826057298772168
 10
32.27660300136426
 20
2.146572305593452
 10
32.272851296043655
 20
2.348567530695771
 10
32.272851296043655
 20
4.01568894952251
 10
31.91268758526603
 20
4.01568894952251
 10
31.91268758526603
 20
4.3976807639836295
 10
32.272851296043655
 20
4.3976807639836295
 10
32.272851296043655
 20
5.115279672578445
 10
32.7612551159618
 20
5.409959072305593
 10
32.7612551159618
 20
4.3976807639836295
 10
33.25511596180082
 20
4.3976807639836295
 10
33.25511596180082
 20
4.01568894952251
 10
32.7612551159618
 20
4.01568894952251
 10
32.7612551159618
 20
2.321282401091405
 10
32.76287517053206
 20
2.225613915416098
 10
32.76773533424284
 20
2.148703956343793
 10
32.77583560709414
 20
2.0905525238744884
 10
32.78717598908595
 20
2.0511596180081857
 10
32.80218281036835
 20
2.022680763983629
 10
32.82128240109141
 20
1.9972714870395634
 10
32.844474761255114
 20
1.974931787175989
 10
32.87175989085948
 20
1.955661664392906
 10
32.90424624829468
 20
1.940143246930423
 10
32.94304229195089
 20
1.9290586630286493
 10
32.98814802182811
 20
1.9224079126875853
 10
33.03956343792633
 20
1.9201909959072305
 10
33.0837312414734
 20
1.9213847203274215
 10
33.134379263301504
 20
1.9249658935879945
 10
33.19150750341064
 20
1.9309345156889495
 10
33.25511596180082
 20
1.9392905866302865
  0
LWPOLYLINE
  5
3D
330
17
100
AcDbEntity
  8
0
100
AcDbPolyline
 90
5
 70
0
 10
33.87175989085948
 20
3.838335607094134
 10
33.87175989085948
 20
4.3976807639836295
 10
34.43110504774898
 20
4.3976807639836295
 10
34.43110504774898
 20
3.838335607094134
 10
33.87175989085948
 20
3.838335607094134
  0
LWPOLYLINE
  5
3E
330
17
100
AcDbEntity
  8
0
100
AcDbPolyline
 90
5
 70
0
 10
33.87175989085948
 20
1.5
 10
33.87175989085948
 20
2.059345156889495
 10
34.43110504774898
 20
2.059345156889495
 10
34.43110504774898
 20
1.5
 10
33.87175989085948
 20
1.5
  0
LWPOLYLINE
  5
3F
330
17
100
AcDbEntity
  8
0
100
AcDbPolyline
 90
22
 70
0
 10
38.553888130968616
 20
1.5
 10
38.06275579809004
 20
1.5
 10
38.06275579809004
 20
4.629604365620737
 10
37.967172578444746
 20
4.545020463847203
 10
37.85777626193724
 20
4.46043656207367
 10
37.734566848567525
 20
4.375852660300136
 10
37.5975443383356
 20
4.291268758526603
 10
37.45728171896316
 20
4.211971350613915
 10
37.32435197817189
 20
4.14324693042292
 10
37.198755115961795
 20
4.085095497953615
 10
37.080491132332874
 20
4.0375170532060025
 10
37.080491132332874
 20
4.512278308321965
 10
37.280013642564796
 20
4.614256480218281
 10
37.466575716234644
 20
4.726466575716234
 10
37.64017735334242
 20
4.848908594815825
 10
37.80081855388813
 20
4.981582537517053
 10
37.94372442019099
 20
5.118349249658936
 10
38.06412005457025
 20
5.253069577080491
 10
38.16200545702591
 20
5.38574351978172
 10
38.237380627557975
 20
5.51637107776262
 10
38.553888130968616
 20
5.51637107776262
 10
38.553888130968616
 20
1.5
  0
LWPOLYLINE
  5
40
330
17
100
AcDbEntity
  8
0
100
AcDbPolyline
 90
77
 70
0
 10
42.39290586630286
 20
1.9720327421555253
 10
42.39290586630286
 20
1.5
 10
39.748976807639835
 20
1.5
 10
39.75051159618008
 20
1.5878240109140518
 10
39.76057298772169
 20
1.6739427012278307
 10
39.77916098226466
 20
1.7583560709413368
 10
39.806275579809004
 20
1.8410641200545703
 10
39.86434174624829
 20
1.9756139154160983
 10
39.93758526603001
 20
2.1091405184174623
 10
40.026006139154156
 20
2.2416439290586627
 10
40.129604365620736
 20
2.3731241473397
 10
40.2531548431105
 20
2.5092087312414733
 10
40.401432469304225
 20
2.655525238744884
 10
40.57443724420191
 20
2.812073669849932
 10
40.77216916780355
 20
2.9788540245566164
 10
41.071793997271484
 20
3.232349931787176
 10
41.318553888130964
 20
3.4580491132332876
 10
41.51244884038199
 20
3.6559515688949524
 10
41.653478854024556
 20
3.8260572987721693
 10
41.753751705320596
 20
3.9801330150068215
 10
41.825375170532055
 20
4.129945429740792
 10
41.868349249658934
 20
4.275494542974079
 10
41.882673942701224
 20
4.416780354706685
 10
41.86962824010914
 20
4.557042974079127
 10
41.830491132332874
 20
4.685879945429741
 10
41.76526261937244
 20
4.803291268758526
 10
41.67394270122783
 20
4.909276944065484
 10
41.56164733969986
 20
4.9970156889495225
 10
41.43349249658935
 20
5.0596862210095495
 10
41.28947817189631
 20
5.097288540245566
 10
41.129604365620736
 20
5.109822646657571
 10
40.961118690313775
 20
5.096521145975443
 10
40.81036834924966
 20
5.0566166439290585
 10
40.677353342428376
 20
4.990109140518418
 10
40.56207366984993
 20
4.89699863574352
 10
40.468792633015006
 20
4.780354706684857
 10
40.401773533424276
 20
4.64324693042292
 10
40.36101637107776
 20
4.485675306957708
 10
40.34652114597544
 20
4.307639836289223
 10
39.841746248294676
 20
4.3594815825375175
 10
39.88557298772169
 20
4.625085266030014
 10
39.96521145975443
 20
4.857094133697135
 10
40.080661664392906
 20
5.055508185538882
 10
40.23192360163711
 20
5.220327421555252
 10
40.41558663028649
 20
5.349846521145976
 10
40.62824010914051
 20
5.442360163710778
 10
40.86988403819918
 20
5.497868349249659
 10
41.14051841746248
 20
5.51637107776262
 10
41.413369713506135
 20
5.496418826739427
 10
41.65620736698499
 20
5.43656207366985
 10
41.86903137789904
 20
5.336800818553889
 10
42.05184174624829
 20
5.197135061391542
 10
42.19866984993178
 20
5.027967257844475
 10
42.303547066848566
 20
4.839699863574352
 10
42.36647339699863
 20
4.632332878581173
 10
42.387448840381985
 20
4.405866302864938
 10
42.381309686221
 20
4.286323328785811
 10
42.36289222373806
 20
4.167803547066849
 10
42.33219645293315
 20
4.050306957708049
 10
42.289222373806275
 20
3.9338335607094135
 10
42.23200886766712
 20
3.816336971350614
 10
42.158594815825374
 20
3.6957708049113234
 10
42.068980218281034
 20
3.572135061391542
 10
41.963165075034105
 20
3.445429740791269
 10
41.83040586630286
 20
3.3052523874488404
 10
41.65995907230559
 20
3.141200545702592
 10
41.45182469304229
 20
2.953274215552524
 10
41.206002728512956
 20
2.741473396998636
 10
41.00477489768076
 20
2.570856070941337
 10
40.84311050477489
 20
2.430081855388813
 10
40.721009549795355
 20
2.319150750341064
 10
40.63847203274215
 20
2.23806275579809
 10
40.578444747612544
 20
2.1718110504774897
 10
40.52387448840381
 20
2.1053888130968623
 10
40.47476125511596
 20
2.038796043656207
 10
40.43110504774897
 20
1.9720327421555253
 10
42.39290586630286
 20
1.9720327421555253
  0
LWPOLYLINE
  5
41
330
17
100
AcDbEntity
  8
0
100
AcDbPolyline
 90
112
 70
0
 10
42.92223738062756
 20
2.5559345156889495
 10
43.413369713506135
 20
2.621418826739427
 10
43.46307980900409
 20
2.427268076398363
 10
43.527626193724416
 20
2.2622783083219646
 10
43.60700886766712
 20
2.126449522510232
 10
43.701227830832195
 20
2.019781718963165
 10
43.80840723055935
 20
1.9392053206002728
 10
43.92667121418827
 20
1.8816507503410642
 10
44.056019781718966
 20
1.847118008185539
 10
44.196452933151434
 20
1.8356070941336973
 10
44.36297748976808
 20
1.8506139154160983
 10
44.51603001364256
 20
1.8956343792633015
 10
44.6556105047749
 20
1.970668485675307
 10
44.781718963165076
 20
2.0757162346521145
 10
44.88616984993179
 20
2.2029331514324695
 10
44.960777626193725
 20
2.344474761255116
 10
45.00554229195089
 20
2.5003410641200547
 10
45.020463847203274
 20
2.670532060027285
 10
45.006650750341066
 20
2.832281718963165
 10
44.965211459754435
 20
2.979195088676671
 10
44.89614597544338
 20
3.111272169167804
 10
44.79945429740791
 20
3.228512960436562
 10
44.68144611186903
 20
3.3246077762619373
 10
44.54843110504775
 20
3.3932469304229196
 10
44.40040927694407
 20
3.4344304229195086
 10
44.23738062755798
 20
3.4481582537517053
 10
44.16354024556617
 20
3.4447476125511596
 10
44.08117326057299
 20
3.4345156889495225
 10
43.990279672578446
 20
3.417462482946794
 10
43.89085948158254
 20
3.3935879945429743
 10
43.94542974079127
 20
3.8246930422919507
 10
43.968792633015006
 20
3.822305593451569
 10
43.98976807639836
 20
3.820600272851296
 10
44.00835607094133
 20
3.8195770804911326
 10
44.02455661664393
 20
3.819236016371078
 10
44.1775238744884
 20
3.829467939972715
 10
44.322646657571624
 20
3.860163710777626
 10
44.459924965893585
 20
3.911323328785812
 10
44.589358799454295
 20
3.9829467939972716
 10
44.699181446111865
 20
4.075886766712142
 10
44.777626193724416
 20
4.190995907230559
 10
44.82469304229195
 20
4.328274215552524
 10
44.84038199181446
 20
4.487721691678035
 10
44.82895634379263
 20
4.6169849931787175
 10
44.794679399727144
 20
4.734652114597544
 10
44.73755115961801
 20
4.840723055934515
 10
44.65757162346521
 20
4.935197817189632
 10
44.55951568894952
 20
5.012789904502046
 10
44.4481582537517
 20
5.068212824010914
 10
44.32349931787176
 20
5.101466575716234
 10
44.18553888130968
 20
5.1125511596180075
 10
44.048260572987715
 20
5.101296043656207
 10
43.922919508867665
 20
5.067530695770804
 10
43.80951568894952
 20
5.0112551159618
 10
43.70804911323329
 20
4.932469304229195
 10
43.62107776261937
 20
4.831173260572988
 10
43.551159618008185
 20
4.707366984993179
 10
43.49829467939973
 20
4.5610504774897676
 10
43.462482946794
 20
4.392223738062755
 10
42.97135061391541
 20
4.479536152796726
 10
43.03069577080491
 20
4.712568212824011
 10
43.11869031377899
 20
4.917803547066849
 10
43.23533424283765
 20
5.095242155525239
 10
43.3806275579809
 20
5.2448840381991815
 10
43.549965893587995
 20
5.363659618008186
 10
43.7387448840382
 20
5.44849931787176
 10
43.94696452933152
 20
5.499403137789905
 10
44.17462482946794
 20
5.51637107776262
 10
44.33509549795361
 20
5.507588676671214
 10
44.48908594815825
 20
5.481241473396999
 10
44.63659618008185
 20
5.437329467939973
 10
44.777626193724416
 20
5.375852660300136
 10
44.90731582537517
 20
5.299198499317872
 10
45.020804911323324
 20
5.209754433833561
 10
45.118093451568896
 20
5.107520463847203
 10
45.199181446111865
 20
4.992496589358799
 10
45.26304570259208
 20
4.869201909959072
 10
45.308663028649384
 20
4.742155525238745
 10
45.33603342428376
 20
4.611357435197817
 10
45.34515688949522
 20
4.47680763983629
 10
45.33645975443383
 20
4.350102319236017
 10
45.31036834924966
 20
4.229195088676671
 10
45.266882673942696
 20
4.1140859481582535
 10
45.206002728512956
 20
4.004774897680764
 10
45.12806957708049
 20
3.903819918144611
 10
45.03342428376535
 20
3.8137789904502046
 10
44.92206684856753
 20
3.7346521145975444
 10
44.79399727148704
 20
3.6664392905866303
 10
44.96145975443383
 20
3.614512278308322
 10
45.10914051841746
 20
3.540586630286494
 10
45.237039563437925
 20
3.444662346521146
 10
45.34515688949522
 20
3.3267394270122783
 10
45.43110504774897
 20
3.1897169167803545
 10
45.492496589358794
 20
3.036493860845839
 10
45.52933151432469
 20
2.8670702592087314
 10
45.541609822646656
 20
2.6814461118690316
 10
45.517735334242836
 20
2.4294849931787175
 10
45.44611186903138
 20
2.197476125511596
 10
45.32673942701228
 20
1.9854195088676672
 10
45.15961800818554
 20
1.7933151432469305
 10
44.956002728512956
 20
1.6339529331514326
 10
44.727148703956345
 20
1.5201227830832198
 10
44.473055934515685
 20
1.451824693042292
 10
44.193724420190996
 20
1.4290586630286495
 10
43.94159276944065
 20
1.4486698499317874
 10
43.71180081855389
 20
1.5075034106412006
 10
43.5043485675307
 20
1.6055593451568897
 10
43.31923601637108
 20
1.742837653478854
 10
43.16396657571623
 20
1.9113233287858118
 10
43.04604365620737
 20
2.10300136425648
 10
42.96546725784447
 20
2.3178717598908594
 10
42.92223738062756
 20
2.5559345156889495
  0
LWPOLYLINE
  5
42
330
17
100
AcDbEntity
  8
0
100
AcDbPolyline
 90
12
 70
0
 10
47.60163710777626
 20
1.5
 10
47.60163710777626
 20
2.4577080491132333
 10
45.86630286493861
 20
2.4577080491132333
 10
45.86630286493861
 20
2.907912687585266
 10
47.69167803547067
 20
5.5
 10
48.09276944065484
 20
5.5
 10
48.09276944065484
 20
2.907912687585266
 10
48.63301500682128
 20
2.907912687585266
 10
48.63301500682128
 20
2.4577080491132333
 10
48.09276944065484
 20
2.4577080491132333
 10
48.09276944065484
 20
1.5
 10
47.60163710777626
 20
1.5
  0
LWPOLYLINE
  5
43
330
17
100
AcDbEntity
  8
0
100
AcDbPolyline
 90
4
 70
0
 10
47.60163710777626
 20
2.907912687585266
 10
47.60163710777626
 20
4.711459754433834
 10
46.34924965893588
 20
2.907912687585266
 10
47.60163710777626
 20
2.907912687585266
  0
LWPOLYLINE
  5
44
330
17
100
AcDbEntity
  8
0
100
AcDbPolyline
 90
68
 70
0
 10
49.13506139154161
 20
2.5477489768076396
 10
49.650750341064125
 20
2.591405184174625
 10
49.68886425648022
 20
2.414819236016371
 10
49.745907230559354
 20
2.2615961800818556
 10
49.821879263301504
 20
2.131736016371078
 10
49.91678035470669
 20
2.0252387448840383
 10
50.026517735334245
 20
1.9422748976807642
 10
50.14699863574352
 20
1.8830150068212825
 10
50.27822305593452
 20
1.8474590723055937
 10
50.420190995907234
 20
1.8356070941336973
 10
50.59072305593452
 20
1.8523192360163712
 10
50.74761255115962
 20
1.9024556616643928
 10
50.89085948158254
 20
1.9860163710777625
 10
51.020463847203274
 20
2.10300136425648
 10
51.12789904502046
 20
2.2476125511596177
 10
51.20463847203275
 20
2.4140518417462484
 10
51.250682128240115
 20
2.602319236016371
 10
51.26603001364257
 20
2.8124147339699865
 10
51.25127899045021
 20
3.011425648021828
 10
51.20702592087313
 20
3.188267394270123
 10
51.13327080491133
 20
3.3429399727148703
 10
51.0300136425648
 20
3.4754433833560707
 10
50.90288199181446
 20
3.5816848567530695
 10
50.757503410641206
 20
3.6575716234652114
 10
50.593877899045026
 20
3.703103683492497
 10
50.41200545702593
 20
3.718281036834925
 10
50.2962141882674
 20
3.711545020463847
 10
50.1862210095498
 20
3.691336971350614
 10
50.08202592087313
 20
3.6576568894952253
 10
49.983628922237386
 20
3.610504774897681
 10
49.893246930422926
 20
3.5526091405184177
 10
49.8130968622101
 20
3.486698499317872
 10
49.74317871759891
 20
3.412772851296044
 10
49.68349249658936
 20
3.330832196452933
 10
49.222373806275584
 20
3.3908594815825372
 10
49.60982264665758
 20
5.445429740791269
 10
51.59890859481583
 20
5.445429740791269
 10
51.59890859481583
 20
4.97612551159618
 10
50.00272851296044
 20
4.97612551159618
 10
49.78717598908595
 20
3.9010914051841747
 10
49.96947476125512
 20
4.0109140518417465
 10
50.156207366985
 20
4.089358799454297
 10
50.347373806275584
 20
4.136425648021828
 10
50.54297407912688
 20
4.1521145975443385
 10
50.79467939972715
 20
4.12943383356071
 10
51.02592087312415
 20
4.061391541609823
 10
51.236698499317875
 20
3.9479877216916783
 10
51.427012278308325
 20
3.789222373806276
 10
51.584583901773534
 20
3.5948158253751705
 10
51.69713506139155
 20
3.3744884038199183
 10
51.76466575716235
 20
3.1282401091405188
 10
51.78717598908595
 20
2.8560709413369714
 10
51.767394270122786
 20
2.5937926330150067
 10
51.708049113233294
 20
2.349931787175989
 10
51.60914051841747
 20
2.1244884038199183
 10
51.47066848567531
 20
1.9174624829467941
 10
51.26074351978173
 20
1.7049795361527968
 10
51.01568894952251
 20
1.5532060027285128
 10
50.735504774897684
 20
1.4621418826739427
 10
50.420190995907234
 20
1.431787175989086
 10
50.159873806275584
 20
1.450886766712142
 10
49.924624829467945
 20
1.5081855388813097
 10
49.714444065484315
 20
1.6036834924965893
 10
49.529331514324696
 20
1.7373806275579808
 10
49.375255798090045
 20
1.9026261937244202
 10
49.258185538881314
 20
2.092769440654843
 10
49.1781207366985
 20
2.3078103683492497
 10
49.13506139154161
 20
2.5477489768076396
  0
LWPOLYLINE
  5
45
330
17
100
AcDbEntity
  8
0
100
AcDbPolyline
 90
74
 70
0
 10
54.791268758526606
 20
4.520463847203274
 10
54.302864938608465
 20
4.482264665757162
 10
54.26671214188268
 20
4.6169849931787175
 10
54.22373806275581
 20
4.731923601637107
 10
54.17394270122784
 20
4.827080491132333
 10
54.117326057298776
 20
4.902455661664392
 10
54.01193724420192
 20
4.994372442019099
 10
53.8949522510232
 20
5.060027285129603
 10
53.76637107776263
 20
5.0994201909959065
 10
53.6261937244202
 20
5.1125511596180075
 10
53.512448840382
 20
5.104365620736698
 10
53.40586630286494
 20
5.079809004092769
 10
53.306446111869036
 20
5.038881309686221
 10
53.21418826739428
 20
4.981582537517053
 10
53.10436562073671
 20
4.887278308321965
 10
53.0068212824011
 20
4.773533424283765
 10
52.921555252387456
 20
4.640347885402456
 10
52.848567530695775
 20
4.487721691678035
 10
52.789733969986365
 20
4.308151432469304
 10
52.74693042291951
 20
4.094133697135062
 10
52.72015688949523
 20
3.845668485675307
 10
52.70941336971351
 20
3.562755798090041
 10
52.80303547066849
 20
3.6891200545702594
 10
52.90654843110505
 20
3.7980900409276943
 10
53.0199522510232
 20
3.8896657571623465
 10
53.143246930422926
 20
3.9638472032742156
 10
53.27302182810369
 20
4.021145975443384
 10
53.40586630286494
 20
4.062073669849932
 10
53.54178035470669
 20
4.086630286493861
 10
53.68076398362893
 20
4.0948158253751705
 10
53.91720668485676
 20
4.072220327421555
 10
54.13540245566167
 20
4.004433833560709
 10
54.33535129604366
 20
3.891456343792633
 10
54.517053206002736
 20
3.733287858117326
 10
54.6680593451569
 20
3.5393076398362893
 10
54.77592087312415
 20
3.318894952251023
 10
54.840637789904505
 20
3.072049795361528
 10
54.86221009549796
 20
2.798772169167804
 10
54.85206343792633
 20
2.613830150068213
 10
54.82162346521147
 20
2.4355388813096863
 10
54.77089017735335
 20
2.2638983628922236
 10
54.69986357435199
 20
2.0989085948158253
 10
54.61110163710779
 20
1.9467087312414733
 10
54.507162346521156
 20
1.81343792633015
 10
54.388045702592095
 20
1.6990961800818554
 10
54.2537517053206
 20
1.6036834924965893
 10
54.10709413369714
 20
1.5284788540245566
 10
53.950886766712145
 20
1.4747612551159617
 10
53.78512960436563
 20
1.4425306957708048
 10
53.60982264665758
 20
1.431787175989086
 10
53.31701909959073
 20
1.4600102319236017
 10
53.052523874488415
 20
1.5446793997271486
 10
52.81633697135062
 20
1.6857946793997272
 10
52.60845839017736
 20
1.8833560709413368
 10
52.43894952251024
 20
2.1457196452933154
 10
52.31787175989086
 20
2.4812414733969987
 10
52.245225102319246
 20
2.8899215552523874
 10
52.22100954979537
 20
3.3717598908594817
 10
52.24778308321965
 20
3.912005457025921
 10
52.3281036834925
 20
4.3731241473397
 10
52.46197135061392
 20
4.7551159618008185
 10
52.64938608458391
 20
5.057980900409277
 10
52.85248976807641
 20
5.258526603001364
 10
53.08799454297409
 20
5.401773533424284
 10
53.355900409276956
 20
5.487721691678036
 10
53.656207366985
 20
5.51637107776262
 10
53.881565484311054
 20
5.499829467939973
 10
54.0856070941337
 20
5.450204638472033
 10
54.26833219645294
 20
5.3674965893588
 10
54.42974079126876
 20
5.251705320600273
 10
54.56539904502047
 20
5.10675306957708
 10
54.67087312414735
 20
4.93656207366985
 10
54.74616302864939
 20
4.741132332878581
 10
54.791268758526606
 20
4.520463847203274
  0
LWPOLYLINE
  5
46
330
17
100
AcDbEntity
  8
0
100
AcDbPolyline
 90
37
 70
0
 10
52.78581173260574
 20
2.7960436562073667
 10
52.792547748976816
 20
2.670532060027285
 10
52.81275579809005
 20
2.5477489768076396
 10
52.84643587994544
 20
2.427694406548431
 10
52.89358799454298
 20
2.310368349249659
 10
52.95284788540246
 20
2.20131309686221
 10
53.02285129604366
 20
2.1060709413369714
 10
53.10359822646658
 20
2.0246418826739427
 10
53.19508867667122
 20
1.9570259208731242
 10
53.29314461118691
 20
1.9039051841746248
 10
53.39358799454298
 20
1.8659618008185541
 10
53.496418826739436
 20
1.8431957708049114
 10
53.60163710777627
 20
1.8356070941336973
 10
53.75170532060028
 20
1.8512960436562076
 10
53.890859481582545
 20
1.898362892223738
 10
54.01909959072306
 20
1.9768076398362895
 10
54.136425648021834
 20
2.086630286493861
 10
54.234311050477494
 20
2.2233969986357436
 10
54.30422919508868
 20
2.382673942701228
 10
54.346180081855394
 20
2.5644611186903137
 10
54.360163710777634
 20
2.7687585266030013
 10
54.346350613915426
 20
2.96512619372442
 10
54.304911323328795
 20
3.139495225102319
 10
54.23584583901774
 20
3.2918656207366985
 10
54.13915416098227
 20
3.422237380627558
 10
54.021487039563446
 20
3.52668826739427
 10
53.88949522510232
 20
3.601296043656207
 10
53.743178717598916
 20
3.6460607094133697
 10
53.58253751705321
 20
3.660982264665757
 10
53.42240791268759
 20
3.6460607094133697
 10
53.274897680763985
 20
3.601296043656207
 10
53.140006821282405
 20
3.52668826739427
 10
53.01773533424284
 20
3.422237380627558
 10
52.91626875852661
 20
3.2935709413369714
 10
52.84379263301501
 20
3.1463165075034105
 10
52.80030695770806
 20
2.980474079126876
 10
52.78581173260574
 20
2.7960436562073667
  0
LWPOLYLINE
  5
47
330
17
100
AcDbEntity
  8
0
100
AcDbPolyline
 90
30
 70
0
 10
55.383356070941346
 20
4.97612551159618
 10
55.383356070941346
 20
5.448158253751705
 10
57.97271487039564
 20
5.448158253751705
 10
57.97271487039564
 20
5.066166439290587
 10
57.78214529331515
 20
4.8461800818553895
 10
57.5924283765348
 20
4.592769440654844
 10
57.403564120054575
 20
4.30593451568895
 10
57.21555252387449
 20
3.985675306957708
 10
57.03862551159619
 20
3.6463165075034105
 10
56.88301500682129
 20
3.302182810368349
 10
56.748721009549804
 20
2.953274215552524
 10
56.63574351978173
 20
2.5995907230559343
 10
56.568724420191
 20
2.3425989085948156
 10
56.51500682128241
 20
2.073669849931787
 10
56.47459072305595
 20
1.7928035470668486
 10
56.447476125511606
 20
1.5
 10
55.94270122783084
 20
1.5
 10
55.957366984993186
 20
1.7482946793997272
 10
55.993178717598916
 20
2.0211459754433836
 10
56.050136425648034
 20
2.3185538881309684
 10
56.12824010914053
 20
2.640518417462483
 10
56.22655184174626
 20
2.9717769440654846
 10
56.34413369713507
 20
3.297066848567531
 10
56.48098567530696
 20
3.6163881309686223
 10
56.63710777626194
 20
3.9297407912687587
 10
56.80550818553889
 20
4.2279160982264665
 10
56.979195088676676
 20
4.501705320600273
 10
57.15816848567532
 20
4.751108458390177
 10
57.3424283765348
 20
4.97612551159618
 10
55.383356070941346
 20
4.97612551159618
  0
LWPOLYLINE
  5
48
330
17
100
AcDbEntity
  8
0
100
AcDbPolyline
 90
65
 70
0
 10
59.21418826739428
 20
3.669167803547067
 10
59.071282401091416
 20
3.7310709413369714
 10
58.948158253751714
 20
3.8049113233287857
 10
58.84481582537518
 20
3.8906889495225103
 10
58.76125511596181
 20
3.9884038199181444
 10
58.6967939972715
 20
4.097203274215552
 10
58.65075034106413
 20
4.216234652114597
 10
58.62312414733971
 20
4.345497953615279
 10
58.61391541609824
 20
4.484993178717598
 10
58.63352660300137
 20
4.694577080491132
 10
58.69236016371079
 20
4.886766712141883
 10
58.79041609822647
 20
5.06156207366985
 10
58.92769440654844
 20
5.218963165075034
 10
59.09754433833562
 20
5.349079126875853
 10
59.29331514324694
 20
5.442019099590723
 10
59.51500682128241
 20
5.4977830832196455
 10
59.76261937244203
 20
5.51637107776262
 10
60.01176671214189
 20
5.497356753069577
 10
60.235334242837666
 20
5.4403137789904505
 10
60.43332196452934
 20
5.345242155525239
 10
60.60572987721693
 20
5.212141882673943
 10
60.74539563437927
 20
5.051756480218281
 10
60.845156889495236
 20
4.874829467939973
 10
60.90501364256481
 20
4.681360845839018
 10
60.924965893588
 20
4.4713506139154156
 10
60.91584242837654
 20
4.3367155525238745
 10
60.888472032742165
 20
4.2111186903137785
 10
60.84285470668486
 20
4.094560027285129
 10
60.778990450204645
 20
3.9870395634379263
 10
60.696538199181454
 20
3.8899215552523874
 10
60.595156889495236
 20
3.8045702592087314
 10
60.474846521145984
 20
3.730985675306958
 10
60.33560709413371
 20
3.669167803547067
 10
60.508782401091416
 20
3.599931787175989
 10
60.659959072305604
 20
3.5122783083219646
 10
60.78913710777627
 20
3.4062073669849933
 10
60.89631650750342
 20
3.281718963165075
 10
60.980474079126886
 20
3.1415416098226467
 10
61.040586630286505
 20
2.988403819918145
 10
61.07665416098228
 20
2.822305593451569
 10
61.0886766712142
 20
2.6432469304229196
 10
61.06599590723057
 20
2.39699863574352
 10
60.997953615279684
 20
2.1712141882673945
 10
60.88454979536154
 20
1.965893587994543
 10
60.72578444747614
 20
1.781036834924966
 10
60.53001364256481
 20
1.6282401091405183
 10
60.3055934515689
 20
1.519099590723056
 10
60.052523874488415
 20
1.4536152796725785
 10
59.77080491132334
 20
1.431787175989086
 10
59.48908594815826
 20
1.453700545702592
 10
59.236016371077774
 20
1.5194406548431105
 10
59.01159618008187
 20
1.6290075034106413
 10
58.81582537517054
 20
1.7824010914051842
 10
58.65706002728514
 20
1.968536834924966
 10
58.54365620736699
 20
2.176330150068213
 10
58.47561391541611
 20
2.405781036834925
 10
58.45293315143248
 20
2.6568894952251023
 10
58.46529672578446
 20
2.844048431105048
 10
58.502387448840395
 20
3.0153478854024556
 10
58.56420532060029
 20
3.1707878581173263
 10
58.65075034106413
 20
3.310368349249659
 10
58.76014665757163
 20
3.431531377899045
 10
58.890518417462495
 20
3.5317189631650754
 10
59.04186562073671
 20
3.610931105047749
 10
59.21418826739428
 20
3.669167803547067
  0
LWPOLYLINE
  5
49
330
17
100
AcDbEntity
  8
0
100
AcDbPolyline
 90
33
 70
0
 10
59.11596180081857
 20
4.501364256480218
 10
59.127387448840395
 20
4.365961800818554
 10
59.16166439290588
 20
4.243519781718963
 10
59.21879263301502
 20
4.134038199181446
 10
59.29877216916781
 20
4.0375170532060025
 10
59.39699863574353
 20
3.9587312414733966
 10
59.50886766712143
 20
3.902455661664393
 10
59.63437926330151
 20
3.8686903137789903
 10
59.77353342428378
 20
3.8574351978171895
 10
59.90902114597545
 20
3.868605047748977
 10
60.03171896316508
 20
3.902114597544338
 10
60.14162687585267
 20
3.957963847203274
 10
60.23874488403821
 20
4.036152796725784
 10
60.318127557980915
 20
4.130542291950887
 10
60.37482946793998
 20
4.234993178717599
 10
60.408850613915426
 20
4.349505457025921
 10
60.42019099590724
 20
4.474079126875853
 10
60.40850954979537
 20
4.603768758526603
 10
60.37346521145977
 20
4.7227148703956345
 10
60.31505798090042
 20
4.8309174624829465
 10
60.233287858117336
 20
4.928376534788541
 10
60.13412346521147
 20
5.008952933151432
 10
60.02353342428378
 20
5.066507503410641
 10
59.90151773533425
 20
5.101040245566166
 10
59.7680763983629
 20
5.1125511596180075
 10
59.63352660300137
 20
5.101296043656207
 10
59.51091405184176
 20
5.067530695770804
 10
59.40023874488405
 20
5.0112551159618
 10
59.30150068212825
 20
4.932469304229195
 10
59.22032742155526
 20
4.837994542974079
 10
59.16234652114599
 20
4.734652114597544
 10
59.12755798090042
 20
4.622442019099591
 10
59.11596180081857
 20
4.501364256480218
  0
LWPOLYLINE
  5
4A
330
17
100
AcDbEntity
  8
0
100
AcDbPolyline
 90
37
 70
0
 10
58.95770804911324
 20
2.6541609822646657
 10
58.96393246930424
 20
2.5499658935879945
 10
58.98260572987723
 20
2.447476125511596
 10
59.0137278308322
 20
2.3466916780354707
 10
59.057298772169176
 20
2.247612551159618
 10
59.11314802182812
 20
2.1549283765347886
 10
59.181105047748986
 20
2.0733287858117326
 10
59.2611698499318
 20
2.00281377899045
 10
59.35334242837654
 20
1.9433833560709413
 10
59.45344474761256
 20
1.896231241473397
 10
59.557298772169176
 20
1.8625511596180082
 10
59.6649045020464
 20
1.842343110504775
 10
59.776261937244215
 20
1.8356070941336973
 10
59.94457708049114
 20
1.849761255115962
 10
60.09754433833562
 20
1.8922237380627558
 10
60.235163710777634
 20
1.9629945429740792
 10
60.357435197817196
 20
2.062073669849932
 10
60.45770804911324
 20
2.182980900409277
 10
60.5293315143247
 20
2.319236016371078
 10
60.57230559345158
 20
2.4708390177353343
 10
60.58663028649387
 20
2.6377899045020463
 10
60.57187926330151
 20
2.807469304229195
 10
60.52762619372443
 20
2.961800818553888
 10
60.45387107776263
 20
3.1007844474761255
 10
60.350613915416105
 20
3.2244201909959074
 10
60.225187585266035
 20
3.325886766712142
 10
60.0849249658936
 20
3.398362892223738
 10
59.92982605729878
 20
3.4418485675306956
 10
59.759890859481594
 20
3.4563437926330147
 10
59.59404843110506
 20
3.442019099590723
 10
59.443042291950896
 20
3.3990450204638467
 10
59.30687244201911
 20
3.3274215552523874
 10
59.1855388813097
 20
3.2271487039563436
 10
59.08586289222375
 20
3.105388813096862
 10
59.014665757162355
 20
2.9693042291950884
 10
58.97194747612552
 20
2.818894952251023
 10
58.95770804911324
 20
2.6541609822646657
  0
LWPOLYLINE
  5
4B
330
17
100
AcDbEntity
  8
0
100
AcDbPolyline
 90
86
 70
0
 10
61.63983628922239
 20
2.4249658935879945
 10
62.111869031377914
 20
2.4686221009549794
 10
62.14870395634381
 20
2.3136084583901773
 10
62.19918144611188
 20
2.181446111869031
 10
62.26330150068214
 20
2.0721350613915415
 10
62.34106412005458
 20
1.985675306957708
 10
62.431616643929075
 20
1.9200204638472034
 10
62.53410641200547
 20
1.8731241473397
 10
62.648533424283784
 20
1.844986357435198
 10
62.774897680764
 20
1.8356070941336973
 10
62.884635061391556
 20
1.8420873124147341
 10
62.987380627558
 20
1.8615279672578446
 10
63.08313437926331
 20
1.8939290586630286
 10
63.171896316507514
 20
1.9392905866302865
 10
63.25332537517054
 20
1.9954809004092768
 10
63.32708049113234
 20
2.060368349249659
 10
63.39316166439291
 20
2.1339529331514324
 10
63.45156889495226
 20
2.2162346521145975
 10
63.503922237380635
 20
2.3104536152796724
 10
63.55184174624831
 20
2.419849931787176
 10
63.59532742155527
 20
2.544423601637108
 10
63.63437926330151
 20
2.684174624829468
 10
63.66660982264667
 20
2.832196452933151
 10
63.68963165075036
 20
2.981582537517053
 10
63.703444747612565
 20
3.132332878581173
 10
63.7080491132333
 20
3.2844474761255116
 10
63.707878581173276
 20
3.3028649386084585
 10
63.70736698499319
 20
3.3253751705320598
 10
63.70651432469305
 20
3.3519781718963166
 10
63.70532060027286
 20
3.382673942701228
 10
63.62491473397
 20
3.2708901773533423
 10
63.531036834924976
 20
3.1701909959072303
 10
63.423686903137806
 20
3.080576398362892
 10
63.30286493860847
 20
3.0020463847203276
 10
63.17266371077764
 20
2.938182128240109
 10
63.03717598908596
 20
2.8925648021828105
 10
62.896401773533434
 20
2.865194406548431
 10
62.750341064120065
 20
2.8560709413369714
 10
62.51159618008187
 20
2.878581173260573
 10
62.29195088676672
 20
2.9461118690313777
 10
62.09140518417463
 20
3.058663028649386
 10
61.909959072305604
 20
3.2162346521145975
 10
61.759549795361536
 20
3.4106412005457023
 10
61.65211459754435
 20
3.6336971350613916
 10
61.58765347885404
 20
3.8854024556616644
 10
61.5661664392906
 20
4.165757162346521
 10
61.58859140518419
 20
4.455150068212824
 10
61.65586630286495
 20
4.71487039563438
 10
61.767991132332895
 20
4.944918144611187
 10
61.92496589358801
 20
5.145293315143247
 10
62.11570600272853
 20
5.307639836289223
 10
62.32912687585267
 20
5.423601637107777
 10
62.565228512960445
 20
5.493178717598909
 10
62.824010914051854
 20
5.51637107776262
 10
63.0149215552524
 20
5.503240109140519
 10
63.19747612551161
 20
5.463847203274216
 10
63.37167462482948
 20
5.398192360163711
 10
63.53751705320602
 20
5.306275579809004
 10
63.689461118690325
 20
5.190057980900409
 10
63.821964529331524
 20
5.05150068212824
 10
63.935027285129614
 20
4.890603683492497
 10
64.0286493860846
 20
4.707366984993179
 10
64.10206343792635
 20
4.491217598908595
 10
64.15450204638474
 20
4.2315825375170535
 10
64.18596521145977
 20
3.928461800818554
 10
64.19645293315145
 20
3.581855388813097
 10
64.18605047748979
 20
3.218025238744884
 10
64.1548431105048
 20
2.8932469304229196
 10
64.10283083219647
 20
2.6075204638472034
 10
64.03001364256482
 20
2.3608458390177356
 10
63.93664733969988
 20
2.147254433833561
 10
63.822987721691696
 20
1.9607776261937246
 10
63.68903478854026
 20
1.8014154160982265
 10
63.53478854024558
 20
1.669167803547067
 10
63.36331855388814
 20
1.5653137789904503
 10
63.17769440654844
 20
1.491132332878581
 10
62.97791609822648
 20
1.4466234652114598
 10
62.76398362892225
 20
1.431787175989086
 10
62.54007503410642
 20
1.4480729877216916
 10
62.33765347885404
 20
1.4969304229195088
 10
62.15671896316508
 20
1.5783594815825375
 10
61.997271487039576
 20
1.6923601637107777
 10
61.863403819918155
 20
1.835862892223738
 10
61.759208731241486
 20
2.0057980900409276
 10
61.684686221009564
 20
2.2021657571623465
 10
61.63983628922239
 20
2.4249658935879945
  0
LWPOLYLINE
  5
4C
330
17
100
AcDbEntity
  8
0
100
AcDbPolyline
 90
33
 70
0
 10
63.65075034106413
 20
4.1903137789904505
 10
63.63668144611188
 20
4.390859481582537
 10
63.59447476125513
 20
4.569577080491133
 10
63.52413028649387
 20
4.726466575716234
 10
63.42564802182812
 20
4.861527967257844
 10
63.307384038199196
 20
4.970156889495225
 10
63.17769440654845
 20
5.04774897680764
 10
63.036579126875864
 20
5.094304229195089
 10
62.88403819918146
 20
5.109822646657571
 10
62.72561391541611
 20
5.093110504774898
 10
62.57776261937245
 20
5.042974079126876
 10
62.44048431105049
 20
4.9594133697135065
 10
62.31377899045022
 20
4.842428376534789
 10
62.20753751705322
 20
4.698840381991815
 10
62.13165075034108
 20
4.535470668485676
 10
62.086118690313796
 20
4.352319236016371
 10
62.070941336971366
 20
4.149386084583902
 10
62.08535129604367
 20
3.967343110504775
 10
62.128581173260585
 20
3.8032060027285133
 10
62.200630968622114
 20
3.6569747612551162
 10
62.30150068212825
 20
3.528649386084584
 10
62.423516371077774
 20
3.424198499317872
 10
62.559004092769456
 20
3.3495907230559347
 10
62.70796384720329
 20
3.304826057298772
 10
62.87039563437928
 20
3.289904502046385
 10
63.03333901773535
 20
3.304826057298772
 10
63.181105047748986
 20
3.3495907230559347
 10
63.313693724420204
 20
3.424198499317872
 10
63.431105047748986
 20
3.528649386084584
 10
63.52719986357436
 20
3.6595327421555255
 10
63.595839017735344
 20
3.8134379263301503
 10
63.63702251023194
 20
3.9903649386084585
 10
63.65075034106413
 20
4.1903137789904505
  0
LWPOLYLINE
  5
4D
330
17
100
AcDbEntity
  8
0
100
AcDbPolyline
 90
49
 70
0
 10
64.67394270122784
 20
3.4727148703956345
 10
64.6830661664393
 20
3.810112551159618
 10
64.71043656207368
 20
4.112892223738063
 10
64.75605388813098
 20
4.381053888130968
 10
64.8199181446112
 20
4.614597544338336
 10
64.90177353342429
 20
4.818468622100955
 10
65.00136425648023
 20
4.997612551159618
 10
65.118690313779
 20
5.152029331514324
 10
65.25375170532061
 20
5.2817189631650745
 10
65.40697476125513
 20
5.384379263301501
 10
65.57878581173262
 20
5.457708049113234
 10
65.76918485675309
 20
5.501705320600273
 10
65.97817189631652
 20
5.51637107776262
 10
66.13420873124149
 20
5.508270804911324
 10
66.28035470668488
 20
5.483969986357436
 10
66.41660982264668
 20
5.443468622100955
 10
66.54297407912689
 20
5.386766712141883
 10
66.65910641200547
 20
5.314802182810369
 10
66.76466575716236
 20
5.2285129604365626
 10
66.85965211459757
 20
5.127899045020464
 10
66.94406548431107
 20
5.012960436562073
 10
67.01892905866305
 20
4.884208731241473
 10
67.08526603001366
 20
4.742155525238745
 10
67.14307639836291
 20
4.586800818553888
 10
67.19236016371079
 20
4.418144611186904
 10
67.2317530695771
 20
4.227575034106413
 10
67.2598908594816
 20
4.0064802182810375
 10
67.2767735334243
 20
3.7548601637107777
 10
67.2824010914052
 20
3.4727148703956345
 10
67.27336289222376
 20
3.137704638472033
 10
67.24624829467942
 20
2.836630286493861
 10
67.20105729877218
 20
2.5694918144611187
 10
67.13778990450206
 20
2.3362892223738063
 10
67.05653137789906
 20
2.132332878581173
 10
66.9573669849932
 20
1.9529331514324693
 10
66.84029672578447
 20
1.7980900409276943
 10
66.70532060027287
 20
1.6678035470668486
 10
66.55192701227833
 20
1.5645463847203274
 10
66.37960436562075
 20
1.4907912687585265
 10
66.18835266030015
 20
1.446538199181446
 10
65.97817189631652
 20
1.431787175989086
 10
65.70446793997273
 20
1.4577080491132333
 10
65.46180081855391
 20
1.5354706684856754
 10
65.25017053206004
 20
1.665075034106412
 10
65.06957708049114
 20
1.8465211459754434
 10
64.89648703956345
 20
2.1354024556616644
 10
64.77285129604367
 20
2.5027285129604366
 10
64.6986698499318
 20
2.94849931787176
 10
64.67394270122784
 20
3.4727148703956345
  0
LWPOLYLINE
  5
4E
330
17
100
AcDbEntity
  8
0
100
AcDbPolyline
 90
33
 70
0
 10
65.1787175989086
 20
3.4727148703956345
 10
65.19312755798092
 20
3.0214017735334244
 10
65.23635743519783
 20
2.652455661664393
 10
65.30840723055935
 20
2.36587653478854
 10
65.4092769440655
 20
2.161664392905866
 10
65.53129263301501
 20
2.019014324693042
 10
65.6667803547067
 20
1.9171214188267394
 10
65.81574010914053
 20
1.855985675306958
 10
65.97817189631652
 20
1.8356070941336973
 10
66.14060368349251
 20
1.8560709413369714
 10
66.28956343792635
 20
1.9174624829467941
 10
66.42505115961802
 20
2.019781718963165
 10
66.54706684856754
 20
2.1630286493860846
 10
66.64793656207368
 20
2.367667121418827
 10
66.7199863574352
 20
2.6541609822646657
 10
66.76321623465212
 20
3.0225102319236017
 10
66.77762619372443
 20
3.4727148703956345
 10
66.76321623465212
 20
3.925136425648022
 10
66.7199863574352
 20
4.294679399727149
 10
66.64793656207368
 20
4.581343792633015
 10
66.54706684856754
 20
4.78512960436562
 10
66.42471009549797
 20
4.927182810368349
 10
66.28819918144613
 20
5.028649386084584
 10
66.13753410641202
 20
5.089529331514324
 10
65.97271487039565
 20
5.109822646657571
 10
65.81207366984995
 20
5.0919167803547065
 10
65.66848567530698
 20
5.038199181446112
 10
65.54195088676673
 20
4.948669849931787
 10
65.43246930422922
 20
4.823328785811732
 10
65.32145293315145
 20
4.601807639836289
 10
65.24215552523876
 20
4.302864938608458
 10
65.19457708049114
 20
3.92650068212824
 10
65.1787175989086
 20
3.4727148703956345
  0
LWPOLYLINE
  5
4F
330
17
100
AcDbEntity
  8
0
100
AcDbPolyline
 90
100
 70
0
 10
71.36152796725786
 20
1.8574351978171897
 10
71.22638130968623
 20
1.75
 10
71.09379263301503
 20
1.659618008185539
 10
70.96376193724421
 20
1.5862892223738063
 10
70.83628922237382
 20
1.530013642564802
 10
70.70779331514326
 20
1.4882332878581173
 10
70.57469304229197
 20
1.4583901773533423
 10
70.43698840381992
 20
1.4404843110504775
 10
70.29467939972716
 20
1.4345156889495225
 10
70.06974761255117
 20
1.4490961800818554
 10
69.8724420190996
 20
1.492837653478854
 10
69.70276261937245
 20
1.5657401091405185
 10
69.56070941336972
 20
1.6678035470668486
 10
69.44849931787178
 20
1.7925477489768078
 10
69.36834924965895
 20
1.933492496589359
 10
69.32025920873126
 20
2.090637789904502
 10
69.3042291950887
 20
2.2639836289222375
 10
69.31028308321966
 20
2.368093451568895
 10
69.32844474761256
 20
2.467598908594816
 10
69.35871418826741
 20
2.5625
 10
69.40109140518419
 20
2.6527967257844476
 10
69.45327421555254
 20
2.7364427012278307
 10
69.51296043656208
 20
2.8113915416098223
 10
69.58015006821283
 20
2.8776432469304227
 10
69.65484311050479
 20
2.9351978171896316
 10
69.73576057298773
 20
2.985163710777626
 10
69.82162346521147
 20
3.028649386084584
 10
69.912431787176
 20
3.065654843110505
 10
70.00818553888132
 20
3.0961800818553886
 10
70.08969986357437
 20
3.1151091405184173
 10
70.18963165075036
 20
3.1336971350613916
 10
70.30798090040929
 20
3.151944065484311
 10
70.44474761255117
 20
3.169849931787176
 10
70.72254433833562
 20
3.207025920873124
 10
70.9611186903138
 20
3.2476125511596177
 10
71.16047066848569
 20
3.2916098226466577
 10
71.32060027285131
 20
3.339017735334243
 10
71.3217939972715
 20
3.3848908594815827
 10
71.32264665757164
 20
3.421555252387449
 10
71.32315825375173
 20
3.4490109140518417
 10
71.32332878581175
 20
3.4672578444747613
 10
71.31463165075036
 20
3.6062414733969987
 10
71.28854024556618
 20
3.723055934515689
 10
71.24505457025923
 20
3.817701227830832
 10
71.18417462482948
 20
3.890177353342428
 10
71.07861527967259
 20
3.962994542974079
 10
70.95020463847204
 20
4.015006821282401
 10
70.79894270122784
 20
4.0462141882673945
 10
70.62482946793999
 20
4.0566166439290585
 10
70.46290927694409
 20
4.049027967257844
 10
70.3236698499318
 20
4.026261937244202
 10
70.20711118690315
 20
3.988318553888131
 10
70.11323328785814
 20
3.9351978171896316
 10
70.03606753069579
 20
3.8628069577080493
 10
69.96964529331515
 20
3.7670532060027284
 10
69.91396657571624
 20
3.64793656207367
 10
69.86903137789906
 20
3.5054570259208733
 10
69.38881309686222
 20
3.5709413369713507
 10
69.42684174624831
 20
3.7176841746248295
 10
69.4754433833561
 20
3.8495907230559343
 10
69.53461800818556
 20
3.9666609822646657
 10
69.60436562073671
 20
4.068894952251023
 10
69.68775579809005
 20
4.15825375170532
 10
69.78785811732607
 20
4.236698499317871
 10
69.90467257844476
 20
4.304229195088676
 10
70.03819918144613
 20
4.360845839017735
 10
70.18570941336972
 20
4.405610504774898
 10
70.34447476125513
 20
4.437585266030014
 10
70.51449522510234
 20
4.456770122783084
 10
70.69577080491133
 20
4.463165075034107
 10
70.87261255115963
 20
4.457708049113234
 10
71.03206002728514
 20
4.441336971350614
 10
71.17411323328787
 20
4.414051841746248
 10
71.29877216916782
 20
4.375852660300136
 10
71.40706002728514
 20
4.3293826739427015
 10
71.50000000000001
 20
4.2772851296043655
 10
71.57759208731242
 20
4.21956002728513
 10
71.63983628922239
 20
4.156207366984994
 10
71.69031377899046
 20
4.085692360163711
 10
71.73260572987724
 20
4.006480218281037
 10
71.76671214188268
 20
3.9185709413369714
 10
71.79263301500683
 20
3.8219645293315145
 10
71.80337653478855
 20
3.7465893587994543
 10
71.81105047748977
 20
3.645975443383356
 10
71.81565484311052
 20
3.52012278308322
 10
71.81718963165076
 20
3.369031377899045
 10
71.81718963165076
 20
2.7141882673942703
 10
71.81915075034108
 20
2.403223055934516
 10
71.82503410641202
 20
2.1551841746248295
 10
71.8348396998636
 20
1.9700716234652114
 10
71.84856753069579
 20
1.8478854024556617
 10
71.86809345156891
 20
1.758100272851296
 10
71.89529331514326
 20
1.6701909959072305
 10
71.93016712141883
 20
1.5841575716234653
 10
71.97271487039565
 20
1.5
 10
71.45975443383358
 20
1.5
 10
71.42496589358801
 20
1.579638472032742
 10
71.39699863574353
 20
1.6657571623465213
 10
71.37585266030015
 20
1.758356070941337
 10
71.36152796725786
 20
1.8574351978171897
  0
LWPOLYLINE
  5
50
330
17
100
AcDbEntity
  8
0
100
AcDbPolyline
 90
38
 70
0
 10
71.32060027285131
 20
2.9542974079126876
 10
71.17019099590725
 20
2.901773533424284
 10
70.98635743519783
 20
2.8533424283765347
 10
70.76909959072307
 20
2.809004092769441
 10
70.51841746248296
 20
2.7687585266030013
 10
70.37806957708051
 20
2.7462482946793996
 10
70.2598908594816
 20
2.72237380627558
 10
70.16388130968623
 20
2.6971350613915415
 10
70.09004092769442
 20
2.670532060027285
 10
70.03086630286495
 20
2.6400920873124147
 10
69.97885402455663
 20
2.6033424283765347
 10
69.93400409276946
 20
2.5602830832196455
 10
69.89631650750343
 20
2.5109140518417465
 10
69.86647339699866
 20
2.4569406548431107
 10
69.84515688949524
 20
2.400068212824011
 10
69.8323669849932
 20
2.3402967257844476
 10
69.82810368349251
 20
2.27762619372442
 10
69.837397680764
 20
2.1834924965893587
 10
69.86527967257847
 20
2.097544338335607
 10
69.9117496589359
 20
2.019781718963165
 10
69.97680763983631
 20
1.9502046384720328
 10
70.05977148703958
 20
1.892905866302865
 10
70.15995907230561
 20
1.8519781718963166
 10
70.27737039563439
 20
1.8274215552523876
 10
70.41200545702594
 20
1.819236016371078
 10
70.54996589358801
 20
1.8269952251023194
 10
70.68008185538883
 20
1.8502728512960438
 10
70.80235334242839
 20
1.889068894952251
 10
70.9167803547067
 20
1.9433833560709413
 10
71.01995225102321
 20
2.0111698499317874
 10
71.10845839017736
 20
2.090381991814461
 10
71.18229877216918
 20
2.1810197817189634
 10
71.24147339699864
 20
2.2830832196452935
 10
71.27609140518419
 20
2.376193724420191
 10
71.30081855388815
 20
2.4890859481582535
 10
71.31565484311052
 20
2.6217598908594817
 10
71.32060027285131
 20
2.7742155525238745
 10
71.32060027285131
 20
2.9542974079126876
  0
LWPOLYLINE
  5
51
330
17
100
AcDbEntity
  8
0
100
AcDbPolyline
 90
38
 70
0
 10
73.03137789904504
 20
1.5
 10
72.57571623465213
 20
1.5
 10
72.57571623465213
 20
5.5
 10
73.06684856753071
 20
5.5
 10
73.06684856753071
 20
4.072987721691678
 10
73.23311732605731
 20
4.243690313778991
 10
73.42087312414736
 20
4.365620736698499
 10
73.63011596180084
 20
4.4387789904502055
 10
73.86084583901776
 20
4.463165075034107
 10
73.99275238744886
 20
4.456429058663029
 10
74.1210777626194
 20
4.436221009549795
 10
74.24582196452934
 20
4.402540927694407
 10
74.36698499317873
 20
4.355388813096862
 10
74.48107094133698
 20
4.296043656207367
 10
74.58458390177356
 20
4.2257844474761255
 10
74.67752387448841
 20
4.144611186903138
 10
74.7598908594816
 20
4.052523874488404
 10
74.83279331514326
 20
3.949948840381992
 10
74.89733969986358
 20
3.83731241473397
 10
74.95353001364258
 20
3.714614597544338
 10
75.00136425648023
 20
3.581855388813097
 10
75.03956343792635
 20
3.441678035470668
 10
75.06684856753071
 20
3.2967257844474758
 10
75.08321964529333
 20
3.1469986357435196
 10
75.0886766712142
 20
2.992496589358799
 10
75.06565484311052
 20
2.641200545702592
 10
74.99658935879947
 20
2.332196452933151
 10
74.88148021828106
 20
2.0654843110504775
 10
74.72032742155527
 20
1.8410641200545703
 10
74.52694406548433
 20
1.663199181446112
 10
74.31514324693043
 20
1.5361527967257844
 10
74.0849249658936
 20
1.459924965893588
 10
73.83628922237382
 20
1.4345156889495225
 10
73.593622100955
 20
1.4612892223738063
 10
73.37858117326059
 20
1.5416098226466577
 10
73.19116643929061
 20
1.6754774897680764
 10
73.03137789904504
 20
1.8628922237380627
 10
73.03137789904504
 20
1.5
  0
LWPOLYLINE
  5
52
330
17
100
AcDbEntity
  8
0
100
AcDbPolyline
 90
33
 70
0
 10
73.02592087312416
 20
2.970668485675307
 10
73.03478854024559
 20
2.7281718963165074
 10
73.06139154160984
 20
2.521828103683492
 10
73.10572987721693
 20
2.351637107776262
 10
73.16780354706687
 20
2.217598908594816
 10
73.29399727148706
 20
2.0516712141882674
 10
73.44065484311052
 20
1.9331514324693042
 10
73.60777626193726
 20
1.8620395634379263
 10
73.79536152796727
 20
1.8383356070941337
 10
73.95088676671216
 20
1.8558151432469303
 10
74.0954979536153
 20
1.9082537517053206
 10
74.22919508867669
 20
1.9956514324693042
 10
74.35197817189633
 20
2.1180081855388813
 10
74.45463847203276
 20
2.2749829467939975
 10
74.5279672578445
 20
2.4662346521145975
 10
74.57196452933152
 20
2.691763301500682
 10
74.58663028649387
 20
2.951568894952251
 10
74.57256139154163
 20
3.2167462482946796
 10
74.53035470668488
 20
3.4447476125511596
 10
74.46001023192362
 20
3.635572987721692
 10
74.36152796725786
 20
3.789222373806276
 10
74.24309345156891
 20
3.9074010914051844
 10
74.11289222373807
 20
3.9918144611186905
 10
73.97092428376536
 20
4.042462482946794
 10
73.81718963165076
 20
4.059345156889496
 10
73.66166439290588
 20
4.041865620736699
 10
73.51705320600274
 20
3.9894270122783086
 10
73.38335607094135
 20
3.902029331514325
 10
73.2605729877217
 20
3.779672578444748
 10
73.15791268758528
 20
3.6242326057298775
 10
73.08458390177356
 20
3.4375852660300135
 10
73.04058663028651
 20
3.219730559345157
 10
73.02592087312416
 20
2.970668485675307
  0
LWPOLYLINE
  5
53
330
17
100
AcDbEntity
  8
0
100
AcDbPolyline
 90
71
 70
0
 10
77.57708049113235
 20
2.5613915416098227
 10
78.06002728512962
 20
2.498635743519782
 10
78.00503069577081
 20
2.2625341064120055
 10
77.91916780354708
 20
2.0535470668485676
 10
77.8024386084584
 20
1.871674624829468
 10
77.6548431105048
 20
1.7169167803547067
 10
77.48252046384722
 20
1.5933663028649387
 10
77.29160982264668
 20
1.5051159618008185
 10
77.08211118690316
 20
1.4521657571623465
 10
76.85402455661666
 20
1.4345156889495225
 10
76.57119713506141
 20
1.4588165075034107
 10
76.31753069577081
 20
1.531718963165075
 10
76.0930252387449
 20
1.6532230559345158
 10
75.89768076398364
 20
1.8233287858117326
 10
75.73951227830834
 20
2.0387960436562076
 10
75.62653478854025
 20
2.2963847203274215
 10
75.55874829467942
 20
2.596094815825375
 10
75.5361527967258
 20
2.937926330150068
 10
75.54587312414736
 20
3.165245566166439
 10
75.57503410641202
 20
3.377899045020464
 10
75.6236357435198
 20
3.575886766712142
 10
75.69167803547069
 20
3.7592087312414733
 10
75.77958731241475
 20
3.924198499317872
 10
75.88778990450207
 20
4.06718963165075
 10
76.01628581173263
 20
4.1881821282401095
 10
76.16507503410644
 20
4.287175989085949
 10
76.32750682128243
 20
4.364171214188268
 10
76.49693042291952
 20
4.419167803547067
 10
76.67334583901776
 20
4.452165757162347
 10
76.8567530695771
 20
4.463165075034107
 10
77.08202592087315
 20
4.44824351978172
 10
77.28581173260575
 20
4.4034788540245575
 10
77.46811050477493
 20
4.32887107776262
 10
77.62892223738065
 20
4.224420190995907
 10
77.7655184174625
 20
4.0925136425648025
 10
77.87517053206005
 20
3.9355388813096863
 10
77.95787858117328
 20
3.753495907230559
 10
78.0136425648022
 20
3.5463847203274215
 10
77.5361527967258
 20
3.4727148703956345
 10
77.49548090040929
 20
3.6096521145975444
 10
77.44167803547069
 20
3.728512960436562
 10
77.37474420190998
 20
3.8292974079126876
 10
77.29467939972717
 20
3.912005457025921
 10
77.20353001364259
 20
3.976466575716235
 10
77.10334242837655
 20
4.022510231923602
 10
76.99411664392908
 20
4.050136425648022
 10
76.87585266030015
 20
4.059345156889496
 10
76.69901091405185
 20
4.042718281036835
 10
76.53956343792635
 20
3.9928376534788543
 10
76.39751023192362
 20
3.909703274215553
 10
76.27285129604367
 20
3.7933151432469305
 10
76.17138472032744
 20
3.640944747612551
 10
76.09890859481584
 20
3.449863574351978
 10
76.05542291950889
 20
3.2200716234652114
 10
76.04092769440656
 20
2.951568894952251
 10
76.0549113233288
 20
2.6795702592087314
 10
76.09686221009551
 20
2.447476125511596
 10
76.1667803547067
 20
2.255286493860846
 10
76.26466575716236
 20
2.10300136425648
 10
76.38506139154163
 20
1.9872100954979535
 10
76.52251023192362
 20
1.9045020463847202
 10
76.67701227830834
 20
1.8548772169167804
 10
76.84856753069579
 20
1.8383356070941337
 10
76.98721009549797
 20
1.8494201909959072
 10
77.11391541609825
 20
1.8826739427012278
 10
77.22868349249661
 20
1.9380968622100956
 10
77.33151432469306
 20
2.0156889495225103
 10
77.41950886766713
 20
2.1163028649386084
 10
77.48976807639838
 20
2.2407912687585267
 10
77.54229195088678
 20
2.389154160982265
 10
77.57708049113235
 20
2.5613915416098227
  0
LWPOLYLINE
  5
54
330
17
100
AcDbEntity
  8
0
100
AcDbPolyline
 90
9
 70
0
 10
79.65620736698502
 20
1.5
 10
81.1923601637108
 20
5.5
 10
81.76261937244203
 20
5.5
 10
83.39972714870397
 20
1.5
 10
82.79672578444749
 20
1.5
 10
82.33015006821284
 20
2.7114597544338332
 10
80.65757162346523
 20
2.7114597544338332
 10
80.21828103683494
 20
1.5
 10
79.65620736698502
 20
1.5
  0
LWPOLYLINE
  5
55
330
17
100
AcDbEntity
  8
0
100
AcDbPolyline
 90
12
 70
0
 10
80.81036834924967
 20
3.14256480218281
 10
82.16643929058665
 20
3.14256480218281
 10
81.74897680763985
 20
4.250341064120055
 10
81.65961800818555
 20
4.491473396998636
 10
81.58253751705323
 20
4.710095497953615
 10
81.51773533424286
 20
4.906207366984994
 10
81.46521145975446
 20
5.07980900409277
 10
81.42309004092772
 20
4.887789904502046
 10
81.37312414733972
 20
4.696452933151432
 10
81.31531377899047
 20
4.505798090040928
 10
81.24965893587996
 20
4.315825375170532
 10
80.81036834924967
 20
3.14256480218281
  0
LWPOLYLINE
  5
56
330
17
100
AcDbEntity
  8
0
100
AcDbPolyline
 90
48
 70
0
 10
83.80081855388815
 20
1.5
 10
83.80081855388815
 20
5.5
 10
85.30150068212826
 20
5.5
 10
85.51935538881312
 20
5.492411323328786
 10
85.71452933151434
 20
5.469645293315143
 10
85.88702251023194
 20
5.431701909959072
 10
86.03683492496592
 20
5.378581173260573
 10
86.16780354706687
 20
5.3096862210095495
 10
86.28376534788543
 20
5.224420190995907
 10
86.38472032742158
 20
5.1227830832196455
 10
86.47066848567533
 20
5.004774897680765
 10
86.53930763983631
 20
4.877131650750342
 10
86.58833560709417
 20
4.746589358799454
 10
86.61775238744886
 20
4.6131480218281045
 10
86.62755798090043
 20
4.47680763983629
 10
86.61886084583904
 20
4.350443383356071
 10
86.59276944065486
 20
4.227830832196453
 10
86.54928376534791
 20
4.108969986357435
 10
86.48840381991816
 20
3.9938608458390177
 10
86.40995907230561
 20
3.8860845839017735
 10
86.31377899045023
 20
3.7892223738062754
 10
86.199863574352
 20
3.703274215552524
 10
86.06821282401093
 20
3.6282401091405183
 10
86.23917121418829
 20
3.565654843110505
 10
86.38915416098229
 20
3.4843110504774897
 10
86.51816166439292
 20
3.3842087312414733
 10
86.6261937244202
 20
3.2653478854024556
 10
86.71154502046386
 20
3.1313096862210097
 10
86.77251023192362
 20
2.985675306957708
 10
86.80908935879947
 20
2.828444747612551
 10
86.82128240109142
 20
2.659618008185539
 10
86.81386425648023
 20
2.521572305593452
 10
86.79160982264668
 20
2.388472032742156
 10
86.75451909959074
 20
2.260317189631651
 10
86.70259208731244
 20
2.1371077762619373
 10
86.63975102319239
 20
2.0232776261937246
 10
86.56991814461121
 20
1.9232605729877217
 10
86.49309345156891
 20
1.837056616643929
 10
86.40927694406551
 20
1.7646657571623465
 10
86.31642223738065
 20
1.7031889495225103
 10
86.21248294679401
 20
1.6497271487039564
 10
86.09745907230561
 20
1.6042803547066848
 10
85.97135061391543
 20
1.5668485675306958
 10
85.83228171896319
 20
1.5376023192360164
 10
85.67837653478855
 20
1.516712141882674
 10
85.50963506139156
 20
1.5041780354706684
 10
85.32605729877218
 20
1.5
 10
83.80081855388815
 20
1.5
  0
LWPOLYLINE
  5
57
330
17
100
AcDbEntity
  8
0
100
AcDbPolyline
 90
28
 70
0
 10
84.33015006821284
 20
3.819236016371078
 10
85.19508867667123
 20
3.819236016371078
 10
85.3586289222374
 20
3.822135061391542
 10
85.49727148703958
 20
3.830832196452933
 10
85.61101637107778
 20
3.8453274215552526
 10
85.699863574352
 20
3.8656207366984994
 10
85.79459413369716
 20
3.9005798090040926
 10
85.87687585266032
 20
3.9454297407912686
 10
85.9467087312415
 20
4.000170532060027
 10
86.00409276944067
 20
4.064802182810368
 10
86.04885743519783
 20
4.13881309686221
 10
86.08083219645295
 20
4.221691678035471
 10
86.10001705320602
 20
4.31343792633015
 10
86.10641200545705
 20
4.414051841746248
 10
86.1004433833561
 20
4.510658253751705
 10
86.08253751705323
 20
4.601296043656207
 10
86.05269440654845
 20
4.685965211459754
 10
86.01091405184177
 20
4.764665757162346
 10
85.9580491132333
 20
4.834413369713506
 10
85.89495225102321
 20
4.892223738062755
 10
85.82162346521147
 20
4.938096862210095
 10
85.73806275579811
 20
4.972032742155525
 10
85.63352660300139
 20
4.996504092769441
 10
85.49727148703958
 20
5.0139836289222375
 10
85.32929740791272
 20
5.024471350613916
 10
85.12960436562076
 20
5.027967257844475
 10
84.33015006821284
 20
5.027967257844475
 10
84.33015006821284
 20
3.819236016371078
  0
LWPOLYLINE
  5
58
330
17
100
AcDbEntity
  8
0
100
AcDbPolyline
 90
32
 70
0
 10
84.33015006821284
 20
1.9720327421555253
 10
85.32605729877218
 20
1.9720327421555253
 10
85.44474761255118
 20
1.9732264665757162
 10
85.54433833560711
 20
1.9768076398362893
 10
85.62482946793999
 20
1.9827762619372442
 10
85.68622100954981
 20
1.991132332878581
 10
85.77387448840383
 20
2.010231923601637
 10
85.85402455661666
 20
2.0347885402455663
 10
85.92667121418829
 20
2.0648021828103684
 10
85.99181446111871
 20
2.100272851296044
 10
86.0504774897681
 20
2.1428206002728514
 10
86.1036834924966
 20
2.1940654843110505
 10
86.15143246930425
 20
2.2540075034106413
 10
86.19372442019102
 20
2.3226466575716236
 10
86.22834242837656
 20
2.3984481582537516
 10
86.25306957708051
 20
2.47987721691678
 10
86.2679058663029
 20
2.5669338335607095
 10
86.27285129604368
 20
2.659618008185539
 10
86.26568894952254
 20
2.7678206002728514
 10
86.2442019099591
 20
2.8686903137789908
 10
86.20839017735337
 20
2.9622271487039566
 10
86.15825375170535
 20
3.048431105047749
 10
86.0954126875853
 20
3.1248294679399726
 10
86.02148703956345
 20
3.188949522510232
 10
85.93647680763986
 20
3.2407912687585267
 10
85.84038199181448
 20
3.280354706684857
 10
85.72757503410644
 20
3.3096009549795364
 10
85.59242837653481
 20
3.3304911323328787
 10
85.43494201909961
 20
3.343025238744884
 10
85.25511596180084
 20
3.347203274215553
 10
84.33015006821284
 20
3.347203274215553
 10
84.33015006821284
 20
1.9720327421555253
  0
LWPOLYLINE
  5
59
330
17
100
AcDbEntity
  8
0
100
AcDbPolyline
 90
83
 70
0
 10
90.40381991814463
 20
2.902455661664393
 10
90.93315143246933
 20
2.7687585266030013
 10
90.83330491132335
 20
2.4620566166439293
 10
90.70020463847206
 20
2.1940654843110505
 10
90.53385061391543
 20
1.9647851296043657
 10
90.3342428376535
 20
1.7742155525238745
 10
90.10598567530698
 20
1.6244031377899044
 10
89.85368349249661
 20
1.5173942701227832
 10
89.57733628922239
 20
1.4531889495225103
 10
89.27694406548433
 20
1.431787175989086
 10
88.96870736698502
 20
1.448243519781719
 10
88.69065484311052
 20
1.4976125511596179
 10
88.44278649386086
 20
1.579894270122783
 10
88.22510231923604
 20
1.695088676671214
 10
88.03461800818556
 20
1.8414904502046383
 10
87.86834924965896
 20
2.017394270122783
 10
87.72629604365623
 20
2.222800136425648
 10
87.60845839017738
 20
2.4577080491132333
 10
87.51594474761258
 20
2.7119713506139154
 10
87.44986357435201
 20
2.9754433833560707
 10
87.41021487039566
 20
3.2481241473397
 10
87.39699863574354
 20
3.530013642564802
 10
87.41192019099593
 20
3.8324522510231924
 10
87.4566848567531
 20
4.11493860845839
 10
87.53129263301503
 20
4.377472714870395
 10
87.63574351978174
 20
4.620054570259208
 10
87.76773533424286
 20
4.838676671214188
 10
87.92496589358802
 20
5.029331514324692
 10
88.10743519781721
 20
5.1920190995907225
 10
88.31514324693045
 20
5.326739427012278
 10
88.54101296043659
 20
5.4323840381991815
 10
88.7779672578445
 20
5.507844474761255
 10
89.02600613915418
 20
5.553120736698499
 10
89.28512960436564
 20
5.568212824010914
 10
89.57332878581175
 20
5.549113233287858
 10
89.83765347885405
 20
5.49181446111869
 10
90.07810368349251
 20
5.3963165075034105
 10
90.29467939972717
 20
5.262619372442019
 10
90.48379945429743
 20
5.094304229195089
 10
90.64188267394272
 20
4.894952251023192
 10
90.76892905866305
 20
4.66456343792633
 10
90.86493860845842
 20
4.403137789904502
 10
90.34379263301503
 20
4.280354706684857
 10
90.26637107776264
 20
4.483799454297408
 10
90.17326057298774
 20
4.657571623465211
 10
90.06446111869035
 20
4.801671214188267
 10
89.93997271487042
 20
4.916098226466575
 10
89.79911323328788
 20
5.003240109140518
 10
89.64120054570262
 20
5.0654843110504775
 10
89.46623465211462
 20
5.102830832196453
 10
89.2742155525239
 20
5.115279672578445
 10
89.05312073669852
 20
5.101466575716235
 10
88.85095497953617
 20
5.060027285129604
 10
88.66771828103685
 20
4.990961800818554
 10
88.50341064120057
 20
4.894270122783084
 10
88.36007844474764
 20
4.774300818553889
 10
88.23976807639839
 20
4.635402455661665
 10
88.14247953615282
 20
4.477575034106413
 10
88.06821282401094
 20
4.300818553888131
 10
88.01330150068215
 20
4.113148021828104
 10
87.97407912687588
 20
3.9225784447476126
 10
87.95054570259211
 20
3.7291098226466577
 10
87.94270122783085
 20
3.5327421555252387
 10
87.95199522510234
 20
3.285726466575716
 10
87.9798772169168
 20
3.0549113233287857
 10
88.02634720327424
 20
2.8402967257844476
 10
88.09140518417465
 20
2.6418826739427015
 10
88.1760743519782
 20
2.4635914051841747
 10
88.28137789904504
 20
2.309345156889495
 10
88.40731582537519
 20
2.179143929058663
 10
88.55388813096864
 20
2.072987721691678
 10
88.71401773533427
 20
1.9906207366984994
 10
88.88062755798092
 20
1.931787175989086
 10
89.05371759890862
 20
1.8964870395634381
 10
89.23328785811735
 20
1.8847203274215554
 10
89.44713506139156
 20
1.9007503410641202
 10
89.64392905866305
 20
1.9488403819918145
 10
89.82366984993182
 20
2.0289904502046383
 10
89.98635743519785
 20
2.141200545702592
 10
90.12806957708052
 20
2.2849590723055933
 10
90.2448840381992
 20
2.459754433833561
 10
90.33680081855391
 20
2.665586630286494
 10
90.40381991814463
 20
2.902455661664393
  0
ENDSEC
  0
SECTION
  2
OBJECTS
  0
DICTIONARY
  5
A
330
0
100
AcDbDictionary
280
0
281
1
  3
ACAD_COLOR
350
B
  3
ACAD_GROUP
350
C
  3
ACAD_LAYOUT
350
D
  3
ACAD_MATERIAL
350
E
  3
ACAD_MLEADERSTYLE
350
F
  3
ACAD_MLINESTYLE
350
10
  3
ACAD_PLOTSETTINGS
350
11
  3
ACAD_PLOTSTYLENAME
350
12
  3
ACAD_SCALELIST
350
14
  3
ACAD_TABLESTYLE
350
15
  3
ACAD_VISUALSTYLE
350
16
  3
EZDXF_META
350
2D
  0
DICTIONARY
  5
B
330
A
100
AcDbDictionary
280
0
281
1
  0
DICTIONARY
  5
C
330
A
100
AcDbDictionary
280
0
281
1
  0
DICTIONARY
  5
D
330
A
100
AcDbDictionary
280
0
281
1
  3
Model
350
1A
  3
Layout1
350
1E
  0
DICTIONARY
  5
E
330
A
100
AcDbDictionary
280
0
281
1
  3
ByBlock
350
1F
  3
ByLayer
350
20
  3
Global
350
21
  0
DICTIONARY
  5
F
330
A
100
AcDbDictionary
280
0
281
1
  3
Standard
350
2C
  0
DICTIONARY
  5
10
330
A
100
AcDbDictionary
280
0
281
1
  3
Standard
350
22
  0
DICTIONARY
  5
11
330
A
100
AcDbDictionary
280
0
281
1
  0
ACDBDICTIONARYWDFLT
  5
12
330
A
100
AcDbDictionary
280
0
281
1
  3
Normal
350
13
100
AcDbDictionaryWithDefault
340
13
  0
ACDBPLACEHOLDER
  5
13
330
12
  0
DICTIONARY
  5
14
330
A
100
AcDbDictionary
280
0
281
1
  0
DICTIONARY
  5
15
330
A
100
AcDbDictionary
280
0
281
1
  0
DICTIONARY
  5
16
330
A
100
AcDbDictionary
280
0
281
1
  0
LAYOUT
  5
1A
330
D
100
AcDbPlotSettings
  1

  2
Adobe PDF
  4
A3
  6

 40
7.5
 41
20.0
 42
7.5
 43
20.0
 44
420.0
 45
297.0
 46
0.0
 47
0.0
 48
0.0
 49
0.0
140
0.0
141
0.0
142
1.0
143
1.0
 70
1024
 72
1
 73
0
 74
5
  7

 75
16
 76
0
 77
2
 78
300
147
1.0
148
0.0
149
0.0
100
AcDbLayout
  1
Model
 70
1
 71
0
 10
0.0
 20
0.0
 11
420.0
 21
297.0
 12
0.0
 22
0.0
 32
0.0
 14
1e+20
 24
1e+20
 34
1e+20
 15
-1e+20
 25
-1e+20
 35
-1e+20
146
0.0
 13
0.0
 23
0.0
 33
0.0
 16
1.0
 26
0.0
 36
0.0
 17
0.0
 27
1.0
 37
0.0
 76
1
330
17
  0
LAYOUT
  5
1E
330
D
100
AcDbPlotSettings
  1

  2
Adobe PDF
  4
A3
  6

 40
7.5
 41
20.0
 42
7.5
 43
20.0
 44
420.0
 45
297.0
 46
0.0
 47
0.0
 48
0.0
 49
0.0
140
0.0
141
0.0
142
1.0
143
1.0
 70
0
 72
1
 73
0
 74
5
  7

 75
16
 76
0
 77
2
 78
300
147
1.0
148
0.0
149
0.0
100
AcDbLayout
  1
Layout1
 70
1
 71
1
 10
0.0
 20
0.0
 11
420.0
 21
297.0
 12
0.0
 22
0.0
 32
0.0
 14
1e+20
 24
1e+20
 34
1e+20
 15
-1e+20
 25
-1e+20
 35
-1e+20
146
0.0
 13
0.0
 23
0.0
 33
0.0
 16
1.0
 26
0.0
 36
0.0
 17
0.0
 27
1.0
 37
0.0
 76
1
330
1B
  0
MATERIAL
  5
1F
102
{ACAD_REACTORS
330
E
102
}
330
E
100
AcDbMaterial
  1
ByBlock
  2

 70
0
 40
1.0
 71
1
 41
1.0
 91
-1023410177
 42
1.0
 72
1
  3

 73
1
 74
1
 75
1
 44
0.5
 73
0
 45
1.0
 46
1.0
 77
1
  4

 78
1
 79
1
170
1
 48
1.0
171
1
  6

172
1
173
1
174
1
140
1.0
141
1.0
175
1
  7

176
1
177
1
178
1
143
1.0
179
1
  8

270
1
271
1
272
1
145
1.0
146
1.0
273
1
  9

274
1
275
1
276
1
 42
1.0
 72
1
  3

 73
1
 74
1
 75
1
 94
63
  0
MATERIAL
  5
20
102
{ACAD_REACTORS
330
E
102
}
330
E
100
AcDbMaterial
  1
ByLayer
  2

 70
0
 40
1.0
 71
1
 41
1.0
 91
-1023410177
 42
1.0
 72
1
  3

 73
1
 74
1
 75
1
 44
0.5
 73
0
 45
1.0
 46
1.0
 77
1
  4

 78
1
 79
1
170
1
 48
1.0
171
1
  6

172
1
173
1
174
1
140
1.0
141
1.0
175
1
  7

176
1
177
1
178
1
143
1.0
179
1
  8

270
1
271
1
272
1
145
1.0
146
1.0
273
1
  9

274
1
275
1
276
1
 42
1.0
 72
1
  3

 73
1
 74
1
 75
1
 94
63
  0
MATERIAL
  5
21
102
{ACAD_REACTORS
330
E
102
}
330
E
100
AcDbMaterial
  1
Global
  2

 70
0
 40
1.0
 71
1
 41
1.0
 91
-1023410177
 42
1.0
 72
1
  3

 73
1
 74
1
 75
1
 44
0.5
 73
0
 45
1.0
 46
1.0
 77
1
  4

 78
1
 79
1
170
1
 48
1.0
171
1
  6

172
1
173
1
174
1
140
1.0
141
1.0
175
1
  7

176
1
177
1
178
1
143
1.0
179
1
  8

270
1
271
1
272
1
145
1.0
146
1.0
273
1
  9

274
1
275
1
276
1
 42
1.0
 72
1
  3

 73
1
 74
1
 75
1
 94
63
  0
MLINESTYLE
  5
22
102
{ACAD_REACTORS
330
10
102
}
330
10
100
AcDbMlineStyle
  2
Standard
 70
0
  3

 62
256
 51
90.0
 52
90.0
 71
2
 49
0.5
 62
256
  6
BYLAYER
 49
-0.5
 62
256
  6
BYLAYER
  0
MLEADERSTYLE
  5
2C
102
{ACAD_REACTORS
330
F
102
}
330
F
100
AcDbMLeaderStyle
179
2
170
2
171
1
172
0
 90
2
 40
0.0
 41
0.0
173
1
 91
-1056964608
 92
-2
290
1
 42
2.0
291
1
 43
8.0
  3
Standard
 44
4.0
300

342
29
174
1
175
1
176
0
178
1
 93
-1056964608
 45
4.0
292
0
297
0
 46
4.0
 94
-1056964608
 47
1.0
 49
1.0
140
1.0
294
1
141
0.0
177
0
142
1.0
295
0
296
0
143
3.75
271
0
272
9
273
9
  0
DICTIONARY
  5
2D
330
A
100
AcDbDictionary
281
1
  3
CREATED_BY_EZDXF
350
2E
  3
WRITTEN_BY_EZDXF
350
5D
  0
DICTIONARYVAR
  5
2E
330
2D
100
DictionaryVariables
280
0
  1
1.1.4 @ 2024-01-25T11:55:24.499603+00:00
  0
DICTIONARYVAR
  5
5D
330
2D
100
DictionaryVariables
280
0
  1
1.1.4 @ 2024-01-25T11:55:24.511753+00:00
  0
ENDSEC
  0
EOF
