  0
SECTION
  2
HEADER
  9
$ACADVER
  1
AC1027
  9
$ACADMAINTVER
 70
105
  9
$DWGCODEPAGE
  3
ANSI_1252
  9
$LASTSAVEDBY
  1
ezdxf
  9
$REQUIREDVERSIONS
160
0
  9
$INSBASE
 10
0.0
 20
0.0
 30
0.0
  9
$EXTMIN
 10
1e+20
 20
1e+20
 30
1e+20
  9
$EXTMAX
 10
-1e+20
 20
-1e+20
 30
-1e+20
  9
$LIMMIN
 10
0.0
 20
0.0
  9
$LIMMAX
 10
420.0
 20
297.0
  9
$ORTHOMODE
 70
0
  9
$REGENMODE
 70
1
  9
$FILLMODE
 70
1
  9
$QTEXTMODE
 70
0
  9
$MIRRTEXT
 70
1
  9
$LTSCALE
 40
1.0
  9
$ATTMODE
 70
1
  9
$TEXTSIZE
 40
2.5
  9
$TRACEWID
 40
1.0
  9
$TEXTSTYLE
  7
Standard
  9
$CLAYER
  8
0
  9
$CELTYPE
  6
ByLayer
  9
$CECOLOR
 62
256
  9
$CELTSCALE
 40
1.0
  9
$DISPSILH
 70
0
  9
$DIMSCALE
 40
1.0
  9
$DIMASZ
 40
2.5
  9
$DIMEXO
 40
0.625
  9
$DIMDLI
 40
3.75
  9
$DIMRND
 40
0.0
  9
$DIMDLE
 40
0.0
  9
$DIMEXE
 40
1.25
  9
$DIMTP
 40
0.0
  9
$DIMTM
 40
0.0
  9
$DIMTXT
 40
2.5
  9
$DIMCEN
 40
2.5
  9
$DIMTSZ
 40
0.0
  9
$DIMTOL
 70
0
  9
$DIMLIM
 70
0
  9
$DIMTIH
 70
0
  9
$DIMTOH
 70
0
  9
$DIMSE1
 70
0
  9
$DIMSE2
 70
0
  9
$DIMTAD
 70
1
  9
$DIMZIN
 70
8
  9
$DIMBLK
  1

  9
$DIMASO
 70
1
  9
$DIMSHO
 70
1
  9
$DIMPOST
  1

  9
$DIMAPOST
  1

  9
$DIMALT
 70
0
  9
$DIMALTD
 70
3
  9
$DIMALTF
 40
0.03937007874
  9
$DIMLFAC
 40
1.0
  9
$DIMTOFL
 70
1
  9
$DIMTVP
 40
0.0
  9
$DIMTIX
 70
0
  9
$DIMSOXD
 70
0
  9
$DIMSAH
 70
0
  9
$DIMBLK1
  1

  9
$DIMBLK2
  1

  9
$DIMSTYLE
  2
ISO-25
  9
$DIMCLRD
 70
0
  9
$DIMCLRE
 70
0
  9
$DIMCLRT
 70
0
  9
$DIMTFAC
 40
1.0
  9
$DIMGAP
 40
0.625
  9
$DIMJUST
 70
0
  9
$DIMSD1
 70
0
  9
$DIMSD2
 70
0
  9
$DIMTOLJ
 70
0
  9
$DIMTZIN
 70
8
  9
$DIMALTZ
 70
0
  9
$DIMALTTZ
 70
0
  9
$DIMUPT
 70
0
  9
$DIMDEC
 70
2
  9
$DIMTDEC
 70
2
  9
$DIMALTU
 70
2
  9
$DIMALTTD
 70
3
  9
$DIMTXSTY
  7
Standard
  9
$DIMAUNIT
 70
0
  9
$DIMADEC
 70
0
  9
$DIMALTRND
 40
0.0
  9
$DIMAZIN
 70
0
  9
$DIMDSEP
 70
44
  9
$DIMATFIT
 70
3
  9
$DIMFRAC
 70
0
  9
$DIMLDRBLK
  1

  9
$DIMLUNIT
 70
2
  9
$DIMLWD
 70
-2
  9
$DIMLWE
 70
-2
  9
$DIMTMOVE
 70
0
  9
$DIMFXL
 40
1.0
  9
$DIMFXLON
 70
0
  9
$DIMJOGANG
 40
0.785398163397
  9
$DIMTFILL
 70
0
  9
$DIMTFILLCLR
 70
0
  9
$DIMARCSYM
 70
0
  9
$DIMLTYPE
  6

  9
$DIMLTEX1
  6

  9
$DIMLTEX2
  6

  9
$DIMTXTDIRECTION
 70
0
  9
$LUNITS
 70
2
  9
$LUPREC
 70
4
  9
$SKETCHINC
 40
1.0
  9
$FILLETRAD
 40
10.0
  9
$AUNITS
 70
0
  9
$AUPREC
 70
2
  9
$MENU
  1
.
  9
$ELEVATION
 40
0.0
  9
$PELEVATION
 40
0.0
  9
$THICKNESS
 40
0.0
  9
$LIMCHECK
 70
0
  9
$CHAMFERA
 40
0.0
  9
$CHAMFERB
 40
0.0
  9
$CHAMFERC
 40
0.0
  9
$CHAMFERD
 40
0.0
  9
$SKPOLY
 70
0
  9
$TDCREATE
 40
2460430.677789352
  9
$TDUCREATE
 40
2458532.153996898
  9
$TDUPDATE
 40
2460430.677789352
  9
$TDUUPDATE
 40
2458532.1544311
  9
$TDINDWG
 40
0.0
  9
$TDUSRTIMER
 40
0.0
  9
$USRTIMER
 70
1
  9
$ANGBASE
 50
0.0
  9
$ANGDIR
 70
0
  9
$PDMODE
 70
0
  9
$PDSIZE
 40
0.0
  9
$PLINEWID
 40
0.0
  9
$SPLFRAME
 70
0
  9
$SPLINETYPE
 70
6
  9
$SPLINESEGS
 70
8
  9
$HANDSEED
  5
139
  9
$SURFTAB1
 70
6
  9
$SURFTAB2
 70
6
  9
$SURFTYPE
 70
6
  9
$SURFU
 70
6
  9
$SURFV
 70
6
  9
$UCSBASE
  2

  9
$UCSNAME
  2

  9
$UCSORG
 10
0.0
 20
0.0
 30
0.0
  9
$UCSXDIR
 10
1.0
 20
0.0
 30
0.0
  9
$UCSYDIR
 10
0.0
 20
1.0
 30
0.0
  9
$UCSORTHOREF
  2

  9
$UCSORTHOVIEW
 70
0
  9
$UCSORGTOP
 10
0.0
 20
0.0
 30
0.0
  9
$UCSORGBOTTOM
 10
0.0
 20
0.0
 30
0.0
  9
$UCSORGLEFT
 10
0.0
 20
0.0
 30
0.0
  9
$UCSORGRIGHT
 10
0.0
 20
0.0
 30
0.0
  9
$UCSORGFRONT
 10
0.0
 20
0.0
 30
0.0
  9
$UCSORGBACK
 10
0.0
 20
0.0
 30
0.0
  9
$PUCSBASE
  2

  9
$PUCSNAME
  2

  9
$PUCSORG
 10
0.0
 20
0.0
 30
0.0
  9
$PUCSXDIR
 10
1.0
 20
0.0
 30
0.0
  9
$PUCSYDIR
 10
0.0
 20
1.0
 30
0.0
  9
$PUCSORTHOREF
  2

  9
$PUCSORTHOVIEW
 70
0
  9
$PUCSORGTOP
 10
0.0
 20
0.0
 30
0.0
  9
$PUCSORGBOTTOM
 10
0.0
 20
0.0
 30
0.0
  9
$PUCSORGLEFT
 10
0.0
 20
0.0
 30
0.0
  9
$PUCSORGRIGHT
 10
0.0
 20
0.0
 30
0.0
  9
$PUCSORGFRONT
 10
0.0
 20
0.0
 30
0.0
  9
$PUCSORGBACK
 10
0.0
 20
0.0
 30
0.0
  9
$USERI1
 70
0
  9
$USERI2
 70
0
  9
$USERI3
 70
0
  9
$USERI4
 70
0
  9
$USERI5
 70
0
  9
$USERR1
 40
0.0
  9
$USERR2
 40
0.0
  9
$USERR3
 40
0.0
  9
$USERR4
 40
0.0
  9
$USERR5
 40
0.0
  9
$WORLDVIEW
 70
1
  9
$SHADEDGE
 70
3
  9
$SHADEDIF
 70
70
  9
$TILEMODE
 70
1
  9
$MAXACTVP
 70
64
  9
$PINSBASE
 10
0.0
 20
0.0
 30
0.0
  9
$PLIMCHECK
 70
0
  9
$PEXTMIN
 10
1e+20
 20
1e+20
 30
1e+20
  9
$PEXTMAX
 10
-1e+20
 20
-1e+20
 30
-1e+20
  9
$PLIMMIN
 10
0.0
 20
0.0
  9
$PLIMMAX
 10
420.0
 20
297.0
  9
$UNITMODE
 70
0
  9
$VISRETAIN
 70
1
  9
$PLINEGEN
 70
0
  9
$PSLTSCALE
 70
1
  9
$TREEDEPTH
 70
3020
  9
$CMLSTYLE
  2
Standard
  9
$CMLJUST
 70
0
  9
$CMLSCALE
 40
20.0
  9
$PROXYGRAPHICS
 70
1
  9
$MEASUREMENT
 70
1
  9
$CELWEIGHT
370
-1
  9
$ENDCAPS
280
0
  9
$JOINSTYLE
280
0
  9
$LWDISPLAY
290
0
  9
$INSUNITS
 70
6
  9
$HYPERLINKBASE
  1

  9
$STYLESHEET
  1

  9
$XEDIT
290
1
  9
$CEPSNTYPE
380
0
  9
$PSTYLEMODE
290
1
  9
$FINGERPRINTGUID
  2
{B333431C-0280-4FEF-88E5-C93E35FA03FD}
  9
$VERSIONGUID
  2
{BFED6865-920C-46AD-9BC6-84E722FBF371}
  9
$EXTNAMES
290
1
  9
$PSVPSCALE
 40
0.0
  9
$OLESTARTUP
290
0
  9
$SORTENTS
280
127
  9
$INDEXCTL
280
0
  9
$HIDETEXT
280
1
  9
$XCLIPFRAME
280
2
  9
$HALOGAP
280
0
  9
$OBSCOLOR
 70
257
  9
$OBSLTYPE
280
0
  9
$INTERSECTIONDISPLAY
280
0
  9
$INTERSECTIONCOLOR
 70
257
  9
$DIMASSOC
280
2
  9
$PROJECTNAME
  1

  9
$CAMERADISPLAY
290
0
  9
$LENSLENGTH
 40
50.0
  9
$CAMERAHEIGHT
 40
0.0
  9
$STEPSPERSEC
 40
24.0
  9
$STEPSIZE
 40
100.0
  9
$3DDWFPREC
 40
2.0
  9
$PSOLWIDTH
 40
0.005
  9
$PSOLHEIGHT
 40
0.08
  9
$LOFTANG1
 40
1.570796326795
  9
$LOFTANG2
 40
1.570796326795
  9
$LOFTMAG1
 40
0.0
  9
$LOFTMAG2
 40
0.0
  9
$LOFTPARAM
 70
7
  9
$LOFTNORMALS
280
1
  9
$LATITUDE
 40
37.795
  9
$LONGITUDE
 40
-122.394
  9
$NORTHDIRECTION
 40
0.0
  9
$TIMEZONE
 70
-8000
  9
$LIGHTGLYPHDISPLAY
280
1
  9
$TILEMODELIGHTSYNCH
280
1
  9
$CMATERIAL
347
20
  9
$SOLIDHIST
280
0
  9
$SHOWHIST
280
1
  9
$DWFFRAME
280
2
  9
$DGNFRAME
280
2
  9
$REALWORLDSCALE
290
1
  9
$INTERFERECOLOR
 62
256
  9
$CSHADOW
280
0
  9
$SHADOWPLANELOCATION
 40
0.0
  0
ENDSEC
  0
SECTION
  2
CLASSES
  0
CLASS
  1
ACDBDICTIONARYWDFLT
  2
AcDbDictionaryWithDefault
  3
ObjectDBX Classes
 90
0
 91
0
280
0
281
0
  0
CLASS
  1
SUN
  2
AcDbSun
  3
SCENEOE
 90
1153
 91
0
280
0
281
0
  0
CLASS
  1
VISUALSTYLE
  2
AcDbVisualStyle
  3
ObjectDBX Classes
 90
4095
 91
0
280
0
281
0
  0
CLASS
  1
MATERIAL
  2
AcDbMaterial
  3
ObjectDBX Classes
 90
1153
 91
0
280
0
281
0
  0
CLASS
  1
SCALE
  2
AcDbScale
  3
ObjectDBX Classes
 90
1153
 91
0
280
0
281
0
  0
CLASS
  1
TABLESTYLE
  2
AcDbTableStyle
  3
ObjectDBX Classes
 90
4095
 91
0
280
0
281
0
  0
CLASS
  1
MLEADERSTYLE
  2
AcDbMLeaderStyle
  3
ACDB_MLEADERSTYLE_CLASS
 90
4095
 91
0
280
0
281
0
  0
CLASS
  1
DICTIONARYVAR
  2
AcDbDictionaryVar
  3
ObjectDBX Classes
 90
0
 91
0
280
0
281
0
  0
CLASS
  1
CELLSTYLEMAP
  2
AcDbCellStyleMap
  3
ObjectDBX Classes
 90
1152
 91
0
280
0
281
0
  0
CLASS
  1
MENTALRAYRENDERSETTINGS
  2
AcDbMentalRayRenderSettings
  3
SCENEOE
 90
1024
 91
0
280
0
281
0
  0
CLASS
  1
ACDBDETAILVIEWSTYLE
  2
AcDbDetailViewStyle
  3
ObjectDBX Classes
 90
1025
 91
0
280
0
281
0
  0
CLASS
  1
ACDBSECTIONVIEWSTYLE
  2
AcDbSectionViewStyle
  3
ObjectDBX Classes
 90
1025
 91
0
280
0
281
0
  0
CLASS
  1
RASTERVARIABLES
  2
AcDbRasterVariables
  3
ISM
 90
0
 91
0
280
0
281
0
  0
CLASS
  1
ACDBPLACEHOLDER
  2
AcDbPlaceHolder
  3
ObjectDBX Classes
 90
0
 91
0
280
0
281
0
  0
CLASS
  1
LAYOUT
  2
AcDbLayout
  3
ObjectDBX Classes
 90
0
 91
0
280
0
281
0
  0
ENDSEC
  0
SECTION
  2
TABLES
  0
TABLE
  2
VPORT
  5
8
330
0
100
AcDbSymbolTable
 70
1
  0
VPORT
  5
23
330
8
100
AcDbSymbolTableRecord
100
AcDbViewportTableRecord
  2
*Active
 70
0
 10
0.0
 20
0.0
 11
1.0
 21
1.0
 12
0.0
 22
0.0
 13
0.0
 23
0.0
 14
0.5
 24
0.5
 15
0.5
 25
0.5
 16
0.0
 26
0.0
 36
1.0
 17
0.0
 27
0.0
 37
0.0
 40
1000.0
 41
1.34
 42
50.0
 43
0.0
 44
0.0
 50
0.0
 51
0.0
 71
0
 72
1000
 73
1
 74
3
 75
0
 76
0
 77
0
 78
0
281
0
 65
0
146
0.0
  0
ENDTAB
  0
TABLE
  2
LTYPE
  5
2
330
0
100
AcDbSymbolTable
 70
3
  0
LTYPE
  5
24
330
2
100
AcDbSymbolTableRecord
100
AcDbLinetypeTableRecord
  2
ByBlock
 70
0
  3

 72
65
 73
0
 40
0.0
  0
LTYPE
  5
25
330
2
100
AcDbSymbolTableRecord
100
AcDbLinetypeTableRecord
  2
ByLayer
 70
0
  3

 72
65
 73
0
 40
0.0
  0
LTYPE
  5
26
330
2
100
AcDbSymbolTableRecord
100
AcDbLinetypeTableRecord
  2
Continuous
 70
0
  3

 72
65
 73
0
 40
0.0
  0
ENDTAB
  0
TABLE
  2
LAYER
  5
1
330
0
100
AcDbSymbolTable
 70
2
  0
LAYER
  5
27
330
1
100
AcDbSymbolTableRecord
100
AcDbLayerTableRecord
  2
0
 70
0
 62
7
  6
Continuous
370
-3
390
13
347
21
  0
LAYER
  5
28
330
1
100
AcDbSymbolTableRecord
100
AcDbLayerTableRecord
  2
Defpoints
 70
0
 62
7
  6
Continuous
290
0
370
-3
390
13
347
21
  0
ENDTAB
  0
TABLE
  2
STYLE
  5
5
330
0
100
AcDbSymbolTable
 70
1
  0
STYLE
  5
29
330
5
100
AcDbSymbolTableRecord
100
AcDbTextStyleTableRecord
  2
Standard
 70
0
 40
0.0
 41
1.0
 50
0.0
 71
0
 42
2.5
  3
txt
  4

  0
ENDTAB
  0
TABLE
  2
VIEW
  5
7
330
0
100
AcDbSymbolTable
 70
0
  0
ENDTAB
  0
TABLE
  2
UCS
  5
6
330
0
100
AcDbSymbolTable
 70
0
  0
ENDTAB
  0
TABLE
  2
APPID
  5
3
330
0
100
AcDbSymbolTable
 70
3
  0
APPID
  5
2A
330
3
100
AcDbSymbolTableRecord
100
AcDbRegAppTableRecord
  2
ACAD
 70
0
  0
APPID
  5
136
330
3
100
AcDbSymbolTableRecord
100
AcDbRegAppTableRecord
  2
HATCHBACKGROUNDCOLOR
 70
0
  0
APPID
  5
137
330
3
100
AcDbSymbolTableRecord
100
AcDbRegAppTableRecord
  2
EZDXF
 70
0
  0
ENDTAB
  0
TABLE
  2
DIMSTYLE
  5
4
330
0
100
AcDbSymbolTable
 70
1
100
AcDbDimStyleTable
  0
DIMSTYLE
105
2B
330
4
100
AcDbSymbolTableRecord
100
AcDbDimStyleTableRecord
  2
Standard
 70
0
 40
1.0
 41
2.5
 42
0.625
 43
3.75
 44
1.25
 45
0.0
 46
0.0
 47
0.0
 48
0.0
 49
2.5
140
2.5
141
2.5
142
0.0
143
0.03937007874
144
1.0
145
0.0
146
1.0
147
0.625
148
0.0
 69
0
 70
0
 71
0
 72
0
 73
0
 74
0
 75
0
 76
0
 77
1
 78
8
 79
3
170
0
171
3
172
1
173
0
174
0
175
0
176
0
177
0
178
0
179
2
271
2
272
2
273
2
274
3
275
0
276
0
277
2
278
44
279
0
280
0
281
0
282
0
283
0
284
8
285
0
286
0
288
0
289
3
290
0
371
-2
372
-2
  0
ENDTAB
  0
TABLE
  2
BLOCK_RECORD
  5
9
330
0
100
AcDbSymbolTable
 70
2
  0
BLOCK_RECORD
  5
17
330
9
100
AcDbSymbolTableRecord
100
AcDbBlockTableRecord
  2
*Model_Space
340
1A
 70
0
280
1
281
0
  0
BLOCK_RECORD
  5
1B
330
9
100
AcDbSymbolTableRecord
100
AcDbBlockTableRecord
  2
*Paper_Space
340
1E
 70
0
280
1
281
0
  0
ENDTAB
  0
ENDSEC
  0
SECTION
  2
BLOCKS
  0
BLOCK
  5
18
330
17
100
AcDbEntity
  8
0
100
AcDbBlockBegin
  2
*Model_Space
 70
0
 10
0.0
 20
0.0
 30
0.0
  3
*Model_Space
  1

  0
ENDBLK
  5
19
330
17
100
AcDbEntity
  8
0
100
AcDbBlockEnd
  0
BLOCK
  5
1C
330
1B
100
AcDbEntity
  8
0
100
AcDbBlockBegin
  2
*Paper_Space
 70
0
 10
0.0
 20
0.0
 30
0.0
  3
*Paper_Space
  1

  0
ENDBLK
  5
1D
330
1B
100
AcDbEntity
  8
0
100
AcDbBlockEnd
  0
ENDSEC
  0
SECTION
  2
ENTITIES
  0
LINE
  5
2F
330
17
100
AcDbEntity
  8
0
100
AcDbLine
 10
2275.85745158928
 20
1564.701032868459
 30
0.0
 11
2275.5726630490344
 21
1564.701032868459
 31
0.0
  0
LINE
  5
30
330
17
100
AcDbEntity
  8
0
100
AcDbLine
 10
2275.5726630490344
 20
1564.701032868459
 30
0.0
 11
2275.5726630490344
 21
1567.201032868459
 31
0.0
  0
LINE
  5
31
330
17
100
AcDbEntity
  8
0
100
AcDbLine
 10
2275.5726630490344
 20
1567.201032868459
 30
0.0
 11
2275.8796207570836
 21
1567.201032868459
 31
0.0
  0
LINE
  5
32
330
17
100
AcDbEntity
  8
0
100
AcDbLine
 10
2275.8796207570836
 20
1567.201032868459
 30
0.0
 11
2275.8796207570836
 21
1566.3091501945162
 31
0.0
  0
LINE
  5
33
330
17
100
AcDbEntity
  8
0
100
AcDbLine
 10
2275.8796207570836
 20
1566.3091501945162
 30
0.0
 11
2275.9835387311628
 21
1566.4158393145708
 31
0.0
  0
LINE
  5
34
330
17
100
AcDbEntity
  8
0
100
AcDbLine
 10
2275.9835387311628
 20
1566.4158393145708
 30
0.0
 11
2276.100886104969
 21
1566.4920458288955
 31
0.0
  0
LINE
  5
35
330
17
100
AcDbEntity
  8
0
100
AcDbLine
 10
2276.100886104969
 20
1566.4920458288955
 30
0.0
 11
2276.2316628785024
 21
1566.5377697374902
 31
0.0
  0
LINE
  5
36
330
17
100
AcDbEntity
  8
0
100
AcDbLine
 10
2276.2316628785024
 20
1566.5377697374902
 30
0.0
 11
2276.375869051763
 21
1566.5530110403552
 31
0.0
  0
LINE
  5
37
330
17
100
AcDbEntity
  8
0
100
AcDbLine
 10
2276.375869051763
 20
1566.5530110403552
 30
0.0
 11
2276.4583106445325
 21
1566.5488010301233
 31
0.0
  0
LINE
  5
38
330
17
100
AcDbEntity
  8
0
100
AcDbLine
 10
2276.4583106445325
 20
1566.5488010301233
 30
0.0
 11
2276.538514004014
 21
1566.5361709994274
 31
0.0
  0
LINE
  5
39
330
17
100
AcDbEntity
  8
0
100
AcDbLine
 10
2276.538514004014
 20
1566.5361709994274
 30
0.0
 11
2276.6164791302076
 21
1566.5151209482678
 31
0.0
  0
LINE
  5
3A
330
17
100
AcDbEntity
  8
0
100
AcDbLine
 10
2276.6164791302076
 20
1566.5151209482678
 30
0.0
 11
2276.6922060231136
 21
1566.4856508766445
 31
0.0
  0
LINE
  5
3B
330
17
100
AcDbEntity
  8
0
100
AcDbLine
 10
2276.6922060231136
 20
1566.4856508766445
 30
0.0
 11
2276.7635097407124
 21
1566.4485601535885
 31
0.0
  0
LINE
  5
3C
330
17
100
AcDbEntity
  8
0
100
AcDbLine
 10
2276.7635097407124
 20
1566.4485601535885
 30
0.0
 11
2276.8282053409853
 21
1566.4046481481314
 31
0.0
  0
LINE
  5
3D
330
17
100
AcDbEntity
  8
0
100
AcDbLine
 10
2276.8282053409853
 20
1566.4046481481314
 30
0.0
 11
2276.8862928239323
 21
1566.3539148602733
 31
0.0
  0
LINE
  5
3E
330
17
100
AcDbEntity
  8
0
100
AcDbLine
 10
2276.8862928239323
 20
1566.3539148602733
 30
0.0
 11
2276.937772189553
 21
1566.2963602900143
 31
0.0
  0
LINE
  5
3F
330
17
100
AcDbEntity
  8
0
100
AcDbLine
 10
2276.937772189553
 20
1566.2963602900143
 30
0.0
 11
2276.9833362243417
 21
1566.2322508936977
 31
0.0
  0
LINE
  5
40
330
17
100
AcDbEntity
  8
0
100
AcDbLine
 10
2276.9833362243417
 20
1566.2322508936977
 30
0.0
 11
2277.0236777147916
 21
1566.1618531276677
 31
0.0
  0
LINE
  5
41
330
17
100
AcDbEntity
  8
0
100
AcDbLine
 10
2277.0236777147916
 20
1566.1618531276677
 30
0.0
 11
2277.0587966609037
 21
1566.085166991924
 31
0.0
  0
LINE
  5
42
330
17
100
AcDbEntity
  8
0
100
AcDbLine
 10
2277.0587966609037
 20
1566.085166991924
 30
0.0
 11
2277.088693062677
 21
1566.002192486467
 31
0.0
  0
LINE
  5
43
330
17
100
AcDbEntity
  8
0
100
AcDbLine
 10
2277.088693062677
 20
1566.002192486467
 30
0.0
 11
2277.1125675510807
 21
1565.914581640628
 31
0.0
  0
LINE
  5
44
330
17
100
AcDbEntity
  8
0
100
AcDbLine
 10
2277.1125675510807
 20
1565.914581640628
 30
0.0
 11
2277.1296207570836
 21
1565.8239864837387
 31
0.0
  0
LINE
  5
45
330
17
100
AcDbEntity
  8
0
100
AcDbLine
 10
2277.1296207570836
 20
1565.8239864837387
 30
0.0
 11
2277.139852680685
 21
1565.7304070157986
 31
0.0
  0
LINE
  5
46
330
17
100
AcDbEntity
  8
0
100
AcDbLine
 10
2277.139852680685
 20
1565.7304070157986
 30
0.0
 11
2277.1432633218856
 21
1565.6338432368082
 31
0.0
  0
LINE
  5
47
330
17
100
AcDbEntity
  8
0
100
AcDbLine
 10
2277.1432633218856
 20
1565.6338432368082
 30
0.0
 11
2277.1288746793207
 21
1565.414283209523
 31
0.0
  0
LINE
  5
48
330
17
100
AcDbEntity
  8
0
100
AcDbLine
 10
2277.1288746793207
 20
1565.414283209523
 30
0.0
 11
2277.0857087516265
 21
1565.2211556515422
 31
0.0
  0
LINE
  5
49
330
17
100
AcDbEntity
  8
0
100
AcDbLine
 10
2277.0857087516265
 20
1565.2211556515422
 30
0.0
 11
2277.0137655388025
 21
1565.0544605628654
 31
0.0
  0
LINE
  5
4A
330
17
100
AcDbEntity
  8
0
100
AcDbLine
 10
2277.0137655388025
 20
1565.0544605628654
 30
0.0
 11
2276.913045040849
 21
1564.914197943493
 31
0.0
  0
LINE
  5
4B
330
17
100
AcDbEntity
  8
0
100
AcDbLine
 10
2276.913045040849
 20
1564.914197943493
 30
0.0
 11
2276.7921804433045
 21
1564.8030323568628
 31
0.0
  0
LINE
  5
4C
330
17
100
AcDbEntity
  8
0
100
AcDbLine
 10
2276.7921804433045
 20
1564.8030323568628
 30
0.0
 11
2276.659804931708
 21
1564.7236283664126
 31
0.0
  0
LINE
  5
4D
330
17
100
AcDbEntity
  8
0
100
AcDbLine
 10
2276.659804931708
 20
1564.7236283664126
 30
0.0
 11
2276.51591850606
 21
1564.6759859721424
 31
0.0
  0
LINE
  5
4E
330
17
100
AcDbEntity
  8
0
100
AcDbLine
 10
2276.51591850606
 20
1564.6759859721424
 30
0.0
 11
2276.3605211663603
 21
1564.6601051740524
 31
0.0
  0
LINE
  5
4F
330
17
100
AcDbEntity
  8
0
100
AcDbLine
 10
2276.3605211663603
 20
1564.6601051740524
 30
0.0
 11
2276.2088542154734
 21
1564.6768386324427
 31
0.0
  0
LINE
  5
50
330
17
100
AcDbEntity
  8
0
100
AcDbLine
 10
2276.2088542154734
 20
1564.6768386324427
 30
0.0
 11
2276.0744536356647
 21
1564.7270390076133
 31
0.0
  0
LINE
  5
51
330
17
100
AcDbEntity
  8
0
100
AcDbLine
 10
2276.0744536356647
 20
1564.7270390076133
 30
0.0
 11
2275.9573194269333
 21
1564.8107062995641
 31
0.0
  0
LINE
  5
52
330
17
100
AcDbEntity
  8
0
100
AcDbLine
 10
2275.9573194269333
 20
1564.8107062995641
 30
0.0
 11
2275.85745158928
 21
1564.9278405082953
 31
0.0
  0
LINE
  5
53
330
17
100
AcDbEntity
  8
0
100
AcDbLine
 10
2275.85745158928
 20
1564.9278405082953
 30
0.0
 11
2275.85745158928
 21
1564.701032868459
 31
0.0
  0
LINE
  5
54
330
17
100
AcDbEntity
  8
0
100
AcDbLine
 10
2275.8540409480793
 20
1565.620200672006
 30
0.0
 11
2275.85958324003
 21
1565.4686403036567
 31
0.0
  0
LINE
  5
55
330
17
100
AcDbEntity
  8
0
100
AcDbLine
 10
2275.85958324003
 20
1565.4686403036567
 30
0.0
 11
2275.8762101158827
 21
1565.3396754332612
 31
0.0
  0
LINE
  5
56
330
17
100
AcDbEntity
  8
0
100
AcDbLine
 10
2275.8762101158827
 20
1565.3396754332612
 30
0.0
 11
2275.9039215756375
 21
1565.2333060608191
 31
0.0
  0
LINE
  5
57
330
17
100
AcDbEntity
  8
0
100
AcDbLine
 10
2275.9039215756375
 20
1565.2333060608191
 30
0.0
 11
2275.9427176192935
 21
1565.1495321863306
 31
0.0
  0
LINE
  5
58
330
17
100
AcDbEntity
  8
0
100
AcDbLine
 10
2275.9427176192935
 20
1565.1495321863306
 30
0.0
 11
2276.0215886970564
 21
1565.0458273773265
 31
0.0
  0
LINE
  5
59
330
17
100
AcDbEntity
  8
0
100
AcDbLine
 10
2276.0215886970564
 20
1565.0458273773265
 30
0.0
 11
2276.1132496793207
 21
1564.9717525137523
 31
0.0
  0
LINE
  5
5A
330
17
100
AcDbEntity
  8
0
100
AcDbLine
 10
2276.1132496793207
 20
1564.9717525137523
 30
0.0
 11
2276.217700566088
 21
1564.9273075956078
 31
0.0
  0
LINE
  5
5B
330
17
100
AcDbEntity
  8
0
100
AcDbLine
 10
2276.217700566088
 20
1564.9273075956078
 30
0.0
 11
2276.3349413573565
 21
1564.9124926228928
 31
0.0
  0
LINE
  5
5C
330
17
100
AcDbEntity
  8
0
100
AcDbLine
 10
2276.3349413573565
 20
1564.9124926228928
 30
0.0
 11
2276.432144631572
 21
1564.9234173329883
 31
0.0
  0
LINE
  5
5D
330
17
100
AcDbEntity
  8
0
100
AcDbLine
 10
2276.432144631572
 20
1564.9234173329883
 30
0.0
 11
2276.5225266233865
 21
1564.9561914632748
 31
0.0
  0
LINE
  5
5E
330
17
100
AcDbEntity
  8
0
100
AcDbLine
 10
2276.5225266233865
 20
1564.9561914632748
 30
0.0
 11
2276.6060873327997
 21
1565.0108150137523
 31
0.0
  0
LINE
  5
5F
330
17
100
AcDbEntity
  8
0
100
AcDbLine
 10
2276.6060873327997
 20
1565.0108150137523
 30
0.0
 11
2276.682826759812
 21
1565.0872879844208
 31
0.0
  0
LINE
  5
60
330
17
100
AcDbEntity
  8
0
100
AcDbLine
 10
2276.682826759812
 20
1565.0872879844208
 30
0.0
 11
2276.7469894473975
 21
1565.185397210205
 31
0.0
  0
LINE
  5
61
330
17
100
AcDbEntity
  8
0
100
AcDbLine
 10
2276.7469894473975
 20
1565.185397210205
 30
0.0
 11
2276.7928199385296
 21
1565.3049295260305
 31
0.0
  0
LINE
  5
62
330
17
100
AcDbEntity
  8
0
100
AcDbLine
 10
2276.7928199385296
 20
1565.3049295260305
 30
0.0
 11
2276.820318233209
 21
1565.445884931897
 31
0.0
  0
LINE
  5
63
330
17
100
AcDbEntity
  8
0
100
AcDbLine
 10
2276.820318233209
 20
1565.445884931897
 30
0.0
 11
2276.8294843314357
 21
1565.608263427804
 31
0.0
  0
LINE
  5
64
330
17
100
AcDbEntity
  8
0
100
AcDbLine
 10
2276.8294843314357
 20
1565.608263427804
 30
0.0
 11
2276.8206912720907
 21
1565.773999273643
 31
0.0
  0
LINE
  5
65
330
17
100
AcDbEntity
  8
0
100
AcDbLine
 10
2276.8206912720907
 20
1565.773999273643
 30
0.0
 11
2276.794312094055
 21
1565.9165001263034
 31
0.0
  0
LINE
  5
66
330
17
100
AcDbEntity
  8
0
100
AcDbLine
 10
2276.794312094055
 20
1565.9165001263034
 30
0.0
 11
2276.7503467973293
 21
1566.0357659857848
 31
0.0
  0
LINE
  5
67
330
17
100
AcDbEntity
  8
0
100
AcDbLine
 10
2276.7503467973293
 20
1566.0357659857848
 30
0.0
 11
2276.688795381913
 21
1566.1317968520877
 31
0.0
  0
LINE
  5
68
330
17
100
AcDbEntity
  8
0
100
AcDbLine
 10
2276.688795381913
 20
1566.1317968520877
 30
0.0
 11
2276.6147738096074
 21
1566.205658550587
 31
0.0
  0
LINE
  5
69
330
17
100
AcDbEntity
  8
0
100
AcDbLine
 10
2276.6147738096074
 20
1566.205658550587
 30
0.0
 11
2276.533398042213
 21
1566.258416906658
 31
0.0
  0
LINE
  5
6A
330
17
100
AcDbEntity
  8
0
100
AcDbLine
 10
2276.533398042213
 20
1566.258416906658
 30
0.0
 11
2276.44466807973
 21
1566.2900719203005
 31
0.0
  0
LINE
  5
6B
330
17
100
AcDbEntity
  8
0
100
AcDbLine
 10
2276.44466807973
 20
1566.2900719203005
 30
0.0
 11
2276.3485839221585
 21
1566.3006235915147
 31
0.0
  0
LINE
  5
6C
330
17
100
AcDbEntity
  8
0
100
AcDbLine
 10
2276.3485839221585
 20
1566.3006235915147
 30
0.0
 11
2276.251380647943
 21
1566.2896988814193
 31
0.0
  0
LINE
  5
6D
330
17
100
AcDbEntity
  8
0
100
AcDbLine
 10
2276.251380647943
 20
1566.2896988814193
 30
0.0
 11
2276.1609986561284
 21
1566.2569247511328
 31
0.0
  0
LINE
  5
6E
330
17
100
AcDbEntity
  8
0
100
AcDbLine
 10
2276.1609986561284
 20
1566.2569247511328
 30
0.0
 11
2276.0774379467152
 21
1566.2023012006553
 31
0.0
  0
LINE
  5
6F
330
17
100
AcDbEntity
  8
0
100
AcDbLine
 10
2276.0774379467152
 20
1566.2023012006553
 30
0.0
 11
2276.000698519703
 21
1566.1258282299868
 31
0.0
  0
LINE
  5
70
330
17
100
AcDbEntity
  8
0
100
AcDbLine
 10
2276.000698519703
 20
1566.1258282299868
 30
0.0
 11
2275.9365358321174
 21
1566.02867824704
 31
0.0
  0
LINE
  5
71
330
17
100
AcDbEntity
  8
0
100
AcDbLine
 10
2275.9365358321174
 20
1566.02867824704
 30
0.0
 11
2275.8907053409853
 21
1565.9120236597278
 31
0.0
  0
LINE
  5
72
330
17
100
AcDbEntity
  8
0
100
AcDbLine
 10
2275.8907053409853
 20
1565.9120236597278
 30
0.0
 11
2275.863207046306
 21
1565.7758644680496
 31
0.0
  0
LINE
  5
73
330
17
100
AcDbEntity
  8
0
100
AcDbLine
 10
2275.863207046306
 20
1565.7758644680496
 30
0.0
 11
2275.8540409480793
 21
1565.620200672006
 31
0.0
  0
LINE
  5
74
330
17
100
AcDbEntity
  8
0
100
AcDbLine
 10
2277.5099072509443
 20
1564.701032868459
 30
0.0
 11
2277.5099072509443
 21
1567.201032868459
 31
0.0
  0
LINE
  5
75
330
17
100
AcDbEntity
  8
0
100
AcDbLine
 10
2277.5099072509443
 20
1567.201032868459
 30
0.0
 11
2277.8168649589934
 21
1567.201032868459
 31
0.0
  0
LINE
  5
76
330
17
100
AcDbEntity
  8
0
100
AcDbLine
 10
2277.8168649589934
 20
1567.201032868459
 30
0.0
 11
2277.8168649589934
 21
1564.701032868459
 31
0.0
  0
LINE
  5
77
330
17
100
AcDbEntity
  8
0
100
AcDbLine
 10
2277.8168649589934
 20
1564.701032868459
 30
0.0
 11
2277.5099072509443
 21
1564.701032868459
 31
0.0
  0
LINE
  5
78
330
17
100
AcDbEntity
  8
0
100
AcDbLine
 10
2279.4795525442596
 20
1564.701032868459
 30
0.0
 11
2279.4795525442596
 21
1564.9670628821016
 31
0.0
  0
LINE
  5
79
330
17
100
AcDbEntity
  8
0
100
AcDbLine
 10
2279.4795525442596
 20
1564.9670628821016
 30
0.0
 11
2279.364336821204
 21
1564.83276888483
 31
0.0
  0
LINE
  5
7A
330
17
100
AcDbEntity
  8
0
100
AcDbLine
 10
2279.364336821204
 20
1564.83276888483
 30
0.0
 11
2279.2301494064695
 21
1564.7368446010646
 31
0.0
  0
LINE
  5
7B
330
17
100
AcDbEntity
  8
0
100
AcDbLine
 10
2279.2301494064695
 20
1564.7368446010646
 30
0.0
 11
2279.076990300058
 21
1564.6792900308055
 31
0.0
  0
LINE
  5
7C
330
17
100
AcDbEntity
  8
0
100
AcDbLine
 10
2279.076990300058
 20
1564.6792900308055
 30
0.0
 11
2278.9048595019676
 21
1564.6601051740524
 31
0.0
  0
LINE
  5
7D
330
17
100
AcDbEntity
  8
0
100
AcDbLine
 10
2278.9048595019676
 20
1564.6601051740524
 30
0.0
 11
2278.826041715474
 21
1564.663942145403
 31
0.0
  0
LINE
  5
7E
330
17
100
AcDbEntity
  8
0
100
AcDbLine
 10
2278.826041715474
 20
1564.663942145403
 30
0.0
 11
2278.749888492418
 21
1564.6754530594549
 31
0.0
  0
LINE
  5
7F
330
17
100
AcDbEntity
  8
0
100
AcDbLine
 10
2278.749888492418
 20
1564.6754530594549
 30
0.0
 11
2278.6763998327997
 21
1564.694637916208
 31
0.0
  0
LINE
  5
80
330
17
100
AcDbEntity
  8
0
100
AcDbLine
 10
2278.6763998327997
 20
1564.694637916208
 30
0.0
 11
2278.60557573662
 21
1564.7214967156622
 31
0.0
  0
LINE
  5
81
330
17
100
AcDbEntity
  8
0
100
AcDbLine
 10
2278.60557573662
 20
1564.7214967156622
 30
0.0
 11
2278.5405603887343
 21
1564.7541642634112
 31
0.0
  0
LINE
  5
82
330
17
100
AcDbEntity
  8
0
100
AcDbLine
 10
2278.5405603887343
 20
1564.7541642634112
 30
0.0
 11
2278.4844979740005
 21
1564.7907753650484
 31
0.0
  0
LINE
  5
83
330
17
100
AcDbEntity
  8
0
100
AcDbLine
 10
2278.4844979740005
 20
1564.7907753650484
 30
0.0
 11
2278.437388492418
 21
1564.8313300205734
 31
0.0
  0
LINE
  5
84
330
17
100
AcDbEntity
  8
0
100
AcDbLine
 10
2278.437388492418
 20
1564.8313300205734
 30
0.0
 11
2278.3992319439867
 21
1564.8758282299868
 31
0.0
  0
LINE
  5
85
330
17
100
AcDbEntity
  8
0
100
AcDbLine
 10
2278.3992319439867
 20
1564.8758282299868
 30
0.0
 11
2278.368056551763
 21
1564.9249094885135
 31
0.0
  0
LINE
  5
86
330
17
100
AcDbEntity
  8
0
100
AcDbLine
 10
2278.368056551763
 20
1564.9249094885135
 30
0.0
 11
2278.3418905388025
 21
1564.9792132913785
 31
0.0
  0
LINE
  5
87
330
17
100
AcDbEntity
  8
0
100
AcDbLine
 10
2278.3418905388025
 20
1564.9792132913785
 30
0.0
 11
2278.320733905105
 21
1565.0387396385818
 31
0.0
  0
LINE
  5
88
330
17
100
AcDbEntity
  8
0
100
AcDbLine
 10
2278.320733905105
 20
1565.0387396385818
 30
0.0
 11
2278.3045866506714
 21
1565.1034885301233
 31
0.0
  0
LINE
  5
89
330
17
100
AcDbEntity
  8
0
100
AcDbLine
 10
2278.3045866506714
 20
1565.1034885301233
 30
0.0
 11
2278.2963797952825
 21
1565.1552876433566
 31
0.0
  0
LINE
  5
8A
330
17
100
AcDbEntity
  8
0
100
AcDbLine
 10
2278.2963797952825
 20
1565.1552876433566
 30
0.0
 11
2278.2905177557195
 21
1565.220302991242
 31
0.0
  0
LINE
  5
8B
330
17
100
AcDbEntity
  8
0
100
AcDbLine
 10
2278.2905177557195
 20
1565.220302991242
 30
0.0
 11
2278.2870005319814
 21
1565.2985345737795
 31
0.0
  0
LINE
  5
8C
330
17
100
AcDbEntity
  8
0
100
AcDbLine
 10
2278.2870005319814
 20
1565.2985345737795
 30
0.0
 11
2278.2858281240688
 21
1565.3899823909692
 31
0.0
  0
LINE
  5
8D
330
17
100
AcDbEntity
  8
0
100
AcDbLine
 10
2278.2858281240688
 20
1565.3899823909692
 30
0.0
 11
2278.2858281240688
 21
1566.5120833459487
 31
0.0
  0
LINE
  5
8E
330
17
100
AcDbEntity
  8
0
100
AcDbLine
 10
2278.2858281240688
 20
1566.5120833459487
 30
0.0
 11
2278.5927858321174
 21
1566.5120833459487
 31
0.0
  0
LINE
  5
8F
330
17
100
AcDbEntity
  8
0
100
AcDbLine
 10
2278.5927858321174
 20
1566.5120833459487
 30
0.0
 11
2278.5927858321174
 21
1565.507649512388
 31
0.0
  0
LINE
  5
90
330
17
100
AcDbEntity
  8
0
100
AcDbLine
 10
2278.5927858321174
 20
1565.507649512388
 30
0.0
 11
2278.59395824003
 21
1565.3972300035202
 31
0.0
  0
LINE
  5
91
330
17
100
AcDbEntity
  8
0
100
AcDbLine
 10
2278.59395824003
 20
1565.3972300035202
 30
0.0
 11
2278.597475463768
 21
1565.3064216815558
 31
0.0
  0
LINE
  5
92
330
17
100
AcDbEntity
  8
0
100
AcDbLine
 10
2278.597475463768
 20
1565.3064216815558
 30
0.0
 11
2278.6033375033317
 21
1565.2352245464945
 31
0.0
  0
LINE
  5
93
330
17
100
AcDbEntity
  8
0
100
AcDbLine
 10
2278.6033375033317
 20
1565.2352245464945
 30
0.0
 11
2278.6115443587205
 21
1565.183638598336
 31
0.0
  0
LINE
  5
94
330
17
100
AcDbEntity
  8
0
100
AcDbLine
 10
2278.6115443587205
 20
1565.183638598336
 30
0.0
 11
2278.6300897202486
 21
1565.1263504844208
 31
0.0
  0
LINE
  5
95
330
17
100
AcDbEntity
  8
0
100
AcDbLine
 10
2278.6300897202486
 20
1565.1263504844208
 30
0.0
 11
2278.656735354628
 21
1565.0755639052938
 31
0.0
  0
LINE
  5
96
330
17
100
AcDbEntity
  8
0
100
AcDbLine
 10
2278.656735354628
 20
1565.0755639052938
 30
0.0
 11
2278.6914812618584
 21
1565.0312788609556
 31
0.0
  0
LINE
  5
97
330
17
100
AcDbEntity
  8
0
100
AcDbLine
 10
2278.6914812618584
 20
1565.0312788609556
 30
0.0
 11
2278.7343274419404
 21
1564.9934953514057
 31
0.0
  0
LINE
  5
98
330
17
100
AcDbEntity
  8
0
100
AcDbLine
 10
2278.7343274419404
 20
1564.9934953514057
 30
0.0
 11
2278.7839949044233
 21
1564.9632792020197
 31
0.0
  0
LINE
  5
99
330
17
100
AcDbEntity
  8
0
100
AcDbLine
 10
2278.7839949044233
 20
1564.9632792020197
 30
0.0
 11
2278.839204658857
 21
1564.9416962381724
 31
0.0
  0
LINE
  5
9A
330
17
100
AcDbEntity
  8
0
100
AcDbLine
 10
2278.839204658857
 20
1564.9416962381724
 30
0.0
 11
2278.899956705242
 21
1564.9287464598642
 31
0.0
  0
LINE
  5
9B
330
17
100
AcDbEntity
  8
0
100
AcDbLine
 10
2278.899956705242
 20
1564.9287464598642
 30
0.0
 11
2278.9662510435774
 21
1564.9244298670947
 31
0.0
  0
LINE
  5
9C
330
17
100
AcDbEntity
  8
0
100
AcDbLine
 10
2278.9662510435774
 20
1564.9244298670947
 30
0.0
 11
2279.0342507025134
 21
1564.9288530424017
 31
0.0
  0
LINE
  5
9D
330
17
100
AcDbEntity
  8
0
100
AcDbLine
 10
2279.0342507025134
 20
1564.9288530424017
 30
0.0
 11
2279.1001187106986
 21
1564.9421225683225
 31
0.0
  0
LINE
  5
9E
330
17
100
AcDbEntity
  8
0
100
AcDbLine
 10
2279.1001187106986
 20
1564.9421225683225
 30
0.0
 11
2279.163855068134
 21
1564.9642384448573
 31
0.0
  0
LINE
  5
9F
330
17
100
AcDbEntity
  8
0
100
AcDbLine
 10
2279.163855068134
 20
1564.9642384448573
 30
0.0
 11
2279.225459774819
 21
1564.995200672006
 31
0.0
  0
LINE
  5
A0
330
17
100
AcDbEntity
  8
0
100
AcDbLine
 10
2279.225459774819
 20
1564.995200672006
 30
0.0
 11
2279.2815754808216
 21
1565.0337835505873
 31
0.0
  0
LINE
  5
A1
330
17
100
AcDbEntity
  8
0
100
AcDbLine
 10
2279.2815754808216
 20
1565.0337835505873
 30
0.0
 11
2279.3288448362105
 21
1565.0787613814193
 31
0.0
  0
LINE
  5
A2
330
17
100
AcDbEntity
  8
0
100
AcDbLine
 10
2279.3288448362105
 20
1565.0787613814193
 30
0.0
 11
2279.3672678409853
 21
1565.1301341645026
 31
0.0
  0
LINE
  5
A3
330
17
100
AcDbEntity
  8
0
100
AcDbLine
 10
2279.3672678409853
 20
1565.1301341645026
 30
0.0
 11
2279.3968444951465
 21
1565.1879018998368
 31
0.0
  0
LINE
  5
A4
330
17
100
AcDbEntity
  8
0
100
AcDbLine
 10
2279.3968444951465
 20
1565.1879018998368
 30
0.0
 11
2279.4188537891437
 21
1565.2557416849663
 31
0.0
  0
LINE
  5
A5
330
17
100
AcDbEntity
  8
0
100
AcDbLine
 10
2279.4188537891437
 20
1565.2557416849663
 30
0.0
 11
2279.4345747134275
 21
1565.3373306174358
 31
0.0
  0
LINE
  5
A6
330
17
100
AcDbEntity
  8
0
100
AcDbLine
 10
2279.4345747134275
 20
1565.3373306174358
 30
0.0
 11
2279.4440072679977
 21
1565.4326686972447
 31
0.0
  0
LINE
  5
A7
330
17
100
AcDbEntity
  8
0
100
AcDbLine
 10
2279.4440072679977
 20
1565.4326686972447
 30
0.0
 11
2279.4471514528545
 21
1565.5417559243933
 31
0.0
  0
LINE
  5
A8
330
17
100
AcDbEntity
  8
0
100
AcDbLine
 10
2279.4471514528545
 20
1565.5417559243933
 30
0.0
 11
2279.4471514528545
 21
1566.5120833459487
 31
0.0
  0
LINE
  5
A9
330
17
100
AcDbEntity
  8
0
100
AcDbLine
 10
2279.4471514528545
 20
1566.5120833459487
 30
0.0
 11
2279.7541091609037
 21
1566.5120833459487
 31
0.0
  0
LINE
  5
AA
330
17
100
AcDbEntity
  8
0
100
AcDbLine
 10
2279.7541091609037
 20
1566.5120833459487
 30
0.0
 11
2279.7541091609037
 21
1564.701032868459
 31
0.0
  0
LINE
  5
AB
330
17
100
AcDbEntity
  8
0
100
AcDbLine
 10
2279.7541091609037
 20
1564.701032868459
 30
0.0
 11
2279.4795525442596
 21
1564.701032868459
 31
0.0
  0
LINE
  5
AC
330
17
100
AcDbEntity
  8
0
100
AcDbLine
 10
2280.518092789826
 20
1564.701032868459
 30
0.0
 11
2280.23330424958
 21
1564.701032868459
 31
0.0
  0
LINE
  5
AD
330
17
100
AcDbEntity
  8
0
100
AcDbLine
 10
2280.23330424958
 20
1564.701032868459
 30
0.0
 11
2280.23330424958
 21
1567.201032868459
 31
0.0
  0
LINE
  5
AE
330
17
100
AcDbEntity
  8
0
100
AcDbLine
 10
2280.23330424958
 20
1567.201032868459
 30
0.0
 11
2280.5402619576294
 21
1567.201032868459
 31
0.0
  0
LINE
  5
AF
330
17
100
AcDbEntity
  8
0
100
AcDbLine
 10
2280.5402619576294
 20
1567.201032868459
 30
0.0
 11
2280.5402619576294
 21
1566.3091501945162
 31
0.0
  0
LINE
  5
B0
330
17
100
AcDbEntity
  8
0
100
AcDbLine
 10
2280.5402619576294
 20
1566.3091501945162
 30
0.0
 11
2280.6441799317085
 21
1566.4158393145708
 31
0.0
  0
LINE
  5
B1
330
17
100
AcDbEntity
  8
0
100
AcDbLine
 10
2280.6441799317085
 20
1566.4158393145708
 30
0.0
 11
2280.7615273055144
 21
1566.4920458288955
 31
0.0
  0
LINE
  5
B2
330
17
100
AcDbEntity
  8
0
100
AcDbLine
 10
2280.7615273055144
 20
1566.4920458288955
 30
0.0
 11
2280.8923040790482
 21
1566.5377697374902
 31
0.0
  0
LINE
  5
B3
330
17
100
AcDbEntity
  8
0
100
AcDbLine
 10
2280.8923040790482
 20
1566.5377697374902
 30
0.0
 11
2281.0365102523087
 21
1566.5530110403552
 31
0.0
  0
LINE
  5
B4
330
17
100
AcDbEntity
  8
0
100
AcDbLine
 10
2281.0365102523087
 20
1566.5530110403552
 30
0.0
 11
2281.1189518450783
 21
1566.5488010301233
 31
0.0
  0
LINE
  5
B5
330
17
100
AcDbEntity
  8
0
100
AcDbLine
 10
2281.1189518450783
 20
1566.5488010301233
 30
0.0
 11
2281.1991552045597
 21
1566.5361709994274
 31
0.0
  0
LINE
  5
B6
330
17
100
AcDbEntity
  8
0
100
AcDbLine
 10
2281.1991552045597
 20
1566.5361709994274
 30
0.0
 11
2281.2771203307534
 21
1566.5151209482678
 31
0.0
  0
LINE
  5
B7
330
17
100
AcDbEntity
  8
0
100
AcDbLine
 10
2281.2771203307534
 20
1566.5151209482678
 30
0.0
 11
2281.3528472236594
 21
1566.4856508766445
 31
0.0
  0
LINE
  5
B8
330
17
100
AcDbEntity
  8
0
100
AcDbLine
 10
2281.3528472236594
 20
1566.4856508766445
 30
0.0
 11
2281.424150941258
 21
1566.4485601535885
 31
0.0
  0
LINE
  5
B9
330
17
100
AcDbEntity
  8
0
100
AcDbLine
 10
2281.424150941258
 20
1566.4485601535885
 30
0.0
 11
2281.488846541531
 21
1566.4046481481314
 31
0.0
  0
LINE
  5
BA
330
17
100
AcDbEntity
  8
0
100
AcDbLine
 10
2281.488846541531
 20
1566.4046481481314
 30
0.0
 11
2281.5469340244777
 21
1566.3539148602733
 31
0.0
  0
LINE
  5
BB
330
17
100
AcDbEntity
  8
0
100
AcDbLine
 10
2281.5469340244777
 20
1566.3539148602733
 30
0.0
 11
2281.5984133900984
 21
1566.2963602900143
 31
0.0
  0
LINE
  5
BC
330
17
100
AcDbEntity
  8
0
100
AcDbLine
 10
2281.5984133900984
 20
1566.2963602900143
 30
0.0
 11
2281.643977424887
 21
1566.2322508936977
 31
0.0
  0
LINE
  5
BD
330
17
100
AcDbEntity
  8
0
100
AcDbLine
 10
2281.643977424887
 20
1566.2322508936977
 30
0.0
 11
2281.6843189153374
 21
1566.1618531276677
 31
0.0
  0
LINE
  5
BE
330
17
100
AcDbEntity
  8
0
100
AcDbLine
 10
2281.6843189153374
 20
1566.1618531276677
 30
0.0
 11
2281.719437861449
 21
1566.085166991924
 31
0.0
  0
LINE
  5
BF
330
17
100
AcDbEntity
  8
0
100
AcDbLine
 10
2281.719437861449
 20
1566.085166991924
 30
0.0
 11
2281.749334263223
 21
1566.002192486467
 31
0.0
  0
LINE
  5
C0
330
17
100
AcDbEntity
  8
0
100
AcDbLine
 10
2281.749334263223
 20
1566.002192486467
 30
0.0
 11
2281.7732087516265
 21
1565.914581640628
 31
0.0
  0
LINE
  5
C1
330
17
100
AcDbEntity
  8
0
100
AcDbLine
 10
2281.7732087516265
 20
1565.914581640628
 30
0.0
 11
2281.7902619576294
 21
1565.8239864837387
 31
0.0
  0
LINE
  5
C2
330
17
100
AcDbEntity
  8
0
100
AcDbLine
 10
2281.7902619576294
 20
1565.8239864837387
 30
0.0
 11
2281.800493881231
 21
1565.7304070157986
 31
0.0
  0
LINE
  5
C3
330
17
100
AcDbEntity
  8
0
100
AcDbLine
 10
2281.800493881231
 20
1565.7304070157986
 30
0.0
 11
2281.8039045224314
 21
1565.6338432368082
 31
0.0
  0
LINE
  5
C4
330
17
100
AcDbEntity
  8
0
100
AcDbLine
 10
2281.8039045224314
 20
1565.6338432368082
 30
0.0
 11
2281.7895158798665
 21
1565.414283209523
 31
0.0
  0
LINE
  5
C5
330
17
100
AcDbEntity
  8
0
100
AcDbLine
 10
2281.7895158798665
 20
1565.414283209523
 30
0.0
 11
2281.7463499521723
 21
1565.2211556515422
 31
0.0
  0
LINE
  5
C6
330
17
100
AcDbEntity
  8
0
100
AcDbLine
 10
2281.7463499521723
 20
1565.2211556515422
 30
0.0
 11
2281.6744067393483
 21
1565.0544605628654
 31
0.0
  0
LINE
  5
C7
330
17
100
AcDbEntity
  8
0
100
AcDbLine
 10
2281.6744067393483
 20
1565.0544605628654
 30
0.0
 11
2281.5736862413946
 21
1564.914197943493
 31
0.0
  0
LINE
  5
C8
330
17
100
AcDbEntity
  8
0
100
AcDbLine
 10
2281.5736862413946
 20
1564.914197943493
 30
0.0
 11
2281.4528216438503
 21
1564.8030323568628
 31
0.0
  0
LINE
  5
C9
330
17
100
AcDbEntity
  8
0
100
AcDbLine
 10
2281.4528216438503
 20
1564.8030323568628
 30
0.0
 11
2281.320446132254
 21
1564.7236283664126
 31
0.0
  0
LINE
  5
CA
330
17
100
AcDbEntity
  8
0
100
AcDbLine
 10
2281.320446132254
 20
1564.7236283664126
 30
0.0
 11
2281.176559706606
 21
1564.6759859721424
 31
0.0
  0
LINE
  5
CB
330
17
100
AcDbEntity
  8
0
100
AcDbLine
 10
2281.176559706606
 20
1564.6759859721424
 30
0.0
 11
2281.021162366906
 21
1564.6601051740524
 31
0.0
  0
LINE
  5
CC
330
17
100
AcDbEntity
  8
0
100
AcDbLine
 10
2281.021162366906
 20
1564.6601051740524
 30
0.0
 11
2280.869495416019
 21
1564.6768386324427
 31
0.0
  0
LINE
  5
CD
330
17
100
AcDbEntity
  8
0
100
AcDbLine
 10
2280.869495416019
 20
1564.6768386324427
 30
0.0
 11
2280.7350948362105
 21
1564.7270390076133
 31
0.0
  0
LINE
  5
CE
330
17
100
AcDbEntity
  8
0
100
AcDbLine
 10
2280.7350948362105
 20
1564.7270390076133
 30
0.0
 11
2280.617960627479
 21
1564.8107062995641
 31
0.0
  0
LINE
  5
CF
330
17
100
AcDbEntity
  8
0
100
AcDbLine
 10
2280.617960627479
 20
1564.8107062995641
 30
0.0
 11
2280.518092789826
 21
1564.9278405082953
 31
0.0
  0
LINE
  5
D0
330
17
100
AcDbEntity
  8
0
100
AcDbLine
 10
2280.518092789826
 20
1564.9278405082953
 30
0.0
 11
2280.518092789826
 21
1564.701032868459
 31
0.0
  0
LINE
  5
D1
330
17
100
AcDbEntity
  8
0
100
AcDbLine
 10
2280.514682148625
 20
1565.620200672006
 30
0.0
 11
2280.520224440576
 21
1565.4686403036567
 31
0.0
  0
LINE
  5
D2
330
17
100
AcDbEntity
  8
0
100
AcDbLine
 10
2280.520224440576
 20
1565.4686403036567
 30
0.0
 11
2280.5368513164285
 21
1565.3396754332612
 31
0.0
  0
LINE
  5
D3
330
17
100
AcDbEntity
  8
0
100
AcDbLine
 10
2280.5368513164285
 20
1565.3396754332612
 30
0.0
 11
2280.5645627761833
 21
1565.2333060608191
 31
0.0
  0
LINE
  5
D4
330
17
100
AcDbEntity
  8
0
100
AcDbLine
 10
2280.5645627761833
 20
1565.2333060608191
 30
0.0
 11
2280.6033588198393
 21
1565.1495321863306
 31
0.0
  0
LINE
  5
D5
330
17
100
AcDbEntity
  8
0
100
AcDbLine
 10
2280.6033588198393
 20
1565.1495321863306
 30
0.0
 11
2280.682229897602
 21
1565.0458273773265
 31
0.0
  0
LINE
  5
D6
330
17
100
AcDbEntity
  8
0
100
AcDbLine
 10
2280.682229897602
 20
1565.0458273773265
 30
0.0
 11
2280.7738908798665
 21
1564.9717525137523
 31
0.0
  0
LINE
  5
D7
330
17
100
AcDbEntity
  8
0
100
AcDbLine
 10
2280.7738908798665
 20
1564.9717525137523
 30
0.0
 11
2280.8783417666336
 21
1564.9273075956078
 31
0.0
  0
LINE
  5
D8
330
17
100
AcDbEntity
  8
0
100
AcDbLine
 10
2280.8783417666336
 20
1564.9273075956078
 30
0.0
 11
2280.9955825579023
 21
1564.9124926228928
 31
0.0
  0
LINE
  5
D9
330
17
100
AcDbEntity
  8
0
100
AcDbLine
 10
2280.9955825579023
 20
1564.9124926228928
 30
0.0
 11
2281.092785832118
 21
1564.9234173329883
 31
0.0
  0
LINE
  5
DA
330
17
100
AcDbEntity
  8
0
100
AcDbLine
 10
2281.092785832118
 20
1564.9234173329883
 30
0.0
 11
2281.1831678239323
 21
1564.9561914632748
 31
0.0
  0
LINE
  5
DB
330
17
100
AcDbEntity
  8
0
100
AcDbLine
 10
2281.1831678239323
 20
1564.9561914632748
 30
0.0
 11
2281.2667285333455
 21
1565.0108150137523
 31
0.0
  0
LINE
  5
DC
330
17
100
AcDbEntity
  8
0
100
AcDbLine
 10
2281.2667285333455
 20
1565.0108150137523
 30
0.0
 11
2281.343467960358
 21
1565.0872879844208
 31
0.0
  0
LINE
  5
DD
330
17
100
AcDbEntity
  8
0
100
AcDbLine
 10
2281.343467960358
 20
1565.0872879844208
 30
0.0
 11
2281.4076306479433
 21
1565.185397210205
 31
0.0
  0
LINE
  5
DE
330
17
100
AcDbEntity
  8
0
100
AcDbLine
 10
2281.4076306479433
 20
1565.185397210205
 30
0.0
 11
2281.4534611390754
 21
1565.3049295260305
 31
0.0
  0
LINE
  5
DF
330
17
100
AcDbEntity
  8
0
100
AcDbLine
 10
2281.4534611390754
 20
1565.3049295260305
 30
0.0
 11
2281.480959433755
 21
1565.445884931897
 31
0.0
  0
LINE
  5
E0
330
17
100
AcDbEntity
  8
0
100
AcDbLine
 10
2281.480959433755
 20
1565.445884931897
 30
0.0
 11
2281.4901255319814
 21
1565.608263427804
 31
0.0
  0
LINE
  5
E1
330
17
100
AcDbEntity
  8
0
100
AcDbLine
 10
2281.4901255319814
 20
1565.608263427804
 30
0.0
 11
2281.4813324726365
 21
1565.773999273643
 31
0.0
  0
LINE
  5
E2
330
17
100
AcDbEntity
  8
0
100
AcDbLine
 10
2281.4813324726365
 20
1565.773999273643
 30
0.0
 11
2281.4549532946007
 21
1565.9165001263034
 31
0.0
  0
LINE
  5
E3
330
17
100
AcDbEntity
  8
0
100
AcDbLine
 10
2281.4549532946007
 20
1565.9165001263034
 30
0.0
 11
2281.410987997875
 21
1566.0357659857848
 31
0.0
  0
LINE
  5
E4
330
17
100
AcDbEntity
  8
0
100
AcDbLine
 10
2281.410987997875
 20
1566.0357659857848
 30
0.0
 11
2281.3494365824586
 21
1566.1317968520877
 31
0.0
  0
LINE
  5
E5
330
17
100
AcDbEntity
  8
0
100
AcDbLine
 10
2281.3494365824586
 20
1566.1317968520877
 30
0.0
 11
2281.275415010153
 21
1566.205658550587
 31
0.0
  0
LINE
  5
E6
330
17
100
AcDbEntity
  8
0
100
AcDbLine
 10
2281.275415010153
 20
1566.205658550587
 30
0.0
 11
2281.1940392427587
 21
1566.258416906658
 31
0.0
  0
LINE
  5
E7
330
17
100
AcDbEntity
  8
0
100
AcDbLine
 10
2281.1940392427587
 20
1566.258416906658
 30
0.0
 11
2281.105309280276
 21
1566.2900719203005
 31
0.0
  0
LINE
  5
E8
330
17
100
AcDbEntity
  8
0
100
AcDbLine
 10
2281.105309280276
 20
1566.2900719203005
 30
0.0
 11
2281.0092251227043
 21
1566.3006235915147
 31
0.0
  0
LINE
  5
E9
330
17
100
AcDbEntity
  8
0
100
AcDbLine
 10
2281.0092251227043
 20
1566.3006235915147
 30
0.0
 11
2280.9120218484886
 21
1566.2896988814193
 31
0.0
  0
LINE
  5
EA
330
17
100
AcDbEntity
  8
0
100
AcDbLine
 10
2280.9120218484886
 20
1566.2896988814193
 30
0.0
 11
2280.821639856674
 21
1566.2569247511328
 31
0.0
  0
LINE
  5
EB
330
17
100
AcDbEntity
  8
0
100
AcDbLine
 10
2280.821639856674
 20
1566.2569247511328
 30
0.0
 11
2280.738079147261
 21
1566.2023012006553
 31
0.0
  0
LINE
  5
EC
330
17
100
AcDbEntity
  8
0
100
AcDbLine
 10
2280.738079147261
 20
1566.2023012006553
 30
0.0
 11
2280.6613397202486
 21
1566.1258282299868
 31
0.0
  0
LINE
  5
ED
330
17
100
AcDbEntity
  8
0
100
AcDbLine
 10
2280.6613397202486
 20
1566.1258282299868
 30
0.0
 11
2280.5971770326632
 21
1566.02867824704
 31
0.0
  0
LINE
  5
EE
330
17
100
AcDbEntity
  8
0
100
AcDbLine
 10
2280.5971770326632
 20
1566.02867824704
 30
0.0
 11
2280.551346541531
 21
1565.9120236597278
 31
0.0
  0
LINE
  5
EF
330
17
100
AcDbEntity
  8
0
100
AcDbLine
 10
2280.551346541531
 20
1565.9120236597278
 30
0.0
 11
2280.5238482468517
 21
1565.7758644680496
 31
0.0
  0
LINE
  5
F0
330
17
100
AcDbEntity
  8
0
100
AcDbLine
 10
2280.5238482468517
 20
1565.7758644680496
 30
0.0
 11
2280.514682148625
 21
1565.620200672006
 31
0.0
  0
LINE
  5
F1
330
17
100
AcDbEntity
  8
0
100
AcDbLine
 10
2282.4604529535363
 20
1564.701032868459
 30
0.0
 11
2282.175664413291
 21
1564.701032868459
 31
0.0
  0
LINE
  5
F2
330
17
100
AcDbEntity
  8
0
100
AcDbLine
 10
2282.175664413291
 20
1564.701032868459
 30
0.0
 11
2282.175664413291
 21
1567.201032868459
 31
0.0
  0
LINE
  5
F3
330
17
100
AcDbEntity
  8
0
100
AcDbLine
 10
2282.175664413291
 20
1567.201032868459
 30
0.0
 11
2282.4826221213402
 21
1567.201032868459
 31
0.0
  0
LINE
  5
F4
330
17
100
AcDbEntity
  8
0
100
AcDbLine
 10
2282.4826221213402
 20
1567.201032868459
 30
0.0
 11
2282.4826221213402
 21
1566.3091501945162
 31
0.0
  0
LINE
  5
F5
330
17
100
AcDbEntity
  8
0
100
AcDbLine
 10
2282.4826221213402
 20
1566.3091501945162
 30
0.0
 11
2282.5865400954194
 21
1566.4158393145708
 31
0.0
  0
LINE
  5
F6
330
17
100
AcDbEntity
  8
0
100
AcDbLine
 10
2282.5865400954194
 20
1566.4158393145708
 30
0.0
 11
2282.7038874692253
 21
1566.4920458288955
 31
0.0
  0
LINE
  5
F7
330
17
100
AcDbEntity
  8
0
100
AcDbLine
 10
2282.7038874692253
 20
1566.4920458288955
 30
0.0
 11
2282.834664242759
 21
1566.5377697374902
 31
0.0
  0
LINE
  5
F8
330
17
100
AcDbEntity
  8
0
100
AcDbLine
 10
2282.834664242759
 20
1566.5377697374902
 30
0.0
 11
2282.9788704160196
 21
1566.5530110403552
 31
0.0
  0
LINE
  5
F9
330
17
100
AcDbEntity
  8
0
100
AcDbLine
 10
2282.9788704160196
 20
1566.5530110403552
 30
0.0
 11
2283.0613120087887
 21
1566.5488010301233
 31
0.0
  0
LINE
  5
FA
330
17
100
AcDbEntity
  8
0
100
AcDbLine
 10
2283.0613120087887
 20
1566.5488010301233
 30
0.0
 11
2283.14151536827
 21
1566.5361709994274
 31
0.0
  0
LINE
  5
FB
330
17
100
AcDbEntity
  8
0
100
AcDbLine
 10
2283.14151536827
 20
1566.5361709994274
 30
0.0
 11
2283.219480494464
 21
1566.5151209482678
 31
0.0
  0
LINE
  5
FC
330
17
100
AcDbEntity
  8
0
100
AcDbLine
 10
2283.219480494464
 20
1566.5151209482678
 30
0.0
 11
2283.29520738737
 21
1566.4856508766445
 31
0.0
  0
LINE
  5
FD
330
17
100
AcDbEntity
  8
0
100
AcDbLine
 10
2283.29520738737
 20
1566.4856508766445
 30
0.0
 11
2283.366511104969
 21
1566.4485601535885
 31
0.0
  0
LINE
  5
FE
330
17
100
AcDbEntity
  8
0
100
AcDbLine
 10
2283.366511104969
 20
1566.4485601535885
 30
0.0
 11
2283.431206705242
 21
1566.4046481481314
 31
0.0
  0
LINE
  5
FF
330
17
100
AcDbEntity
  8
0
100
AcDbLine
 10
2283.431206705242
 20
1566.4046481481314
 30
0.0
 11
2283.4892941881885
 21
1566.3539148602733
 31
0.0
  0
LINE
  5
100
330
17
100
AcDbEntity
  8
0
100
AcDbLine
 10
2283.4892941881885
 20
1566.3539148602733
 30
0.0
 11
2283.5407735538092
 21
1566.2963602900143
 31
0.0
  0
LINE
  5
101
330
17
100
AcDbEntity
  8
0
100
AcDbLine
 10
2283.5407735538092
 20
1566.2963602900143
 30
0.0
 11
2283.586337588598
 21
1566.2322508936977
 31
0.0
  0
LINE
  5
102
330
17
100
AcDbEntity
  8
0
100
AcDbLine
 10
2283.586337588598
 20
1566.2322508936977
 30
0.0
 11
2283.626679079048
 21
1566.1618531276677
 31
0.0
  0
LINE
  5
103
330
17
100
AcDbEntity
  8
0
100
AcDbLine
 10
2283.626679079048
 20
1566.1618531276677
 30
0.0
 11
2283.66179802516
 21
1566.085166991924
 31
0.0
  0
LINE
  5
104
330
17
100
AcDbEntity
  8
0
100
AcDbLine
 10
2283.66179802516
 20
1566.085166991924
 30
0.0
 11
2283.6916944269333
 21
1566.002192486467
 31
0.0
  0
LINE
  5
105
330
17
100
AcDbEntity
  8
0
100
AcDbLine
 10
2283.6916944269333
 20
1566.002192486467
 30
0.0
 11
2283.7155689153374
 21
1565.914581640628
 31
0.0
  0
LINE
  5
106
330
17
100
AcDbEntity
  8
0
100
AcDbLine
 10
2283.7155689153374
 20
1565.914581640628
 30
0.0
 11
2283.73262212134
 21
1565.8239864837387
 31
0.0
  0
LINE
  5
107
330
17
100
AcDbEntity
  8
0
100
AcDbLine
 10
2283.73262212134
 20
1565.8239864837387
 30
0.0
 11
2283.742854044942
 21
1565.7304070157986
 31
0.0
  0
LINE
  5
108
330
17
100
AcDbEntity
  8
0
100
AcDbLine
 10
2283.742854044942
 20
1565.7304070157986
 30
0.0
 11
2283.7462646861422
 21
1565.6338432368082
 31
0.0
  0
LINE
  5
109
330
17
100
AcDbEntity
  8
0
100
AcDbLine
 10
2283.7462646861422
 20
1565.6338432368082
 30
0.0
 11
2283.7318760435774
 21
1565.414283209523
 31
0.0
  0
LINE
  5
10A
330
17
100
AcDbEntity
  8
0
100
AcDbLine
 10
2283.7318760435774
 20
1565.414283209523
 30
0.0
 11
2283.688710115883
 21
1565.2211556515422
 31
0.0
  0
LINE
  5
10B
330
17
100
AcDbEntity
  8
0
100
AcDbLine
 10
2283.688710115883
 20
1565.2211556515422
 30
0.0
 11
2283.616766903059
 21
1565.0544605628654
 31
0.0
  0
LINE
  5
10C
330
17
100
AcDbEntity
  8
0
100
AcDbLine
 10
2283.616766903059
 20
1565.0544605628654
 30
0.0
 11
2283.5160464051055
 21
1564.914197943493
 31
0.0
  0
LINE
  5
10D
330
17
100
AcDbEntity
  8
0
100
AcDbLine
 10
2283.5160464051055
 20
1564.914197943493
 30
0.0
 11
2283.395181807561
 21
1564.8030323568628
 31
0.0
  0
LINE
  5
10E
330
17
100
AcDbEntity
  8
0
100
AcDbLine
 10
2283.395181807561
 20
1564.8030323568628
 30
0.0
 11
2283.2628062959648
 21
1564.7236283664126
 31
0.0
  0
LINE
  5
10F
330
17
100
AcDbEntity
  8
0
100
AcDbLine
 10
2283.2628062959648
 20
1564.7236283664126
 30
0.0
 11
2283.118919870317
 21
1564.6759859721424
 31
0.0
  0
LINE
  5
110
330
17
100
AcDbEntity
  8
0
100
AcDbLine
 10
2283.118919870317
 20
1564.6759859721424
 30
0.0
 11
2282.963522530617
 21
1564.6601051740524
 31
0.0
  0
LINE
  5
111
330
17
100
AcDbEntity
  8
0
100
AcDbLine
 10
2282.963522530617
 20
1564.6601051740524
 30
0.0
 11
2282.81185557973
 21
1564.6768386324427
 31
0.0
  0
LINE
  5
112
330
17
100
AcDbEntity
  8
0
100
AcDbLine
 10
2282.81185557973
 20
1564.6768386324427
 30
0.0
 11
2282.6774549999213
 21
1564.7270390076133
 31
0.0
  0
LINE
  5
113
330
17
100
AcDbEntity
  8
0
100
AcDbLine
 10
2282.6774549999213
 20
1564.7270390076133
 30
0.0
 11
2282.56032079119
 21
1564.8107062995641
 31
0.0
  0
LINE
  5
114
330
17
100
AcDbEntity
  8
0
100
AcDbLine
 10
2282.56032079119
 20
1564.8107062995641
 30
0.0
 11
2282.4604529535363
 21
1564.9278405082953
 31
0.0
  0
LINE
  5
115
330
17
100
AcDbEntity
  8
0
100
AcDbLine
 10
2282.4604529535363
 20
1564.9278405082953
 30
0.0
 11
2282.4604529535363
 21
1564.701032868459
 31
0.0
  0
LINE
  5
116
330
17
100
AcDbEntity
  8
0
100
AcDbLine
 10
2282.457042312336
 20
1565.620200672006
 30
0.0
 11
2282.462584604287
 21
1565.4686403036567
 31
0.0
  0
LINE
  5
117
330
17
100
AcDbEntity
  8
0
100
AcDbLine
 10
2282.462584604287
 20
1565.4686403036567
 30
0.0
 11
2282.4792114801394
 21
1565.3396754332612
 31
0.0
  0
LINE
  5
118
330
17
100
AcDbEntity
  8
0
100
AcDbLine
 10
2282.4792114801394
 20
1565.3396754332612
 30
0.0
 11
2282.506922939894
 21
1565.2333060608191
 31
0.0
  0
LINE
  5
119
330
17
100
AcDbEntity
  8
0
100
AcDbLine
 10
2282.506922939894
 20
1565.2333060608191
 30
0.0
 11
2282.54571898355
 21
1565.1495321863306
 31
0.0
  0
LINE
  5
11A
330
17
100
AcDbEntity
  8
0
100
AcDbLine
 10
2282.54571898355
 20
1565.1495321863306
 30
0.0
 11
2282.624590061313
 21
1565.0458273773265
 31
0.0
  0
LINE
  5
11B
330
17
100
AcDbEntity
  8
0
100
AcDbLine
 10
2282.624590061313
 20
1565.0458273773265
 30
0.0
 11
2282.7162510435774
 21
1564.9717525137523
 31
0.0
  0
LINE
  5
11C
330
17
100
AcDbEntity
  8
0
100
AcDbLine
 10
2282.7162510435774
 20
1564.9717525137523
 30
0.0
 11
2282.820701930344
 21
1564.9273075956078
 31
0.0
  0
LINE
  5
11D
330
17
100
AcDbEntity
  8
0
100
AcDbLine
 10
2282.820701930344
 20
1564.9273075956078
 30
0.0
 11
2282.9379427216127
 21
1564.9124926228928
 31
0.0
  0
LINE
  5
11E
330
17
100
AcDbEntity
  8
0
100
AcDbLine
 10
2282.9379427216127
 20
1564.9124926228928
 30
0.0
 11
2283.0351459958283
 21
1564.9234173329883
 31
0.0
  0
LINE
  5
11F
330
17
100
AcDbEntity
  8
0
100
AcDbLine
 10
2283.0351459958283
 20
1564.9234173329883
 30
0.0
 11
2283.125527987643
 21
1564.9561914632748
 31
0.0
  0
LINE
  5
120
330
17
100
AcDbEntity
  8
0
100
AcDbLine
 10
2283.125527987643
 20
1564.9561914632748
 30
0.0
 11
2283.2090886970564
 21
1565.0108150137523
 31
0.0
  0
LINE
  5
121
330
17
100
AcDbEntity
  8
0
100
AcDbLine
 10
2283.2090886970564
 20
1565.0108150137523
 30
0.0
 11
2283.2858281240688
 21
1565.0872879844208
 31
0.0
  0
LINE
  5
122
330
17
100
AcDbEntity
  8
0
100
AcDbLine
 10
2283.2858281240688
 20
1565.0872879844208
 30
0.0
 11
2283.3499908116537
 21
1565.185397210205
 31
0.0
  0
LINE
  5
123
330
17
100
AcDbEntity
  8
0
100
AcDbLine
 10
2283.3499908116537
 20
1565.185397210205
 30
0.0
 11
2283.3958213027863
 21
1565.3049295260305
 31
0.0
  0
LINE
  5
124
330
17
100
AcDbEntity
  8
0
100
AcDbLine
 10
2283.3958213027863
 20
1565.3049295260305
 30
0.0
 11
2283.4233195974653
 21
1565.445884931897
 31
0.0
  0
LINE
  5
125
330
17
100
AcDbEntity
  8
0
100
AcDbLine
 10
2283.4233195974653
 20
1565.445884931897
 30
0.0
 11
2283.432485695692
 21
1565.608263427804
 31
0.0
  0
LINE
  5
126
330
17
100
AcDbEntity
  8
0
100
AcDbLine
 10
2283.432485695692
 20
1565.608263427804
 30
0.0
 11
2283.423692636347
 21
1565.773999273643
 31
0.0
  0
LINE
  5
127
330
17
100
AcDbEntity
  8
0
100
AcDbLine
 10
2283.423692636347
 20
1565.773999273643
 30
0.0
 11
2283.397313458311
 21
1565.9165001263034
 31
0.0
  0
LINE
  5
128
330
17
100
AcDbEntity
  8
0
100
AcDbLine
 10
2283.397313458311
 20
1565.9165001263034
 30
0.0
 11
2283.3533481615855
 21
1566.0357659857848
 31
0.0
  0
LINE
  5
129
330
17
100
AcDbEntity
  8
0
100
AcDbLine
 10
2283.3533481615855
 20
1566.0357659857848
 30
0.0
 11
2283.2917967461694
 21
1566.1317968520877
 31
0.0
  0
LINE
  5
12A
330
17
100
AcDbEntity
  8
0
100
AcDbLine
 10
2283.2917967461694
 20
1566.1317968520877
 30
0.0
 11
2283.217775173864
 21
1566.205658550587
 31
0.0
  0
LINE
  5
12B
330
17
100
AcDbEntity
  8
0
100
AcDbLine
 10
2283.217775173864
 20
1566.205658550587
 30
0.0
 11
2283.1363994064695
 21
1566.258416906658
 31
0.0
  0
LINE
  5
12C
330
17
100
AcDbEntity
  8
0
100
AcDbLine
 10
2283.1363994064695
 20
1566.258416906658
 30
0.0
 11
2283.0476694439867
 21
1566.2900719203005
 31
0.0
  0
LINE
  5
12D
330
17
100
AcDbEntity
  8
0
100
AcDbLine
 10
2283.0476694439867
 20
1566.2900719203005
 30
0.0
 11
2282.951585286415
 21
1566.3006235915147
 31
0.0
  0
LINE
  5
12E
330
17
100
AcDbEntity
  8
0
100
AcDbLine
 10
2282.951585286415
 20
1566.3006235915147
 30
0.0
 11
2282.8543820121995
 21
1566.2896988814193
 31
0.0
  0
LINE
  5
12F
330
17
100
AcDbEntity
  8
0
100
AcDbLine
 10
2282.8543820121995
 20
1566.2896988814193
 30
0.0
 11
2282.764000020385
 21
1566.2569247511328
 31
0.0
  0
LINE
  5
130
330
17
100
AcDbEntity
  8
0
100
AcDbLine
 10
2282.764000020385
 20
1566.2569247511328
 30
0.0
 11
2282.680439310972
 21
1566.2023012006553
 31
0.0
  0
LINE
  5
131
330
17
100
AcDbEntity
  8
0
100
AcDbLine
 10
2282.680439310972
 20
1566.2023012006553
 30
0.0
 11
2282.6036998839595
 21
1566.1258282299868
 31
0.0
  0
LINE
  5
132
330
17
100
AcDbEntity
  8
0
100
AcDbLine
 10
2282.6036998839595
 20
1566.1258282299868
 30
0.0
 11
2282.539537196374
 21
1566.02867824704
 31
0.0
  0
LINE
  5
133
330
17
100
AcDbEntity
  8
0
100
AcDbLine
 10
2282.539537196374
 20
1566.02867824704
 30
0.0
 11
2282.493706705242
 21
1565.9120236597278
 31
0.0
  0
LINE
  5
134
330
17
100
AcDbEntity
  8
0
100
AcDbLine
 10
2282.493706705242
 20
1565.9120236597278
 30
0.0
 11
2282.4662084105626
 21
1565.7758644680496
 31
0.0
  0
LINE
  5
135
330
17
100
AcDbEntity
  8
0
100
AcDbLine
 10
2282.4662084105626
 20
1565.7758644680496
 30
0.0
 11
2282.457042312336
 21
1565.620200672006
 31
0.0
  0
ENDSEC
  0
SECTION
  2
OBJECTS
  0
DICTIONARY
  5
A
330
0
100
AcDbDictionary
280
0
281
1
  3
ACAD_COLOR
350
B
  3
ACAD_GROUP
350
C
  3
ACAD_LAYOUT
350
D
  3
ACAD_MATERIAL
350
E
  3
ACAD_MLEADERSTYLE
350
F
  3
ACAD_MLINESTYLE
350
10
  3
ACAD_PLOTSETTINGS
350
11
  3
ACAD_PLOTSTYLENAME
350
12
  3
ACAD_SCALELIST
350
14
  3
ACAD_TABLESTYLE
350
15
  3
ACAD_VISUALSTYLE
350
16
  3
EZDXF_META
350
2D
  0
DICTIONARY
  5
B
330
A
100
AcDbDictionary
280
0
281
1
  0
DICTIONARY
  5
C
330
A
100
AcDbDictionary
280
0
281
1
  0
DICTIONARY
  5
D
330
A
100
AcDbDictionary
280
0
281
1
  3
Model
350
1A
  3
Layout1
350
1E
  0
DICTIONARY
  5
E
330
A
100
AcDbDictionary
280
0
281
1
  3
ByBlock
350
1F
  3
ByLayer
350
20
  3
Global
350
21
  0
DICTIONARY
  5
F
330
A
100
AcDbDictionary
280
0
281
1
  3
Standard
350
2C
  0
DICTIONARY
  5
10
330
A
100
AcDbDictionary
280
0
281
1
  3
Standard
350
22
  0
DICTIONARY
  5
11
330
A
100
AcDbDictionary
280
0
281
1
  0
ACDBDICTIONARYWDFLT
  5
12
330
A
100
AcDbDictionary
280
0
281
1
  3
Normal
350
13
100
AcDbDictionaryWithDefault
340
13
  0
ACDBPLACEHOLDER
  5
13
330
12
  0
DICTIONARY
  5
14
330
A
100
AcDbDictionary
280
0
281
1
  0
DICTIONARY
  5
15
330
A
100
AcDbDictionary
280
0
281
1
  0
DICTIONARY
  5
16
330
A
100
AcDbDictionary
280
0
281
1
  0
LAYOUT
  5
1A
330
D
100
AcDbPlotSettings
  1

  2
Adobe PDF
  4
A3
  6

 40
7.5
 41
20.0
 42
7.5
 43
20.0
 44
420.0
 45
297.0
 46
0.0
 47
0.0
 48
0.0
 49
0.0
140
0.0
141
0.0
142
1.0
143
1.0
 70
1024
 72
1
 73
0
 74
5
  7

 75
16
 76
0
 77
2
 78
300
147
1.0
148
0.0
149
0.0
100
AcDbLayout
  1
Model
 70
1
 71
0
 10
0.0
 20
0.0
 11
420.0
 21
297.0
 12
0.0
 22
0.0
 32
0.0
 14
1e+20
 24
1e+20
 34
1e+20
 15
-1e+20
 25
-1e+20
 35
-1e+20
146
0.0
 13
0.0
 23
0.0
 33
0.0
 16
1.0
 26
0.0
 36
0.0
 17
0.0
 27
1.0
 37
0.0
 76
1
330
17
  0
LAYOUT
  5
1E
330
D
100
AcDbPlotSettings
  1

  2
Adobe PDF
  4
A3
  6

 40
7.5
 41
20.0
 42
7.5
 43
20.0
 44
420.0
 45
297.0
 46
0.0
 47
0.0
 48
0.0
 49
0.0
140
0.0
141
0.0
142
1.0
143
1.0
 70
0
 72
1
 73
0
 74
5
  7

 75
16
 76
0
 77
2
 78
300
147
1.0
148
0.0
149
0.0
100
AcDbLayout
  1
Layout1
 70
1
 71
1
 10
0.0
 20
0.0
 11
420.0
 21
297.0
 12
0.0
 22
0.0
 32
0.0
 14
1e+20
 24
1e+20
 34
1e+20
 15
-1e+20
 25
-1e+20
 35
-1e+20
146
0.0
 13
0.0
 23
0.0
 33
0.0
 16
1.0
 26
0.0
 36
0.0
 17
0.0
 27
1.0
 37
0.0
 76
1
330
1B
  0
MATERIAL
  5
1F
102
{ACAD_REACTORS
330
E
102
}
330
E
100
AcDbMaterial
  1
ByBlock
  2

 70
0
 40
1.0
 71
1
 41
1.0
 91
-1023410177
 42
1.0
 72
1
  3

 73
1
 74
1
 75
1
 44
0.5
 73
0
 45
1.0
 46
1.0
 77
1
  4

 78
1
 79
1
170
1
 48
1.0
171
1
  6

172
1
173
1
174
1
140
1.0
141
1.0
175
1
  7

176
1
177
1
178
1
143
1.0
179
1
  8

270
1
271
1
272
1
145
1.0
146
1.0
273
1
  9

274
1
275
1
276
1
 42
1.0
 72
1
  3

 73
1
 74
1
 75
1
 94
63
  0
MATERIAL
  5
20
102
{ACAD_REACTORS
330
E
102
}
330
E
100
AcDbMaterial
  1
ByLayer
  2

 70
0
 40
1.0
 71
1
 41
1.0
 91
-1023410177
 42
1.0
 72
1
  3

 73
1
 74
1
 75
1
 44
0.5
 73
0
 45
1.0
 46
1.0
 77
1
  4

 78
1
 79
1
170
1
 48
1.0
171
1
  6

172
1
173
1
174
1
140
1.0
141
1.0
175
1
  7

176
1
177
1
178
1
143
1.0
179
1
  8

270
1
271
1
272
1
145
1.0
146
1.0
273
1
  9

274
1
275
1
276
1
 42
1.0
 72
1
  3

 73
1
 74
1
 75
1
 94
63
  0
MATERIAL
  5
21
102
{ACAD_REACTORS
330
E
102
}
330
E
100
AcDbMaterial
  1
Global
  2

 70
0
 40
1.0
 71
1
 41
1.0
 91
-1023410177
 42
1.0
 72
1
  3

 73
1
 74
1
 75
1
 44
0.5
 73
0
 45
1.0
 46
1.0
 77
1
  4

 78
1
 79
1
170
1
 48
1.0
171
1
  6

172
1
173
1
174
1
140
1.0
141
1.0
175
1
  7

176
1
177
1
178
1
143
1.0
179
1
  8

270
1
271
1
272
1
145
1.0
146
1.0
273
1
  9

274
1
275
1
276
1
 42
1.0
 72
1
  3

 73
1
 74
1
 75
1
 94
63
  0
MLINESTYLE
  5
22
102
{ACAD_REACTORS
330
10
102
}
330
10
100
AcDbMlineStyle
  2
Standard
 70
0
  3

 62
256
 51
90.0
 52
90.0
 71
2
 49
0.5
 62
256
  6
BYLAYER
 49
-0.5
 62
256
  6
BYLAYER
  0
MLEADERSTYLE
  5
2C
102
{ACAD_REACTORS
330
F
102
}
330
F
100
AcDbMLeaderStyle
179
2
170
2
171
1
172
0
 90
2
 40
0.0
 41
0.0
173
1
 91
-1056964608
 92
-2
290
1
 42
2.0
291
1
 43
8.0
  3
Standard
 44
4.0
300

342
29
174
1
175
1
176
0
178
1
 93
-1056964608
 45
4.0
292
0
297
0
 46
4.0
 94
-1056964608
 47
1.0
 49
1.0
140
1.0
294
1
141
0.0
177
0
142
1.0
295
0
296
0
143
3.75
271
0
272
9
273
9
  0
DICTIONARY
  5
2D
330
A
100
AcDbDictionary
281
1
  3
CREATED_BY_EZDXF
350
2E
  3
WRITTEN_BY_EZDXF
350
138
  0
DICTIONARYVAR
  5
2E
330
2D
100
DictionaryVariables
280
0
  1
1.2.0 @ 2024-04-29T14:16:01.290532+00:00
  0
DICTIONARYVAR
  5
138
330
2D
100
DictionaryVariables
280
0
  1
1.2.0 @ 2024-04-29T14:16:01.294526+00:00
  0
ENDSEC
  0
EOF
