  0
SECTION
  2
HEADER
  9
$ACADVER
  1
AC1027
  9
$ACADMAINTVER
 70
105
  9
$DWGCODEPAGE
  3
ANSI_1252
  9
$LASTSAVEDBY
  1
ezdxf
  9
$REQUIREDVERSIONS
160
0
  9
$INSBASE
 10
0.0
 20
0.0
 30
0.0
  9
$EXTMIN
 10
1e+20
 20
1e+20
 30
1e+20
  9
$EXTMAX
 10
-1e+20
 20
-1e+20
 30
-1e+20
  9
$LIMMIN
 10
0.0
 20
0.0
  9
$LIMMAX
 10
420.0
 20
297.0
  9
$ORTHOMODE
 70
0
  9
$REGENMODE
 70
1
  9
$FILLMODE
 70
1
  9
$QTEXTMODE
 70
0
  9
$MIRRTEXT
 70
1
  9
$LTSCALE
 40
1.0
  9
$ATTMODE
 70
1
  9
$TEXTSIZE
 40
2.5
  9
$TRACEWID
 40
1.0
  9
$TEXTSTYLE
  7
Standard
  9
$CLAYER
  8
0
  9
$CELTYPE
  6
ByLayer
  9
$CECOLOR
 62
256
  9
$CELTSCALE
 40
1.0
  9
$DISPSILH
 70
0
  9
$DIMSCALE
 40
1.0
  9
$DIMASZ
 40
2.5
  9
$DIMEXO
 40
0.625
  9
$DIMDLI
 40
3.75
  9
$DIMRND
 40
0.0
  9
$DIMDLE
 40
0.0
  9
$DIMEXE
 40
1.25
  9
$DIMTP
 40
0.0
  9
$DIMTM
 40
0.0
  9
$DIMTXT
 40
2.5
  9
$DIMCEN
 40
2.5
  9
$DIMTSZ
 40
0.0
  9
$DIMTOL
 70
0
  9
$DIMLIM
 70
0
  9
$DIMTIH
 70
0
  9
$DIMTOH
 70
0
  9
$DIMSE1
 70
0
  9
$DIMSE2
 70
0
  9
$DIMTAD
 70
1
  9
$DIMZIN
 70
8
  9
$DIMBLK
  1

  9
$DIMASO
 70
1
  9
$DIMSHO
 70
1
  9
$DIMPOST
  1

  9
$DIMAPOST
  1

  9
$DIMALT
 70
0
  9
$DIMALTD
 70
3
  9
$DIMALTF
 40
0.03937007874
  9
$DIMLFAC
 40
1.0
  9
$DIMTOFL
 70
1
  9
$DIMTVP
 40
0.0
  9
$DIMTIX
 70
0
  9
$DIMSOXD
 70
0
  9
$DIMSAH
 70
0
  9
$DIMBLK1
  1

  9
$DIMBLK2
  1

  9
$DIMSTYLE
  2
ISO-25
  9
$DIMCLRD
 70
0
  9
$DIMCLRE
 70
0
  9
$DIMCLRT
 70
0
  9
$DIMTFAC
 40
1.0
  9
$DIMGAP
 40
0.625
  9
$DIMJUST
 70
0
  9
$DIMSD1
 70
0
  9
$DIMSD2
 70
0
  9
$DIMTOLJ
 70
0
  9
$DIMTZIN
 70
8
  9
$DIMALTZ
 70
0
  9
$DIMALTTZ
 70
0
  9
$DIMUPT
 70
0
  9
$DIMDEC
 70
2
  9
$DIMTDEC
 70
2
  9
$DIMALTU
 70
2
  9
$DIMALTTD
 70
3
  9
$DIMTXSTY
  7
Standard
  9
$DIMAUNIT
 70
0
  9
$DIMADEC
 70
0
  9
$DIMALTRND
 40
0.0
  9
$DIMAZIN
 70
0
  9
$DIMDSEP
 70
44
  9
$DIMATFIT
 70
3
  9
$DIMFRAC
 70
0
  9
$DIMLDRBLK
  1

  9
$DIMLUNIT
 70
2
  9
$DIMLWD
 70
-2
  9
$DIMLWE
 70
-2
  9
$DIMTMOVE
 70
0
  9
$DIMFXL
 40
1.0
  9
$DIMFXLON
 70
0
  9
$DIMJOGANG
 40
0.785398163397
  9
$DIMTFILL
 70
0
  9
$DIMTFILLCLR
 70
0
  9
$DIMARCSYM
 70
0
  9
$DIMLTYPE
  6

  9
$DIMLTEX1
  6

  9
$DIMLTEX2
  6

  9
$DIMTXTDIRECTION
 70
0
  9
$LUNITS
 70
2
  9
$LUPREC
 70
4
  9
$SKETCHINC
 40
1.0
  9
$FILLETRAD
 40
10.0
  9
$AUNITS
 70
0
  9
$AUPREC
 70
2
  9
$MENU
  1
.
  9
$ELEVATION
 40
0.0
  9
$PELEVATION
 40
0.0
  9
$THICKNESS
 40
0.0
  9
$LIMCHECK
 70
0
  9
$CHAMFERA
 40
0.0
  9
$CHAMFERB
 40
0.0
  9
$CHAMFERC
 40
0.0
  9
$CHAMFERD
 40
0.0
  9
$SKPOLY
 70
0
  9
$TDCREATE
 40
2460431.370636574
  9
$TDUCREATE
 40
2458532.153996898
  9
$TDUPDATE
 40
2460431.370636574
  9
$TDUUPDATE
 40
2458532.1544311
  9
$TDINDWG
 40
0.0
  9
$TDUSRTIMER
 40
0.0
  9
$USRTIMER
 70
1
  9
$ANGBASE
 50
0.0
  9
$ANGDIR
 70
0
  9
$PDMODE
 70
0
  9
$PDSIZE
 40
0.0
  9
$PLINEWID
 40
0.0
  9
$SPLFRAME
 70
0
  9
$SPLINETYPE
 70
6
  9
$SPLINESEGS
 70
8
  9
$HANDSEED
  5
139
  9
$SURFTAB1
 70
6
  9
$SURFTAB2
 70
6
  9
$SURFTYPE
 70
6
  9
$SURFU
 70
6
  9
$SURFV
 70
6
  9
$UCSBASE
  2

  9
$UCSNAME
  2

  9
$UCSORG
 10
0.0
 20
0.0
 30
0.0
  9
$UCSXDIR
 10
1.0
 20
0.0
 30
0.0
  9
$UCSYDIR
 10
0.0
 20
1.0
 30
0.0
  9
$UCSORTHOREF
  2

  9
$UCSORTHOVIEW
 70
0
  9
$UCSORGTOP
 10
0.0
 20
0.0
 30
0.0
  9
$UCSORGBOTTOM
 10
0.0
 20
0.0
 30
0.0
  9
$UCSORGLEFT
 10
0.0
 20
0.0
 30
0.0
  9
$UCSORGRIGHT
 10
0.0
 20
0.0
 30
0.0
  9
$UCSORGFRONT
 10
0.0
 20
0.0
 30
0.0
  9
$UCSORGBACK
 10
0.0
 20
0.0
 30
0.0
  9
$PUCSBASE
  2

  9
$PUCSNAME
  2

  9
$PUCSORG
 10
0.0
 20
0.0
 30
0.0
  9
$PUCSXDIR
 10
1.0
 20
0.0
 30
0.0
  9
$PUCSYDIR
 10
0.0
 20
1.0
 30
0.0
  9
$PUCSORTHOREF
  2

  9
$PUCSORTHOVIEW
 70
0
  9
$PUCSORGTOP
 10
0.0
 20
0.0
 30
0.0
  9
$PUCSORGBOTTOM
 10
0.0
 20
0.0
 30
0.0
  9
$PUCSORGLEFT
 10
0.0
 20
0.0
 30
0.0
  9
$PUCSORGRIGHT
 10
0.0
 20
0.0
 30
0.0
  9
$PUCSORGFRONT
 10
0.0
 20
0.0
 30
0.0
  9
$PUCSORGBACK
 10
0.0
 20
0.0
 30
0.0
  9
$USERI1
 70
0
  9
$USERI2
 70
0
  9
$USERI3
 70
0
  9
$USERI4
 70
0
  9
$USERI5
 70
0
  9
$USERR1
 40
0.0
  9
$USERR2
 40
0.0
  9
$USERR3
 40
0.0
  9
$USERR4
 40
0.0
  9
$USERR5
 40
0.0
  9
$WORLDVIEW
 70
1
  9
$SHADEDGE
 70
3
  9
$SHADEDIF
 70
70
  9
$TILEMODE
 70
1
  9
$MAXACTVP
 70
64
  9
$PINSBASE
 10
0.0
 20
0.0
 30
0.0
  9
$PLIMCHECK
 70
0
  9
$PEXTMIN
 10
1e+20
 20
1e+20
 30
1e+20
  9
$PEXTMAX
 10
-1e+20
 20
-1e+20
 30
-1e+20
  9
$PLIMMIN
 10
0.0
 20
0.0
  9
$PLIMMAX
 10
420.0
 20
297.0
  9
$UNITMODE
 70
0
  9
$VISRETAIN
 70
1
  9
$PLINEGEN
 70
0
  9
$PSLTSCALE
 70
1
  9
$TREEDEPTH
 70
3020
  9
$CMLSTYLE
  2
Standard
  9
$CMLJUST
 70
0
  9
$CMLSCALE
 40
20.0
  9
$PROXYGRAPHICS
 70
1
  9
$MEASUREMENT
 70
1
  9
$CELWEIGHT
370
-1
  9
$ENDCAPS
280
0
  9
$JOINSTYLE
280
0
  9
$LWDISPLAY
290
0
  9
$INSUNITS
 70
6
  9
$HYPERLINKBASE
  1

  9
$STYLESHEET
  1

  9
$XEDIT
290
1
  9
$CEPSNTYPE
380
0
  9
$PSTYLEMODE
290
1
  9
$FINGERPRINTGUID
  2
{EFDF110A-F9FF-47B6-9452-11D4F1EA059E}
  9
$VERSIONGUID
  2
{5773FE02-02C8-4485-90A9-CCE60C194511}
  9
$EXTNAMES
290
1
  9
$PSVPSCALE
 40
0.0
  9
$OLESTARTUP
290
0
  9
$SORTENTS
280
127
  9
$INDEXCTL
280
0
  9
$HIDETEXT
280
1
  9
$XCLIPFRAME
280
2
  9
$HALOGAP
280
0
  9
$OBSCOLOR
 70
257
  9
$OBSLTYPE
280
0
  9
$INTERSECTIONDISPLAY
280
0
  9
$INTERSECTIONCOLOR
 70
257
  9
$DIMASSOC
280
2
  9
$PROJECTNAME
  1

  9
$CAMERADISPLAY
290
0
  9
$LENSLENGTH
 40
50.0
  9
$CAMERAHEIGHT
 40
0.0
  9
$STEPSPERSEC
 40
24.0
  9
$STEPSIZE
 40
100.0
  9
$3DDWFPREC
 40
2.0
  9
$PSOLWIDTH
 40
0.005
  9
$PSOLHEIGHT
 40
0.08
  9
$LOFTANG1
 40
1.570796326795
  9
$LOFTANG2
 40
1.570796326795
  9
$LOFTMAG1
 40
0.0
  9
$LOFTMAG2
 40
0.0
  9
$LOFTPARAM
 70
7
  9
$LOFTNORMALS
280
1
  9
$LATITUDE
 40
37.795
  9
$LONGITUDE
 40
-122.394
  9
$NORTHDIRECTION
 40
0.0
  9
$TIMEZONE
 70
-8000
  9
$LIGHTGLYPHDISPLAY
280
1
  9
$TILEMODELIGHTSYNCH
280
1
  9
$CMATERIAL
347
20
  9
$SOLIDHIST
280
0
  9
$SHOWHIST
280
1
  9
$DWFFRAME
280
2
  9
$DGNFRAME
280
2
  9
$REALWORLDSCALE
290
1
  9
$INTERFERECOLOR
 62
256
  9
$CSHADOW
280
0
  9
$SHADOWPLANELOCATION
 40
0.0
  0
ENDSEC
  0
SECTION
  2
CLASSES
  0
CLASS
  1
ACDBDICTIONARYWDFLT
  2
AcDbDictionaryWithDefault
  3
ObjectDBX Classes
 90
0
 91
0
280
0
281
0
  0
CLASS
  1
SUN
  2
AcDbSun
  3
SCENEOE
 90
1153
 91
0
280
0
281
0
  0
CLASS
  1
VISUALSTYLE
  2
AcDbVisualStyle
  3
ObjectDBX Classes
 90
4095
 91
0
280
0
281
0
  0
CLASS
  1
MATERIAL
  2
AcDbMaterial
  3
ObjectDBX Classes
 90
1153
 91
0
280
0
281
0
  0
CLASS
  1
SCALE
  2
AcDbScale
  3
ObjectDBX Classes
 90
1153
 91
0
280
0
281
0
  0
CLASS
  1
TABLESTYLE
  2
AcDbTableStyle
  3
ObjectDBX Classes
 90
4095
 91
0
280
0
281
0
  0
CLASS
  1
MLEADERSTYLE
  2
AcDbMLeaderStyle
  3
ACDB_MLEADERSTYLE_CLASS
 90
4095
 91
0
280
0
281
0
  0
CLASS
  1
DICTIONARYVAR
  2
AcDbDictionaryVar
  3
ObjectDBX Classes
 90
0
 91
0
280
0
281
0
  0
CLASS
  1
CELLSTYLEMAP
  2
AcDbCellStyleMap
  3
ObjectDBX Classes
 90
1152
 91
0
280
0
281
0
  0
CLASS
  1
MENTALRAYRENDERSETTINGS
  2
AcDbMentalRayRenderSettings
  3
SCENEOE
 90
1024
 91
0
280
0
281
0
  0
CLASS
  1
ACDBDETAILVIEWSTYLE
  2
AcDbDetailViewStyle
  3
ObjectDBX Classes
 90
1025
 91
0
280
0
281
0
  0
CLASS
  1
ACDBSECTIONVIEWSTYLE
  2
AcDbSectionViewStyle
  3
ObjectDBX Classes
 90
1025
 91
0
280
0
281
0
  0
CLASS
  1
RASTERVARIABLES
  2
AcDbRasterVariables
  3
ISM
 90
0
 91
0
280
0
281
0
  0
CLASS
  1
ACDBPLACEHOLDER
  2
AcDbPlaceHolder
  3
ObjectDBX Classes
 90
0
 91
0
280
0
281
0
  0
CLASS
  1
LAYOUT
  2
AcDbLayout
  3
ObjectDBX Classes
 90
0
 91
0
280
0
281
0
  0
ENDSEC
  0
SECTION
  2
TABLES
  0
TABLE
  2
VPORT
  5
8
330
0
100
AcDbSymbolTable
 70
1
  0
VPORT
  5
23
330
8
100
AcDbSymbolTableRecord
100
AcDbViewportTableRecord
  2
*Active
 70
0
 10
0.0
 20
0.0
 11
1.0
 21
1.0
 12
0.0
 22
0.0
 13
0.0
 23
0.0
 14
0.5
 24
0.5
 15
0.5
 25
0.5
 16
0.0
 26
0.0
 36
1.0
 17
0.0
 27
0.0
 37
0.0
 40
1000.0
 41
1.34
 42
50.0
 43
0.0
 44
0.0
 50
0.0
 51
0.0
 71
0
 72
1000
 73
1
 74
3
 75
0
 76
0
 77
0
 78
0
281
0
 65
0
146
0.0
  0
ENDTAB
  0
TABLE
  2
LTYPE
  5
2
330
0
100
AcDbSymbolTable
 70
3
  0
LTYPE
  5
24
330
2
100
AcDbSymbolTableRecord
100
AcDbLinetypeTableRecord
  2
ByBlock
 70
0
  3

 72
65
 73
0
 40
0.0
  0
LTYPE
  5
25
330
2
100
AcDbSymbolTableRecord
100
AcDbLinetypeTableRecord
  2
ByLayer
 70
0
  3

 72
65
 73
0
 40
0.0
  0
LTYPE
  5
26
330
2
100
AcDbSymbolTableRecord
100
AcDbLinetypeTableRecord
  2
Continuous
 70
0
  3

 72
65
 73
0
 40
0.0
  0
ENDTAB
  0
TABLE
  2
LAYER
  5
1
330
0
100
AcDbSymbolTable
 70
2
  0
LAYER
  5
27
330
1
100
AcDbSymbolTableRecord
100
AcDbLayerTableRecord
  2
0
 70
0
 62
7
  6
Continuous
370
-3
390
13
347
21
  0
LAYER
  5
28
330
1
100
AcDbSymbolTableRecord
100
AcDbLayerTableRecord
  2
Defpoints
 70
0
 62
7
  6
Continuous
290
0
370
-3
390
13
347
21
  0
ENDTAB
  0
TABLE
  2
STYLE
  5
5
330
0
100
AcDbSymbolTable
 70
1
  0
STYLE
  5
29
330
5
100
AcDbSymbolTableRecord
100
AcDbTextStyleTableRecord
  2
Standard
 70
0
 40
0.0
 41
1.0
 50
0.0
 71
0
 42
2.5
  3
txt
  4

  0
ENDTAB
  0
TABLE
  2
VIEW
  5
7
330
0
100
AcDbSymbolTable
 70
0
  0
ENDTAB
  0
TABLE
  2
UCS
  5
6
330
0
100
AcDbSymbolTable
 70
0
  0
ENDTAB
  0
TABLE
  2
APPID
  5
3
330
0
100
AcDbSymbolTable
 70
3
  0
APPID
  5
2A
330
3
100
AcDbSymbolTableRecord
100
AcDbRegAppTableRecord
  2
ACAD
 70
0
  0
APPID
  5
136
330
3
100
AcDbSymbolTableRecord
100
AcDbRegAppTableRecord
  2
HATCHBACKGROUNDCOLOR
 70
0
  0
APPID
  5
137
330
3
100
AcDbSymbolTableRecord
100
AcDbRegAppTableRecord
  2
EZDXF
 70
0
  0
ENDTAB
  0
TABLE
  2
DIMSTYLE
  5
4
330
0
100
AcDbSymbolTable
 70
1
100
AcDbDimStyleTable
  0
DIMSTYLE
105
2B
330
4
100
AcDbSymbolTableRecord
100
AcDbDimStyleTableRecord
  2
Standard
 70
0
 40
1.0
 41
2.5
 42
0.625
 43
3.75
 44
1.25
 45
0.0
 46
0.0
 47
0.0
 48
0.0
 49
2.5
140
2.5
141
2.5
142
0.0
143
0.03937007874
144
1.0
145
0.0
146
1.0
147
0.625
148
0.0
 69
0
 70
0
 71
0
 72
0
 73
0
 74
0
 75
0
 76
0
 77
1
 78
8
 79
3
170
0
171
3
172
1
173
0
174
0
175
0
176
0
177
0
178
0
179
2
271
2
272
2
273
2
274
3
275
0
276
0
277
2
278
44
279
0
280
0
281
0
282
0
283
0
284
8
285
0
286
0
288
0
289
3
290
0
371
-2
372
-2
  0
ENDTAB
  0
TABLE
  2
BLOCK_RECORD
  5
9
330
0
100
AcDbSymbolTable
 70
2
  0
BLOCK_RECORD
  5
17
330
9
100
AcDbSymbolTableRecord
100
AcDbBlockTableRecord
  2
*Model_Space
340
1A
 70
0
280
1
281
0
  0
BLOCK_RECORD
  5
1B
330
9
100
AcDbSymbolTableRecord
100
AcDbBlockTableRecord
  2
*Paper_Space
340
1E
 70
0
280
1
281
0
  0
ENDTAB
  0
ENDSEC
  0
SECTION
  2
BLOCKS
  0
BLOCK
  5
18
330
17
100
AcDbEntity
  8
0
100
AcDbBlockBegin
  2
*Model_Space
 70
0
 10
0.0
 20
0.0
 30
0.0
  3
*Model_Space
  1

  0
ENDBLK
  5
19
330
17
100
AcDbEntity
  8
0
100
AcDbBlockEnd
  0
BLOCK
  5
1C
330
1B
100
AcDbEntity
  8
0
100
AcDbBlockBegin
  2
*Paper_Space
 70
0
 10
0.0
 20
0.0
 30
0.0
  3
*Paper_Space
  1

  0
ENDBLK
  5
1D
330
1B
100
AcDbEntity
  8
0
100
AcDbBlockEnd
  0
ENDSEC
  0
SECTION
  2
ENTITIES
  0
LINE
  5
2F
330
17
100
AcDbEntity
  8
0
100
AcDbLine
 10
2275.68960842176
 20
1565.0806866194625
 30
0.0
 11
2275.4979421704707
 21
1564.8700481596034
 31
0.0
  0
LINE
  5
30
330
17
100
AcDbEntity
  8
0
100
AcDbLine
 10
2275.4979421704707
 20
1564.8700481596034
 30
0.0
 11
2273.6488644330243
 21
1566.552579443378
 31
0.0
  0
LINE
  5
31
330
17
100
AcDbEntity
  8
0
100
AcDbLine
 10
2273.6488644330243
 20
1566.552579443378
 30
0.0
 11
2273.8554508116595
 21
1566.7796149090943
 31
0.0
  0
LINE
  5
32
330
17
100
AcDbEntity
  8
0
100
AcDbLine
 10
2273.8554508116595
 20
1566.7796149090943
 30
0.0
 11
2274.51511497038
 21
1566.1793667089482
 31
0.0
  0
LINE
  5
33
330
17
100
AcDbEntity
  8
0
100
AcDbLine
 10
2274.51511497038
 20
1566.1793667089482
 30
0.0
 11
2274.506142476626
 21
1566.3280307867565
 31
0.0
  0
LINE
  5
34
330
17
100
AcDbEntity
  8
0
100
AcDbLine
 10
2274.506142476626
 20
1566.3280307867565
 30
0.0
 11
2274.5287540199906
 21
1566.4661124910892
 31
0.0
  0
LINE
  5
35
330
17
100
AcDbEntity
  8
0
100
AcDbLine
 10
2274.5287540199906
 20
1566.4661124910892
 30
0.0
 11
2274.5829496004744
 21
1566.5936118219463
 31
0.0
  0
LINE
  5
36
330
17
100
AcDbEntity
  8
0
100
AcDbLine
 10
2274.5829496004744
 20
1566.5936118219463
 30
0.0
 11
2274.6687292180773
 21
1566.7105287793281
 31
0.0
  0
LINE
  5
37
330
17
100
AcDbEntity
  8
0
100
AcDbLine
 10
2274.6687292180773
 20
1566.7105287793281
 30
0.0
 11
2274.7273272961224
 21
1566.768671755292
 31
0.0
  0
LINE
  5
38
330
17
100
AcDbEntity
  8
0
100
AcDbLine
 10
2274.7273272961224
 20
1566.768671755292
 30
0.0
 11
2274.790646724112
 21
1566.8194924851819
 31
0.0
  0
LINE
  5
39
330
17
100
AcDbEntity
  8
0
100
AcDbLine
 10
2274.790646724112
 20
1566.8194924851819
 30
0.0
 11
2274.8586875020465
 21
1566.8629909689982
 31
0.0
  0
LINE
  5
3A
330
17
100
AcDbEntity
  8
0
100
AcDbLine
 10
2274.8586875020465
 20
1566.8629909689982
 30
0.0
 11
2274.9314496299253
 21
1566.899167206741
 31
0.0
  0
LINE
  5
3B
330
17
100
AcDbEntity
  8
0
100
AcDbLine
 10
2274.9314496299253
 20
1566.899167206741
 30
0.0
 11
2275.0068713762366
 21
1566.926943132713
 31
0.0
  0
LINE
  5
3C
330
17
100
AcDbEntity
  8
0
100
AcDbLine
 10
2275.0068713762366
 20
1566.926943132713
 30
0.0
 11
2275.082891009468
 21
1566.945240681217
 31
0.0
  0
LINE
  5
3D
330
17
100
AcDbEntity
  8
0
100
AcDbLine
 10
2275.082891009468
 20
1566.945240681217
 30
0.0
 11
2275.15950852962
 21
1566.9540598522535
 31
0.0
  0
LINE
  5
3E
330
17
100
AcDbEntity
  8
0
100
AcDbLine
 10
2275.15950852962
 20
1566.9540598522535
 30
0.0
 11
2275.236723936692
 21
1566.9534006458223
 31
0.0
  0
LINE
  5
3F
330
17
100
AcDbEntity
  8
0
100
AcDbLine
 10
2275.236723936692
 20
1566.9534006458223
 30
0.0
 11
2275.314806405267
 21
1566.94395479681
 31
0.0
  0
LINE
  5
40
330
17
100
AcDbEntity
  8
0
100
AcDbLine
 10
2275.314806405267
 20
1566.94395479681
 30
0.0
 11
2275.394025109926
 21
1566.9264140401035
 31
0.0
  0
LINE
  5
41
330
17
100
AcDbEntity
  8
0
100
AcDbLine
 10
2275.394025109926
 20
1566.9264140401035
 30
0.0
 11
2275.4743800506703
 21
1566.9007783757027
 31
0.0
  0
LINE
  5
42
330
17
100
AcDbEntity
  8
0
100
AcDbLine
 10
2275.4743800506703
 20
1566.9007783757027
 30
0.0
 11
2275.555871227499
 21
1566.8670478036074
 31
0.0
  0
LINE
  5
43
330
17
100
AcDbEntity
  8
0
100
AcDbLine
 10
2275.555871227499
 20
1566.8670478036074
 30
0.0
 11
2275.636738762789
 21
1566.8257429220387
 31
0.0
  0
LINE
  5
44
330
17
100
AcDbEntity
  8
0
100
AcDbLine
 10
2275.636738762789
 20
1566.8257429220387
 30
0.0
 11
2275.715222778914
 21
1566.7773843292175
 31
0.0
  0
LINE
  5
45
330
17
100
AcDbEntity
  8
0
100
AcDbLine
 10
2275.715222778914
 20
1566.7773843292175
 30
0.0
 11
2275.7913232758747
 21
1566.7219720251435
 31
0.0
  0
LINE
  5
46
330
17
100
AcDbEntity
  8
0
100
AcDbLine
 10
2275.7913232758747
 20
1566.7219720251435
 30
0.0
 11
2275.865040253672
 21
1566.6595060098168
 31
0.0
  0
LINE
  5
47
330
17
100
AcDbEntity
  8
0
100
AcDbLine
 10
2275.865040253672
 20
1566.6595060098168
 30
0.0
 11
2276.017749940568
 21
1566.501097076532
 31
0.0
  0
LINE
  5
48
330
17
100
AcDbEntity
  8
0
100
AcDbLine
 10
2276.017749940568
 20
1566.501097076532
 30
0.0
 11
2276.1315418782524
 21
1566.3391929509407
 31
0.0
  0
LINE
  5
49
330
17
100
AcDbEntity
  8
0
100
AcDbLine
 10
2276.1315418782524
 20
1566.3391929509407
 30
0.0
 11
2276.206416066725
 21
1566.1737936330435
 31
0.0
  0
LINE
  5
4A
330
17
100
AcDbEntity
  8
0
100
AcDbLine
 10
2276.206416066725
 20
1566.1737936330435
 30
0.0
 11
2276.2423725059866
 21
1566.00489912284
 31
0.0
  0
LINE
  5
4B
330
17
100
AcDbEntity
  8
0
100
AcDbLine
 10
2276.2423725059866
 20
1566.00489912284
 30
0.0
 11
2276.2432506439623
 21
1565.8406880773402
 31
0.0
  0
LINE
  5
4C
330
17
100
AcDbEntity
  8
0
100
AcDbLine
 10
2276.2432506439623
 20
1565.8406880773402
 30
0.0
 11
2276.212889928578
 21
1565.6893391535543
 31
0.0
  0
LINE
  5
4D
330
17
100
AcDbEntity
  8
0
100
AcDbLine
 10
2276.212889928578
 20
1565.6893391535543
 30
0.0
 11
2276.151290359834
 21
1565.5508523514825
 31
0.0
  0
LINE
  5
4E
330
17
100
AcDbEntity
  8
0
100
AcDbLine
 10
2276.151290359834
 20
1565.5508523514825
 30
0.0
 11
2276.0584519377303
 21
1565.4252276711243
 31
0.0
  0
LINE
  5
4F
330
17
100
AcDbEntity
  8
0
100
AcDbLine
 10
2276.0584519377303
 20
1565.4252276711243
 30
0.0
 11
2275.9440015957457
 21
1565.3243119050587
 31
0.0
  0
LINE
  5
50
330
17
100
AcDbEntity
  8
0
100
AcDbLine
 10
2275.9440015957457
 20
1565.3243119050587
 30
0.0
 11
2275.816418565256
 21
1565.2586905377216
 31
0.0
  0
LINE
  5
51
330
17
100
AcDbEntity
  8
0
100
AcDbLine
 10
2275.816418565256
 20
1565.2586905377216
 30
0.0
 11
2275.67570284626
 21
1565.2283635691126
 31
0.0
  0
LINE
  5
52
330
17
100
AcDbEntity
  8
0
100
AcDbLine
 10
2275.67570284626
 20
1565.2283635691126
 30
0.0
 11
2275.5218544387585
 21
1565.233330999232
 31
0.0
  0
LINE
  5
53
330
17
100
AcDbEntity
  8
0
100
AcDbLine
 10
2275.5218544387585
 20
1565.233330999232
 30
0.0
 11
2275.68960842176
 21
1565.0806866194625
 31
0.0
  0
LINE
  5
54
330
17
100
AcDbEntity
  8
0
100
AcDbLine
 10
2275.0074679285467
 20
1565.6967754369794
 30
0.0
 11
2275.1232967215806
 21
1565.5988726639926
 31
0.0
  0
LINE
  5
55
330
17
100
AcDbEntity
  8
0
100
AcDbLine
 10
2275.1232967215806
 20
1565.5988726639926
 30
0.0
 11
2275.2298732453946
 21
1565.524375446806
 31
0.0
  0
LINE
  5
56
330
17
100
AcDbEntity
  8
0
100
AcDbLine
 10
2275.2298732453946
 20
1565.524375446806
 30
0.0
 11
2275.3271974999884
 21
1565.47328378542
 31
0.0
  0
LINE
  5
57
330
17
100
AcDbEntity
  8
0
100
AcDbLine
 10
2275.3271974999884
 20
1565.47328378542
 30
0.0
 11
2275.415269485362
 21
1565.4455976798345
 31
0.0
  0
LINE
  5
58
330
17
100
AcDbEntity
  8
0
100
AcDbLine
 10
2275.415269485362
 20
1565.4455976798345
 30
0.0
 11
2275.5450540090883
 21
1565.4341385472712
 31
0.0
  0
LINE
  5
59
330
17
100
AcDbEntity
  8
0
100
AcDbLine
 10
2275.5450540090883
 20
1565.4341385472712
 30
0.0
 11
2275.6615310696093
 21
1565.4520805498282
 31
0.0
  0
LINE
  5
5A
330
17
100
AcDbEntity
  8
0
100
AcDbLine
 10
2275.6615310696093
 20
1565.4520805498282
 30
0.0
 11
2275.764700666924
 21
1565.499423687506
 31
0.0
  0
LINE
  5
5B
330
17
100
AcDbEntity
  8
0
100
AcDbLine
 10
2275.764700666924
 20
1565.499423687506
 30
0.0
 11
2275.854562801033
 21
1565.5761679603038
 31
0.0
  0
LINE
  5
5C
330
17
100
AcDbEntity
  8
0
100
AcDbLine
 10
2275.854562801033
 20
1565.5761679603038
 30
0.0
 11
2275.911901565644
 21
1565.655414991048
 31
0.0
  0
LINE
  5
5D
330
17
100
AcDbEntity
  8
0
100
AcDbLine
 10
2275.911901565644
 20
1565.655414991048
 30
0.0
 11
2275.94848901126
 21
1565.7443217224222
 31
0.0
  0
LINE
  5
5E
330
17
100
AcDbEntity
  8
0
100
AcDbLine
 10
2275.94848901126
 20
1565.7443217224222
 30
0.0
 11
2275.9643251378816
 21
1565.8428881544266
 31
0.0
  0
LINE
  5
5F
330
17
100
AcDbEntity
  8
0
100
AcDbLine
 10
2275.9643251378816
 20
1565.8428881544266
 30
0.0
 11
2275.959409945509
 21
1565.9511142870608
 31
0.0
  0
LINE
  5
60
330
17
100
AcDbEntity
  8
0
100
AcDbLine
 10
2275.959409945509
 20
1565.9511142870608
 30
0.0
 11
2275.93002760306
 21
1566.06459974258
 31
0.0
  0
LINE
  5
61
330
17
100
AcDbEntity
  8
0
100
AcDbLine
 10
2275.93002760306
 20
1566.06459974258
 30
0.0
 11
2275.8724622794525
 21
1566.1789441432388
 31
0.0
  0
LINE
  5
62
330
17
100
AcDbEntity
  8
0
100
AcDbLine
 10
2275.8724622794525
 20
1566.1789441432388
 30
0.0
 11
2275.786713974688
 21
1566.2941474890376
 31
0.0
  0
LINE
  5
63
330
17
100
AcDbEntity
  8
0
100
AcDbLine
 10
2275.786713974688
 20
1566.2941474890376
 30
0.0
 11
2275.6727826887654
 21
1566.410209779976
 31
0.0
  0
LINE
  5
64
330
17
100
AcDbEntity
  8
0
100
AcDbLine
 10
2275.6727826887654
 20
1566.410209779976
 30
0.0
 11
2275.544281464659
 21
1566.515248458051
 31
0.0
  0
LINE
  5
65
330
17
100
AcDbEntity
  8
0
100
AcDbLine
 10
2275.544281464659
 20
1566.515248458051
 30
0.0
 11
2275.4211298860564
 21
1566.5916424547422
 31
0.0
  0
LINE
  5
66
330
17
100
AcDbEntity
  8
0
100
AcDbLine
 10
2275.4211298860564
 20
1566.5916424547422
 30
0.0
 11
2275.303327952958
 21
1566.6393917700495
 31
0.0
  0
LINE
  5
67
330
17
100
AcDbEntity
  8
0
100
AcDbLine
 10
2275.303327952958
 20
1566.6393917700495
 30
0.0
 11
2275.1908756653634
 21
1566.6584964039728
 31
0.0
  0
LINE
  5
68
330
17
100
AcDbEntity
  8
0
100
AcDbLine
 10
2275.1908756653634
 20
1566.6584964039728
 30
0.0
 11
2275.086427811994
 21
1566.6534575947555
 31
0.0
  0
LINE
  5
69
330
17
100
AcDbEntity
  8
0
100
AcDbLine
 10
2275.086427811994
 20
1566.6534575947555
 30
0.0
 11
2274.992639181571
 21
1566.628776580641
 31
0.0
  0
LINE
  5
6A
330
17
100
AcDbEntity
  8
0
100
AcDbLine
 10
2274.992639181571
 20
1566.628776580641
 30
0.0
 11
2274.909509774095
 21
1566.584453361629
 31
0.0
  0
LINE
  5
6B
330
17
100
AcDbEntity
  8
0
100
AcDbLine
 10
2274.909509774095
 20
1566.584453361629
 30
0.0
 11
2274.8370395895654
 21
1566.5204879377197
 31
0.0
  0
LINE
  5
6C
330
17
100
AcDbEntity
  8
0
100
AcDbLine
 10
2274.8370395895654
 20
1566.5204879377197
 30
0.0
 11
2274.7797008249545
 21
1566.4412409069755
 31
0.0
  0
LINE
  5
6D
330
17
100
AcDbEntity
  8
0
100
AcDbLine
 10
2274.7797008249545
 20
1566.4412409069755
 30
0.0
 11
2274.743113379338
 21
1566.3523341756013
 31
0.0
  0
LINE
  5
6E
330
17
100
AcDbEntity
  8
0
100
AcDbLine
 10
2274.743113379338
 20
1566.3523341756013
 30
0.0
 11
2274.7272772527162
 21
1566.2537677435969
 31
0.0
  0
LINE
  5
6F
330
17
100
AcDbEntity
  8
0
100
AcDbLine
 10
2274.7272772527162
 20
1566.2537677435969
 30
0.0
 11
2274.7321924450894
 21
1566.1455416109627
 31
0.0
  0
LINE
  5
70
330
17
100
AcDbEntity
  8
0
100
AcDbLine
 10
2274.7321924450894
 20
1566.1455416109627
 30
0.0
 11
2274.7608653017082
 21
1566.0327017378768
 31
0.0
  0
LINE
  5
71
330
17
100
AcDbEntity
  8
0
100
AcDbLine
 10
2274.7608653017082
 20
1566.0327017378768
 30
0.0
 11
2274.816302167824
 21
1565.9202940845175
 31
0.0
  0
LINE
  5
72
330
17
100
AcDbEntity
  8
0
100
AcDbLine
 10
2274.816302167824
 20
1565.9202940845175
 30
0.0
 11
2274.898503043437
 21
1565.8083186508852
 31
0.0
  0
LINE
  5
73
330
17
100
AcDbEntity
  8
0
100
AcDbLine
 10
2274.898503043437
 20
1565.8083186508852
 30
0.0
 11
2275.0074679285467
 21
1565.6967754369794
 31
0.0
  0
LINE
  5
74
330
17
100
AcDbEntity
  8
0
100
AcDbLine
 10
2276.8017317600807
 20
1566.3028942099031
 30
0.0
 11
2274.952654022634
 21
1567.9854254936774
 31
0.0
  0
LINE
  5
75
330
17
100
AcDbEntity
  8
0
100
AcDbLine
 10
2274.952654022634
 20
1567.9854254936774
 30
0.0
 11
2275.1592404012695
 21
1568.2124609593939
 31
0.0
  0
LINE
  5
76
330
17
100
AcDbEntity
  8
0
100
AcDbLine
 10
2275.1592404012695
 20
1568.2124609593939
 30
0.0
 11
2277.008318138716
 21
1566.5299296756195
 31
0.0
  0
LINE
  5
77
330
17
100
AcDbEntity
  8
0
100
AcDbLine
 10
2277.008318138716
 20
1566.5299296756195
 30
0.0
 11
2276.8017317600807
 21
1566.3028942099031
 31
0.0
  0
LINE
  5
78
330
17
100
AcDbEntity
  8
0
100
AcDbLine
 10
2278.1273276896572
 20
1567.759705114917
 30
0.0
 11
2277.9305636193694
 21
1567.9387466430678
 31
0.0
  0
LINE
  5
79
330
17
100
AcDbEntity
  8
0
100
AcDbLine
 10
2277.9305636193694
 20
1567.9387466430678
 30
0.0
 11
2277.952350012251
 21
1567.7631479710124
 31
0.0
  0
LINE
  5
7A
330
17
100
AcDbEntity
  8
0
100
AcDbLine
 10
2277.952350012251
 20
1567.7631479710124
 30
0.0
 11
2277.932988786016
 21
1567.5993405431968
 31
0.0
  0
LINE
  5
7B
330
17
100
AcDbEntity
  8
0
100
AcDbLine
 10
2277.932988786016
 20
1567.5993405431968
 30
0.0
 11
2277.8724799406646
 21
1567.4473243596212
 31
0.0
  0
LINE
  5
7C
330
17
100
AcDbEntity
  8
0
100
AcDbLine
 10
2277.8724799406646
 20
1567.4473243596212
 30
0.0
 11
2277.7708234761967
 21
1567.3070994202856
 31
0.0
  0
LINE
  5
7D
330
17
100
AcDbEntity
  8
0
100
AcDbLine
 10
2277.7708234761967
 20
1567.3070994202856
 30
0.0
 11
2277.7149401762777
 21
1567.2513856642902
 31
0.0
  0
LINE
  5
7E
330
17
100
AcDbEntity
  8
0
100
AcDbLine
 10
2277.7149401762777
 20
1567.2513856642902
 30
0.0
 11
2277.6551742742527
 21
1567.202807361734
 31
0.0
  0
LINE
  5
7F
330
17
100
AcDbEntity
  8
0
100
AcDbLine
 10
2277.6551742742527
 20
1567.202807361734
 30
0.0
 11
2277.5915257701213
 21
1567.161364512617
 31
0.0
  0
LINE
  5
80
330
17
100
AcDbEntity
  8
0
100
AcDbLine
 10
2277.5915257701213
 20
1567.161364512617
 30
0.0
 11
2277.523994663884
 21
1567.1270571169389
 31
0.0
  0
LINE
  5
81
330
17
100
AcDbEntity
  8
0
100
AcDbLine
 10
2277.523994663884
 20
1567.1270571169389
 30
0.0
 11
2277.456076587075
 21
1567.1009554124128
 31
0.0
  0
LINE
  5
82
330
17
100
AcDbEntity
  8
0
100
AcDbLine
 10
2277.456076587075
 20
1567.1009554124128
 30
0.0
 11
2277.391267171229
 21
1567.0841296367512
 31
0.0
  0
LINE
  5
83
330
17
100
AcDbEntity
  8
0
100
AcDbLine
 10
2277.391267171229
 20
1567.0841296367512
 30
0.0
 11
2277.3295664163466
 21
1567.076579789954
 31
0.0
  0
LINE
  5
84
330
17
100
AcDbEntity
  8
0
100
AcDbLine
 10
2277.3295664163466
 20
1567.076579789954
 30
0.0
 11
2277.2709743224273
 21
1567.0783058720212
 31
0.0
  0
LINE
  5
85
330
17
100
AcDbEntity
  8
0
100
AcDbLine
 10
2277.2709743224273
 20
1567.0783058720212
 30
0.0
 11
2277.21369086836
 21
1567.0882798837015
 31
0.0
  0
LINE
  5
86
330
17
100
AcDbEntity
  8
0
100
AcDbLine
 10
2277.21369086836
 20
1567.0882798837015
 30
0.0
 11
2277.1559160330344
 21
1567.1054738257437
 31
0.0
  0
LINE
  5
87
330
17
100
AcDbEntity
  8
0
100
AcDbLine
 10
2277.1559160330344
 20
1567.1054738257437
 30
0.0
 11
2277.0976498164505
 21
1567.1298876981475
 31
0.0
  0
LINE
  5
88
330
17
100
AcDbEntity
  8
0
100
AcDbLine
 10
2277.0976498164505
 20
1567.1298876981475
 30
0.0
 11
2277.038892218608
 21
1567.161521500913
 31
0.0
  0
LINE
  5
89
330
17
100
AcDbEntity
  8
0
100
AcDbLine
 10
2277.038892218608
 20
1567.161521500913
 30
0.0
 11
2276.995056667395
 21
1567.1903129068703
 31
0.0
  0
LINE
  5
8A
330
17
100
AcDbEntity
  8
0
100
AcDbLine
 10
2276.995056667395
 20
1567.1903129068703
 30
0.0
 11
2276.9430240684674
 21
1567.2297333028264
 31
0.0
  0
LINE
  5
8B
330
17
100
AcDbEntity
  8
0
100
AcDbLine
 10
2276.9430240684674
 20
1567.2297333028264
 30
0.0
 11
2276.882794421825
 21
1567.279782688781
 31
0.0
  0
LINE
  5
8C
330
17
100
AcDbEntity
  8
0
100
AcDbLine
 10
2276.882794421825
 20
1567.279782688781
 30
0.0
 11
2276.8143677274675
 21
1567.3404610647347
 31
0.0
  0
LINE
  5
8D
330
17
100
AcDbEntity
  8
0
100
AcDbLine
 10
2276.8143677274675
 20
1567.3404610647347
 30
0.0
 11
2275.984426969459
 21
1568.095649048857
 31
0.0
  0
LINE
  5
8E
330
17
100
AcDbEntity
  8
0
100
AcDbLine
 10
2275.984426969459
 20
1568.095649048857
 30
0.0
 11
2276.1910133480947
 21
1568.3226845145737
 31
0.0
  0
LINE
  5
8F
330
17
100
AcDbEntity
  8
0
100
AcDbLine
 10
2276.1910133480947
 20
1568.3226845145737
 30
0.0
 11
2276.9339238442444
 21
1567.6466879755947
 31
0.0
  0
LINE
  5
90
330
17
100
AcDbEntity
  8
0
100
AcDbLine
 10
2276.9339238442444
 20
1567.6466879755947
 30
0.0
 11
2277.0163825916916
 21
1567.5732414137392
 31
0.0
  0
LINE
  5
91
330
17
100
AcDbEntity
  8
0
100
AcDbLine
 10
2277.0163825916916
 20
1567.5732414137392
 30
0.0
 11
2277.085914385888
 21
1567.514727724771
 31
0.0
  0
LINE
  5
92
330
17
100
AcDbEntity
  8
0
100
AcDbLine
 10
2277.085914385888
 20
1567.514727724771
 30
0.0
 11
2277.1425192268334
 21
1567.4711469086897
 31
0.0
  0
LINE
  5
93
330
17
100
AcDbEntity
  8
0
100
AcDbLine
 10
2277.1425192268334
 20
1567.4711469086897
 30
0.0
 11
2277.1861971145286
 21
1567.4424989654956
 31
0.0
  0
LINE
  5
94
330
17
100
AcDbEntity
  8
0
100
AcDbLine
 10
2277.1861971145286
 20
1567.4424989654956
 30
0.0
 11
2277.241050445329
 21
1567.4176600740088
 31
0.0
  0
LINE
  5
95
330
17
100
AcDbEntity
  8
0
100
AcDbLine
 10
2277.241050445329
 20
1567.4176600740088
 30
0.0
 11
2277.2965466238265
 21
1567.4031880104703
 31
0.0
  0
LINE
  5
96
330
17
100
AcDbEntity
  8
0
100
AcDbLine
 10
2277.2965466238265
 20
1567.4031880104703
 30
0.0
 11
2277.352685650021
 21
1567.3990827748803
 31
0.0
  0
LINE
  5
97
330
17
100
AcDbEntity
  8
0
100
AcDbLine
 10
2277.352685650021
 20
1567.3990827748803
 30
0.0
 11
2277.4094675239126
 21
1567.4053443672385
 31
0.0
  0
LINE
  5
98
330
17
100
AcDbEntity
  8
0
100
AcDbLine
 10
2277.4094675239126
 20
1567.4053443672385
 30
0.0
 11
2277.4652431513346
 21
1567.4217441202527
 31
0.0
  0
LINE
  5
99
330
17
100
AcDbEntity
  8
0
100
AcDbLine
 10
2277.4652431513346
 20
1567.4217441202527
 30
0.0
 11
2277.518363438119
 21
1567.4480533666303
 31
0.0
  0
LINE
  5
9A
330
17
100
AcDbEntity
  8
0
100
AcDbLine
 10
2277.518363438119
 20
1567.4480533666303
 30
0.0
 11
2277.568828384268
 21
1567.4842721063712
 31
0.0
  0
LINE
  5
9B
330
17
100
AcDbEntity
  8
0
100
AcDbLine
 10
2277.568828384268
 20
1567.4842721063712
 30
0.0
 11
2277.616637989779
 21
1567.5304003394758
 31
0.0
  0
LINE
  5
9C
330
17
100
AcDbEntity
  8
0
100
AcDbLine
 10
2277.616637989779
 20
1567.5304003394758
 30
0.0
 11
2277.6591310931617
 21
1567.5836718540038
 31
0.0
  0
LINE
  5
9D
330
17
100
AcDbEntity
  8
0
100
AcDbLine
 10
2277.6591310931617
 20
1567.5836718540038
 30
0.0
 11
2277.6936465329236
 21
1567.641320438015
 31
0.0
  0
LINE
  5
9E
330
17
100
AcDbEntity
  8
0
100
AcDbLine
 10
2277.6936465329236
 20
1567.641320438015
 30
0.0
 11
2277.720184309065
 21
1567.7033460915102
 31
0.0
  0
LINE
  5
9F
330
17
100
AcDbEntity
  8
0
100
AcDbLine
 10
2277.720184309065
 20
1567.7033460915102
 30
0.0
 11
2277.7387444215865
 21
1567.7697488144886
 31
0.0
  0
LINE
  5
A0
330
17
100
AcDbEntity
  8
0
100
AcDbLine
 10
2277.7387444215865
 20
1567.7697488144886
 30
0.0
 11
2277.7479738971983
 21
1567.8372204956572
 31
0.0
  0
LINE
  5
A1
330
17
100
AcDbEntity
  8
0
100
AcDbLine
 10
2277.7479738971983
 20
1567.8372204956572
 30
0.0
 11
2277.7465197626125
 21
1567.902453023723
 31
0.0
  0
LINE
  5
A2
330
17
100
AcDbEntity
  8
0
100
AcDbLine
 10
2277.7465197626125
 20
1567.902453023723
 30
0.0
 11
2277.7343820178285
 21
1567.9654463986858
 31
0.0
  0
LINE
  5
A3
330
17
100
AcDbEntity
  8
0
100
AcDbLine
 10
2277.7343820178285
 20
1567.9654463986858
 30
0.0
 11
2277.7115606628468
 21
1568.0262006205458
 31
0.0
  0
LINE
  5
A4
330
17
100
AcDbEntity
  8
0
100
AcDbLine
 10
2277.7115606628468
 20
1568.0262006205458
 30
0.0
 11
2277.676196778562
 21
1568.0881364030706
 31
0.0
  0
LINE
  5
A5
330
17
100
AcDbEntity
  8
0
100
AcDbLine
 10
2277.676196778562
 20
1568.0881364030706
 30
0.0
 11
2277.6264314458685
 21
1568.1546744600284
 31
0.0
  0
LINE
  5
A6
330
17
100
AcDbEntity
  8
0
100
AcDbLine
 10
2277.6264314458685
 20
1568.1546744600284
 30
0.0
 11
2277.562264664766
 21
1568.2258147914192
 31
0.0
  0
LINE
  5
A7
330
17
100
AcDbEntity
  8
0
100
AcDbLine
 10
2277.562264664766
 20
1568.2258147914192
 30
0.0
 11
2277.4836964352558
 21
1568.3015573972427
 31
0.0
  0
LINE
  5
A8
330
17
100
AcDbEntity
  8
0
100
AcDbLine
 10
2277.4836964352558
 20
1568.3015573972427
 30
0.0
 11
2276.766012101963
 21
1568.9545998941512
 31
0.0
  0
LINE
  5
A9
330
17
100
AcDbEntity
  8
0
100
AcDbLine
 10
2276.766012101963
 20
1568.9545998941512
 30
0.0
 11
2276.972598480598
 21
1569.1816353598676
 31
0.0
  0
LINE
  5
AA
330
17
100
AcDbEntity
  8
0
100
AcDbLine
 10
2276.972598480598
 20
1569.1816353598676
 30
0.0
 11
2278.3121077283254
 21
1567.962775725919
 31
0.0
  0
LINE
  5
AB
330
17
100
AcDbEntity
  8
0
100
AcDbLine
 10
2278.3121077283254
 20
1567.962775725919
 30
0.0
 11
2278.1273276896572
 21
1567.759705114917
 31
0.0
  0
LINE
  5
AC
330
17
100
AcDbEntity
  8
0
100
AcDbLine
 10
2278.8262782707066
 20
1568.5278417739246
 30
0.0
 11
2278.634612019417
 21
1568.3172033140654
 31
0.0
  0
LINE
  5
AD
330
17
100
AcDbEntity
  8
0
100
AcDbLine
 10
2278.634612019417
 20
1568.3172033140654
 30
0.0
 11
2276.7855342819707
 21
1569.99973459784
 31
0.0
  0
LINE
  5
AE
330
17
100
AcDbEntity
  8
0
100
AcDbLine
 10
2276.7855342819707
 20
1569.99973459784
 30
0.0
 11
2276.992120660606
 21
1570.2267700635564
 31
0.0
  0
LINE
  5
AF
330
17
100
AcDbEntity
  8
0
100
AcDbLine
 10
2276.992120660606
 20
1570.2267700635564
 30
0.0
 11
2277.6517848193266
 21
1569.6265218634103
 31
0.0
  0
LINE
  5
B0
330
17
100
AcDbEntity
  8
0
100
AcDbLine
 10
2277.6517848193266
 20
1569.6265218634103
 30
0.0
 11
2277.6428123255723
 21
1569.7751859412185
 31
0.0
  0
LINE
  5
B1
330
17
100
AcDbEntity
  8
0
100
AcDbLine
 10
2277.6428123255723
 20
1569.7751859412185
 30
0.0
 11
2277.665423868937
 21
1569.9132676455513
 31
0.0
  0
LINE
  5
B2
330
17
100
AcDbEntity
  8
0
100
AcDbLine
 10
2277.665423868937
 20
1569.9132676455513
 30
0.0
 11
2277.719619449421
 21
1570.0407669764083
 31
0.0
  0
LINE
  5
B3
330
17
100
AcDbEntity
  8
0
100
AcDbLine
 10
2277.719619449421
 20
1570.0407669764083
 30
0.0
 11
2277.8053990670237
 21
1570.1576839337902
 31
0.0
  0
LINE
  5
B4
330
17
100
AcDbEntity
  8
0
100
AcDbLine
 10
2277.8053990670237
 20
1570.1576839337902
 30
0.0
 11
2277.863997145069
 21
1570.215826909754
 31
0.0
  0
LINE
  5
B5
330
17
100
AcDbEntity
  8
0
100
AcDbLine
 10
2277.863997145069
 20
1570.215826909754
 30
0.0
 11
2277.9273165730583
 21
1570.266647639644
 31
0.0
  0
LINE
  5
B6
330
17
100
AcDbEntity
  8
0
100
AcDbLine
 10
2277.9273165730583
 20
1570.266647639644
 30
0.0
 11
2277.995357350993
 21
1570.3101461234603
 31
0.0
  0
LINE
  5
B7
330
17
100
AcDbEntity
  8
0
100
AcDbLine
 10
2277.995357350993
 20
1570.3101461234603
 30
0.0
 11
2278.0681194788717
 21
1570.346322361203
 31
0.0
  0
LINE
  5
B8
330
17
100
AcDbEntity
  8
0
100
AcDbLine
 10
2278.0681194788717
 20
1570.346322361203
 30
0.0
 11
2278.143541225183
 21
1570.374098287175
 31
0.0
  0
LINE
  5
B9
330
17
100
AcDbEntity
  8
0
100
AcDbLine
 10
2278.143541225183
 20
1570.374098287175
 30
0.0
 11
2278.2195608584148
 21
1570.392395835679
 31
0.0
  0
LINE
  5
BA
330
17
100
AcDbEntity
  8
0
100
AcDbLine
 10
2278.2195608584148
 20
1570.392395835679
 30
0.0
 11
2278.2961783785663
 21
1570.4012150067156
 31
0.0
  0
LINE
  5
BB
330
17
100
AcDbEntity
  8
0
100
AcDbLine
 10
2278.2961783785663
 20
1570.4012150067156
 30
0.0
 11
2278.3733937856387
 21
1570.4005558002843
 31
0.0
  0
LINE
  5
BC
330
17
100
AcDbEntity
  8
0
100
AcDbLine
 10
2278.3733937856387
 20
1570.4005558002843
 30
0.0
 11
2278.4514762542135
 21
1570.391109951272
 31
0.0
  0
LINE
  5
BD
330
17
100
AcDbEntity
  8
0
100
AcDbLine
 10
2278.4514762542135
 20
1570.391109951272
 30
0.0
 11
2278.5306949588726
 21
1570.3735691945656
 31
0.0
  0
LINE
  5
BE
330
17
100
AcDbEntity
  8
0
100
AcDbLine
 10
2278.5306949588726
 20
1570.3735691945656
 30
0.0
 11
2278.611049899617
 21
1570.3479335301647
 31
0.0
  0
LINE
  5
BF
330
17
100
AcDbEntity
  8
0
100
AcDbLine
 10
2278.611049899617
 20
1570.3479335301647
 30
0.0
 11
2278.6925410764457
 21
1570.3142029580695
 31
0.0
  0
LINE
  5
C0
330
17
100
AcDbEntity
  8
0
100
AcDbLine
 10
2278.6925410764457
 20
1570.3142029580695
 30
0.0
 11
2278.7734086117352
 21
1570.2728980765007
 31
0.0
  0
LINE
  5
C1
330
17
100
AcDbEntity
  8
0
100
AcDbLine
 10
2278.7734086117352
 20
1570.2728980765007
 30
0.0
 11
2278.8518926278603
 21
1570.2245394836796
 31
0.0
  0
LINE
  5
C2
330
17
100
AcDbEntity
  8
0
100
AcDbLine
 10
2278.8518926278603
 20
1570.2245394836796
 30
0.0
 11
2278.9279931248216
 21
1570.1691271796055
 31
0.0
  0
LINE
  5
C3
330
17
100
AcDbEntity
  8
0
100
AcDbLine
 10
2278.9279931248216
 20
1570.1691271796055
 30
0.0
 11
2279.0017101026187
 21
1570.1066611642789
 31
0.0
  0
LINE
  5
C4
330
17
100
AcDbEntity
  8
0
100
AcDbLine
 10
2279.0017101026187
 20
1570.1066611642789
 30
0.0
 11
2279.1544197895146
 21
1569.948252230994
 31
0.0
  0
LINE
  5
C5
330
17
100
AcDbEntity
  8
0
100
AcDbLine
 10
2279.1544197895146
 20
1569.948252230994
 30
0.0
 11
2279.268211727199
 21
1569.7863481054028
 31
0.0
  0
LINE
  5
C6
330
17
100
AcDbEntity
  8
0
100
AcDbLine
 10
2279.268211727199
 20
1569.7863481054028
 30
0.0
 11
2279.343085915672
 21
1569.6209487875055
 31
0.0
  0
LINE
  5
C7
330
17
100
AcDbEntity
  8
0
100
AcDbLine
 10
2279.343085915672
 20
1569.6209487875055
 30
0.0
 11
2279.379042354933
 21
1569.452054277302
 31
0.0
  0
LINE
  5
C8
330
17
100
AcDbEntity
  8
0
100
AcDbLine
 10
2279.379042354933
 20
1569.452054277302
 30
0.0
 11
2279.3799204929087
 21
1569.2878432318023
 31
0.0
  0
LINE
  5
C9
330
17
100
AcDbEntity
  8
0
100
AcDbLine
 10
2279.3799204929087
 20
1569.2878432318023
 30
0.0
 11
2279.3495597775245
 21
1569.1364943080164
 31
0.0
  0
LINE
  5
CA
330
17
100
AcDbEntity
  8
0
100
AcDbLine
 10
2279.3495597775245
 20
1569.1364943080164
 30
0.0
 11
2279.2879602087805
 21
1568.9980075059445
 31
0.0
  0
LINE
  5
CB
330
17
100
AcDbEntity
  8
0
100
AcDbLine
 10
2279.2879602087805
 20
1568.9980075059445
 30
0.0
 11
2279.1951217866767
 21
1568.8723828255863
 31
0.0
  0
LINE
  5
CC
330
17
100
AcDbEntity
  8
0
100
AcDbLine
 10
2279.1951217866767
 20
1568.8723828255863
 30
0.0
 11
2279.080671444692
 21
1568.7714670595208
 31
0.0
  0
LINE
  5
CD
330
17
100
AcDbEntity
  8
0
100
AcDbLine
 10
2279.080671444692
 20
1568.7714670595208
 30
0.0
 11
2278.9530884142023
 21
1568.7058456921836
 31
0.0
  0
LINE
  5
CE
330
17
100
AcDbEntity
  8
0
100
AcDbLine
 10
2278.9530884142023
 20
1568.7058456921836
 30
0.0
 11
2278.8123726952062
 21
1568.6755187235747
 31
0.0
  0
LINE
  5
CF
330
17
100
AcDbEntity
  8
0
100
AcDbLine
 10
2278.8123726952062
 20
1568.6755187235747
 30
0.0
 11
2278.658524287705
 21
1568.6804861536941
 31
0.0
  0
LINE
  5
D0
330
17
100
AcDbEntity
  8
0
100
AcDbLine
 10
2278.658524287705
 20
1568.6804861536941
 30
0.0
 11
2278.8262782707066
 21
1568.5278417739246
 31
0.0
  0
LINE
  5
D1
330
17
100
AcDbEntity
  8
0
100
AcDbLine
 10
2278.144137777493
 20
1569.1439305914414
 30
0.0
 11
2278.259966570527
 21
1569.0460278184546
 31
0.0
  0
LINE
  5
D2
330
17
100
AcDbEntity
  8
0
100
AcDbLine
 10
2278.259966570527
 20
1569.0460278184546
 30
0.0
 11
2278.366543094341
 21
1568.9715306012681
 31
0.0
  0
LINE
  5
D3
330
17
100
AcDbEntity
  8
0
100
AcDbLine
 10
2278.366543094341
 20
1568.9715306012681
 30
0.0
 11
2278.463867348935
 21
1568.9204389398822
 31
0.0
  0
LINE
  5
D4
330
17
100
AcDbEntity
  8
0
100
AcDbLine
 10
2278.463867348935
 20
1568.9204389398822
 30
0.0
 11
2278.5519393343084
 21
1568.8927528342965
 31
0.0
  0
LINE
  5
D5
330
17
100
AcDbEntity
  8
0
100
AcDbLine
 10
2278.5519393343084
 20
1568.8927528342965
 30
0.0
 11
2278.6817238580347
 21
1568.8812937017333
 31
0.0
  0
LINE
  5
D6
330
17
100
AcDbEntity
  8
0
100
AcDbLine
 10
2278.6817238580347
 20
1568.8812937017333
 30
0.0
 11
2278.7982009185557
 21
1568.8992357042903
 31
0.0
  0
LINE
  5
D7
330
17
100
AcDbEntity
  8
0
100
AcDbLine
 10
2278.7982009185557
 20
1568.8992357042903
 30
0.0
 11
2278.9013705158704
 21
1568.946578841968
 31
0.0
  0
LINE
  5
D8
330
17
100
AcDbEntity
  8
0
100
AcDbLine
 10
2278.9013705158704
 20
1568.946578841968
 30
0.0
 11
2278.9912326499793
 21
1569.0233231147658
 31
0.0
  0
LINE
  5
D9
330
17
100
AcDbEntity
  8
0
100
AcDbLine
 10
2278.9912326499793
 20
1569.0233231147658
 30
0.0
 11
2279.0485714145902
 21
1569.10257014551
 31
0.0
  0
LINE
  5
DA
330
17
100
AcDbEntity
  8
0
100
AcDbLine
 10
2279.0485714145902
 20
1569.10257014551
 30
0.0
 11
2279.085158860207
 21
1569.1914768768843
 31
0.0
  0
LINE
  5
DB
330
17
100
AcDbEntity
  8
0
100
AcDbLine
 10
2279.085158860207
 20
1569.1914768768843
 30
0.0
 11
2279.1009949868285
 21
1569.2900433088887
 31
0.0
  0
LINE
  5
DC
330
17
100
AcDbEntity
  8
0
100
AcDbLine
 10
2279.1009949868285
 20
1569.2900433088887
 30
0.0
 11
2279.0960797944554
 21
1569.3982694415229
 31
0.0
  0
LINE
  5
DD
330
17
100
AcDbEntity
  8
0
100
AcDbLine
 10
2279.0960797944554
 20
1569.3982694415229
 30
0.0
 11
2279.0666974520063
 21
1569.511754897042
 31
0.0
  0
LINE
  5
DE
330
17
100
AcDbEntity
  8
0
100
AcDbLine
 10
2279.0666974520063
 20
1569.511754897042
 30
0.0
 11
2279.0091321283994
 21
1569.6260992977009
 31
0.0
  0
LINE
  5
DF
330
17
100
AcDbEntity
  8
0
100
AcDbLine
 10
2279.0091321283994
 20
1569.6260992977009
 30
0.0
 11
2278.9233838236346
 21
1569.7413026434997
 31
0.0
  0
LINE
  5
E0
330
17
100
AcDbEntity
  8
0
100
AcDbLine
 10
2278.9233838236346
 20
1569.7413026434997
 30
0.0
 11
2278.8094525377123
 21
1569.857364934438
 31
0.0
  0
LINE
  5
E1
330
17
100
AcDbEntity
  8
0
100
AcDbLine
 10
2278.8094525377123
 20
1569.857364934438
 30
0.0
 11
2278.680951313606
 21
1569.962403612513
 31
0.0
  0
LINE
  5
E2
330
17
100
AcDbEntity
  8
0
100
AcDbLine
 10
2278.680951313606
 20
1569.962403612513
 30
0.0
 11
2278.5577997350033
 21
1570.0387976092043
 31
0.0
  0
LINE
  5
E3
330
17
100
AcDbEntity
  8
0
100
AcDbLine
 10
2278.5577997350033
 20
1570.0387976092043
 30
0.0
 11
2278.4399978019046
 21
1570.0865469245116
 31
0.0
  0
LINE
  5
E4
330
17
100
AcDbEntity
  8
0
100
AcDbLine
 10
2278.4399978019046
 20
1570.0865469245116
 30
0.0
 11
2278.3275455143103
 21
1570.1056515584348
 31
0.0
  0
LINE
  5
E5
330
17
100
AcDbEntity
  8
0
100
AcDbLine
 10
2278.3275455143103
 20
1570.1056515584348
 30
0.0
 11
2278.2230976609408
 21
1570.1006127492176
 31
0.0
  0
LINE
  5
E6
330
17
100
AcDbEntity
  8
0
100
AcDbLine
 10
2278.2230976609408
 20
1570.1006127492176
 30
0.0
 11
2278.129309030518
 21
1570.0759317351028
 31
0.0
  0
LINE
  5
E7
330
17
100
AcDbEntity
  8
0
100
AcDbLine
 10
2278.129309030518
 20
1570.0759317351028
 30
0.0
 11
2278.0461796230416
 21
1570.031608516091
 31
0.0
  0
LINE
  5
E8
330
17
100
AcDbEntity
  8
0
100
AcDbLine
 10
2278.0461796230416
 20
1570.031608516091
 30
0.0
 11
2277.973709438512
 21
1569.9676430921818
 31
0.0
  0
LINE
  5
E9
330
17
100
AcDbEntity
  8
0
100
AcDbLine
 10
2277.973709438512
 20
1569.9676430921818
 30
0.0
 11
2277.916370673901
 21
1569.8883960614376
 31
0.0
  0
LINE
  5
EA
330
17
100
AcDbEntity
  8
0
100
AcDbLine
 10
2277.916370673901
 20
1569.8883960614376
 30
0.0
 11
2277.8797832282844
 21
1569.7994893300634
 31
0.0
  0
LINE
  5
EB
330
17
100
AcDbEntity
  8
0
100
AcDbLine
 10
2277.8797832282844
 20
1569.7994893300634
 30
0.0
 11
2277.8639471016627
 21
1569.700922898059
 31
0.0
  0
LINE
  5
EC
330
17
100
AcDbEntity
  8
0
100
AcDbLine
 10
2277.8639471016627
 20
1569.700922898059
 30
0.0
 11
2277.868862294036
 21
1569.5926967654248
 31
0.0
  0
LINE
  5
ED
330
17
100
AcDbEntity
  8
0
100
AcDbLine
 10
2277.868862294036
 20
1569.5926967654248
 30
0.0
 11
2277.8975351506547
 21
1569.4798568923388
 31
0.0
  0
LINE
  5
EE
330
17
100
AcDbEntity
  8
0
100
AcDbLine
 10
2277.8975351506547
 20
1569.4798568923388
 30
0.0
 11
2277.95297201677
 21
1569.3674492389796
 31
0.0
  0
LINE
  5
EF
330
17
100
AcDbEntity
  8
0
100
AcDbLine
 10
2277.95297201677
 20
1569.3674492389796
 30
0.0
 11
2278.0351728923833
 21
1569.2554738053473
 31
0.0
  0
LINE
  5
F0
330
17
100
AcDbEntity
  8
0
100
AcDbLine
 10
2278.0351728923833
 20
1569.2554738053473
 30
0.0
 11
2278.144137777493
 21
1569.1439305914414
 31
0.0
  0
LINE
  5
F1
330
17
100
AcDbEntity
  8
0
100
AcDbLine
 10
2280.133510966627
 20
1569.9644717486528
 30
0.0
 11
2279.9418447153375
 21
1569.7538332887937
 31
0.0
  0
LINE
  5
F2
330
17
100
AcDbEntity
  8
0
100
AcDbLine
 10
2279.9418447153375
 20
1569.7538332887937
 30
0.0
 11
2278.092766977891
 21
1571.4363645725682
 31
0.0
  0
LINE
  5
F3
330
17
100
AcDbEntity
  8
0
100
AcDbLine
 10
2278.092766977891
 20
1571.4363645725682
 30
0.0
 11
2278.2993533565264
 21
1571.6634000382846
 31
0.0
  0
LINE
  5
F4
330
17
100
AcDbEntity
  8
0
100
AcDbLine
 10
2278.2993533565264
 20
1571.6634000382846
 30
0.0
 11
2278.959017515247
 21
1571.0631518381385
 31
0.0
  0
LINE
  5
F5
330
17
100
AcDbEntity
  8
0
100
AcDbLine
 10
2278.959017515247
 20
1571.0631518381385
 30
0.0
 11
2278.9500450214928
 21
1571.2118159159468
 31
0.0
  0
LINE
  5
F6
330
17
100
AcDbEntity
  8
0
100
AcDbLine
 10
2278.9500450214928
 20
1571.2118159159468
 30
0.0
 11
2278.972656564857
 21
1571.3498976202795
 31
0.0
  0
LINE
  5
F7
330
17
100
AcDbEntity
  8
0
100
AcDbLine
 10
2278.972656564857
 20
1571.3498976202795
 30
0.0
 11
2279.026852145341
 21
1571.4773969511366
 31
0.0
  0
LINE
  5
F8
330
17
100
AcDbEntity
  8
0
100
AcDbLine
 10
2279.026852145341
 20
1571.4773969511366
 30
0.0
 11
2279.1126317629437
 21
1571.5943139085184
 31
0.0
  0
LINE
  5
F9
330
17
100
AcDbEntity
  8
0
100
AcDbLine
 10
2279.1126317629437
 20
1571.5943139085184
 30
0.0
 11
2279.171229840989
 21
1571.6524568844823
 31
0.0
  0
LINE
  5
FA
330
17
100
AcDbEntity
  8
0
100
AcDbLine
 10
2279.171229840989
 20
1571.6524568844823
 30
0.0
 11
2279.2345492689788
 21
1571.7032776143722
 31
0.0
  0
LINE
  5
FB
330
17
100
AcDbEntity
  8
0
100
AcDbLine
 10
2279.2345492689788
 20
1571.7032776143722
 30
0.0
 11
2279.3025900469133
 21
1571.7467760981885
 31
0.0
  0
LINE
  5
FC
330
17
100
AcDbEntity
  8
0
100
AcDbLine
 10
2279.3025900469133
 20
1571.7467760981885
 30
0.0
 11
2279.375352174792
 21
1571.7829523359312
 31
0.0
  0
LINE
  5
FD
330
17
100
AcDbEntity
  8
0
100
AcDbLine
 10
2279.375352174792
 20
1571.7829523359312
 30
0.0
 11
2279.450773921103
 21
1571.8107282619033
 31
0.0
  0
LINE
  5
FE
330
17
100
AcDbEntity
  8
0
100
AcDbLine
 10
2279.450773921103
 20
1571.8107282619033
 30
0.0
 11
2279.5267935543347
 21
1571.8290258104073
 31
0.0
  0
LINE
  5
FF
330
17
100
AcDbEntity
  8
0
100
AcDbLine
 10
2279.5267935543347
 20
1571.8290258104073
 30
0.0
 11
2279.6034110744868
 21
1571.8378449814438
 31
0.0
  0
LINE
  5
100
330
17
100
AcDbEntity
  8
0
100
AcDbLine
 10
2279.6034110744868
 20
1571.8378449814438
 30
0.0
 11
2279.6806264815586
 21
1571.8371857750126
 31
0.0
  0
LINE
  5
101
330
17
100
AcDbEntity
  8
0
100
AcDbLine
 10
2279.6806264815586
 20
1571.8371857750126
 30
0.0
 11
2279.7587089501335
 21
1571.8277399260003
 31
0.0
  0
LINE
  5
102
330
17
100
AcDbEntity
  8
0
100
AcDbLine
 10
2279.7587089501335
 20
1571.8277399260003
 30
0.0
 11
2279.837927654793
 21
1571.8101991692938
 31
0.0
  0
LINE
  5
103
330
17
100
AcDbEntity
  8
0
100
AcDbLine
 10
2279.837927654793
 20
1571.8101991692938
 30
0.0
 11
2279.918282595537
 21
1571.784563504893
 31
0.0
  0
LINE
  5
104
330
17
100
AcDbEntity
  8
0
100
AcDbLine
 10
2279.918282595537
 20
1571.784563504893
 30
0.0
 11
2279.999773772366
 21
1571.7508329327977
 31
0.0
  0
LINE
  5
105
330
17
100
AcDbEntity
  8
0
100
AcDbLine
 10
2279.999773772366
 20
1571.7508329327977
 30
0.0
 11
2280.0806413076552
 21
1571.709528051229
 31
0.0
  0
LINE
  5
106
330
17
100
AcDbEntity
  8
0
100
AcDbLine
 10
2280.0806413076552
 20
1571.709528051229
 30
0.0
 11
2280.1591253237807
 21
1571.6611694584078
 31
0.0
  0
LINE
  5
107
330
17
100
AcDbEntity
  8
0
100
AcDbLine
 10
2280.1591253237807
 20
1571.6611694584078
 30
0.0
 11
2280.235225820742
 21
1571.6057571543338
 31
0.0
  0
LINE
  5
108
330
17
100
AcDbEntity
  8
0
100
AcDbLine
 10
2280.235225820742
 20
1571.6057571543338
 30
0.0
 11
2280.3089427985387
 21
1571.5432911390071
 31
0.0
  0
LINE
  5
109
330
17
100
AcDbEntity
  8
0
100
AcDbLine
 10
2280.3089427985387
 20
1571.5432911390071
 30
0.0
 11
2280.4616524854346
 21
1571.3848822057223
 31
0.0
  0
LINE
  5
10A
330
17
100
AcDbEntity
  8
0
100
AcDbLine
 10
2280.4616524854346
 20
1571.3848822057223
 30
0.0
 11
2280.575444423119
 21
1571.222978080131
 31
0.0
  0
LINE
  5
10B
330
17
100
AcDbEntity
  8
0
100
AcDbLine
 10
2280.575444423119
 20
1571.222978080131
 30
0.0
 11
2280.650318611592
 21
1571.0575787622338
 31
0.0
  0
LINE
  5
10C
330
17
100
AcDbEntity
  8
0
100
AcDbLine
 10
2280.650318611592
 20
1571.0575787622338
 30
0.0
 11
2280.686275050853
 21
1570.8886842520303
 31
0.0
  0
LINE
  5
10D
330
17
100
AcDbEntity
  8
0
100
AcDbLine
 10
2280.686275050853
 20
1570.8886842520303
 30
0.0
 11
2280.6871531888287
 21
1570.7244732065305
 31
0.0
  0
LINE
  5
10E
330
17
100
AcDbEntity
  8
0
100
AcDbLine
 10
2280.6871531888287
 20
1570.7244732065305
 30
0.0
 11
2280.6567924734445
 21
1570.5731242827446
 31
0.0
  0
LINE
  5
10F
330
17
100
AcDbEntity
  8
0
100
AcDbLine
 10
2280.6567924734445
 20
1570.5731242827446
 30
0.0
 11
2280.595192904701
 21
1570.4346374806728
 31
0.0
  0
LINE
  5
110
330
17
100
AcDbEntity
  8
0
100
AcDbLine
 10
2280.595192904701
 20
1570.4346374806728
 30
0.0
 11
2280.502354482597
 21
1570.3090128003146
 31
0.0
  0
LINE
  5
111
330
17
100
AcDbEntity
  8
0
100
AcDbLine
 10
2280.502354482597
 20
1570.3090128003146
 30
0.0
 11
2280.3879041406126
 21
1570.208097034249
 31
0.0
  0
LINE
  5
112
330
17
100
AcDbEntity
  8
0
100
AcDbLine
 10
2280.3879041406126
 20
1570.208097034249
 30
0.0
 11
2280.2603211101223
 21
1570.1424756669119
 31
0.0
  0
LINE
  5
113
330
17
100
AcDbEntity
  8
0
100
AcDbLine
 10
2280.2603211101223
 20
1570.1424756669119
 30
0.0
 11
2280.1196053911267
 21
1570.112148698303
 31
0.0
  0
LINE
  5
114
330
17
100
AcDbEntity
  8
0
100
AcDbLine
 10
2280.1196053911267
 20
1570.112148698303
 30
0.0
 11
2279.9657569836254
 21
1570.1171161284224
 31
0.0
  0
LINE
  5
115
330
17
100
AcDbEntity
  8
0
100
AcDbLine
 10
2279.9657569836254
 20
1570.1171161284224
 30
0.0
 11
2280.133510966627
 21
1569.9644717486528
 31
0.0
  0
LINE
  5
116
330
17
100
AcDbEntity
  8
0
100
AcDbLine
 10
2279.451370473413
 20
1570.5805605661697
 30
0.0
 11
2279.5671992664475
 21
1570.4826577931829
 31
0.0
  0
LINE
  5
117
330
17
100
AcDbEntity
  8
0
100
AcDbLine
 10
2279.5671992664475
 20
1570.4826577931829
 30
0.0
 11
2279.673775790261
 21
1570.4081605759964
 31
0.0
  0
LINE
  5
118
330
17
100
AcDbEntity
  8
0
100
AcDbLine
 10
2279.673775790261
 20
1570.4081605759964
 30
0.0
 11
2279.7711000448553
 21
1570.3570689146102
 31
0.0
  0
LINE
  5
119
330
17
100
AcDbEntity
  8
0
100
AcDbLine
 10
2279.7711000448553
 20
1570.3570689146102
 30
0.0
 11
2279.859172030229
 21
1570.3293828090245
 31
0.0
  0
LINE
  5
11A
330
17
100
AcDbEntity
  8
0
100
AcDbLine
 10
2279.859172030229
 20
1570.3293828090245
 30
0.0
 11
2279.988956553955
 21
1570.3179236764613
 31
0.0
  0
LINE
  5
11B
330
17
100
AcDbEntity
  8
0
100
AcDbLine
 10
2279.988956553955
 20
1570.3179236764613
 30
0.0
 11
2280.105433614476
 21
1570.3358656790185
 31
0.0
  0
LINE
  5
11C
330
17
100
AcDbEntity
  8
0
100
AcDbLine
 10
2280.105433614476
 20
1570.3358656790185
 30
0.0
 11
2280.2086032117904
 21
1570.3832088166962
 31
0.0
  0
LINE
  5
11D
330
17
100
AcDbEntity
  8
0
100
AcDbLine
 10
2280.2086032117904
 20
1570.3832088166962
 30
0.0
 11
2280.2984653458993
 21
1570.459953089494
 31
0.0
  0
LINE
  5
11E
330
17
100
AcDbEntity
  8
0
100
AcDbLine
 10
2280.2984653458993
 20
1570.459953089494
 30
0.0
 11
2280.3558041105102
 21
1570.5392001202383
 31
0.0
  0
LINE
  5
11F
330
17
100
AcDbEntity
  8
0
100
AcDbLine
 10
2280.3558041105102
 20
1570.5392001202383
 30
0.0
 11
2280.3923915561268
 21
1570.6281068516125
 31
0.0
  0
LINE
  5
120
330
17
100
AcDbEntity
  8
0
100
AcDbLine
 10
2280.3923915561268
 20
1570.6281068516125
 30
0.0
 11
2280.4082276827485
 21
1570.726673283617
 31
0.0
  0
LINE
  5
121
330
17
100
AcDbEntity
  8
0
100
AcDbLine
 10
2280.4082276827485
 20
1570.726673283617
 30
0.0
 11
2280.4033124903754
 21
1570.8348994162511
 31
0.0
  0
LINE
  5
122
330
17
100
AcDbEntity
  8
0
100
AcDbLine
 10
2280.4033124903754
 20
1570.8348994162511
 30
0.0
 11
2280.3739301479263
 21
1570.9483848717703
 31
0.0
  0
LINE
  5
123
330
17
100
AcDbEntity
  8
0
100
AcDbLine
 10
2280.3739301479263
 20
1570.9483848717703
 30
0.0
 11
2280.3163648243194
 21
1571.0627292724291
 31
0.0
  0
LINE
  5
124
330
17
100
AcDbEntity
  8
0
100
AcDbLine
 10
2280.3163648243194
 20
1571.0627292724291
 30
0.0
 11
2280.2306165195546
 21
1571.177932618228
 31
0.0
  0
LINE
  5
125
330
17
100
AcDbEntity
  8
0
100
AcDbLine
 10
2280.2306165195546
 20
1571.177932618228
 30
0.0
 11
2280.1166852336323
 21
1571.2939949091663
 31
0.0
  0
LINE
  5
126
330
17
100
AcDbEntity
  8
0
100
AcDbLine
 10
2280.1166852336323
 20
1571.2939949091663
 30
0.0
 11
2279.988184009526
 21
1571.3990335872413
 31
0.0
  0
LINE
  5
127
330
17
100
AcDbEntity
  8
0
100
AcDbLine
 10
2279.988184009526
 20
1571.3990335872413
 30
0.0
 11
2279.8650324309233
 21
1571.4754275839325
 31
0.0
  0
LINE
  5
128
330
17
100
AcDbEntity
  8
0
100
AcDbLine
 10
2279.8650324309233
 20
1571.4754275839325
 30
0.0
 11
2279.747230497825
 21
1571.5231768992396
 31
0.0
  0
LINE
  5
129
330
17
100
AcDbEntity
  8
0
100
AcDbLine
 10
2279.747230497825
 20
1571.5231768992396
 30
0.0
 11
2279.6347782102303
 21
1571.542281533163
 31
0.0
  0
LINE
  5
12A
330
17
100
AcDbEntity
  8
0
100
AcDbLine
 10
2279.6347782102303
 20
1571.542281533163
 30
0.0
 11
2279.5303303568608
 21
1571.5372427239458
 31
0.0
  0
LINE
  5
12B
330
17
100
AcDbEntity
  8
0
100
AcDbLine
 10
2279.5303303568608
 20
1571.5372427239458
 30
0.0
 11
2279.436541726438
 21
1571.512561709831
 31
0.0
  0
LINE
  5
12C
330
17
100
AcDbEntity
  8
0
100
AcDbLine
 10
2279.436541726438
 20
1571.512561709831
 30
0.0
 11
2279.3534123189615
 21
1571.4682384908192
 31
0.0
  0
LINE
  5
12D
330
17
100
AcDbEntity
  8
0
100
AcDbLine
 10
2279.3534123189615
 20
1571.4682384908192
 30
0.0
 11
2279.280942134432
 21
1571.40427306691
 31
0.0
  0
LINE
  5
12E
330
17
100
AcDbEntity
  8
0
100
AcDbLine
 10
2279.280942134432
 20
1571.40427306691
 30
0.0
 11
2279.223603369821
 21
1571.3250260361658
 31
0.0
  0
LINE
  5
12F
330
17
100
AcDbEntity
  8
0
100
AcDbLine
 10
2279.223603369821
 20
1571.3250260361658
 30
0.0
 11
2279.187015924205
 21
1571.2361193047916
 31
0.0
  0
LINE
  5
130
330
17
100
AcDbEntity
  8
0
100
AcDbLine
 10
2279.187015924205
 20
1571.2361193047916
 30
0.0
 11
2279.171179797583
 21
1571.1375528727872
 31
0.0
  0
LINE
  5
131
330
17
100
AcDbEntity
  8
0
100
AcDbLine
 10
2279.171179797583
 20
1571.1375528727872
 30
0.0
 11
2279.1760949899563
 21
1571.029326740153
 31
0.0
  0
LINE
  5
132
330
17
100
AcDbEntity
  8
0
100
AcDbLine
 10
2279.1760949899563
 20
1571.029326740153
 30
0.0
 11
2279.204767846575
 21
1570.916486867067
 31
0.0
  0
LINE
  5
133
330
17
100
AcDbEntity
  8
0
100
AcDbLine
 10
2279.204767846575
 20
1570.916486867067
 30
0.0
 11
2279.2602047126907
 21
1570.8040792137078
 31
0.0
  0
LINE
  5
134
330
17
100
AcDbEntity
  8
0
100
AcDbLine
 10
2279.2602047126907
 20
1570.8040792137078
 30
0.0
 11
2279.3424055883033
 21
1570.6921037800755
 31
0.0
  0
LINE
  5
135
330
17
100
AcDbEntity
  8
0
100
AcDbLine
 10
2279.3424055883033
 20
1570.6921037800755
 30
0.0
 11
2279.451370473413
 21
1570.5805605661697
 31
0.0
  0
ENDSEC
  0
SECTION
  2
OBJECTS
  0
DICTIONARY
  5
A
330
0
100
AcDbDictionary
280
0
281
1
  3
ACAD_COLOR
350
B
  3
ACAD_GROUP
350
C
  3
ACAD_LAYOUT
350
D
  3
ACAD_MATERIAL
350
E
  3
ACAD_MLEADERSTYLE
350
F
  3
ACAD_MLINESTYLE
350
10
  3
ACAD_PLOTSETTINGS
350
11
  3
ACAD_PLOTSTYLENAME
350
12
  3
ACAD_SCALELIST
350
14
  3
ACAD_TABLESTYLE
350
15
  3
ACAD_VISUALSTYLE
350
16
  3
EZDXF_META
350
2D
  0
DICTIONARY
  5
B
330
A
100
AcDbDictionary
280
0
281
1
  0
DICTIONARY
  5
C
330
A
100
AcDbDictionary
280
0
281
1
  0
DICTIONARY
  5
D
330
A
100
AcDbDictionary
280
0
281
1
  3
Model
350
1A
  3
Layout1
350
1E
  0
DICTIONARY
  5
E
330
A
100
AcDbDictionary
280
0
281
1
  3
ByBlock
350
1F
  3
ByLayer
350
20
  3
Global
350
21
  0
DICTIONARY
  5
F
330
A
100
AcDbDictionary
280
0
281
1
  3
Standard
350
2C
  0
DICTIONARY
  5
10
330
A
100
AcDbDictionary
280
0
281
1
  3
Standard
350
22
  0
DICTIONARY
  5
11
330
A
100
AcDbDictionary
280
0
281
1
  0
ACDBDICTIONARYWDFLT
  5
12
330
A
100
AcDbDictionary
280
0
281
1
  3
Normal
350
13
100
AcDbDictionaryWithDefault
340
13
  0
ACDBPLACEHOLDER
  5
13
330
12
  0
DICTIONARY
  5
14
330
A
100
AcDbDictionary
280
0
281
1
  0
DICTIONARY
  5
15
330
A
100
AcDbDictionary
280
0
281
1
  0
DICTIONARY
  5
16
330
A
100
AcDbDictionary
280
0
281
1
  0
LAYOUT
  5
1A
330
D
100
AcDbPlotSettings
  1

  2
Adobe PDF
  4
A3
  6

 40
7.5
 41
20.0
 42
7.5
 43
20.0
 44
420.0
 45
297.0
 46
0.0
 47
0.0
 48
0.0
 49
0.0
140
0.0
141
0.0
142
1.0
143
1.0
 70
1024
 72
1
 73
0
 74
5
  7

 75
16
 76
0
 77
2
 78
300
147
1.0
148
0.0
149
0.0
100
AcDbLayout
  1
Model
 70
1
 71
0
 10
0.0
 20
0.0
 11
420.0
 21
297.0
 12
0.0
 22
0.0
 32
0.0
 14
1e+20
 24
1e+20
 34
1e+20
 15
-1e+20
 25
-1e+20
 35
-1e+20
146
0.0
 13
0.0
 23
0.0
 33
0.0
 16
1.0
 26
0.0
 36
0.0
 17
0.0
 27
1.0
 37
0.0
 76
1
330
17
  0
LAYOUT
  5
1E
330
D
100
AcDbPlotSettings
  1

  2
Adobe PDF
  4
A3
  6

 40
7.5
 41
20.0
 42
7.5
 43
20.0
 44
420.0
 45
297.0
 46
0.0
 47
0.0
 48
0.0
 49
0.0
140
0.0
141
0.0
142
1.0
143
1.0
 70
0
 72
1
 73
0
 74
5
  7

 75
16
 76
0
 77
2
 78
300
147
1.0
148
0.0
149
0.0
100
AcDbLayout
  1
Layout1
 70
1
 71
1
 10
0.0
 20
0.0
 11
420.0
 21
297.0
 12
0.0
 22
0.0
 32
0.0
 14
1e+20
 24
1e+20
 34
1e+20
 15
-1e+20
 25
-1e+20
 35
-1e+20
146
0.0
 13
0.0
 23
0.0
 33
0.0
 16
1.0
 26
0.0
 36
0.0
 17
0.0
 27
1.0
 37
0.0
 76
1
330
1B
  0
MATERIAL
  5
1F
102
{ACAD_REACTORS
330
E
102
}
330
E
100
AcDbMaterial
  1
ByBlock
  2

 70
0
 40
1.0
 71
1
 41
1.0
 91
-1023410177
 42
1.0
 72
1
  3

 73
1
 74
1
 75
1
 44
0.5
 73
0
 45
1.0
 46
1.0
 77
1
  4

 78
1
 79
1
170
1
 48
1.0
171
1
  6

172
1
173
1
174
1
140
1.0
141
1.0
175
1
  7

176
1
177
1
178
1
143
1.0
179
1
  8

270
1
271
1
272
1
145
1.0
146
1.0
273
1
  9

274
1
275
1
276
1
 42
1.0
 72
1
  3

 73
1
 74
1
 75
1
 94
63
  0
MATERIAL
  5
20
102
{ACAD_REACTORS
330
E
102
}
330
E
100
AcDbMaterial
  1
ByLayer
  2

 70
0
 40
1.0
 71
1
 41
1.0
 91
-1023410177
 42
1.0
 72
1
  3

 73
1
 74
1
 75
1
 44
0.5
 73
0
 45
1.0
 46
1.0
 77
1
  4

 78
1
 79
1
170
1
 48
1.0
171
1
  6

172
1
173
1
174
1
140
1.0
141
1.0
175
1
  7

176
1
177
1
178
1
143
1.0
179
1
  8

270
1
271
1
272
1
145
1.0
146
1.0
273
1
  9

274
1
275
1
276
1
 42
1.0
 72
1
  3

 73
1
 74
1
 75
1
 94
63
  0
MATERIAL
  5
21
102
{ACAD_REACTORS
330
E
102
}
330
E
100
AcDbMaterial
  1
Global
  2

 70
0
 40
1.0
 71
1
 41
1.0
 91
-1023410177
 42
1.0
 72
1
  3

 73
1
 74
1
 75
1
 44
0.5
 73
0
 45
1.0
 46
1.0
 77
1
  4

 78
1
 79
1
170
1
 48
1.0
171
1
  6

172
1
173
1
174
1
140
1.0
141
1.0
175
1
  7

176
1
177
1
178
1
143
1.0
179
1
  8

270
1
271
1
272
1
145
1.0
146
1.0
273
1
  9

274
1
275
1
276
1
 42
1.0
 72
1
  3

 73
1
 74
1
 75
1
 94
63
  0
MLINESTYLE
  5
22
102
{ACAD_REACTORS
330
10
102
}
330
10
100
AcDbMlineStyle
  2
Standard
 70
0
  3

 62
256
 51
90.0
 52
90.0
 71
2
 49
0.5
 62
256
  6
BYLAYER
 49
-0.5
 62
256
  6
BYLAYER
  0
MLEADERSTYLE
  5
2C
102
{ACAD_REACTORS
330
F
102
}
330
F
100
AcDbMLeaderStyle
179
2
170
2
171
1
172
0
 90
2
 40
0.0
 41
0.0
173
1
 91
-1056964608
 92
-2
290
1
 42
2.0
291
1
 43
8.0
  3
Standard
 44
4.0
300

342
29
174
1
175
1
176
0
178
1
 93
-1056964608
 45
4.0
292
0
297
0
 46
4.0
 94
-1056964608
 47
1.0
 49
1.0
140
1.0
294
1
141
0.0
177
0
142
1.0
295
0
296
0
143
3.75
271
0
272
9
273
9
  0
DICTIONARY
  5
2D
330
A
100
AcDbDictionary
281
1
  3
CREATED_BY_EZDXF
350
2E
  3
WRITTEN_BY_EZDXF
350
138
  0
DICTIONARYVAR
  5
2E
330
2D
100
DictionaryVariables
280
0
  1
1.2.0 @ 2024-04-30T06:53:43.225455+00:00
  0
DICTIONARYVAR
  5
138
330
2D
100
DictionaryVariables
280
0
  1
1.2.0 @ 2024-04-30T06:53:43.229455+00:00
  0
ENDSEC
  0
EOF
